<svg width="40" height="41" viewBox="0 0 40 41" fill="none" xmlns="http://www.w3.org/2000/svg">
<g clip-path="url(#clip0_1957_1696)">
<rect x="0.25" width="39.5" height="40.9945" rx="19.75" fill="url(#paint0_linear_1957_1696)" style=""/>
<path d="M28.97 14.6997L20.72 10.1857C20.4996 10.0639 20.2518 10 20 10C19.7482 10 19.5004 10.0639 19.28 10.1857L11.03 14.7016C10.7944 14.8305 10.5977 15.0203 10.4605 15.2512C10.3233 15.4821 10.2506 15.7456 10.25 16.0141V24.9804C10.2506 25.2489 10.3233 25.5124 10.4605 25.7433C10.5977 25.9742 10.7944 26.164 11.03 26.2929L19.28 30.8088C19.5004 30.9306 19.7482 30.9945 20 30.9945C20.2518 30.9945 20.4996 30.9306 20.72 30.8088L28.97 26.2929C29.2056 26.164 29.4023 25.9742 29.5395 25.7433C29.6767 25.5124 29.7494 25.2489 29.75 24.9804V16.0151C29.7499 15.746 29.6774 15.482 29.5402 15.2505C29.403 15.0191 29.206 14.8289 28.97 14.6997ZM20 11.4982L27.5319 15.6232L20 19.7482L12.4681 15.6232L20 11.4982ZM11.75 16.9357L19.25 21.0401V29.0829L11.75 24.9813V16.9357ZM20.75 29.0829V21.0438L28.25 16.9357V24.9776L20.75 29.0829Z" fill="#E7E7E7" style="fill:#E7E7E7;fill:color(display-p3 0.9059 0.9059 0.9059);fill-opacity:1;"/>
<mask id="path-3-inside-1_1957_1696" fill="white">
<path d="M0.25 19.75C0.25 8.84237 9.09238 0 20 0C30.9076 0 39.75 8.84237 39.75 19.75V21.2445C39.75 32.1521 30.9076 40.9945 20 40.9945C9.09238 40.9945 0.25 32.1521 0.25 21.2445V19.75Z"/>
</mask>
<path d="M0.25 18.75C0.25 7.84238 9.09238 -1 20 -1C30.9076 -1 39.75 7.84238 39.75 18.75V19.75C39.75 9.39466 30.9076 1 20 1C9.09238 1 0.25 9.39466 0.25 19.75V18.75ZM39.75 40.9945H0.25H39.75ZM0.25 40.9945V0V40.9945ZM39.75 0V40.9945V0Z" fill="white" fill-opacity="0.12" style="fill:white;fill-opacity:0.12;" mask="url(#path-3-inside-1_1957_1696)"/>
</g>
<defs>
<linearGradient id="paint0_linear_1957_1696" x1="20" y1="0" x2="20" y2="40.9945" gradientUnits="userSpaceOnUse">
<stop stop-color="white" stop-opacity="0" style="stop-color:none;stop-opacity:0;"/>
<stop offset="1" stop-color="white" stop-opacity="0.15" style="stop-color:white;stop-opacity:0.15;"/>
</linearGradient>
<clipPath id="clip0_1957_1696">
<rect x="0.25" width="39.5" height="40.9945" rx="19.75" fill="white" style="fill:white;fill-opacity:1;"/>
</clipPath>
</defs>
</svg>
