<svg id="Layer_1" data-name="Layer 1" xmlns="http://www.w3.org/2000/svg" xmlns:xlink="http://www.w3.org/1999/xlink" width="400" height="400" viewBox="0 0 400 400">
  <defs>
    <style>
      .cls-1 {
        fill: url(#radial-gradient);
      }

      .cls-2 {
        fill: #c1a457;
      }
    </style>
    <radialGradient id="radial-gradient" cx="200" cy="200" r="199" gradientUnits="userSpaceOnUse">
      <stop offset="0" stop-color="#262626"/>
      <stop offset="1"/>
    </radialGradient>
  </defs>
  <g>
    <circle class="cls-1" cx="200" cy="200" r="199"/>
    <path class="cls-2" d="M200,2A197.9,197.9,0,0,1,398,200,197.9,197.9,0,0,1,200,398,197.9,197.9,0,0,1,2,200,197.9,197.9,0,0,1,200,2m0-2A200,200,0,1,0,400,200,199.9,199.9,0,0,0,200,0Z"/>
  </g>
  <g>
    <path class="cls-2" d="M56.3,214.4H91v-6.3H63.5V163.5H56.3Zm98.1.6c13.4,0,21.4-7.8,21.4-22.5v-29h-7v28.7c0,11.3-5.2,16.4-14.3,16.4s-14.3-5.1-14.3-16.4V163.5H133v29C133,207.2,141.1,215,154.4,215Zm110.7-.6-19.2-26.3,17.9-24.6h-7.9l-14.1,19.6-14.2-19.6h-8.2l17.9,24.8-19.1,26.1h8.4l15-21,15.2,21Zm49.1-6.3V191.7h25.4v-6.2H314.2V169.8h28.5v-6.3H306.9v50.9h36.8v-6.3Z"/>
    <path class="cls-2" d="M86.5,236.4h1.2V225.8h4.1v-1.1H82.4v1.1h4.1Zm21.2,0-2.9-4a3.7,3.7,0,0,0,2.7-3.7c0-2.5-1.8-4-4.8-4H98.4v11.7h1.2v-3.7h4.1l2.6,3.8Zm-5-4.8H99.6v-5.8h3.1c2.3,0,3.6,1.1,3.6,2.9S105,231.6,102.7,231.6Zm21,4.8H125l-5.3-11.7h-1.2l-5.3,11.7h1.3l1.4-3.1h6.4Zm-7.4-4.1,2.8-6.3,2.8,6.3Zm23.8-7.6v9.5l-7.5-9.5h-1v11.7h1.2v-9.5l7.5,9.5h1V224.7Zm12.8,11.8c3,0,4.4-1.5,4.4-3.2,0-4.2-7.2-2.3-7.2-5.5,0-1.2,1-2.1,3.1-2.1a6.5,6.5,0,0,1,3.2.9l.4-.9a6.1,6.1,0,0,0-3.6-1.1c-3,0-4.3,1.5-4.3,3.2,0,4.3,7.2,2.4,7.2,5.6,0,1.1-1,2-3.2,2a5.7,5.7,0,0,1-3.8-1.4l-.5,1a6.4,6.4,0,0,0,4.3,1.5Zm19.7-10.7v-1.1h-8v11.7h1.2v-5h6v-1h-6v-4.6Zm12.1,10.7a6,6,0,1,0,0-11.9,5.9,5.9,0,0,0-6.1,6A5.8,5.8,0,0,0,184.7,236.5Zm0-1.1a4.9,4.9,0,1,1,0-9.7,4.9,4.9,0,0,1,0,9.7Zm22.7,1-2.8-4a3.7,3.7,0,0,0,2.7-3.7c0-2.5-1.8-4-4.8-4h-4.3v11.7h1.2v-3.7h4.1l2.6,3.8Zm-4.9-4.8h-3.1v-5.8h3.1c2.3,0,3.5,1.1,3.5,2.9S204.8,231.6,202.5,231.6Zm23.4-6.9-5,8.7-5.1-8.7h-1v11.7H216v-9.3l4.6,7.8h.5l4.6-7.8v9.3h1.2V224.7ZM244,236.4h1.3L240,224.7h-1.2l-5.3,11.7h1.2l1.4-3.1h6.5l1.4,3.1Zm-7.4-4.1,2.8-6.3,2.8,6.3Zm17,4.1h1.2V225.8h4.1v-1.1h-9.4v1.1h4.1Zm11.9,0h1.2V224.7h-1.2Zm14.7.1a6,6,0,1,0,0-11.9,5.9,5.9,0,0,0-6.1,6A5.8,5.8,0,0,0,280.2,236.5Zm0-1.1a4.9,4.9,0,1,1,4.9-4.8A4.8,4.8,0,0,1,280.2,235.4Zm22-10.7v9.5l-7.5-9.5h-1v11.7h1.2v-9.5l7.5,9.5h1V224.7Zm12.9,11.8c2.9,0,4.3-1.5,4.3-3.2,0-4.2-7.2-2.3-7.2-5.5,0-1.2,1-2.1,3.1-2.1a6.5,6.5,0,0,1,3.2.9l.4-.9a6.1,6.1,0,0,0-3.6-1.1c-2.9,0-4.3,1.5-4.3,3.2,0,4.3,7.2,2.4,7.2,5.6,0,1.1-1,2-3.1,2a5.9,5.9,0,0,1-3.9-1.4l-.4,1a6,6,0,0,0,4.3,1.5Z"/>
    <path class="cls-2" d="M329.7,229.8h13.7V231H329.7Z"/>
    <path class="cls-2" d="M58.5,230.2H72.1v1.1H58.5Z"/>
  </g>
</svg>
