<svg width="20" height="21" viewBox="0 0 20 21" fill="none" xmlns="http://www.w3.org/2000/svg">
<path d="M18.3096 15.995C18.3096 16.295 18.243 16.6034 18.1013 16.9034C17.9596 17.2034 17.7763 17.4867 17.5346 17.7534C17.1263 18.2034 16.6763 18.5284 16.168 18.7367C15.668 18.9451 15.1263 19.0534 14.543 19.0534C13.693 19.0534 12.7846 18.8534 11.8263 18.445C10.868 18.0367 9.90964 17.4867 8.95964 16.7951C8.0013 16.0951 7.09297 15.32 6.2263 14.4617C5.36797 13.5951 4.59297 12.6867 3.9013 11.7367C3.21797 10.7867 2.66797 9.83672 2.26797 8.89505C1.86797 7.94505 1.66797 7.03672 1.66797 6.17005C1.66797 5.60338 1.76797 5.06172 1.96797 4.56172C2.16797 4.05339 2.48464 3.58672 2.9263 3.17005C3.45964 2.64505 4.04297 2.38672 4.65964 2.38672C4.89297 2.38672 5.1263 2.43672 5.33464 2.53672C5.5513 2.63672 5.74297 2.78672 5.89297 3.00339L7.8263 5.72839C7.9763 5.93672 8.08464 6.12838 8.15964 6.31172C8.23464 6.48672 8.2763 6.66172 8.2763 6.82005C8.2763 7.02005 8.21797 7.22005 8.1013 7.41172C7.99297 7.60338 7.83464 7.80338 7.63464 8.00338L7.0013 8.66172C6.90964 8.75338 6.86797 8.86172 6.86797 8.99505C6.86797 9.06172 6.8763 9.12005 6.89297 9.18672C6.91797 9.25338 6.94297 9.30338 6.95964 9.35338C7.10964 9.62838 7.36797 9.98672 7.73464 10.4201C8.10964 10.8534 8.50964 11.2951 8.94297 11.7367C9.39297 12.1784 9.8263 12.5867 10.268 12.9617C10.7013 13.3284 11.0596 13.5784 11.343 13.7284C11.3846 13.745 11.4346 13.77 11.493 13.795C11.5596 13.82 11.6263 13.8284 11.7013 13.8284C11.843 13.8284 11.9513 13.7784 12.043 13.6867L12.6763 13.0617C12.8846 12.8534 13.0846 12.6951 13.2763 12.5951C13.468 12.4784 13.6596 12.4201 13.868 12.4201C14.0263 12.4201 14.193 12.4534 14.3763 12.5284C14.5596 12.6034 14.7513 12.7117 14.9596 12.8534L17.718 14.8117C17.9346 14.9617 18.0846 15.1367 18.1763 15.345C18.2596 15.5534 18.3096 15.7617 18.3096 15.995Z" stroke="white" style="stroke:white;stroke-opacity:1;" stroke-width="1.2" stroke-miterlimit="10"/>
<path d="M15.4167 8.2194C15.4167 7.7194 15.025 6.95273 14.4417 6.32773C13.9083 5.75273 13.2 5.30273 12.5 5.30273" stroke="white" style="stroke:white;stroke-opacity:1;" stroke-width="1.2" stroke-linecap="round" stroke-linejoin="round"/>
<path d="M18.3333 8.22005C18.3333 4.99505 15.725 2.38672 12.5 2.38672" stroke="white" style="stroke:white;stroke-opacity:1;" stroke-width="1.2" stroke-linecap="round" stroke-linejoin="round"/>
</svg>
