<svg width="18" height="18" viewBox="0 0 18 18" fill="none" xmlns="http://www.w3.org/2000/svg">
<path d="M14.8737 2.81177C14.1097 2.04004 13.1997 1.42816 12.1967 1.01181C11.1938 0.595464 10.118 0.382985 9.03203 0.386768C4.48203 0.386768 0.773698 4.0951 0.773698 8.6451C0.773698 10.1034 1.15703 11.5201 1.8737 12.7701L0.707031 17.0534L5.08203 15.9034C6.29036 16.5618 7.6487 16.9118 9.03203 16.9118C13.582 16.9118 17.2904 13.2034 17.2904 8.65343C17.2904 6.4451 16.432 4.3701 14.8737 2.81177ZM9.03203 15.5118C7.7987 15.5118 6.59036 15.1784 5.53203 14.5534L5.28203 14.4034L2.68203 15.0868L3.3737 12.5534L3.20703 12.2951C2.52182 11.2009 2.15798 9.93614 2.15703 8.6451C2.15703 4.86177 5.24036 1.77844 9.0237 1.77844C10.857 1.77844 12.582 2.4951 13.8737 3.7951C14.5133 4.43174 15.0201 5.18899 15.3649 6.02296C15.7096 6.85692 15.8854 7.75103 15.882 8.65343C15.8987 12.4368 12.8154 15.5118 9.03203 15.5118ZM12.7987 10.3784C12.5904 10.2784 11.5737 9.77843 11.3904 9.70343C11.1987 9.63677 11.0654 9.60343 10.9237 9.80343C10.782 10.0118 10.3904 10.4784 10.2737 10.6118C10.157 10.7534 10.032 10.7701 9.8237 10.6618C9.61537 10.5618 8.9487 10.3368 8.16536 9.63677C7.5487 9.08677 7.14036 8.41177 7.01536 8.20343C6.8987 7.9951 6.9987 7.88677 7.10703 7.77843C7.1987 7.68677 7.31536 7.53677 7.41537 7.4201C7.51537 7.30343 7.55703 7.21177 7.6237 7.07843C7.69036 6.93677 7.65703 6.8201 7.60703 6.7201C7.55703 6.6201 7.14036 5.60344 6.9737 5.18677C6.80703 4.78677 6.63203 4.83677 6.50703 4.82843H6.10703C5.96536 4.82843 5.7487 4.87843 5.55703 5.08677C5.3737 5.2951 4.84036 5.7951 4.84036 6.81177C4.84036 7.82843 5.58203 8.81177 5.68203 8.9451C5.78203 9.08677 7.14036 11.1701 9.20703 12.0618C9.6987 12.2784 10.082 12.4034 10.382 12.4951C10.8737 12.6534 11.3237 12.6284 11.682 12.5784C12.082 12.5201 12.907 12.0784 13.0737 11.5951C13.2487 11.1118 13.2487 10.7034 13.1904 10.6118C13.132 10.5201 13.007 10.4784 12.7987 10.3784Z" fill="white" style="fill:white;fill-opacity:1;"/>
</svg>
