<svg width="132" height="88" viewBox="0 0 132 88" fill="none" xmlns="http://www.w3.org/2000/svg">
<mask id="path-1-outside-1_366_975" maskUnits="userSpaceOnUse" x="-1" y="-1.60547" width="134" height="91" fill="black">
<rect fill="white" x="-1" y="-1.60547" width="134" height="91"/>
<path d="M33.5564 -0.00547218C50.3564 -0.00547218 66.3164 10.9145 66.3164 31.0745V56.5145C66.3164 76.6745 50.3564 87.5945 33.5564 87.5945C16.8764 87.5945 0.916407 76.6745 0.916407 56.5145V31.0745C0.916407 10.9145 16.8764 -0.00547218 33.5564 -0.00547218ZM33.5564 73.6745C43.2764 73.6745 51.5564 67.0745 51.5564 56.5145V31.0745C51.5564 20.5145 43.2764 13.9145 33.5564 13.9145C23.9564 13.9145 15.6764 20.5145 15.6764 31.0745V56.5145C15.6764 67.0745 23.9564 73.6745 33.5564 73.6745ZM113.23 72.4745H131.71V86.3945H79.8698V72.4745H98.3498V19.0745L81.7898 22.6745V8.03452L113.23 1.19453V72.4745Z"/>
</mask>
<path d="M33.5564 0.994528C41.7486 0.994528 49.6978 3.65808 55.5835 8.73194C61.4509 13.7901 65.3164 21.2825 65.3164 31.0745H67.3164C67.3164 20.7066 63.2019 12.659 56.8893 7.21712C50.595 1.79098 42.1642 -1.00547 33.5564 -1.00547V0.994528ZM65.3164 31.0745V56.5145H67.3164V31.0745H65.3164ZM65.3164 56.5145C65.3164 66.3066 61.4509 73.799 55.5835 78.8571C49.6978 83.931 41.7486 86.5945 33.5564 86.5945V88.5945C42.1642 88.5945 50.595 85.7981 56.8893 80.3719C63.2019 74.9301 67.3164 66.8825 67.3164 56.5145H65.3164ZM33.5564 86.5945C25.4257 86.5945 17.5066 83.9319 11.6353 78.8579C5.78208 73.7996 1.91641 66.3067 1.91641 56.5145H-0.0835934C-0.0835934 66.8824 4.03074 74.9295 10.3275 80.3711C16.6062 85.7972 25.0071 88.5945 33.5564 88.5945V86.5945ZM1.91641 56.5145V31.0745H-0.0835934V56.5145H1.91641ZM1.91641 31.0745C1.91641 21.2824 5.78208 13.7895 11.6353 8.73114C17.5066 3.65715 25.4257 0.994528 33.5564 0.994528V-1.00547C25.0071 -1.00547 16.6062 1.79191 10.3275 7.21791C4.03074 12.6596 -0.0835934 20.7067 -0.0835934 31.0745H1.91641ZM33.5564 74.6745C43.7315 74.6745 52.5564 67.7193 52.5564 56.5145H50.5564C50.5564 66.4298 42.8214 72.6745 33.5564 72.6745V74.6745ZM52.5564 56.5145V31.0745H50.5564V56.5145H52.5564ZM52.5564 31.0745C52.5564 19.8698 43.7315 12.9145 33.5564 12.9145V14.9145C42.8214 14.9145 50.5564 21.1593 50.5564 31.0745H52.5564ZM33.5564 12.9145C23.4968 12.9145 14.6764 19.8739 14.6764 31.0745H16.6764C16.6764 21.1552 24.416 14.9145 33.5564 14.9145V12.9145ZM14.6764 31.0745V56.5145H16.6764V31.0745H14.6764ZM14.6764 56.5145C14.6764 67.7152 23.4968 74.6745 33.5564 74.6745V72.6745C24.416 72.6745 16.6764 66.4339 16.6764 56.5145H14.6764ZM113.23 72.4745H112.23V73.4745H113.23V72.4745ZM131.71 72.4745H132.71V71.4745H131.71V72.4745ZM131.71 86.3945V87.3945H132.71V86.3945H131.71ZM79.8698 86.3945H78.8698V87.3945H79.8698V86.3945ZM79.8698 72.4745V71.4745H78.8698V72.4745H79.8698ZM98.3498 72.4745V73.4745H99.3498V72.4745H98.3498ZM98.3498 19.0745H99.3498V17.8338L98.1374 18.0973L98.3498 19.0745ZM81.7898 22.6745H80.7898V23.9153L82.0023 23.6517L81.7898 22.6745ZM81.7898 8.03452L81.5773 7.05738L80.7898 7.22869V8.03452H81.7898ZM113.23 1.19453H114.23V-0.046423L113.017 0.217384L113.23 1.19453ZM113.23 73.4745H131.71V71.4745H113.23V73.4745ZM130.71 72.4745V86.3945H132.71V72.4745H130.71ZM131.71 85.3945H79.8698V87.3945H131.71V85.3945ZM80.8698 86.3945V72.4745H78.8698V86.3945H80.8698ZM79.8698 73.4745H98.3498V71.4745H79.8698V73.4745ZM99.3498 72.4745V19.0745H97.3498V72.4745H99.3498ZM98.1374 18.0973L81.5774 21.6974L82.0023 23.6517L98.5623 20.0517L98.1374 18.0973ZM82.7898 22.6745V8.03452H80.7898V22.6745H82.7898ZM82.0024 9.01167L113.442 2.17167L113.017 0.217384L81.5773 7.05738L82.0024 9.01167ZM112.23 1.19453V72.4745H114.23V1.19453H112.23Z" fill="#CFCFCF" mask="url(#path-1-outside-1_366_975)"/>
</svg>
