<svg width="139" height="88" viewBox="0 0 139 88" fill="none" xmlns="http://www.w3.org/2000/svg">
<mask id="path-1-outside-1_366_980" maskUnits="userSpaceOnUse" x="-1" y="-1.60547" width="141" height="91" fill="black">
<rect fill="white" x="-1" y="-1.60547" width="141" height="91"/>
<path d="M33.3103 -0.00547218C50.1103 -0.00547218 66.0703 10.9145 66.0703 31.0745V56.5145C66.0703 76.6745 50.1103 87.5945 33.3103 87.5945C16.6303 87.5945 0.670313 76.6745 0.670313 56.5145V31.0745C0.670313 10.9145 16.6303 -0.00547218 33.3103 -0.00547218ZM33.3103 73.6745C43.0303 73.6745 51.3103 67.0745 51.3103 56.5145V31.0745C51.3103 20.5145 43.0303 13.9145 33.3103 13.9145C23.7103 13.9145 15.4303 20.5145 15.4303 31.0745V56.5145C15.4303 67.0745 23.7103 73.6745 33.3103 73.6745ZM138.522 26.9945C138.522 56.1545 93.1622 56.6345 93.1622 72.4745H138.522V86.3945H78.0422V72.4745C78.0422 46.0745 123.642 45.5945 123.642 26.5145C123.642 19.4345 118.242 13.9145 109.722 13.9145C99.7622 13.9145 92.8022 19.5545 92.8022 27.5945H78.0422C78.0422 12.2345 91.7222 -0.00547218 109.842 -0.00547218C126.042 -0.00547218 138.522 10.5545 138.522 26.9945Z"/>
</mask>
<path d="M33.3103 0.994528C41.5025 0.994528 49.4517 3.65808 55.3374 8.73194C61.2048 13.7901 65.0703 21.2825 65.0703 31.0745H67.0703C67.0703 20.7066 62.9558 12.659 56.6432 7.21712C50.3489 1.79098 41.9181 -1.00547 33.3103 -1.00547V0.994528ZM65.0703 31.0745V56.5145H67.0703V31.0745H65.0703ZM65.0703 56.5145C65.0703 66.3066 61.2048 73.799 55.3374 78.8571C49.4517 83.931 41.5025 86.5945 33.3103 86.5945V88.5945C41.9181 88.5945 50.3489 85.7981 56.6432 80.3719C62.9558 74.9301 67.0703 66.8825 67.0703 56.5145H65.0703ZM33.3103 86.5945C25.1796 86.5945 17.2605 83.9319 11.3892 78.8579C5.53598 73.7996 1.67031 66.3067 1.67031 56.5145H-0.329687C-0.329687 66.8824 3.78464 74.9295 10.0815 80.3711C16.3601 85.7972 24.761 88.5945 33.3103 88.5945V86.5945ZM1.67031 56.5145V31.0745H-0.329687V56.5145H1.67031ZM1.67031 31.0745C1.67031 21.2824 5.53598 13.7895 11.3892 8.73114C17.2605 3.65715 25.1796 0.994528 33.3103 0.994528V-1.00547C24.761 -1.00547 16.3601 1.79191 10.0815 7.21791C3.78464 12.6596 -0.329687 20.7067 -0.329687 31.0745H1.67031ZM33.3103 74.6745C43.4854 74.6745 52.3103 67.7193 52.3103 56.5145H50.3103C50.3103 66.4298 42.5753 72.6745 33.3103 72.6745V74.6745ZM52.3103 56.5145V31.0745H50.3103V56.5145H52.3103ZM52.3103 31.0745C52.3103 19.8698 43.4854 12.9145 33.3103 12.9145V14.9145C42.5753 14.9145 50.3103 21.1593 50.3103 31.0745H52.3103ZM33.3103 12.9145C23.2508 12.9145 14.4303 19.8739 14.4303 31.0745H16.4303C16.4303 21.1552 24.1699 14.9145 33.3103 14.9145V12.9145ZM14.4303 31.0745V56.5145H16.4303V31.0745H14.4303ZM14.4303 56.5145C14.4303 67.7152 23.2508 74.6745 33.3103 74.6745V72.6745C24.1699 72.6745 16.4303 66.4339 16.4303 56.5145H14.4303ZM93.1622 72.4745H92.1622V73.4745H93.1622V72.4745ZM138.522 72.4745H139.522V71.4745H138.522V72.4745ZM138.522 86.3945V87.3945H139.522V86.3945H138.522ZM78.0422 86.3945H77.0422V87.3945H78.0422V86.3945ZM92.8022 27.5945V28.5945H93.8022V27.5945H92.8022ZM78.0422 27.5945H77.0422V28.5945H78.0422V27.5945ZM137.522 26.9945C137.522 40.9193 126.75 48.0824 115.39 53.8375C109.805 56.6671 104.018 59.1807 99.7097 61.9447C95.4099 64.7032 92.1622 67.9637 92.1622 72.4745H94.1622C94.1622 69.0654 96.5845 66.3259 100.79 63.6281C104.986 60.9359 110.539 58.537 116.294 55.6216C127.614 49.8867 139.522 42.2298 139.522 26.9945H137.522ZM93.1622 73.4745H138.522V71.4745H93.1622V73.4745ZM137.522 72.4745V86.3945H139.522V72.4745H137.522ZM138.522 85.3945H78.0422V87.3945H138.522V85.3945ZM79.0422 86.3945V72.4745H77.0422V86.3945H79.0422ZM79.0422 72.4745C79.0422 66.2105 81.7299 61.4782 85.8554 57.5644C90.0135 53.6197 95.5929 50.5447 101.296 47.6406C106.941 44.7662 112.749 42.0418 117.109 38.8386C121.488 35.6219 124.642 31.7541 124.642 26.5145H122.642C122.642 30.815 120.097 34.1621 115.925 37.2268C111.735 40.3047 106.143 42.9279 100.388 45.8584C94.6915 48.7594 88.8708 51.9469 84.4789 56.1134C80.0545 60.3108 77.0422 65.5386 77.0422 72.4745H79.0422ZM124.642 26.5145C124.642 22.7113 123.187 19.2929 120.561 16.8301C117.937 14.3688 114.201 12.9145 109.722 12.9145V14.9145C113.763 14.9145 116.987 16.2202 119.193 18.2889C121.397 20.3561 122.642 23.2378 122.642 26.5145H124.642ZM109.722 12.9145C104.56 12.9145 100.094 14.3763 96.8982 16.9621C93.6877 19.5595 91.8022 23.2611 91.8022 27.5945H93.8022C93.8022 23.888 95.3967 20.7495 98.1562 18.517C100.93 16.2728 104.925 14.9145 109.722 14.9145V12.9145ZM92.8022 26.5945H78.0422V28.5945H92.8022V26.5945ZM79.0422 27.5945C79.0422 12.9071 92.146 0.994528 109.842 0.994528V-1.00547C91.2984 -1.00547 77.0422 11.562 77.0422 27.5945H79.0422ZM109.842 0.994528C117.726 0.994528 124.646 3.56271 129.583 8.0682C134.511 12.5654 137.522 19.043 137.522 26.9945H139.522C139.522 18.5061 136.293 11.4837 130.931 6.59085C125.579 1.70634 118.158 -1.00547 109.842 -1.00547V0.994528Z" fill="#CFCFCF" mask="url(#path-1-outside-1_366_980)"/>
</svg>
