<svg width="138" height="88" viewBox="0 0 138 88" fill="none" xmlns="http://www.w3.org/2000/svg">
<mask id="path-1-outside-1_366_985" maskUnits="userSpaceOnUse" x="-1" y="-1.60547" width="140" height="91" fill="black">
<rect fill="white" x="-1" y="-1.60547" width="140" height="91"/>
<path d="M32.6619 -0.00547218C49.4619 -0.00547218 65.4219 10.9145 65.4219 31.0745V56.5145C65.4219 76.6745 49.4619 87.5945 32.6619 87.5945C15.9819 87.5945 0.0218757 76.6745 0.0218757 56.5145V31.0745C0.0218757 10.9145 15.9819 -0.00547218 32.6619 -0.00547218ZM32.6619 73.6745C42.3819 73.6745 50.6619 67.0745 50.6619 56.5145V31.0745C50.6619 20.5145 42.3819 13.9145 32.6619 13.9145C23.0619 13.9145 14.7819 20.5145 14.7819 31.0745V56.5145C14.7819 67.0745 23.0619 73.6745 32.6619 73.6745ZM124.607 41.7545C131.807 45.7145 137.207 52.3145 137.207 61.7945C137.207 75.4745 126.047 87.5945 107.447 87.5945C88.0072 87.5945 75.1672 74.9945 75.1672 59.6345H89.9272C89.9272 69.1145 98.0872 73.6745 106.607 73.6745C116.687 73.6745 122.447 68.3945 122.447 60.8345C122.447 52.4345 115.127 49.3145 105.527 49.3145H99.2872V35.3945H105.527C115.127 35.3945 118.847 30.4745 118.847 25.1945C118.847 18.5945 113.927 13.9145 105.407 13.9145C96.8872 13.9145 89.9272 19.3145 89.9272 27.9545H75.1672C75.1672 12.5945 86.8072 -0.00547218 106.247 -0.00547218C122.447 -0.00547218 133.607 11.5145 133.607 24.3545C133.607 31.9145 130.007 37.7945 124.607 41.7545Z"/>
</mask>
<path d="M32.6619 0.994528C40.8541 0.994528 48.8033 3.65808 54.6889 8.73194C60.5563 13.7901 64.4219 21.2825 64.4219 31.0745H66.4219C66.4219 20.7066 62.3074 12.659 55.9948 7.21712C49.7005 1.79098 41.2697 -1.00547 32.6619 -1.00547V0.994528ZM64.4219 31.0745V56.5145H66.4219V31.0745H64.4219ZM64.4219 56.5145C64.4219 66.3066 60.5563 73.799 54.6889 78.8571C48.8033 83.931 40.8541 86.5945 32.6619 86.5945V88.5945C41.2697 88.5945 49.7005 85.7981 55.9948 80.3719C62.3074 74.9301 66.4219 66.8825 66.4219 56.5145H64.4219ZM32.6619 86.5945C24.5312 86.5945 16.6121 83.9319 10.7407 78.8579C4.88755 73.7996 1.02188 66.3067 1.02188 56.5145H-0.978125C-0.978125 66.8824 3.13621 74.9295 9.43301 80.3711C15.7117 85.7972 24.1125 88.5945 32.6619 88.5945V86.5945ZM1.02188 56.5145V31.0745H-0.978125V56.5145H1.02188ZM1.02188 31.0745C1.02188 21.2824 4.88755 13.7895 10.7407 8.73114C16.6121 3.65715 24.5312 0.994528 32.6619 0.994528V-1.00547C24.1125 -1.00547 15.7117 1.79191 9.43301 7.21791C3.13621 12.6596 -0.978125 20.7067 -0.978125 31.0745H1.02188ZM32.6619 74.6745C42.8369 74.6745 51.6619 67.7193 51.6619 56.5145H49.6619C49.6619 66.4298 41.9268 72.6745 32.6619 72.6745V74.6745ZM51.6619 56.5145V31.0745H49.6619V56.5145H51.6619ZM51.6619 31.0745C51.6619 19.8698 42.8369 12.9145 32.6619 12.9145V14.9145C41.9268 14.9145 49.6619 21.1593 49.6619 31.0745H51.6619ZM32.6619 12.9145C22.6023 12.9145 13.7819 19.8739 13.7819 31.0745H15.7819C15.7819 21.1552 23.5214 14.9145 32.6619 14.9145V12.9145ZM13.7819 31.0745V56.5145H15.7819V31.0745H13.7819ZM13.7819 56.5145C13.7819 67.7152 22.6023 74.6745 32.6619 74.6745V72.6745C23.5214 72.6745 15.7819 66.4339 15.7819 56.5145H13.7819ZM124.607 41.7545L124.016 40.9481L122.752 41.8752L124.125 42.6307L124.607 41.7545ZM75.1672 59.6345V58.6345H74.1672V59.6345H75.1672ZM89.9272 59.6345H90.9272V58.6345H89.9272V59.6345ZM99.2872 49.3145H98.2872V50.3145H99.2872V49.3145ZM99.2872 35.3945V34.3945H98.2872V35.3945H99.2872ZM89.9272 27.9545V28.9545H90.9272V27.9545H89.9272ZM75.1672 27.9545H74.1672V28.9545H75.1672V27.9545ZM124.125 42.6307C131.092 46.4622 136.207 52.7677 136.207 61.7945H138.207C138.207 51.8613 132.523 44.9668 125.089 40.8783L124.125 42.6307ZM136.207 61.7945C136.207 74.8519 125.568 86.5945 107.447 86.5945V88.5945C126.526 88.5945 138.207 76.0972 138.207 61.7945H136.207ZM107.447 86.5945C88.4566 86.5945 76.1672 74.3447 76.1672 59.6345H74.1672C74.1672 75.6444 87.5578 88.5945 107.447 88.5945V86.5945ZM75.1672 60.6345H89.9272V58.6345H75.1672V60.6345ZM88.9272 59.6345C88.9272 64.7009 91.1249 68.5031 94.4728 71.01C97.7892 73.4933 102.185 74.6745 106.607 74.6745V72.6745C102.51 72.6745 98.5651 71.5758 95.6716 69.4091C92.8095 67.266 90.9272 64.0481 90.9272 59.6345H88.9272ZM106.607 74.6745C111.814 74.6745 116.023 73.3106 118.95 70.8557C121.894 68.3862 123.447 64.887 123.447 60.8345H121.447C121.447 64.3421 120.121 67.2628 117.664 69.3234C115.191 71.3985 111.481 72.6745 106.607 72.6745V74.6745ZM123.447 60.8345C123.447 56.2806 121.431 53.0777 118.104 51.0685C114.849 49.1025 110.406 48.3145 105.527 48.3145V50.3145C110.248 50.3145 114.266 51.0866 117.07 52.7805C119.804 54.4314 121.447 56.9884 121.447 60.8345H123.447ZM105.527 48.3145H99.2872V50.3145H105.527V48.3145ZM100.287 49.3145V35.3945H98.2872V49.3145H100.287ZM99.2872 36.3945H105.527V34.3945H99.2872V36.3945ZM105.527 36.3945C110.491 36.3945 114.085 35.1216 116.451 33.0225C118.826 30.9149 119.847 28.0756 119.847 25.1945H117.847C117.847 27.5935 117.008 29.8542 115.123 31.5265C113.229 33.2075 110.164 34.3945 105.527 34.3945V36.3945ZM119.847 25.1945C119.847 21.6311 118.511 18.5262 115.978 16.3248C113.459 14.1345 109.845 12.9145 105.407 12.9145V14.9145C109.489 14.9145 112.596 16.0346 114.666 17.8342C116.724 19.6229 117.847 22.158 117.847 25.1945H119.847ZM105.407 12.9145C96.4744 12.9145 88.9272 18.6323 88.9272 27.9545H90.9272C90.9272 19.9967 97.2999 14.9145 105.407 14.9145V12.9145ZM89.9272 26.9545H75.1672V28.9545H89.9272V26.9545ZM76.1672 27.9545C76.1672 20.5338 78.9751 13.8109 84.1057 8.93973C89.2357 4.06915 96.748 0.994528 106.247 0.994528V-1.00547C96.3064 -1.00547 88.2787 2.21991 82.7287 7.48933C77.1792 12.7582 74.1672 20.0152 74.1672 27.9545H76.1672ZM106.247 0.994528C121.963 0.994528 132.607 12.1325 132.607 24.3545H134.607C134.607 10.8966 122.931 -1.00547 106.247 -1.00547V0.994528ZM132.607 24.3545C132.607 31.5566 129.192 37.1519 124.016 40.9481L125.199 42.5609C130.822 38.4371 134.607 32.2724 134.607 24.3545H132.607Z" fill="#CFCFCF" mask="url(#path-1-outside-1_366_985)"/>
</svg>
