<svg width="147" height="88" viewBox="0 0 147 88" fill="none" xmlns="http://www.w3.org/2000/svg">
<mask id="path-1-outside-1_366_990" maskUnits="userSpaceOnUse" x="-1" y="-1.60547" width="149" height="91" fill="black">
<rect fill="white" x="-1" y="-1.60547" width="149" height="91"/>
<path d="M33.4392 -0.00547218C50.2392 -0.00547218 66.1992 10.9145 66.1992 31.0745V56.5145C66.1992 76.6745 50.2392 87.5945 33.4392 87.5945C16.7592 87.5945 0.799219 76.6745 0.799219 56.5145V31.0745C0.799219 10.9145 16.7592 -0.00547218 33.4392 -0.00547218ZM33.4392 73.6745C43.1592 73.6745 51.4392 67.0745 51.4392 56.5145V31.0745C51.4392 20.5145 43.1592 13.9145 33.4392 13.9145C23.8392 13.9145 15.5592 20.5145 15.5592 31.0745V56.5145C15.5592 67.0745 23.8392 73.6745 33.4392 73.6745ZM146.803 55.7945V69.8345H134.563V86.3945H119.803V69.8345H76.1227V55.7945L119.803 1.19453H134.563V55.7945H146.803ZM94.8427 55.7945H119.803V23.7545L94.8427 55.7945Z"/>
</mask>
<path d="M33.4392 0.994528C41.6314 0.994528 49.5806 3.65808 55.4663 8.73194C61.3337 13.7901 65.1992 21.2825 65.1992 31.0745H67.1992C67.1992 20.7066 63.0848 12.659 56.7722 7.21712C50.4778 1.79098 42.047 -1.00547 33.4392 -1.00547V0.994528ZM65.1992 31.0745V56.5145H67.1992V31.0745H65.1992ZM65.1992 56.5145C65.1992 66.3066 61.3337 73.799 55.4663 78.8571C49.5806 83.931 41.6314 86.5945 33.4392 86.5945V88.5945C42.047 88.5945 50.4778 85.7981 56.7722 80.3719C63.0848 74.9301 67.1992 66.8825 67.1992 56.5145H65.1992ZM33.4392 86.5945C25.3086 86.5945 17.3894 83.9319 11.5181 78.8579C5.66489 73.7996 1.79922 66.3067 1.79922 56.5145H-0.200781C-0.200781 66.8824 3.91355 74.9295 10.2104 80.3711C16.489 85.7972 24.8899 88.5945 33.4392 88.5945V86.5945ZM1.79922 56.5145V31.0745H-0.200781V56.5145H1.79922ZM1.79922 31.0745C1.79922 21.2824 5.66489 13.7895 11.5181 8.73114C17.3894 3.65715 25.3086 0.994528 33.4392 0.994528V-1.00547C24.8899 -1.00547 16.489 1.79191 10.2104 7.21791C3.91355 12.6596 -0.200781 20.7067 -0.200781 31.0745H1.79922ZM33.4392 74.6745C43.6143 74.6745 52.4392 67.7193 52.4392 56.5145H50.4392C50.4392 66.4298 42.7042 72.6745 33.4392 72.6745V74.6745ZM52.4392 56.5145V31.0745H50.4392V56.5145H52.4392ZM52.4392 31.0745C52.4392 19.8698 43.6143 12.9145 33.4392 12.9145V14.9145C42.7042 14.9145 50.4392 21.1593 50.4392 31.0745H52.4392ZM33.4392 12.9145C23.3797 12.9145 14.5592 19.8739 14.5592 31.0745H16.5592C16.5592 21.1552 24.2988 14.9145 33.4392 14.9145V12.9145ZM14.5592 31.0745V56.5145H16.5592V31.0745H14.5592ZM14.5592 56.5145C14.5592 67.7152 23.3797 74.6745 33.4392 74.6745V72.6745C24.2988 72.6745 16.5592 66.4339 16.5592 56.5145H14.5592ZM146.803 55.7945H147.803V54.7945H146.803V55.7945ZM146.803 69.8345V70.8345H147.803V69.8345H146.803ZM134.563 69.8345V68.8345H133.563V69.8345H134.563ZM134.563 86.3945V87.3945H135.563V86.3945H134.563ZM119.803 86.3945H118.803V87.3945H119.803V86.3945ZM119.803 69.8345H120.803V68.8345H119.803V69.8345ZM76.1227 69.8345H75.1227V70.8345H76.1227V69.8345ZM76.1227 55.7945L75.3418 55.1698L75.1227 55.4437V55.7945H76.1227ZM119.803 1.19453V0.194527H119.322L119.022 0.569832L119.803 1.19453ZM134.563 1.19453H135.563V0.194527H134.563V1.19453ZM134.563 55.7945H133.563V56.7945H134.563V55.7945ZM94.8427 55.7945L94.0538 55.18L92.796 56.7945H94.8427V55.7945ZM119.803 55.7945V56.7945H120.803V55.7945H119.803ZM119.803 23.7545H120.803V20.8437L119.014 23.14L119.803 23.7545ZM145.803 55.7945V69.8345H147.803V55.7945H145.803ZM146.803 68.8345H134.563V70.8345H146.803V68.8345ZM133.563 69.8345V86.3945H135.563V69.8345H133.563ZM134.563 85.3945H119.803V87.3945H134.563V85.3945ZM120.803 86.3945V69.8345H118.803V86.3945H120.803ZM119.803 68.8345H76.1227V70.8345H119.803V68.8345ZM77.1227 69.8345V55.7945H75.1227V69.8345H77.1227ZM76.9035 56.4192L120.584 1.81922L119.022 0.569832L75.3418 55.1698L76.9035 56.4192ZM119.803 2.19453H134.563V0.194527H119.803V2.19453ZM133.563 1.19453V55.7945H135.563V1.19453H133.563ZM134.563 56.7945H146.803V54.7945H134.563V56.7945ZM94.8427 56.7945H119.803V54.7945H94.8427V56.7945ZM120.803 55.7945V23.7545H118.803V55.7945H120.803ZM119.014 23.14L94.0538 55.18L95.6315 56.4091L120.592 24.3691L119.014 23.14Z" fill="#CFCFCF" mask="url(#path-1-outside-1_366_990)"/>
</svg>
