<svg width="147" height="88" viewBox="0 0 147 88" fill="none" xmlns="http://www.w3.org/2000/svg">
<mask id="path-1-outside-1_366_995" maskUnits="userSpaceOnUse" x="-1" y="-1.60547" width="149" height="91" fill="black">
<rect fill="white" x="-1" y="-1.60547" width="149" height="91"/>
<path d="M33.5603 -0.00547218C50.3603 -0.00547218 66.3203 10.9145 66.3203 31.0745V56.5145C66.3203 76.6745 50.3603 87.5945 33.5603 87.5945C16.8803 87.5945 0.920313 76.6745 0.920313 56.5145V31.0745C0.920313 10.9145 16.8803 -0.00547218 33.5603 -0.00547218ZM33.5603 73.6745C43.2803 73.6745 51.5603 67.0745 51.5603 56.5145V31.0745C51.5603 20.5145 43.2803 13.9145 33.5603 13.9145C23.9603 13.9145 15.6803 20.5145 15.6803 31.0745V56.5145C15.6803 67.0745 23.9603 73.6745 33.5603 73.6745ZM118.349 28.5545C133.829 28.5545 146.309 40.1945 146.309 57.9545C146.309 73.6745 133.949 87.5945 115.349 87.5945C95.9088 87.5945 84.2688 74.1545 84.2688 59.6345H99.0288C99.3888 66.8345 105.749 72.8345 115.109 72.8345C124.109 72.8345 131.549 66.7145 131.549 57.2345C131.549 47.3945 124.349 41.6345 115.109 41.6345C108.989 41.6345 102.029 44.6345 99.6288 50.8745H85.1088L92.6688 1.19453H140.309V15.1145H105.029L102.509 32.0345C107.069 29.7545 112.469 28.5545 118.349 28.5545Z"/>
</mask>
<path d="M33.5603 0.994528C41.7525 0.994528 49.7017 3.65808 55.5874 8.73194C61.4548 13.7901 65.3203 21.2825 65.3203 31.0745H67.3203C67.3203 20.7066 63.2058 12.659 56.8932 7.21712C50.5989 1.79098 42.1681 -1.00547 33.5603 -1.00547V0.994528ZM65.3203 31.0745V56.5145H67.3203V31.0745H65.3203ZM65.3203 56.5145C65.3203 66.3066 61.4548 73.799 55.5874 78.8571C49.7017 83.931 41.7525 86.5945 33.5603 86.5945V88.5945C42.1681 88.5945 50.5989 85.7981 56.8932 80.3719C63.2058 74.9301 67.3203 66.8825 67.3203 56.5145H65.3203ZM33.5603 86.5945C25.4296 86.5945 17.5105 83.9319 11.6392 78.8579C5.78598 73.7996 1.92031 66.3067 1.92031 56.5145H-0.0796871C-0.0796871 66.8824 4.03464 74.9295 10.3315 80.3711C16.6101 85.7972 25.011 88.5945 33.5603 88.5945V86.5945ZM1.92031 56.5145V31.0745H-0.0796871V56.5145H1.92031ZM1.92031 31.0745C1.92031 21.2824 5.78598 13.7895 11.6392 8.73114C17.5105 3.65715 25.4296 0.994528 33.5603 0.994528V-1.00547C25.011 -1.00547 16.6101 1.79191 10.3315 7.21791C4.03464 12.6596 -0.0796871 20.7067 -0.0796871 31.0745H1.92031ZM33.5603 74.6745C43.7354 74.6745 52.5603 67.7193 52.5603 56.5145H50.5603C50.5603 66.4298 42.8253 72.6745 33.5603 72.6745V74.6745ZM52.5603 56.5145V31.0745H50.5603V56.5145H52.5603ZM52.5603 31.0745C52.5603 19.8698 43.7354 12.9145 33.5603 12.9145V14.9145C42.8253 14.9145 50.5603 21.1593 50.5603 31.0745H52.5603ZM33.5603 12.9145C23.5008 12.9145 14.6803 19.8739 14.6803 31.0745H16.6803C16.6803 21.1552 24.4199 14.9145 33.5603 14.9145V12.9145ZM14.6803 31.0745V56.5145H16.6803V31.0745H14.6803ZM14.6803 56.5145C14.6803 67.7152 23.5008 74.6745 33.5603 74.6745V72.6745C24.4199 72.6745 16.6803 66.4339 16.6803 56.5145H14.6803ZM84.2688 59.6345V58.6345H83.2688V59.6345H84.2688ZM99.0288 59.6345L100.028 59.5846L99.98 58.6345H99.0288V59.6345ZM99.6288 50.8745V51.8745H100.316L100.562 51.2335L99.6288 50.8745ZM85.1087 50.8745L84.1201 50.7241L83.9451 51.8745H85.1087V50.8745ZM92.6688 1.19453V0.194527H91.8094L91.6801 1.04408L92.6688 1.19453ZM140.309 1.19453H141.309V0.194527H140.309V1.19453ZM140.309 15.1145V16.1145H141.309V15.1145H140.309ZM105.029 15.1145V14.1145H104.167L104.04 14.9672L105.029 15.1145ZM102.509 32.0345L101.52 31.8872L101.236 33.7887L102.956 32.929L102.509 32.0345ZM118.349 29.5545C133.263 29.5545 145.309 40.7329 145.309 57.9545H147.309C147.309 39.6562 134.395 27.5545 118.349 27.5545V29.5545ZM145.309 57.9545C145.309 73.1275 133.391 86.5945 115.349 86.5945V88.5945C134.506 88.5945 147.309 74.2216 147.309 57.9545H145.309ZM115.349 86.5945C96.4312 86.5945 85.2688 73.5729 85.2688 59.6345H83.2688C83.2688 74.7362 95.3863 88.5945 115.349 88.5945V86.5945ZM84.2688 60.6345H99.0288V58.6345H84.2688V60.6345ZM98.03 59.6845C98.4213 67.5108 105.315 73.8345 115.109 73.8345V71.8345C106.182 71.8345 100.356 66.1583 100.028 59.5846L98.03 59.6845ZM115.109 73.8345C124.57 73.8345 132.549 67.3539 132.549 57.2345H130.549C130.549 66.0751 123.648 71.8345 115.109 71.8345V73.8345ZM132.549 57.2345C132.549 52.0545 130.645 47.8769 127.464 45.0025C124.295 42.1393 119.933 40.6345 115.109 40.6345V42.6345C119.525 42.6345 123.382 44.0097 126.123 46.4865C128.852 48.9522 130.549 52.5745 130.549 57.2345H132.549ZM115.109 40.6345C108.753 40.6345 101.299 43.7465 98.6954 50.5155L100.562 51.2335C102.759 45.5226 109.225 42.6345 115.109 42.6345V40.6345ZM99.6288 49.8745H85.1087V51.8745H99.6288V49.8745ZM86.0974 51.025L93.6574 1.34497L91.6801 1.04408L84.1201 50.7241L86.0974 51.025ZM92.6688 2.19453H140.309V0.194527H92.6688V2.19453ZM139.309 1.19453V15.1145H141.309V1.19453H139.309ZM140.309 14.1145H105.029V16.1145H140.309V14.1145ZM104.04 14.9672L101.52 31.8872L103.498 32.1818L106.018 15.2618L104.04 14.9672ZM102.956 32.929C107.359 30.7273 112.603 29.5545 118.349 29.5545V27.5545C112.335 27.5545 106.778 28.7818 102.062 31.1401L102.956 32.929Z" fill="#CFCFCF" mask="url(#path-1-outside-1_366_995)"/>
</svg>
