<svg width="139" height="88" viewBox="0 0 139 88" fill="none" xmlns="http://www.w3.org/2000/svg">
<mask id="path-1-outside-1_366_1000" maskUnits="userSpaceOnUse" x="-1" y="-1.60547" width="141" height="91" fill="black">
<rect fill="white" x="-1" y="-1.60547" width="141" height="91"/>
<path d="M33.3416 -0.00547218C50.1416 -0.00547218 66.1016 10.9145 66.1016 31.0745V56.5145C66.1016 76.6745 50.1416 87.5945 33.3416 87.5945C16.6616 87.5945 0.701563 76.6745 0.701563 56.5145V31.0745C0.701563 10.9145 16.6616 -0.00547218 33.3416 -0.00547218ZM33.3416 73.6745C43.0616 73.6745 51.3416 67.0745 51.3416 56.5145V31.0745C51.3416 20.5145 43.0616 13.9145 33.3416 13.9145C23.7416 13.9145 15.4616 20.5145 15.4616 31.0745V56.5145C15.4616 67.0745 23.7416 73.6745 33.3416 73.6745ZM107.427 28.7945C125.427 28.7945 138.267 42.5945 138.267 58.1945C138.267 73.9145 125.427 87.5945 107.427 87.5945C89.0666 87.5945 76.2266 73.9145 76.2266 58.1945C76.2266 52.3145 78.0266 46.7945 81.2666 42.1145L107.787 1.19453H124.827L106.227 28.7945H107.427ZM107.427 73.6745C116.907 73.6745 123.507 66.2345 123.507 58.1945C123.507 50.1545 116.907 42.7145 107.427 42.7145C97.5866 42.7145 90.9866 50.1545 90.9866 58.1945C90.9866 66.2345 97.5866 73.6745 107.427 73.6745Z"/>
</mask>
<path d="M33.3416 0.994528C41.5338 0.994528 49.4829 3.65808 55.3686 8.73194C61.236 13.7901 65.1016 21.2825 65.1016 31.0745H67.1016C67.1016 20.7066 62.9871 12.659 56.6745 7.21712C50.3802 1.79098 41.9494 -1.00547 33.3416 -1.00547V0.994528ZM65.1016 31.0745V56.5145H67.1016V31.0745H65.1016ZM65.1016 56.5145C65.1016 66.3066 61.236 73.799 55.3686 78.8571C49.4829 83.931 41.5338 86.5945 33.3416 86.5945V88.5945C41.9494 88.5945 50.3802 85.7981 56.6745 80.3719C62.9871 74.9301 67.1016 66.8825 67.1016 56.5145H65.1016ZM33.3416 86.5945C25.2109 86.5945 17.2918 83.9319 11.4204 78.8579C5.56723 73.7996 1.70156 66.3067 1.70156 56.5145H-0.298437C-0.298437 66.8824 3.81589 74.9295 10.1127 80.3711C16.3914 85.7972 24.7922 88.5945 33.3416 88.5945V86.5945ZM1.70156 56.5145V31.0745H-0.298437V56.5145H1.70156ZM1.70156 31.0745C1.70156 21.2824 5.56723 13.7895 11.4204 8.73114C17.2918 3.65715 25.2109 0.994528 33.3416 0.994528V-1.00547C24.7922 -1.00547 16.3914 1.79191 10.1127 7.21791C3.81589 12.6596 -0.298437 20.7067 -0.298437 31.0745H1.70156ZM33.3416 74.6745C43.5166 74.6745 52.3416 67.7193 52.3416 56.5145H50.3416C50.3416 66.4298 42.6065 72.6745 33.3416 72.6745V74.6745ZM52.3416 56.5145V31.0745H50.3416V56.5145H52.3416ZM52.3416 31.0745C52.3416 19.8698 43.5166 12.9145 33.3416 12.9145V14.9145C42.6065 14.9145 50.3416 21.1593 50.3416 31.0745H52.3416ZM33.3416 12.9145C23.282 12.9145 14.4616 19.8739 14.4616 31.0745H16.4616C16.4616 21.1552 24.2011 14.9145 33.3416 14.9145V12.9145ZM14.4616 31.0745V56.5145H16.4616V31.0745H14.4616ZM14.4616 56.5145C14.4616 67.7152 23.282 74.6745 33.3416 74.6745V72.6745C24.2011 72.6745 16.4616 66.4339 16.4616 56.5145H14.4616ZM81.2666 42.1145L82.0888 42.6837L82.0974 42.6712L82.1057 42.6584L81.2666 42.1145ZM107.787 1.19453V0.194527H107.243L106.947 0.650663L107.787 1.19453ZM124.827 1.19453L125.656 1.75338L126.706 0.194527H124.827V1.19453ZM106.227 28.7945L105.397 28.2357L104.347 29.7945H106.227V28.7945ZM107.427 29.7945C124.885 29.7945 137.267 43.1572 137.267 58.1945H139.267C139.267 42.0319 125.968 27.7945 107.427 27.7945V29.7945ZM137.267 58.1945C137.267 73.3493 124.887 86.5945 107.427 86.5945V88.5945C125.966 88.5945 139.267 74.4798 139.267 58.1945H137.267ZM107.427 86.5945C89.598 86.5945 77.2266 73.3416 77.2266 58.1945H75.2266C75.2266 74.4875 88.5352 88.5945 107.427 88.5945V86.5945ZM77.2266 58.1945C77.2266 52.5234 78.9614 47.201 82.0888 42.6837L80.4444 41.5453C77.0917 46.388 75.2266 52.1057 75.2266 58.1945H77.2266ZM82.1057 42.6584L108.626 1.73839L106.947 0.650663L80.4274 41.5707L82.1057 42.6584ZM107.787 2.19453H124.827V0.194527H107.787V2.19453ZM123.997 0.635674L105.397 28.2357L107.056 29.3534L125.656 1.75338L123.997 0.635674ZM106.227 29.7945H107.427V27.7945H106.227V29.7945ZM107.427 74.6745C117.469 74.6745 124.507 66.7769 124.507 58.1945H122.507C122.507 65.6922 116.344 72.6745 107.427 72.6745V74.6745ZM124.507 58.1945C124.507 49.6122 117.469 41.7145 107.427 41.7145V43.7145C116.344 43.7145 122.507 50.6969 122.507 58.1945H124.507ZM107.427 41.7145C97.0392 41.7145 89.9866 49.5973 89.9866 58.1945H91.9866C91.9866 50.7117 98.1339 43.7145 107.427 43.7145V41.7145ZM89.9866 58.1945C89.9866 66.7917 97.0392 74.6745 107.427 74.6745V72.6745C98.1339 72.6745 91.9866 65.6773 91.9866 58.1945H89.9866Z" fill="#CFCFCF" mask="url(#path-1-outside-1_366_1000)"/>
</svg>
