<!-- <svg width="30" height="61" viewBox="0 0 30 61" fill="none" xmlns="http://www.w3.org/2000/svg">
            <g clip-path="url(#clip0_1490_325)">
                <path class="lineA" d="M5.07849 34.5V35" stroke="#EEEEF2" strokeWidth="2" data-original="M5.07849 11V60"></path>
                <path class="lineB" d="M21 30H9" stroke="#EEEEF2" strokeWidth="2" data-original="M15.0785 16V45"></path>
                <path class="lineC" d="M25.0784 25V25.5" stroke="#EEEEF2" strokeWidth="2" data-original="M25.0784 1V50"></path>
                <path class="pointA" fillRule="evenodd" clipRule="evenodd" d="M5.07843 35L9 32.4482L9 27.6127L5.07843 25L1.07843 27.6127L1 32.4482L5.07843 35Z" stroke="#EEEEF2" strokeWidth="2" data-original="M5.07843 11L9 8.4482L9 3.61273L5.07843 1L1.07843 3.61273L1 8.4482L5.07843 11Z"></path>
                <path class="pointB" fillRule="evenodd" clipRule="evenodd" d="M25.0784 35L29 32.4482V27.6127L25.0784 25L21.0784 27.6127L21 32.4482L25.0784 35Z" stroke="#EEEEF2" strokeWidth="2" data-original="M25.0784 60L29 57.4482V52.6127L25.0784 50L21.0784 52.6127L21 57.4482L25.0784 60Z"></path>
            </g>
        </svg> -->


        <svg width="30" height="61" viewBox="0 0 30 61" fill="none" xmlns="http://www.w3.org/2000/svg">
    <g clip-path="url(#clip0_1490_325)">
        <path class="lineA" d="M5.07849 34.5V35" stroke="#000000" strokeWidth="2" data-original="M5.07849 11V60"></path>
        <path class="lineB" d="M21 30H9" stroke="#000000" strokeWidth="2" data-original="M15.0785 16V45"></path>
        <path class="lineC" d="M25.0784 25V25.5" stroke="#000000" strokeWidth="2" data-original="M25.0784 1V50"></path>
        <path class="pointA" fillRule="evenodd" clipRule="evenodd" d="M5.07843 35L9 32.4482L9 27.6127L5.07843 25L1.07843 27.6127L1 32.4482L5.07843 35Z" stroke="#000000" strokeWidth="2" data-original="M5.07843 11L9 8.4482L9 3.61273L5.07843 1L1.07843 3.61273L1 8.4482L5.07843 11Z"></path>
        <path class="pointB" fillRule="evenodd" clipRule="evenodd" d="M25.0784 35L29 32.4482V27.6127L25.0784 25L21.0784 27.6127L21 32.4482L25.0784 35Z" stroke="#000000" strokeWidth="2" data-original="M25.0784 60L29 57.4482V52.6127L25.0784 50L21.0784 52.6127L21 57.4482L25.0784 60Z"></path>
    </g>
</svg>
