<svg width="40" height="41" viewBox="0 0 40 41" fill="none" xmlns="http://www.w3.org/2000/svg">
<path d="M20 1.46953C22.5147 1.46567 25.0043 1.96904 27.32 2.94953C31.8212 4.86405 35.4055 8.4483 37.32 12.9495C38.2969 15.2663 38.8002 17.7552 38.8002 20.2695C38.8002 22.7839 38.2969 25.2727 37.32 27.5895C35.4055 32.0908 31.8212 35.675 27.32 37.5895C25.0032 38.5664 22.5143 39.0697 20 39.0697C17.4857 39.0697 14.9968 38.5664 12.68 37.5895C8.17878 35.675 4.59453 32.0908 2.68001 27.5895C1.70311 25.2727 1.19982 22.7839 1.19982 20.2695C1.19982 17.7552 1.70311 15.2663 2.68001 12.9495C4.59453 8.4483 8.17878 4.86405 12.68 2.94953C14.9957 1.96904 17.4853 1.46567 20 1.46953ZM20 0.269534C16.0444 0.269534 12.1776 1.44251 8.8886 3.64014C5.59962 5.83777 3.03617 8.96134 1.52242 12.6159C0.00866565 16.2704 -0.387401 20.2917 0.384303 24.1713C1.15601 28.051 3.06082 31.6146 5.85787 34.4117C8.65492 37.2087 12.2186 39.1135 16.0982 39.8852C19.9778 40.6569 23.9991 40.2609 27.6537 38.7471C31.3082 37.2334 34.4318 34.6699 36.6294 31.3809C38.827 28.0919 40 24.2252 40 20.2695C40.0013 17.6427 39.4849 15.0414 38.4803 12.6143C37.4756 10.1872 36.0025 7.9819 34.1451 6.12447C32.2876 4.26703 30.0823 2.79389 27.6552 1.78927C25.2281 0.784637 22.6268 0.268219 20 0.269534Z" fill="white"/>
<path d="M21.1787 21.2798H22.8487L23.5287 18.5898H21.1787V17.2498C21.1787 16.5598 21.1787 15.8998 22.5187 15.8998H23.5287V13.6498C22.891 13.5825 22.2501 13.5491 21.6087 13.5498C19.7788 13.5498 18.4887 14.6698 18.4887 16.7098V18.5898H16.4688V21.2798H18.4887V26.9898H21.1787V21.2798Z" fill="white"/>
</svg>
