<svg width="40" height="41" viewBox="0 0 40 41" fill="none" xmlns="http://www.w3.org/2000/svg">
<path d="M23.5912 15.8798C23.4322 15.8812 23.2765 15.9261 23.1412 16.0098C23.0076 16.1016 22.9035 16.2301 22.8412 16.3798C22.7836 16.5265 22.7701 16.6869 22.8023 16.8412C22.8345 16.9955 22.911 17.1371 23.0225 17.2486C23.1339 17.3601 23.2755 17.4366 23.4298 17.4688C23.5841 17.501 23.7445 17.4874 23.8912 17.4298C24.0409 17.3676 24.1694 17.2634 24.2612 17.1298C24.3449 16.9945 24.3899 16.8389 24.3912 16.6798C24.3926 16.5744 24.3728 16.4697 24.3331 16.3721C24.2934 16.2744 24.2345 16.1857 24.1599 16.1111C24.0854 16.0366 23.9966 15.9777 23.899 15.938C23.8013 15.8982 23.6967 15.8785 23.5912 15.8798ZM26.6812 17.4998C26.6633 16.9437 26.5587 16.3937 26.3712 15.8698C26.1989 15.4221 25.933 15.0164 25.5912 14.6798C25.2567 14.3379 24.8502 14.0749 24.4012 13.9098C23.8792 13.7144 23.3285 13.6063 22.7712 13.5898C22.0512 13.5498 21.8312 13.5498 20.0012 13.5498C18.1712 13.5498 17.9412 13.5498 17.2312 13.5898C16.674 13.6063 16.1233 13.7144 15.6012 13.9098C15.1542 14.0787 14.7485 14.3412 14.4113 14.6798C14.0694 15.0144 13.8063 15.4209 13.6412 15.8698C13.4459 16.3919 13.3378 16.9426 13.3212 17.4998C13.2812 18.2098 13.2812 18.4398 13.2812 20.2698C13.2812 22.0998 13.2812 22.3198 13.3212 23.0398C13.3378 23.597 13.4459 24.1477 13.6412 24.6698C13.8063 25.1187 14.0694 25.5252 14.4113 25.8598C14.7485 26.1984 15.1542 26.4609 15.6012 26.6298C16.1233 26.8252 16.674 26.9333 17.2312 26.9498C17.9412 26.9898 18.1712 26.9898 20.0012 26.9898C21.8312 26.9898 22.0512 26.9898 22.7712 26.9498C23.3285 26.9333 23.8792 26.8252 24.4012 26.6298C24.8502 26.4647 25.2567 26.2017 25.5912 25.8598C25.933 25.5232 26.1989 25.1175 26.3712 24.6698C26.5587 24.1459 26.6633 23.596 26.6812 23.0398C26.6812 22.3198 26.7212 22.0998 26.7212 20.2698C26.7212 18.4398 26.7212 18.2098 26.6812 17.4998ZM25.4712 22.9598C25.4587 23.3858 25.3812 23.8073 25.2412 24.2098C25.1265 24.498 24.9536 24.7595 24.7334 24.978C24.5132 25.1965 24.2503 25.3673 23.9612 25.4798C23.5605 25.6263 23.1379 25.704 22.7112 25.7098C22.0412 25.7398 21.7912 25.7498 20.0312 25.7498C18.2712 25.7498 18.0112 25.7498 17.3412 25.7098C16.8996 25.7184 16.4599 25.6507 16.0412 25.5098C15.7625 25.3918 15.5107 25.2183 15.3012 24.9998C15.0796 24.7834 14.9088 24.5204 14.8012 24.2298C14.6418 23.8243 14.5506 23.3951 14.5312 22.9598C14.5312 22.2798 14.4912 22.0398 14.4912 20.2698C14.4912 18.4998 14.4912 18.2598 14.5312 17.5798C14.5413 17.1462 14.6224 16.7172 14.7712 16.3098C14.8877 16.0251 15.0692 15.7717 15.3012 15.5698C15.5047 15.337 15.7575 15.1526 16.0412 15.0298C16.4492 14.8842 16.8782 14.8065 17.3112 14.7998C17.9912 14.7998 18.2312 14.7598 20.0012 14.7598C21.7712 14.7598 22.0112 14.7598 22.6912 14.7998C23.1172 14.8123 23.5387 14.8899 23.9412 15.0298C24.242 15.1479 24.5121 15.3325 24.7312 15.5698C24.9529 15.7766 25.1269 16.0291 25.2412 16.3098C25.3868 16.7177 25.4645 17.1467 25.4712 17.5798C25.5012 18.2598 25.5112 18.4998 25.5112 20.2698C25.5112 22.0398 25.5012 22.2798 25.4712 22.9598ZM20.0012 16.8198C19.3208 16.8266 18.657 17.0316 18.0912 17.4098C17.5235 17.789 17.0814 18.3286 16.8212 18.9598C16.5593 19.589 16.4931 20.2825 16.6312 20.9498C16.731 21.4493 16.9405 21.9204 17.2445 22.329C17.5485 22.7377 17.9394 23.0738 18.3891 23.313C18.8388 23.5522 19.336 23.6885 19.8448 23.7122C20.3536 23.7359 20.8613 23.6462 21.3312 23.4498C21.9587 23.1877 22.4946 22.746 22.8718 22.1802C23.249 21.6144 23.4506 20.9498 23.4512 20.2698C23.45 19.8172 23.3617 19.3691 23.1912 18.9498C23.0187 18.53 22.7637 18.1492 22.4412 17.8298C22.1214 17.5086 21.7412 17.2539 21.3223 17.0806C20.9035 16.9072 20.4545 16.8186 20.0012 16.8198ZM20.0012 22.5098C19.5592 22.51 19.1273 22.3776 18.7612 22.1298C18.3942 21.8832 18.106 21.536 17.9312 21.1298C17.7619 20.7183 17.72 20.2654 17.8112 19.8298C17.8975 19.3979 18.1098 19.0012 18.4212 18.6898C18.7326 18.3783 19.1293 18.1661 19.5612 18.0798C19.9968 17.9886 20.4497 18.0304 20.8612 18.1998C21.2674 18.3746 21.6146 18.6628 21.8612 19.0298C22.1091 19.3958 22.2414 19.8278 22.2412 20.2698C22.2412 20.8639 22.0052 21.4336 21.5852 21.8537C21.1651 22.2738 20.5953 22.5098 20.0012 22.5098Z" fill="white"/>
<path d="M20 1.46953C22.5147 1.46567 25.0043 1.96904 27.32 2.94953C31.8212 4.86405 35.4055 8.4483 37.32 12.9495C38.2969 15.2663 38.8002 17.7552 38.8002 20.2695C38.8002 22.7839 38.2969 25.2727 37.32 27.5895C35.4055 32.0908 31.8212 35.675 27.32 37.5895C25.0032 38.5664 22.5143 39.0697 20 39.0697C17.4857 39.0697 14.9968 38.5664 12.68 37.5895C8.17878 35.675 4.59453 32.0908 2.68001 27.5895C1.70311 25.2727 1.19982 22.7839 1.19982 20.2695C1.19982 17.7552 1.70311 15.2663 2.68001 12.9495C4.59453 8.4483 8.17878 4.86405 12.68 2.94953C14.9957 1.96904 17.4853 1.46567 20 1.46953ZM20 0.269534C16.0444 0.269534 12.1776 1.44251 8.8886 3.64014C5.59962 5.83777 3.03617 8.96134 1.52242 12.6159C0.00866565 16.2704 -0.387401 20.2917 0.384303 24.1713C1.15601 28.051 3.06082 31.6146 5.85787 34.4117C8.65492 37.2087 12.2186 39.1135 16.0982 39.8852C19.9778 40.6569 23.9991 40.2609 27.6537 38.7471C31.3082 37.2334 34.4318 34.6699 36.6294 31.3809C38.827 28.0919 40 24.2252 40 20.2695C40.0013 17.6427 39.4849 15.0414 38.4803 12.6143C37.4756 10.1872 36.0025 7.9819 34.1451 6.12447C32.2876 4.26703 30.0823 2.79389 27.6552 1.78927C25.2281 0.784637 22.6268 0.268219 20 0.269534Z" fill="white"/>
</svg>
