<svg width="901" height="229" viewBox="0 0 901 229" fill="none" xmlns="http://www.w3.org/2000/svg">
<path d="M0 159.691H108.74V139.844H22.7016V0H0.000923412L0 159.691ZM307.522 161.516C349.52 161.516 374.718 137.106 374.718 90.7957V0H352.698V89.883C352.698 125.243 336.353 141.212 307.749 141.212C279.146 141.212 263.028 125.243 263.028 89.883V0H240.326V90.7957C240.326 137.106 265.751 161.516 307.522 161.516ZM654.544 159.691L594.386 77.1073L650.459 0H625.714L581.674 61.367L537.179 0H511.299L567.372 77.7926L507.667 159.691H533.773L580.765 93.7613L628.438 159.691H654.544ZM808.378 139.844V88.2861H888.06V68.8951H808.378V19.8469H897.822V0H785.677V159.691H901V139.844H808.378Z" fill="#C1A457"/>
<path d="M94.5708 228.485H98.4171V195.266H111.203V191.923H81.7847V195.266H94.5708V228.485ZM161.012 228.485L152.124 215.949C157.425 214.225 160.44 210.204 160.44 204.458C160.44 196.623 154.826 191.922 145.574 191.922H131.956V228.485H135.803V216.89H145.574C146.613 216.89 147.549 216.838 148.484 216.733L156.8 228.485H161.011H161.012ZM145.471 213.599H135.803V195.266H145.471C152.748 195.266 156.594 198.608 156.594 204.458C156.594 210.204 152.748 213.599 145.471 213.599ZM211.34 228.485H215.395L198.761 191.922H194.967L178.334 228.485H182.336L186.702 218.718H206.974L211.34 228.485ZM188.107 215.584L196.839 195.944L205.571 215.584H188.107ZM262.656 191.923V221.591L239.214 191.923H236.044V228.486H239.89V198.818L263.279 228.486H266.45V191.923H262.656ZM302.953 228.799C312.256 228.799 316.518 224.203 316.518 218.823C316.518 205.504 294.116 211.562 294.116 201.534C294.116 197.877 297.079 194.9 303.731 194.9C306.954 194.9 310.592 195.892 313.711 197.929L315.011 194.848C312.1 192.811 307.838 191.609 303.731 191.609C294.479 191.609 290.322 196.258 290.322 201.639C290.322 215.166 312.724 209.003 312.724 219.032C312.724 222.635 309.761 225.509 302.953 225.509C298.17 225.509 293.544 223.628 290.946 221.069L289.439 224.046C292.142 226.867 297.496 228.799 302.953 228.799H302.953ZM364.456 195.266V191.923H339.507V228.486H343.354V212.973H362.169V209.631H343.354V195.268H364.456V195.266ZM402.466 228.799C413.381 228.799 421.541 220.913 421.541 210.205C421.541 199.497 413.381 191.609 402.466 191.609C391.447 191.609 383.338 199.549 383.338 210.205C383.338 220.86 391.447 228.799 402.466 228.799ZM402.466 225.352C393.682 225.352 387.133 218.928 387.133 210.205C387.133 201.482 393.682 195.057 402.466 195.057C411.198 195.057 417.695 201.482 417.695 210.205C417.695 218.928 411.198 225.352 402.466 225.352ZM473.844 228.486L464.956 215.95C470.258 214.226 473.273 210.205 473.273 204.459C473.273 196.624 467.659 191.923 458.407 191.923H444.789V228.486H448.635V216.891H458.407C459.446 216.891 460.382 216.839 461.317 216.734L469.633 228.486H473.843H473.844ZM458.304 213.6H448.636V195.267H458.304C465.581 195.267 469.427 198.609 469.427 204.459C469.427 210.205 465.581 213.6 458.304 213.6ZM531.606 191.924L515.961 219.033L500.16 191.924H496.99V228.487H500.681V199.394L514.975 223.838H516.794L531.087 199.237V228.487H534.777V191.924H531.607H531.606ZM588.431 228.487H592.485L575.853 191.924H572.058L555.426 228.487H559.427L563.794 218.72H584.065L588.432 228.487H588.431ZM565.197 215.586L573.93 195.946L582.662 215.586H565.197ZM618.384 228.487H622.231V195.268H635.017V191.925H605.598V195.268H618.384V228.487ZM655.771 228.487H659.617V191.924H655.771V228.487ZM701.993 228.8C712.908 228.8 721.068 220.914 721.068 210.206C721.068 199.498 712.908 191.61 701.993 191.61C690.973 191.61 682.865 199.55 682.865 210.206C682.865 220.861 690.973 228.8 701.993 228.8ZM701.993 225.353C693.209 225.353 686.659 218.929 686.659 210.206C686.659 201.483 693.209 195.058 701.993 195.058C710.724 195.058 717.221 201.483 717.221 210.206C717.221 218.929 710.724 225.353 701.993 225.353ZM770.928 191.924V221.592L747.486 191.924H744.316V228.487H748.163V198.819L771.553 228.487H774.724V191.924H770.929H770.928ZM811.225 228.8C820.529 228.8 824.791 224.204 824.791 218.824C824.791 205.505 802.388 211.563 802.388 201.535C802.388 197.878 805.351 194.901 812.004 194.901C815.227 194.901 818.865 195.893 821.984 197.93L823.284 194.849C820.373 192.812 816.111 191.61 812.005 191.61C802.752 191.61 798.595 196.259 798.595 201.64C798.595 215.167 820.997 209.004 820.997 219.033C820.997 222.636 818.034 225.51 811.225 225.51C806.443 225.51 801.816 223.629 799.218 221.07L797.712 224.047C800.414 226.868 805.768 228.8 811.226 228.8H811.225Z" fill="#C1A457"/>
<path d="M857.039 207.717H899.958V211.443H857.039V207.717Z" fill="#C1A457"/>
<path d="M6.73633 208.949H49.6552V212.675H6.73633V208.949Z" fill="#C1A457"/>
</svg>
