<svg width="154" height="42" viewBox="0 0 154 42" fill="none" xmlns="http://www.w3.org/2000/svg">
<g clip-path="url(#clip0_1812_19222)">
<path d="M0 27.1831H18.586V23.8337H3.88018V0.233398H0.000157831L0 27.1831ZM52.562 27.4911C59.7404 27.4911 64.0472 23.3716 64.0472 15.5562V0.233398H60.2836V15.4022C60.2836 21.3696 57.4899 24.0646 52.6008 24.0646C47.712 24.0646 44.9571 21.3696 44.9571 15.4022V0.233398H41.0768V15.5562C41.0768 23.3716 45.4225 27.4911 52.562 27.4911ZM111.875 27.1831L101.593 13.2461L111.177 0.233398H106.948L99.4204 10.5898L91.8153 0.233398H87.3918L96.9759 13.3618L86.771 27.1831H91.2331L99.265 16.0567L107.413 27.1831H111.875ZM138.169 23.8337V15.1327H151.788V11.8602H138.169V3.58279H153.457V0.233398H134.289V27.1831H154V23.8337H138.169Z" fill="#010101" style="fill:#010101;fill:color(display-p3 0.0039 0.0039 0.0039);fill-opacity:1;"/>
<path d="M0.896484 41.1387H8.23223V41.7675H0.896484V41.1387Z" fill="#010101" style="fill:#010101;fill:color(display-p3 0.0039 0.0039 0.0039);fill-opacity:1;"/>
<path d="M15.6874 41.7145H16.3448V36.1084H18.5302V35.5442H13.502V36.1084H15.6874V41.7145ZM27.0436 41.7145L25.5244 39.5989C26.4305 39.3079 26.9458 38.6293 26.9458 37.6596C26.9458 36.3374 25.9863 35.544 24.4049 35.544H22.0773V41.7145H22.7348V39.7577H24.4049C24.5825 39.7577 24.7425 39.7489 24.9023 39.7312L26.3237 41.7145H27.0436ZM24.3873 39.2023H22.7348V36.1084H24.3873C25.6311 36.1084 26.2884 36.6724 26.2884 37.6596C26.2884 38.6293 25.6311 39.2023 24.3873 39.2023ZM35.6457 41.7145H36.3388L33.4957 35.544H32.8472L30.0043 41.7145H30.6883L31.4345 40.0662H34.8995L35.6457 41.7145ZM31.6747 39.5373L33.1672 36.2228L34.6597 39.5373H31.6747ZM44.4167 35.5442V40.551L40.41 35.5442H39.8681V41.7146H40.5255V36.7078L44.5232 41.7146H45.0652V35.5442H44.4167ZM51.3043 41.7675C52.8944 41.7675 53.6228 40.9918 53.6228 40.0839C53.6228 37.8362 49.7939 38.8585 49.7939 37.1662C49.7939 36.549 50.3003 36.0466 51.4373 36.0466C51.9882 36.0466 52.61 36.214 53.1431 36.5578L53.3653 36.0378C52.8677 35.6941 52.1393 35.4912 51.4373 35.4912C49.8559 35.4912 49.1454 36.2758 49.1454 37.1839C49.1454 39.4667 52.9744 38.4266 52.9744 40.1192C52.9744 40.7272 52.4679 41.2122 51.3043 41.2122C50.4868 41.2122 49.6961 40.8948 49.2521 40.4629L48.9945 40.9653C49.4565 41.4414 50.3716 41.7675 51.3043 41.7675ZM61.8165 36.1084V35.5442H57.5522V41.7146H58.2097V39.0966H61.4256V38.5326H58.2097V36.1087H61.8165V36.1084ZM68.3132 41.7675C70.1788 41.7675 71.5735 40.4366 71.5735 38.6295C71.5735 36.8224 70.1788 35.4912 68.3132 35.4912C66.4298 35.4912 65.0438 36.8312 65.0438 38.6295C65.0438 40.4277 66.4298 41.7675 68.3132 41.7675ZM68.3132 41.1857C66.8118 41.1857 65.6924 40.1016 65.6924 38.6295C65.6924 37.1574 66.8118 36.0731 68.3132 36.0731C69.8057 36.0731 70.9161 37.1574 70.9161 38.6295C70.9161 40.1016 69.8057 41.1857 68.3132 41.1857ZM80.5132 41.7146L78.994 39.599C79.9003 39.3081 80.4156 38.6295 80.4156 37.6598C80.4156 36.3376 79.456 35.5442 77.8747 35.5442H75.5471V41.7146H76.2044V39.7578H77.8747C78.0523 39.7578 78.2122 39.7491 78.3721 39.7313L79.7934 41.7146H80.513H80.5132ZM77.8571 39.2024H76.2046V36.1085H77.8571C79.1009 36.1085 79.7582 36.6725 79.7582 37.6598C79.7582 38.6295 79.1009 39.2024 77.8571 39.2024ZM90.3859 35.5444L87.7119 40.1193L85.0112 35.5444H84.4693V41.7148H85.1002V36.805L87.5434 40.9302H87.8543L90.2972 36.7785V41.7148H90.9279V35.5444H90.3859ZM100.099 41.7148H100.791L97.9487 35.5444H97.3L94.4573 41.7148H95.1411L95.8876 40.0665H99.3523L100.099 41.7148ZM96.1274 39.5376L97.62 36.2231L99.1125 39.5376H96.1274ZM105.218 41.7148H105.876V36.1087H108.061V35.5445H103.033V36.1087H105.218V41.7148ZM111.608 41.7148H112.266V35.5444H111.608V41.7148ZM119.509 41.7676C121.374 41.7676 122.769 40.4368 122.769 38.6297C122.769 36.8226 121.374 35.4914 119.509 35.4914C117.625 35.4914 116.239 36.8313 116.239 38.6297C116.239 40.4278 117.625 41.7676 119.509 41.7676ZM119.509 41.1859C118.007 41.1859 116.888 40.1018 116.888 38.6297C116.888 37.1576 118.007 36.0733 119.509 36.0733C121.001 36.0733 122.111 37.1576 122.111 38.6297C122.111 40.1018 121.001 41.1859 119.509 41.1859ZM131.291 35.5444V40.5512L127.284 35.5444H126.743V41.7148H127.4V36.708L131.398 41.7148H131.94V35.5444H131.291ZM138.179 41.7676C139.769 41.7676 140.497 40.992 140.497 40.0841C140.497 37.8363 136.668 38.8587 136.668 37.1663C136.668 36.5492 137.175 36.0468 138.312 36.0468C138.863 36.0468 139.485 36.2142 140.018 36.558L140.24 36.038C139.742 35.6942 139.014 35.4914 138.312 35.4914C136.731 35.4914 136.02 36.276 136.02 37.1841C136.02 39.4669 139.849 38.4268 139.849 40.1193C139.849 40.7274 139.343 41.2124 138.179 41.2124C137.361 41.2124 136.571 40.895 136.127 40.4631L135.869 40.9655C136.331 41.4416 137.246 41.7676 138.179 41.7676Z" fill="#010101" style="fill:#010101;fill:color(display-p3 0.0039 0.0039 0.0039);fill-opacity:1;"/>
<path d="M145.768 41.1387H153.103V41.7675H145.768V41.1387Z" fill="#010101" style="fill:#010101;fill:color(display-p3 0.0039 0.0039 0.0039);fill-opacity:1;"/>
</g>
<defs>
<clipPath id="clip0_1812_19222">
<rect width="154" height="41.5341" fill="white" style="fill:white;fill-opacity:1;" transform="translate(0 0.233398)"/>
</clipPath>
</defs>
</svg>
