<svg id="Layer_1" data-name="Layer 1" xmlns="http://www.w3.org/2000/svg" xmlns:xlink="http://www.w3.org/1999/xlink" width="400" height="400" viewBox="0 0 400 400">
  <defs>
    <style>
      .cls-1 {
        fill: url(#radial-gradient);
      }

      .cls-2 {
        fill: #c1a457;
      }
    </style>
    <radialGradient id="radial-gradient" cx="200" cy="200" r="199" gradientUnits="userSpaceOnUse">
      <stop offset="0" stop-color="#262626"/>
      <stop offset="1"/>
    </radialGradient>
  </defs>
  <g>
    <circle class="cls-1" cx="200" cy="200" r="199"/>
    <path class="cls-2" d="M200,2A197.9,197.9,0,0,1,398,200,197.9,197.9,0,0,1,200,398,197.9,197.9,0,0,1,2,200,197.9,197.9,0,0,1,200,2m0-2A200,200,0,1,0,400,200,199.9,199.9,0,0,0,200,0Z"/>
  </g>
  <path class="cls-2" d="M56.3,225.2H91v-6.4H63.5V174.2H56.3Zm98.1.6c13.4,0,21.4-7.8,21.4-22.6v-29h-7v28.7c0,11.3-5.2,16.4-14.3,16.4s-14.3-5.1-14.3-16.4V174.2H133v29C133,218,141.1,225.8,154.4,225.8Zm110.7-.6-19.2-26.4,17.9-24.6h-7.9l-14.1,19.6-14.2-19.6h-8.2l17.9,24.9-19.1,26.1h8.4l15-21.1,15.2,21.1Zm49.1-6.4V202.4h25.4v-6.2H314.2V180.6h28.5v-6.4H306.9v51h36.8v-6.4Z"/>
</svg>
