<svg width="112" height="21" viewBox="0 0 112 21" fill="none" xmlns="http://www.w3.org/2000/svg">
<path d="M2.8555 16.6094C2.02027 16.6112 1.24867 16.1634 0.835817 15.4374C0.428918 14.7158 0.453318 13.8286 0.899262 13.1304L5.05847 6.59907C5.49186 5.88443 6.27623 5.45824 7.11163 5.48348C7.94643 5.50349 8.70575 5.97154 9.09871 6.70834C9.48643 7.44148 9.43797 8.32355 8.97358 9.01176L4.81702 15.5431C4.38863 16.2107 3.64868 16.6129 2.8555 16.6094Z" fill="white"/>
<path d="M9.99192 16.6091C9.15303 16.6091 8.38111 16.1605 7.97577 15.4397C7.56977 14.7201 7.59417 13.8351 8.03921 13.139L12.1905 6.62257C12.6176 5.89768 13.4043 5.46148 14.2454 5.4832C15.0914 5.5017 15.858 5.9749 16.2457 6.7151C16.6308 7.45529 16.5744 8.34265 16.0959 9.0291L11.9455 15.5455C11.5185 16.2101 10.7819 16.6111 9.99192 16.6091Z" fill="white"/>
<path d="M16.9616 16.6634C18.1442 16.6634 19.1029 15.7248 19.1029 14.567C19.1029 13.4093 18.1442 12.4707 16.9616 12.4707C15.779 12.4707 14.8203 13.4093 14.8203 14.567C14.8203 15.7248 15.779 16.6634 16.9616 16.6634Z" fill="white"/>
<path d="M109.987 12.5903C110.633 12.5903 111.02 13.0503 111.02 13.8037V16.3856H111.899V13.7447C111.899 12.4634 111.295 11.7206 110.16 11.7206C109.716 11.7206 109.011 11.8422 108.591 12.659C108.392 12.1681 107.939 11.8262 107.413 11.769C107.25 11.7392 107.084 11.7295 106.919 11.74C106.558 11.769 105.915 11.9937 105.674 12.5031V11.8184H104.795V16.3856H105.674V13.9209C105.674 12.9622 106.301 12.5903 106.93 12.5903C107.518 12.5903 107.905 13.0406 107.905 13.794V16.3856H108.779V13.9209C108.779 13.1578 109.238 12.5815 109.987 12.5903ZM101.567 15.6225C101.969 15.6313 102.356 15.4709 102.637 15.1801C102.919 14.8893 103.069 14.4937 103.054 14.0874C103.054 13.1675 102.378 12.5903 101.567 12.5903C100.755 12.5903 100.079 13.1675 100.079 14.0874C100.064 14.4928 100.213 14.8876 100.494 15.1775C100.774 15.4683 101.16 15.6295 101.56 15.6225H101.567ZM101.567 16.479C100.282 16.479 99.2097 15.5299 99.2097 14.0821C99.2097 12.6344 100.282 11.7153 101.567 11.7153C102.852 11.7153 103.933 12.6344 103.933 14.0821C103.933 15.5299 102.845 16.4834 101.561 16.4834L101.567 16.479ZM94.6848 14.0821L94.676 14.0874C94.676 12.6396 95.7766 11.7206 97.0701 11.7153C97.7273 11.7026 98.3591 11.969 98.8087 12.4484L98.1425 13.0159C97.8567 12.7353 97.4707 12.5805 97.0701 12.5859C96.2595 12.5859 95.5545 13.1631 95.5545 14.0821C95.5545 14.7034 95.9237 15.2629 96.4903 15.5009C97.0569 15.7388 97.709 15.6066 98.1425 15.1678L98.8184 15.7353C98.3673 16.2196 97.7319 16.4899 97.0701 16.479C95.7863 16.479 94.6848 15.5299 94.6848 14.0821ZM91.8711 15.5088C91.8693 15.3475 91.9315 15.1921 92.0442 15.0768C92.1569 14.9614 92.3108 14.8956 92.4721 14.8937C92.6334 14.8956 92.7873 14.9614 92.9 15.0768C93.0127 15.1921 93.075 15.3475 93.0731 15.5088C93.0568 15.8298 92.7935 16.0827 92.4721 16.086C92.1507 16.0827 91.8874 15.8298 91.8711 15.5088Z" fill="white"/>
<path d="M94.2727 6.01443H91.1436L88.9503 11.669L86.7685 6.01443H83.6394L87.4435 14.9497L85.0775 20.8572H88.1837L94.2727 6.01443ZM75.2426 10.9843C75.2426 12.4119 76.4903 13.3512 77.7161 13.3512C78.9207 13.3512 80.1041 12.4771 80.1041 10.9834C80.1041 9.48984 78.9207 8.61482 77.7161 8.61482C76.4903 8.61482 75.2426 9.55505 75.2426 10.9834V10.9843ZM80.1041 15.9736V14.8431C79.4696 15.8035 77.9892 16.1666 77.2297 16.1666C74.7147 16.1666 72.199 14.1839 72.199 10.9834C72.199 7.78386 74.7139 5.80119 77.2297 5.80119C77.8632 5.80119 79.3436 6.01267 80.1041 7.12297V6.01796H83.0208V15.9754L80.1041 15.9745V15.9736ZM71.3689 15.9736H68.4521V14.7364C67.9648 15.6529 66.7832 16.1869 65.5566 16.1869C63.0196 16.1869 60.7788 14.161 60.7788 11.024C60.7788 7.82792 63.0196 5.79942 65.5566 5.79942C66.7814 5.79942 67.9666 6.31051 68.4521 7.22783V0.589844H71.3689V15.9736ZM68.3887 10.9614C68.3887 9.46869 67.311 8.59367 66.1064 8.59367C64.8587 8.59367 63.8224 9.53213 63.8224 10.9614C63.8224 12.4365 64.8587 13.3706 66.1055 13.3706C67.333 13.3723 68.3887 12.3907 68.3887 10.9614ZM53.5671 10.7041C53.5671 9.19023 54.3496 8.67826 55.385 8.67826C56.3781 8.67826 57.0972 9.33915 57.0972 10.6609V15.9719H60.035V10.0221C60.035 7.18641 58.6392 5.79942 56.4195 5.79942C55.2572 5.79942 54.095 6.46031 53.5662 7.46311V6.01443H50.6301V15.9719H53.5671V10.7041ZM44.6645 16.1428C41.8747 16.1428 39.5474 14.0958 39.5474 10.9605C39.5474 7.82351 41.872 5.79678 44.6645 5.79678C47.457 5.79678 49.8018 7.82351 49.8018 10.9605C49.8018 14.0976 47.4543 16.1437 44.6645 16.1437V16.1428ZM44.6645 13.2437C45.8893 13.2437 46.9053 12.3466 46.9053 10.9614C46.9053 9.61761 45.8902 8.70029 44.6645 8.70029C44.068 8.69096 43.4939 8.92704 43.0766 9.35325C42.6569 9.78164 42.4289 10.3619 42.4448 10.9614C42.4457 12.3484 43.4599 13.2437 44.6645 13.2437ZM34.2806 8.67914C35.1468 8.67914 35.9081 9.36207 35.9081 10.6618V15.9736H38.8249V10.3182C38.8249 7.31154 37.363 5.79766 35.0199 5.79766C34.3238 5.79766 33.0125 6.00915 32.0609 7.56709C31.511 6.41537 30.4545 5.81793 28.893 5.81793C27.7858 5.8123 26.7775 6.4546 26.3146 7.46046V6.01532H23.375V15.9727H26.312V10.7041C26.312 9.19023 27.1368 8.67826 28.0241 8.67826C28.8701 8.67826 29.6297 9.33915 29.6517 10.5975V15.9727H32.5896V10.7041C32.5896 9.25632 33.3509 8.68003 34.2806 8.68003V8.67914Z" fill="white"/>
</svg>
