<svg width="112" height="24" viewBox="0 0 112 24" fill="none" xmlns="http://www.w3.org/2000/svg">
<path d="M110.437 8.21854C111.31 8.92482 110.385 10.042 109.615 9.47706C108.665 8.87351 106.507 8.59102 106.238 9.92645C105.891 12.0325 111.477 10.8254 111.387 14.2413C111.297 17.5031 106.571 17.5802 104.799 16.1162C104.376 15.7695 104.388 15.2044 104.62 14.8577C104.953 14.5239 105.326 14.4083 105.762 14.7678C106.815 15.4869 109.525 16.0263 109.718 14.2028C109.551 12.3022 104.209 13.4451 104.607 9.79811C104.902 7.30679 108.665 6.85729 110.437 8.21854ZM102.012 8.71935V13.3681C102.012 18.1708 94.2686 18.1708 94.2686 13.3681V8.71935C94.2686 7.56367 95.9509 7.51226 95.9509 8.71935V13.3681C95.9509 15.8978 100.33 16.052 100.33 13.3681V8.71935C100.33 7.57643 102.012 7.48655 102.012 8.71935ZM48.9873 7.55082C51.2346 7.66631 53.5846 9.22016 53.5846 12.2637C53.5846 15.3072 51.2346 16.8867 48.9873 16.8867C46.6116 16.9895 44.146 15.4099 44.146 12.2637C44.146 9.10458 46.6116 7.55082 48.9873 7.55082ZM60.3011 7.87177C63.5629 7.87177 64.2306 12.238 61.5082 13.3295L63.2162 15.4099C63.8839 16.3988 62.5484 17.349 61.7779 16.373L59.8388 13.5992H57.8226V15.9236C57.8226 17.0408 56.1147 17.0793 56.1147 15.9493V8.65518C56.1147 8.20568 56.4614 7.87177 56.8852 7.87177H60.3011ZM33.6924 7.75629C34.0648 7.75629 34.2831 7.97461 34.5014 8.21854L37.3266 12.0325L40.2545 8.07724C40.6783 7.55083 41.7184 7.75629 41.7184 8.64233V15.8722C41.7184 16.4372 41.3589 16.7583 40.9479 16.7583C40.4856 16.7583 40.1261 16.4372 40.1261 15.8722V11.1208L37.9944 13.8176C37.532 14.3825 36.9542 14.3825 36.5304 13.8176L34.617 11.1208V15.8722C34.617 16.4372 34.1547 16.7583 33.6924 16.7583C33.2814 16.7583 32.9219 16.4372 32.9219 15.8722V8.64233C32.9219 7.97461 33.4869 7.75629 33.6924 7.75629ZM69.6117 7.75629C71.2811 7.75629 72.7835 8.8735 72.7835 11.0181C72.7835 13.047 71.2811 14.1771 69.6117 14.1771H67.4671V15.8722C67.4671 16.4372 67.1075 16.7583 66.6452 16.7583C66.2214 16.7583 65.7719 16.4372 65.7719 15.8722V8.64233C65.7719 8.21854 66.1059 7.75629 66.6452 7.75629H69.6117ZM81.8758 7.87177C82.3253 7.87177 82.6721 8.20568 82.6721 8.66804V15.9621C82.6721 16.4115 82.3253 16.7583 81.8758 16.7583C81.4136 16.7583 81.0026 16.4115 81.0026 15.9621V13.1497H76.8163V15.9621C76.8163 16.4115 76.4824 16.7583 76.0329 16.7583C75.455 16.7583 75.1211 16.4115 75.1211 15.9621V8.66804C75.1211 8.20569 75.455 7.87177 76.0329 7.87177C76.4824 7.87177 76.8163 8.20568 76.8163 8.66804V11.4675H81.0026V8.66804C81.0026 8.20569 81.4136 7.87177 81.8758 7.87177ZM90.8141 7.87177C91.9954 7.87177 91.9697 9.54122 90.8141 9.54122H87.1157V11.4675H90.3517C91.4946 11.4675 91.4946 13.1497 90.3517 13.1497H87.1157V15.076H91.0324C92.2009 15.076 92.2908 16.7583 91.0324 16.7583H86.2039C85.7544 16.7583 85.4076 16.4115 85.4076 15.9621V8.66804C85.4076 8.20568 85.7544 7.87177 86.2039 7.87177H90.8141ZM48.846 9.22016C47.4077 9.22016 45.8411 10.2348 45.8411 12.2637C45.8411 14.2798 47.4077 15.3071 48.846 15.3071C50.3228 15.3071 51.9023 14.2798 51.9023 12.2637C51.9023 10.2347 50.3228 9.22016 48.846 9.22016ZM69.6117 9.37432H67.4671V12.5719H69.6117C70.472 12.5719 71.1527 11.8142 71.1527 11.0181C71.1527 10.1192 70.472 9.37432 69.6117 9.37432ZM60.3011 9.42563H57.8226V12.1224H60.3011C61.9705 12.1224 62.0732 9.42563 60.3011 9.42563Z" fill="white"/>
<path d="M22.7332 14.6137C21.4812 19.6436 16.9004 23.2222 11.5053 23.2222C6.08575 23.2222 1.54442 19.4318 0.34375 14.3811C1.7875 14.3811 3.13719 14.3877 3.76379 14.3877C4.05938 14.3877 4.11678 14.3928 4.13388 14.3916C4.60536 14.3684 5.19654 14.2128 5.58984 13.2564L7.08856 9.33594L10.417 17.3498C10.7162 17.9886 11.2158 17.9433 11.5138 17.9433H11.5419C12.1233 17.9433 12.3762 17.7396 12.5973 17.3182L16.3569 9.39603L17.6394 12.9664L17.7176 13.1392C17.9887 13.7341 18.1838 14.3216 18.8548 14.3984C18.9932 14.4142 20.5996 14.3862 22.7652 14.3862C22.7652 14.3862 22.7652 14.4001 22.7332 14.6137Z" fill="white"/>
<path d="M23.1006 11.6506C23.1006 11.7105 23.1006 11.861 23.0994 11.861H23.097H19.6403L17.6237 6.22762C17.4441 5.80867 17.1742 5.1806 16.3876 5.1806C15.9063 5.1806 15.4715 5.57805 15.2248 6.23397L11.569 14.7019L8.05002 6.28533C7.70557 5.53781 7.4674 5.18625 6.7785 5.18625C6.31069 5.18625 5.96746 5.35858 5.5937 6.24412L3.50503 11.9446L0.0349103 11.941C0.0324655 11.8543 0.03125 11.7676 0.03125 11.6809C0.03125 5.34401 5.16864 0.222656 11.5055 0.222656C17.8423 0.222656 23.1006 5.31378 23.1006 11.6506Z" fill="white"/>
</svg>
