<svg width="112" height="18" viewBox="0 0 112 18" fill="none" xmlns="http://www.w3.org/2000/svg">
<path d="M16.1651 17.3935V12.8789H11.2486C9.91165 12.8789 8.67318 13.5808 7.98841 14.7266L6.39453 17.3935H16.1651Z" fill="white"/>
<path d="M0.515625 0.0507812V4.56541H13.465L16.1632 0.0507812H0.515625Z" fill="white"/>
<path d="M6.71054 7.10606L0.527344 17.394H5.79528L13.1893 5.08594H10.2803C8.81711 5.08594 7.46155 5.85305 6.71054 7.10606Z" fill="white"/>
<path d="M27.3716 13.0642C24.7227 13.0642 22.7734 11.1387 22.7734 8.55489C22.7734 5.99588 24.7352 4.04557 27.3841 4.04557C30.0331 4.04557 31.9948 6.02073 31.9948 8.55489C31.9948 11.1139 30.0206 13.0642 27.3716 13.0642ZM27.3841 11.4866C29.0584 11.4866 30.258 10.2443 30.258 8.55489C30.258 6.89029 29.0584 5.62321 27.3841 5.62321C25.6973 5.62321 24.4978 6.89029 24.4978 8.55489C24.4978 10.2443 25.6973 11.4866 27.3841 11.4866ZM33.7686 15.7599V6.36855H35.368V7.20085H35.4554C35.6304 6.92756 36.2301 6.20706 37.4296 6.20706C39.2664 6.20706 40.5284 7.57352 40.5284 9.6108C40.5284 11.6481 39.2789 13.0642 37.4796 13.0642C36.3176 13.0642 35.6928 12.4183 35.4804 12.058H35.393V15.7599H33.7686ZM37.1173 11.5984C38.1669 11.5984 38.8791 10.7909 38.8791 9.63564C38.8791 8.44309 38.1669 7.6729 37.1048 7.6729C36.0302 7.6729 35.3555 8.53005 35.3555 9.63564C35.3555 10.853 36.1052 11.5984 37.1173 11.5984ZM45.1761 13.0642C43.2394 13.0642 41.8649 11.6232 41.8649 9.67291C41.8649 7.61079 43.2519 6.20706 45.1761 6.20706C47.2878 6.20706 48.4373 7.75986 48.4373 9.59837V10.1077H43.4393C43.4893 11.1015 44.1765 11.7723 45.2261 11.7723C46.0258 11.7723 46.638 11.3996 46.8629 10.8655H48.3748C48.05 12.1947 46.8754 13.0642 45.1761 13.0642ZM43.4643 8.96483H46.8879C46.813 8.08284 46.1257 7.49899 45.1761 7.49899C44.264 7.49899 43.5642 8.14495 43.4643 8.96483ZM50.1861 12.9027V6.36855H51.7355V7.16358H51.823C52.0854 6.67911 52.7351 6.20706 53.6723 6.20706C55.1467 6.20706 56.0463 7.23812 56.0463 8.62943V12.9027H54.422V9.05179C54.422 8.25675 53.9097 7.72259 53.16 7.72259C52.3728 7.72259 51.8105 8.34371 51.8105 9.16359V12.9027H50.1861ZM57.6577 12.9027V11.4245L62.2059 5.72259V5.63563H57.8202V4.20706H64.2801V5.6729L59.7319 11.3748V11.4742H64.3051V12.9027H57.6577ZM68.7029 13.0642C66.7661 13.0642 65.3917 11.6232 65.3917 9.67291C65.3917 7.61079 66.7786 6.20706 68.7029 6.20706C70.8145 6.20706 71.9641 7.75986 71.9641 9.59837V10.1077H66.9661C67.016 11.1015 67.7033 11.7723 68.7528 11.7723C69.5525 11.7723 70.1648 11.3996 70.3897 10.8655H71.9016C71.5767 12.1947 70.4022 13.0642 68.7029 13.0642ZM66.991 8.96483H70.4147C70.3397 8.08284 69.6525 7.49899 68.7029 7.49899C67.7907 7.49899 67.091 8.14495 66.991 8.96483ZM73.7129 15.7599V6.36855H75.3123V7.20085H75.3997C75.5747 6.92756 76.1744 6.20706 77.374 6.20706C79.2107 6.20706 80.4727 7.57352 80.4727 9.6108C80.4727 11.6481 79.2232 13.0642 77.4239 13.0642C76.2619 13.0642 75.6371 12.4183 75.4247 12.058H75.3373V15.7599H73.7129ZM77.0616 11.5984C78.1112 11.5984 78.8234 10.7909 78.8234 9.63564C78.8234 8.44309 78.1112 7.6729 77.0491 7.6729C75.9745 7.6729 75.2998 8.53005 75.2998 9.63564C75.2998 10.853 76.0495 11.5984 77.0616 11.5984ZM82.2216 15.7599V6.36855H83.8209V7.20085H83.9084C84.0833 6.92756 84.6831 6.20706 85.8826 6.20706C87.7194 6.20706 88.9814 7.57352 88.9814 9.6108C88.9814 11.6481 87.7319 13.0642 85.9326 13.0642C84.7705 13.0642 84.1458 12.4183 83.9334 12.058H83.8459V15.7599H82.2216ZM85.5702 11.5984C86.6198 11.5984 87.332 10.7909 87.332 9.63564C87.332 8.44309 86.6198 7.6729 85.5577 7.6729C84.4832 7.6729 83.8084 8.53005 83.8084 9.63564C83.8084 10.853 84.5581 11.5984 85.5702 11.5984ZM93.6291 13.0642C91.6923 13.0642 90.3179 11.6232 90.3179 9.67291C90.3179 7.61079 91.7048 6.20706 93.6291 6.20706C95.7407 6.20706 96.8903 7.75986 96.8903 9.59837V10.1077H91.8923C91.9422 11.1015 92.6295 11.7723 93.679 11.7723C94.4787 11.7723 95.091 11.3996 95.3159 10.8655H96.8278C96.5029 12.1947 95.3284 13.0642 93.6291 13.0642ZM91.9172 8.96483H95.3409C95.2659 8.08284 94.5787 7.49899 93.6291 7.49899C92.7169 7.49899 92.0172 8.14495 91.9172 8.96483ZM100.238 12.9027C99.0889 12.9027 98.4392 12.2195 98.4392 11.0642V3.58594H100.064V10.9151C100.064 11.2878 100.251 11.4866 100.588 11.4866H100.851V12.9027H100.238ZM103.224 5.49899C102.637 5.49899 102.225 5.13874 102.225 4.55488C102.225 3.99588 102.637 3.6232 103.224 3.6232C103.812 3.6232 104.224 3.99588 104.224 4.55488C104.224 5.13874 103.812 5.49899 103.224 5.49899ZM102.412 12.9027V6.36855H104.036V12.9027H102.412ZM106.01 12.9027V6.36855H107.56V7.16358H107.647C107.909 6.67911 108.559 6.20706 109.496 6.20706C110.971 6.20706 111.87 7.23812 111.87 8.62943V12.9027H110.246V9.05179C110.246 8.25675 109.734 7.72259 108.984 7.72259C108.197 7.72259 107.635 8.34371 107.635 9.16359V12.9027H106.01Z" fill="white"/>
</svg>
