<svg width="113" height="15" viewBox="0 0 113 15" fill="none" xmlns="http://www.w3.org/2000/svg">
<path d="M48.8458 9.90225H56.2039L52.3132 3.64273L45.1725 14.9602H41.9226L50.6081 1.36551C50.9858 0.816225 51.6151 0.484375 52.3132 0.484375C52.9883 0.484375 53.6177 0.804787 53.9839 1.34262L62.7037 14.9602H59.4538L57.9204 12.4312H50.4708L48.8458 9.90225ZM82.6037 12.4312V0.621695H79.8459V13.587C79.8459 13.9418 79.9832 14.2851 80.2464 14.5482C80.5096 14.8114 80.8643 14.9602 81.2534 14.9602H93.8297L95.4546 12.4312H82.6037ZM36.9791 10.3142C39.6569 10.3142 41.8311 8.15142 41.8311 5.47367C41.8311 2.79593 39.6569 0.621695 36.9791 0.621695H24.9143V14.9602H27.6711V3.15068H36.796C38.0777 3.15068 39.1076 4.19201 39.1076 5.47367C39.1076 6.75533 38.0777 7.79668 36.796 7.79668L29.0214 7.78523L37.2537 14.9602H41.2589L35.7203 10.3142H36.9791ZM7.94391 14.9602C3.98561 14.9602 0.773438 11.7561 0.773438 7.79668C0.773438 3.83727 3.98561 0.621695 7.94391 0.621695H16.278C20.2374 0.621695 23.4473 3.83727 23.4473 7.79668C23.4473 11.7561 20.2374 14.9602 16.278 14.9602H7.94391ZM16.0926 12.4312C18.6572 12.4312 20.7341 10.36 20.7341 7.79668C20.7341 5.23336 18.6572 3.15068 16.0926 3.15068H8.1281C5.56479 3.15068 3.48663 5.23336 3.48663 7.79668C3.48663 10.36 5.56479 12.4312 8.1281 12.4312H16.0926ZM68.4597 14.9602C64.5003 14.9602 61.2848 11.7561 61.2848 7.79668C61.2848 3.83727 64.5003 0.621695 68.4597 0.621695H78.3582L76.7447 3.15068H68.6428C66.0795 3.15068 63.9969 5.23336 63.9969 7.79668C63.9969 10.36 66.0795 12.4312 68.6428 12.4312H78.5871L76.9621 14.9602H68.4597ZM102.183 12.4312C100.066 12.4312 98.2696 11.0122 97.7203 9.05544H109.507L111.132 6.52646H97.7203C98.2696 4.58109 100.066 3.15068 102.183 3.15068H110.274L111.91 0.621695H102C98.0408 0.621695 94.8252 3.83727 94.8252 7.79668C94.8252 11.7561 98.0408 14.9602 102 14.9602H110.503L112.128 12.4312H102.183Z" fill="white"/>
</svg>
