<svg width="112" height="27" viewBox="0 0 112 27" fill="none" xmlns="http://www.w3.org/2000/svg">
<path d="M0.301535 20.4278C0.167994 20.3507 0.0585938 20.1616 0.0585938 20.0081V7.43709C0.0585938 7.28331 0.167994 7.09451 0.301535 7.01721L11.3281 0.733656C11.4618 0.65649 11.6804 0.65649 11.8141 0.733656L22.84 7.01791C22.9737 7.09507 23.0829 7.28387 23.0829 7.43765V20.0087C23.0829 20.162 22.9737 20.351 22.84 20.4284L11.8141 26.7121C11.6804 26.7893 11.4618 26.7893 11.3281 26.7121L0.301535 20.4278ZM33.4401 8.68822V13.7871H35.6205C37.2029 13.7871 37.9061 13.1424 37.9061 12.0874V10.3878C37.9061 9.33304 37.2029 8.68822 35.6205 8.68822H33.4401ZM33.4401 15.4085V19.9604C33.4401 20.2337 33.3698 20.351 33.1236 20.351H32.051C31.8224 20.351 31.7345 20.2337 31.7345 19.9604V7.4576C31.7345 7.1841 31.8224 7.06675 32.051 7.06675H35.6205C38.6447 7.06675 39.6118 8.47332 39.6118 10.0753V12.4002C39.6118 14.002 38.6447 15.4085 35.6205 15.4085H33.4401ZM43.5798 8.68822V13.4745H45.76C47.3425 13.4745 48.0459 12.8493 48.0459 11.7749V10.3878C48.0459 9.33304 47.3425 8.68822 45.76 8.68822H43.5798ZM43.5798 15.096V19.9604C43.5798 20.2337 43.5093 20.351 43.2631 20.351H42.1906C41.9621 20.351 41.8741 20.2337 41.8741 19.9604V7.4576C41.8741 7.1841 41.9621 7.06675 42.1906 7.06675H45.76C48.7844 7.06675 49.7514 8.47332 49.7514 10.0753V12.107C49.7514 13.2987 49.2064 14.3731 47.6941 14.8421L49.8041 19.9604C49.8921 20.1948 49.7338 20.351 49.4877 20.351H48.4326C48.1864 20.351 48.1513 20.1948 48.0459 19.9604L46.0589 15.096H43.5798ZM58.9948 10.2315C58.9948 9.17661 58.2525 8.53193 56.5822 8.53193C54.9305 8.53193 54.1883 9.17661 54.1883 10.2315V17.1862C54.1883 18.2412 54.9305 18.8858 56.5822 18.8858C58.2525 18.8858 58.9948 18.2412 58.9948 17.1862V10.2315ZM52.3695 9.91897C52.3695 8.31704 53.4088 6.9106 56.5822 6.9106C59.7742 6.9106 60.8137 8.31704 60.8137 9.91897V17.4989C60.8137 19.1008 59.7742 20.5074 56.5822 20.5074C53.4088 20.5074 52.3695 19.1008 52.3695 17.4989V9.91897ZM70.6126 7.06675C70.8538 7.06675 70.9652 7.16456 70.9652 7.43793V8.31704C70.9652 8.59054 70.8538 8.68822 70.6126 8.68822H67.6433V19.9604C67.6433 20.2337 67.5505 20.351 67.3091 20.351H66.1585C65.9173 20.351 65.8245 20.2337 65.8245 19.9604V8.68822H62.855C62.5954 8.68822 62.5026 8.59054 62.5026 8.31704V7.43793C62.5026 7.16456 62.5954 7.06675 62.855 7.06675H70.6126ZM79.2614 10.2315C79.2614 9.17661 78.519 8.53193 76.8488 8.53193C75.1971 8.53193 74.4547 9.17661 74.4547 10.2315V17.1862C74.4547 18.2412 75.1971 18.8858 76.8488 18.8858C78.519 18.8858 79.2614 18.2412 79.2614 17.1862V10.2315ZM72.6359 9.91897C72.6359 8.31704 73.6752 6.9106 76.8488 6.9106C80.0408 6.9106 81.0801 8.31704 81.0801 9.91897V17.4989C81.0801 19.1008 80.0408 20.5074 76.8488 20.5074C73.6752 20.5074 72.6359 19.1008 72.6359 17.4989V9.91897ZM91.8225 19.9798C91.8225 20.2337 91.7521 20.351 91.506 20.351H90.5388C90.363 20.351 90.2927 20.2923 90.2225 20.1751L86.0904 12.1267C85.7036 11.4037 85.4926 10.7981 85.4573 10.7199V19.9798C85.4573 20.2337 85.3694 20.351 85.1408 20.351H84.1562C83.9276 20.351 83.8397 20.2337 83.8397 19.9798V7.43793C83.8397 7.1841 83.9276 7.06675 84.1562 7.06675H85.1408C85.2814 7.06675 85.3694 7.12535 85.4221 7.22303L89.6597 15.4476C89.9059 15.9165 90.2049 16.6978 90.2049 16.6978V7.43793C90.2049 7.1841 90.3102 7.06675 90.5388 7.06675H91.506C91.7521 7.06675 91.8225 7.1841 91.8225 7.43793V19.9798ZM94.846 20.351C94.6176 20.351 94.5297 20.2337 94.5297 19.9604V7.4576C94.5297 7.1841 94.6176 7.06675 94.846 7.06675H100.86C101.088 7.06675 101.194 7.16456 101.194 7.43793V8.31704C101.194 8.59054 101.088 8.68822 100.86 8.68822H96.2352V12.6344H100.543C100.789 12.6344 100.895 12.7321 100.895 13.0056V13.8457C100.895 14.0996 100.789 14.2168 100.543 14.2168H96.2352V18.7296H101.053C101.282 18.7296 101.387 18.8078 101.387 19.0811V19.9798C101.387 20.2534 101.282 20.351 101.053 20.351H94.846ZM111.078 7.06675C111.307 7.06675 111.413 7.16456 111.413 7.43793V8.31704C111.413 8.59054 111.307 8.68822 111.078 8.68822H108.265V19.9604C108.265 20.2337 108.177 20.351 107.949 20.351H106.859C106.63 20.351 106.542 20.2337 106.542 19.9604V8.68822H103.729C103.483 8.68822 103.395 8.59054 103.395 8.31704V7.43793C103.395 7.16456 103.483 7.06675 103.729 7.06675H111.078Z" fill="white"/>
</svg>
