<svg width="112" height="18" viewBox="0 0 112 18" fill="none" xmlns="http://www.w3.org/2000/svg">
<path d="M106.012 7.6861V10.0078H107.644V12.3113C107.648 12.4877 107.64 12.676 107.616 12.8381L107.602 12.9167C107.6 12.9343 107.596 12.9523 107.592 12.9708L107.579 13.0274C107.577 13.0371 107.574 13.0468 107.571 13.0566L107.552 13.1163C107.405 13.5405 106.964 14.078 105.971 14.078C104.914 14.078 104.489 13.461 104.373 13.0274L104.36 12.9708L104.349 12.9167C104.32 12.7391 104.308 12.5171 104.308 12.3113V5.03573C104.308 4.80697 104.321 4.55899 104.363 4.35698L104.391 4.23421C104.393 4.22571 104.395 4.21707 104.397 4.2083L104.413 4.15424C104.416 4.145 104.419 4.13565 104.422 4.1262L104.442 4.0684C104.593 3.66642 104.992 3.13104 105.962 3.13104C106.712 3.13104 107.115 3.43634 107.331 3.75189L107.369 3.8111C107.381 3.83083 107.392 3.85053 107.403 3.87012L107.433 3.92852L107.46 3.98586L107.483 4.04171L107.502 4.09564L107.519 4.14721L107.533 4.196L107.545 4.24158L107.554 4.2835C107.558 4.30435 107.562 4.32648 107.565 4.3495L107.575 4.42076C107.576 4.43294 107.577 4.44524 107.579 4.45761L107.589 4.56936L107.595 4.67653L107.601 4.82266L107.602 4.89755V5.781H111.611L111.612 5.23105L111.615 5.03437L111.614 4.8819L111.61 4.70438L111.607 4.60881L111.6 4.45984L111.59 4.30724L111.581 4.20521C111.31 1.51762 109.29 0.483585 106.832 0.303655L106.667 0.292916L106.501 0.284655C106.418 0.281135 106.335 0.278525 106.251 0.276795L106.082 0.274499C106.054 0.274215 106.026 0.274215 105.998 0.274215L105.829 0.275367C105.801 0.275753 105.773 0.276236 105.745 0.276818L105.577 0.2815L105.411 0.288599L105.246 0.298167L105.082 0.310254C105.028 0.314708 104.974 0.319592 104.92 0.324912L104.76 0.342193C104.733 0.345294 104.706 0.348507 104.68 0.351833L104.522 0.373143C104.154 0.426058 103.801 0.501439 103.466 0.602222L103.324 0.646979C101.77 1.1566 100.641 2.24011 100.41 4.20521L100.386 4.42335L100.369 4.59224L100.354 4.76931L100.341 4.94547C100.334 5.06059 100.329 5.16905 100.329 5.25874L100.33 12.0374L100.331 12.1215L100.334 12.2494L100.338 12.339L100.344 12.4348L100.351 12.5389L100.36 12.6536L100.378 12.8504L100.393 13.0014C100.618 15.4988 102.511 16.6098 104.827 16.872L104.989 16.8889C105.261 16.9148 105.538 16.9294 105.818 16.9336L105.987 16.9348L106.156 16.9336C106.438 16.9294 106.716 16.9148 106.989 16.8889L107.151 16.872C109.475 16.6098 111.356 15.4988 111.585 13.0014L111.603 12.7811L111.617 12.5948L111.629 12.386L111.637 12.2061L111.643 11.9515V7.6861H106.012ZM78.3688 0.702452H74.3427V12.4791C74.3491 12.6843 74.3427 12.9149 74.3074 13.0839L74.2955 13.1352L74.2808 13.1897C74.2754 13.2084 74.2695 13.2276 74.2631 13.2471L74.242 13.3068C74.0901 13.7117 73.7032 14.2401 72.7776 14.2401C71.9095 14.2401 71.5132 13.7633 71.3472 13.3684L71.3229 13.3068C71.3191 13.2967 71.3155 13.2867 71.3121 13.2767L71.2931 13.2181L71.2774 13.1621C71.2751 13.153 71.2728 13.144 71.2707 13.1352L71.2596 13.0839C71.2193 12.9149 71.2142 12.6843 71.2193 12.4791V0.702452H67.1945V12.1136L67.1938 12.2054L67.1952 12.3658L67.2008 12.6018L67.2119 12.8887L67.2196 13.0331L67.2248 13.1097L67.2299 13.1661C67.4271 15.2773 68.6657 16.3763 70.4148 16.8361L70.5639 16.8734C70.8893 16.9511 71.2314 17.0077 71.5868 17.0455L71.7518 17.0616L71.9186 17.0751L72.0872 17.086C72.1719 17.0908 72.2572 17.0947 72.3432 17.0977L72.5158 17.1024L72.6899 17.1048C72.7191 17.1051 72.7483 17.1051 72.7776 17.1051L72.9528 17.1039C72.9818 17.1035 73.0108 17.103 73.0398 17.1024L73.2128 17.0977C73.2988 17.0947 73.3843 17.0908 73.4692 17.086L73.638 17.0751L73.8051 17.0616L73.9703 17.0455C76.325 16.7954 78.0913 15.7234 78.3346 13.1661L78.3379 13.1407L78.3445 13.0737L78.3542 12.9401L78.3629 12.7784L78.3677 12.6615L78.3726 12.4822L78.374 12.3658L78.3735 12.2563L78.3709 12.1576C78.3703 12.1423 78.3696 12.1276 78.3688 12.1136V0.702452ZM41.3768 0.702452L39.3685 13.1461L37.3614 0.702452H30.8671L30.5226 16.6215H34.5013L34.609 1.88476L37.3464 16.6215H41.3831L44.123 1.88476L44.2312 16.6215H48.2198L47.8637 0.702452H41.3768ZM17.3319 0.702452L14.3831 16.6215H18.6833L20.9054 1.88476L23.0742 16.6215H27.3445L24.4079 0.702452H17.3319ZM92.4391 13.5191L88.6902 0.702452H82.7828V16.4555H86.6907L86.4638 3.22875L90.4898 16.4555H96.1555V0.702452H92.222L92.4391 13.5191ZM56.2917 4.84542C56.221 4.53104 56.2414 4.19704 56.278 4.02247C56.2884 3.97614 56.3006 3.92944 56.3151 3.8828L56.3384 3.81295C56.4972 3.37163 56.8688 2.95709 57.7208 2.95709C58.6402 2.95709 59.1792 3.53025 59.1792 4.39041V5.36381H63.1039V4.25427C63.1039 1.75038 61.4651 0.787188 59.7141 0.449599L59.57 0.423242L59.4255 0.399589L59.2809 0.378528L59.1364 0.359946L58.9921 0.34373L58.8483 0.329767C58.8004 0.325475 58.7526 0.32154 58.705 0.317944L58.5626 0.308147L58.4212 0.300265L58.281 0.294185L58.1422 0.289792L58.0049 0.286975L57.8023 0.285457L57.713 0.285772L57.5355 0.288305C57.506 0.288941 57.4766 0.289684 57.4472 0.290535L57.272 0.296945C57.2139 0.29952 57.156 0.302533 57.0984 0.305994L56.9265 0.317722C54.5322 0.500873 52.6637 1.48436 52.29 3.79067C52.1794 4.49302 52.152 5.11647 52.328 5.91203C52.6051 7.21935 53.6941 8.14964 54.9443 8.92993L55.1378 9.04882C55.1702 9.06845 55.2027 9.08799 55.2353 9.10744L55.4316 9.22312L55.6292 9.3369L55.8275 9.44895L56.125 9.6142L56.9068 10.0426L57.0968 10.148L57.2835 10.2529L57.4664 10.3578L57.645 10.4626C58.497 10.9697 59.1797 11.4839 59.4253 12.0987C59.5613 12.4639 59.5315 12.9244 59.4658 13.2181L59.4546 13.2655C59.4383 13.3361 59.4179 13.4067 59.3922 13.4762L59.3647 13.5452C59.1839 13.9676 58.7887 14.3278 57.9203 14.3278C56.9297 14.3278 56.3334 13.7583 56.3334 12.9L56.3322 11.3722H52.1079V12.5866C52.1079 15.4369 53.9163 16.6751 56.1811 17.0427L56.3497 17.0683C56.4626 17.0844 56.5765 17.0983 56.6914 17.1103L56.8642 17.1268C57.0666 17.1444 57.2714 17.1559 57.4777 17.162L57.6549 17.1659C57.6845 17.1664 57.7141 17.1667 57.7438 17.1669L57.8328 17.1672C57.892 17.1672 57.951 17.1668 58.0098 17.166L58.1855 17.1621C58.2146 17.1613 58.2437 17.1603 58.2728 17.1592L58.4462 17.1515C58.5038 17.1484 58.5611 17.145 58.6181 17.141L58.7884 17.1279C58.9013 17.1183 59.0131 17.1068 59.1236 17.0934L59.2884 17.072L59.4513 17.0477C59.5052 17.0391 59.5588 17.0301 59.6121 17.0205L59.7707 16.9904C61.6879 16.6063 63.1144 15.5647 63.4009 13.5621C63.4403 13.2634 63.4646 12.9875 63.4776 12.7354L63.4847 12.5708C63.4857 12.5439 63.4865 12.5174 63.4871 12.4911L63.4898 12.3372V12.1904L63.4873 12.0508L63.4828 11.9185L63.4763 11.7934C63.4751 11.7732 63.4739 11.7533 63.4725 11.7337L63.4638 11.6198L63.4539 11.5133L63.443 11.4143L63.4256 11.28L63.4074 11.163L63.3839 11.034L63.3729 10.9812C63.0964 9.59493 61.8828 8.61577 60.5345 7.80979L60.3411 7.6958L60.1463 7.58401L59.9508 7.47428L59.6571 7.31321L59.2676 7.10421L58.6034 6.75093L58.3301 6.60305C58.3002 6.58671 58.2705 6.57039 58.241 6.55409L58.0661 6.45656L57.8962 6.35941C57.0596 5.87437 56.4273 5.39813 56.2917 4.84542ZM4.52034 4.80638C4.44809 4.50552 4.45939 4.18902 4.49645 4.00511L4.51179 3.93625L4.52921 3.86812C4.66179 3.3901 5.02429 2.8974 5.96122 2.8974C6.89231 2.8974 7.44053 3.47608 7.44053 4.34319V5.32844H11.4112V4.21012C11.4112 1.82072 9.92473 0.81724 8.26373 0.424706L8.11889 0.392094C7.99788 0.366169 7.87614 0.343334 7.75419 0.323294L7.60778 0.300569L7.46135 0.280414L7.3151 0.262716L7.16921 0.247362C7.12066 0.242622 7.07221 0.238253 7.02388 0.234238L6.8793 0.223231L6.73566 0.214229L6.59315 0.207117L6.45197 0.201783L6.3123 0.198113L6.10606 0.195312H6.03828C5.97875 0.195312 5.91946 0.195729 5.8604 0.196567L5.68397 0.200359C5.56684 0.203741 5.45074 0.208841 5.33576 0.215713L5.16415 0.227356C5.13569 0.229521 5.1073 0.231798 5.07899 0.234188L4.91004 0.249894C4.85404 0.255587 4.79834 0.26174 4.74297 0.268359L4.57785 0.289623C4.44108 0.308521 4.30642 0.330378 4.17407 0.355297L4.01638 0.386678L3.86098 0.42104L3.70796 0.458423C3.65736 0.471393 3.60716 0.484873 3.55739 0.498869L3.40934 0.542418C1.86837 1.01611 0.757857 2.00957 0.477528 3.73344C0.361832 4.44703 0.342005 5.07477 0.509211 5.87912C0.803587 7.26911 2.00419 8.23711 3.34739 9.05048L3.54489 9.16843C3.57794 9.18792 3.61106 9.20732 3.64423 9.22664L3.84378 9.34163L4.14427 9.51091L4.54428 9.73161L5.13431 10.0549L5.42094 10.2145L5.69958 10.3735L5.88002 10.4795C5.9097 10.4971 5.93918 10.5148 5.96845 10.5325L6.14137 10.6389C6.87879 11.1008 7.45634 11.5765 7.67928 12.1343C7.82529 12.497 7.79115 12.9573 7.72215 13.2606L7.71035 13.3096C7.69331 13.3794 7.67239 13.4493 7.64652 13.5181L7.61896 13.5864C7.43347 14.0163 7.03537 14.385 6.15561 14.385C5.16116 14.385 4.56633 13.8057 4.56633 12.9355L4.56081 11.4037H0.289062V12.621C0.289062 16.0378 2.86521 17.1608 5.7182 17.2452L5.89685 17.2491L6.0761 17.2504L6.25334 17.2492C6.34162 17.2479 6.42938 17.2457 6.51658 17.2425L6.69021 17.2348C6.77663 17.2304 6.86246 17.2249 6.94766 17.2184L7.11719 17.2041L7.28495 17.1871C7.34056 17.1809 7.39587 17.1743 7.45085 17.1673L7.61483 17.1447C7.66916 17.1367 7.72316 17.1282 7.77681 17.1192L7.9367 17.091C9.92207 16.7192 11.4017 15.6661 11.6996 13.6062C11.7406 13.3119 11.7663 13.0397 11.7806 12.7902L11.7886 12.6273L11.7934 12.4711C11.7945 12.4202 11.7952 12.3704 11.7954 12.3218L11.7949 12.1794L11.7921 12.0439L11.7873 11.9154L11.7807 11.794L11.7727 11.6796L11.7634 11.5724L11.7479 11.425L11.7312 11.2939L11.7086 11.1449L11.6828 11.0004C11.4074 9.63056 10.2299 8.65601 8.90524 7.85445L8.71042 7.73836C8.6778 7.71921 8.64512 7.70016 8.61239 7.6812L8.41539 7.56852L8.21762 7.45793L8.01957 7.34926L7.82179 7.24237L6.94912 6.77914L6.67005 6.62958L6.48883 6.53076L6.31207 6.43248L6.1403 6.33458C6.11212 6.31829 6.08417 6.302 6.05646 6.28573L5.89316 6.18811C5.17215 5.74891 4.6427 5.3095 4.52034 4.80638Z" fill="white"/>
</svg>
