<svg width="113" height="24" viewBox="0 0 113 24" fill="none" xmlns="http://www.w3.org/2000/svg">
<path d="M20.8932 12.5357L20.908 12.5369L22.4471 12.6978C22.5552 12.7094 22.6544 12.7621 22.7245 12.8446L22.7359 12.8586L22.7213 12.8659C22.7932 12.9567 22.825 13.0729 22.8091 13.1876C22.4728 15.8611 21.2056 18.3307 19.23 20.163C17.1801 22.0642 14.4875 23.1206 11.6916 23.1206C10.3336 23.1228 8.98722 22.8728 7.72088 22.3834L7.65188 22.3565C7.54823 22.3182 7.46496 22.2394 7.42087 22.1386L7.41423 22.1226C7.37106 22.0222 7.36866 21.9093 7.40704 21.8077L8.01457 20.3254C8.09689 20.1159 8.33019 20.0104 8.54088 20.0846L8.55489 20.0899C11.6602 21.2889 15.1773 20.6136 17.6178 18.3497C19.1711 16.9223 20.1728 14.9941 20.4473 12.9024C20.4764 12.6865 20.6638 12.5293 20.8785 12.5351L20.8932 12.5357ZM57.2436 6.24516C58.556 6.24516 59.5823 6.64558 60.2378 7.41456L60.2597 7.44062V6.78988C60.2685 6.60824 60.4091 6.46144 60.5887 6.44371L60.6033 6.44256H62.3545C62.5347 6.45501 62.678 6.59683 62.6935 6.77533L62.6945 6.78988V16.5108C62.7511 17.8815 62.3298 19.2294 61.5027 20.3239C60.5594 21.4718 59.1264 22.0531 57.2436 22.0531C54.626 22.0531 52.5604 20.397 52.2204 18.0316C52.2036 17.8609 52.3076 17.7021 52.4693 17.6485L52.4837 17.6441L54.1946 17.242C54.2035 17.24 54.2125 17.2383 54.2215 17.2369C54.4093 17.2094 54.5838 17.3393 54.6114 17.5271C54.7676 18.854 55.908 19.8438 57.2436 19.812C59.2668 19.812 60.2186 18.7837 60.2375 16.6347L60.2378 16.5693V15.7175C59.4794 16.5681 58.3826 17.0381 57.2436 17.0007C54.3335 17.0007 52.2241 14.7414 52.2241 11.6339C52.1975 10.2357 52.6898 8.87725 53.606 7.8208C54.5366 6.79841 55.8612 6.22466 57.2436 6.24516ZM4.54116 18.0681L4.56286 18.068L4.58463 18.0681C5.28316 18.0762 5.84558 18.641 5.85317 19.3369L5.85323 19.3587C5.85323 19.3659 5.85314 19.3732 5.85302 19.3804C5.84085 20.0931 5.25338 20.661 4.54074 20.6489C3.8281 20.6367 3.26025 20.0492 3.27229 19.3366C3.28421 18.6385 3.8482 18.0793 4.54116 18.0681ZM87.5563 6.1099L87.646 6.11057C90.7744 6.15377 92.7127 8.33131 92.7127 11.8166C92.7127 12.0011 92.7027 12.1853 92.6832 12.3687C92.6674 12.5373 92.5294 12.6674 92.3616 12.6754L92.3471 12.6758H84.911C84.9568 14.2375 86.2479 15.4733 87.8105 15.4506C89.0213 15.5267 90.1249 14.7566 90.4716 13.5934C90.5351 13.4265 90.7152 13.3366 90.8855 13.3845L90.8993 13.3887L92.3835 13.9115C92.4655 13.9379 92.5326 13.996 92.5705 14.0724L92.5773 14.087C92.618 14.1675 92.6249 14.261 92.5961 14.3465C91.9063 16.3877 89.9637 17.7383 87.8105 17.6734C86.3984 17.6874 85.0396 17.1358 84.0375 16.1416C82.9434 14.9906 82.3596 13.4473 82.4179 11.8605C82.4179 8.29555 84.98 6.15305 87.482 6.11056L87.5563 6.1099ZM45.479 6.10991H45.4827C48.667 6.10991 50.6448 8.2961 50.6448 11.8166C50.6446 12.0011 50.6348 12.1853 50.6155 12.3687C50.6008 12.5382 50.4619 12.6692 50.2933 12.6755L50.2792 12.6758H42.8432C42.889 14.2419 44.1867 15.4793 45.7532 15.4506C46.965 15.5281 48.0693 14.7575 48.4147 13.5934C48.4766 13.4251 48.658 13.3347 48.8286 13.3844L48.8424 13.3887L50.3267 13.9115C50.4135 13.9395 50.484 14.0034 50.5205 14.087C50.5552 14.17 50.5552 14.2635 50.5205 14.3465C49.8316 16.3864 47.8908 17.7367 45.7386 17.6734C44.3243 17.6894 42.9626 17.1376 41.9584 16.1416C40.866 14.9897 40.2824 13.4471 40.3389 11.8605C40.3389 8.25954 42.9528 6.10991 45.479 6.10991ZM34.219 6.10621C35.6484 6.10621 36.8037 6.45353 37.6592 7.13714C38.2376 7.59814 38.6663 8.22023 38.8912 8.9249L38.8919 8.92772C38.9212 9.04921 38.8498 9.17157 38.7314 9.20679L38.7194 9.21002L36.9463 9.79499C36.8676 9.82615 36.78 9.82615 36.7013 9.79499C36.6342 9.76364 36.5836 9.70507 36.5624 9.63415L36.553 9.59925C36.3914 9.02193 35.8635 8.09501 34.219 8.09501C33.0491 8.09501 32.3472 8.7677 32.3472 9.41845L32.3475 9.44422C32.3563 9.86736 32.5863 10.3985 33.5953 10.6004L33.6268 10.6066L35.579 10.9721C37.7361 11.4065 38.9795 12.5789 39.0041 14.2128L39.0045 14.2624L38.9972 14.2333L38.9967 14.2828C38.9653 15.9207 37.3811 17.6441 34.4639 17.6441C31.0457 17.6441 29.704 15.7101 29.4554 14.5696C29.4392 14.4502 29.512 14.3375 29.6258 14.3024L29.6382 14.299L31.4661 13.7287C31.4988 13.7234 31.5322 13.7234 31.5648 13.7287C31.6113 13.7279 31.6573 13.7377 31.6992 13.7574L31.7147 13.7652C31.7819 13.7974 31.8314 13.8577 31.85 13.9297C32.0803 15.0265 33.0711 15.6809 34.4968 15.6809C35.8239 15.6809 36.4271 14.9863 36.4271 14.3575C36.4271 13.7356 35.9014 13.2746 34.9952 13.0842L34.9648 13.0779L32.9139 12.6795C31.0018 12.3175 29.8101 11.1293 29.8101 9.58292C29.8101 7.70016 31.8317 6.10621 34.219 6.10621ZM107.951 3.06091H109.548C109.737 3.07222 109.884 3.22511 109.892 3.41237L109.892 3.42647V6.42795H111.814C112.001 6.44109 112.147 6.5933 112.155 6.77915L112.155 6.79351V8.38747L112.155 8.40135C112.149 8.58006 112.007 8.72521 111.829 8.73434L111.814 8.73478H109.892V14.0687C109.892 14.9534 110.242 15.319 111.145 15.319C111.328 15.3158 111.511 15.3019 111.692 15.2775L111.76 15.2678C111.86 15.2509 111.961 15.2791 112.038 15.3446C112.107 15.4086 112.148 15.4966 112.154 15.5902L112.155 15.6078V17.1103C112.156 17.2635 112.056 17.3991 111.91 17.443C111.489 17.5609 111.054 17.6201 110.617 17.619L110.557 17.6185C108.649 17.6185 107.459 16.4038 107.435 14.4392L107.435 14.3794V8.75673H105.772C105.59 8.74604 105.445 8.60374 105.429 8.42406L105.428 8.40941V6.80812C105.427 6.61922 105.571 6.462 105.757 6.44367L105.772 6.44256L106.219 6.4425L106.266 6.44165C106.789 6.42666 107.59 6.21508 107.607 5.0498L107.607 5.01308V3.42647C107.606 3.23757 107.75 3.08035 107.936 3.06202L107.951 3.06091ZM76.8994 6.10828L76.9413 6.10991H76.9375C78.8197 6.10991 80.7197 7.42127 80.7575 10.2853L80.7581 10.3726V17.1433C80.7496 17.3249 80.6084 17.4716 80.4291 17.4894L80.4145 17.4906H78.6631C78.4818 17.4798 78.3367 17.3376 78.3206 17.1579L78.3195 17.1433V10.592L78.3192 10.5415C78.3085 9.70676 78.0248 8.36551 76.3055 8.36551C75.0347 8.36551 74.1297 9.35448 74.1117 10.7932L74.1114 10.8369V17.1433C74.1029 17.3249 73.9624 17.4716 73.7825 17.4894L73.7678 17.4906H71.9952C71.8132 17.4798 71.6681 17.3376 71.6525 17.1579L71.6515 17.1433V10.592L71.6512 10.5415C71.6406 9.70676 71.3568 8.36551 69.6368 8.36551C68.3158 8.36551 67.4213 9.34728 67.4036 10.8142L67.4033 10.8588V17.1433C67.3942 17.3249 67.2536 17.4716 67.0743 17.4894L67.0597 17.4906H65.3084C65.1282 17.4781 64.985 17.3363 64.9695 17.1578L64.9685 17.1433V6.76793C64.9771 6.58758 65.1158 6.44129 65.2938 6.4219L65.3084 6.42061H66.9939C67.1752 6.4313 67.3208 6.5736 67.3365 6.75328L67.3375 6.76793V7.3931C68.0956 6.56188 69.1735 6.09486 70.2984 6.10991C71.6014 6.07172 72.8172 6.76059 73.4537 7.89755C74.2116 6.73944 75.5184 6.06191 76.8994 6.10828ZM103.121 7.40037C103.792 8.28422 104.138 9.37129 104.102 10.4793L104.1 10.5261V17.1433C104.092 17.3236 103.953 17.4699 103.775 17.4893L103.761 17.4906H101.988C101.806 17.4798 101.661 17.3376 101.645 17.1579L101.644 17.1433V10.8808C101.644 9.24294 100.872 8.40941 99.4102 8.40941C98.7643 8.38853 98.1467 8.67628 97.7466 9.18443C97.3598 9.74223 97.1599 10.4079 97.1755 11.0858L97.1766 11.1257V17.1433C97.1675 17.3249 97.0269 17.4716 96.8476 17.4894L96.833 17.4906H95.0635C94.8822 17.4798 94.7365 17.3376 94.7209 17.1579L94.7199 17.1433V6.76059C94.7284 6.57896 94.8695 6.43222 95.0489 6.41443L95.0635 6.41327H96.7929C96.973 6.42573 97.1162 6.5676 97.1318 6.74605L97.1327 6.76059V7.49179C97.8745 6.59311 98.9875 6.08389 100.153 6.10991C101.288 6.06138 102.382 6.53724 103.121 7.40037ZM1.22487 12.9792H13.812C14.0433 12.9812 14.2302 13.1664 14.236 13.3959L14.2361 13.4107V14.9864C14.2381 15.2176 14.056 15.4076 13.8267 15.4173L13.812 15.4177H1.22487C0.993519 15.4157 0.806719 15.2305 0.800781 15.001V14.9863V13.4106V13.3959C0.806595 13.1714 0.985542 12.9893 1.20985 12.9796L1.22487 12.9792ZM57.5471 8.43135C55.8215 8.43135 54.7247 9.65973 54.7247 11.6339C54.7247 13.608 55.8068 14.8327 57.5471 14.8327C59.2068 14.8327 60.3255 13.5459 60.3255 11.6339C60.3255 9.71818 59.2068 8.43135 57.5471 8.43135ZM42.921 10.5673L42.9163 10.6066H48.1186C47.9919 9.21678 47.0125 8.35011 45.5456 8.33292L45.501 8.33266C44.2084 8.31164 43.1077 9.25701 42.9262 10.5287L42.921 10.5673ZM85.0035 10.5673L84.9988 10.6066H90.2014C90.0748 9.21678 89.0951 8.35011 87.6281 8.33292L87.5835 8.33266C86.291 8.31164 85.1902 9.25701 85.0087 10.5287L85.0035 10.5673ZM15.3877 0.955104C15.4966 0.99442 15.585 1.07619 15.6326 1.18178C15.6763 1.28838 15.6763 1.40789 15.6326 1.51443L15.0842 2.97682C15.0082 3.19365 14.7712 3.30809 14.5541 3.23272C11.6813 2.2302 8.4935 2.79981 6.14566 4.73524C4.68245 5.95998 3.6435 7.61569 3.17711 9.46591C3.12882 9.65277 2.96059 9.78345 2.76765 9.78401H2.67259L1.16636 9.42208C1.05406 9.39569 0.957621 9.32427 0.899494 9.22463H0.892157C0.831209 9.12505 0.814028 9.00472 0.84469 8.89198C1.44283 6.52351 2.78119 4.40774 4.66502 2.85248C7.66054 0.386375 11.7278 -0.333347 15.3877 0.955104ZM9.81249 7.27245H22.3996C22.6252 7.27429 22.8096 7.45075 22.823 7.67422L22.8237 7.68918V9.26488C22.8256 9.49623 22.6437 9.68622 22.4143 9.69592L22.3996 9.69629H9.81249C9.58266 9.69236 9.39799 9.50782 9.39217 9.27981L9.39202 9.26488V7.70379C9.39003 7.47396 9.56976 7.28468 9.79757 7.27296L9.81249 7.27245ZM18.5504 2.46494L18.5721 2.46477L18.5939 2.46496C19.2924 2.47297 19.8548 3.03779 19.8624 3.7337L19.8625 3.75548C19.8625 3.76276 19.8624 3.77003 19.8623 3.77724C19.8502 4.48988 19.2626 5.05773 18.55 5.04563C17.8373 5.03353 17.2695 4.44599 17.2816 3.73341C17.2934 3.03526 17.8575 2.4761 18.5504 2.46494Z" fill="white"/>
</svg>
