<svg width="263" height="66" viewBox="0 0 263 66" fill="none" xmlns="http://www.w3.org/2000/svg">
<g clip-path="url(#clip0_366_1163)">
<path d="M0 46.0245H31.741V40.3044H6.62655V0H0.000269542L0 46.0245ZM89.765 46.5505C102.024 46.5505 109.379 39.5153 109.379 26.1682V0H102.952V25.9051C102.952 36.0962 98.1807 40.6987 89.8313 40.6987C81.4821 40.6987 76.7773 36.0962 76.7773 25.9051V0H70.1507V26.1682C70.1507 39.5153 77.5722 46.5505 89.765 46.5505ZM191.06 46.0245L173.5 22.2231L189.868 0H182.645L169.789 17.6866L156.801 0H149.247L165.615 22.4206L148.187 46.0245H155.807L169.524 27.0229L183.44 46.0245H191.06ZM235.964 40.3044V25.4449H259.223V19.8562H235.964V5.72007H262.072V0H229.337V46.0245H263V40.3044H235.964Z" fill="black"/>
<path d="M1.53125 64.1953H14.0592V65.2692H1.53125V64.1953Z" fill="black"/>
<path d="M26.7908 65.1788H27.9136V55.6048H31.6457V54.6413H23.0586V55.6048H26.7908V65.1788ZM46.1849 65.1788L43.5905 61.5658C45.1378 61.0689 46.0179 59.91 46.0179 58.254C46.0179 55.9959 44.3792 54.641 41.6786 54.641H37.7035V65.1788H38.8264V61.837H41.6786C41.9818 61.837 42.2551 61.822 42.528 61.7918L44.9554 65.1788H46.1849ZM41.6485 60.8885H38.8264V55.6048H41.6485C43.7726 55.6048 44.8953 56.568 44.8953 58.254C44.8953 59.91 43.7726 60.8885 41.6485 60.8885ZM60.8755 65.1788H62.0592L57.2037 54.641H56.0963L51.2411 65.1788H52.4093L53.6837 62.3639H59.6011L60.8755 65.1788ZM54.0938 61.4606L56.6427 55.8002L59.1916 61.4606H54.0938ZM75.8545 54.6413V63.1919L69.0119 54.6413H68.0866V65.1791H69.2092V56.6285L76.0364 65.1791H76.962V54.6413H75.8545ZM87.6171 65.2693C90.3327 65.2693 91.5767 63.9447 91.5767 62.3941C91.5767 58.5555 85.0376 60.3014 85.0376 57.4113C85.0376 56.3573 85.9025 55.4993 87.8442 55.4993C88.785 55.4993 89.847 55.7852 90.7574 56.3723L91.1368 55.4843C90.2871 54.8972 89.0431 54.5508 87.8442 54.5508C85.1436 54.5508 83.9302 55.8907 83.9302 57.4415C83.9302 61.3401 90.4693 59.5639 90.4693 62.4544C90.4693 63.4928 89.6044 64.3211 87.6171 64.3211C86.221 64.3211 84.8707 63.779 84.1123 63.0414L83.6724 63.8994C84.4614 64.7125 86.0243 65.2693 87.6171 65.2693ZM105.57 55.6048V54.6413H98.2872V65.1791H99.4101V60.7081H104.902V59.7449H99.4101V55.6053H105.57V55.6048ZM116.665 65.2693C119.851 65.2693 122.233 62.9965 122.233 59.9103C122.233 56.8242 119.851 54.5508 116.665 54.5508C113.448 54.5508 111.081 56.8392 111.081 59.9103C111.081 62.9812 113.448 65.2693 116.665 65.2693ZM116.665 64.2758C114.101 64.2758 112.189 62.4244 112.189 59.9103C112.189 57.3963 114.101 55.5445 116.665 55.5445C119.214 55.5445 121.11 57.3963 121.11 59.9103C121.11 62.4244 119.214 64.2758 116.665 64.2758ZM137.5 65.1791L134.905 61.5661C136.453 61.0692 137.333 59.9103 137.333 58.2543C137.333 55.9962 135.694 54.6413 132.994 54.6413H129.019V65.1791H130.141V61.8373H132.994C133.297 61.8373 133.57 61.8223 133.843 61.792L136.271 65.1791H137.5H137.5ZM132.964 60.8888H130.142V55.6051H132.964C135.088 55.6051 136.211 56.5682 136.211 58.2543C136.211 59.9103 135.088 60.8888 132.964 60.8888ZM154.36 54.6416L149.794 62.4546L145.181 54.6416H144.256V65.1794H145.334V56.7945L149.506 63.8395H150.037L154.209 56.7492V65.1794H155.286V54.6416H154.36ZM170.948 65.1794H172.131L167.276 54.6416H166.168L161.313 65.1794H162.481L163.756 62.3644H169.673L170.948 65.1794ZM164.166 61.4612L166.715 55.8007L169.264 61.4612H164.166ZM179.691 65.1794H180.814V55.6053H184.546V54.6419H175.959V55.6053H179.691V65.1794ZM190.604 65.1794H191.727V54.6416H190.604V65.1794ZM204.096 65.2696C207.282 65.2696 209.664 62.9968 209.664 59.9106C209.664 56.8245 207.282 54.5511 204.096 54.5511C200.879 54.5511 198.513 56.8395 198.513 59.9106C198.513 62.9815 200.879 65.2696 204.096 65.2696ZM204.096 64.2761C201.532 64.2761 199.62 62.4247 199.62 59.9106C199.62 57.3966 201.532 55.5448 204.096 55.5448C206.645 55.5448 208.541 57.3966 208.541 59.9106C208.541 62.4247 206.645 64.2761 204.096 64.2761ZM224.218 54.6416V63.1922L217.375 54.6416H216.45V65.1794H217.573V56.6288L224.4 65.1794H225.326V54.6416H224.218ZM235.981 65.2696C238.696 65.2696 239.941 63.945 239.941 62.3944C239.941 58.5557 233.401 60.3017 233.401 57.4116C233.401 56.3576 234.266 55.4996 236.208 55.4996C237.149 55.4996 238.211 55.7855 239.121 56.3726L239.501 55.4846C238.651 54.8975 237.407 54.5511 236.208 54.5511C233.507 54.5511 232.294 55.891 232.294 57.4418C232.294 61.3404 238.833 59.5642 238.833 62.4546C238.833 63.4931 237.968 64.3214 235.981 64.3214C234.585 64.3214 233.234 63.7793 232.476 63.0417L232.036 63.8997C232.825 64.7128 234.387 65.2696 235.981 65.2696Z" fill="black"/>
<path d="M248.941 64.1953H261.469V65.2692H248.941V64.1953Z" fill="black"/>
</g>
<defs>
<clipPath id="clip0_366_1163">
<rect width="263" height="65.2693" fill="white"/>
</clipPath>
</defs>
</svg>
