<svg width="40" height="41" viewBox="0 0 40 41" fill="none" xmlns="http://www.w3.org/2000/svg">
<path d="M23.3783 15.7292C22.8766 15.1562 22.5995 14.4208 22.5983 13.6592H20.3283V22.7692C20.3057 23.2601 20.0985 23.7244 19.7483 24.0692C19.5057 24.3029 19.2055 24.4683 18.8784 24.5486C18.5512 24.6289 18.2086 24.6212 17.8853 24.5264C17.5621 24.4315 17.2696 24.2528 17.0377 24.0085C16.8058 23.7641 16.6427 23.4628 16.5648 23.135C16.487 22.8072 16.4972 22.4647 16.5945 22.1422C16.6918 21.8196 16.8726 21.5285 17.1187 21.2985C17.3648 21.0684 17.6673 20.9075 17.9957 20.8321C18.324 20.7567 18.6665 20.7695 18.9883 20.8692V18.5492C18.3971 18.4695 17.7958 18.5169 17.2244 18.6882C16.6531 18.8596 16.1249 19.151 15.6753 19.5429C15.2256 19.9349 14.8648 20.4183 14.617 20.9609C14.3692 21.5034 14.24 22.0927 14.2383 22.6892C14.2383 25.1392 16.2683 26.8792 18.4183 26.8792C19.5278 26.8765 20.591 26.4339 21.3746 25.6484C22.1582 24.8629 22.5983 23.7987 22.5983 22.6892V18.0792C23.5195 18.7391 24.6251 19.0924 25.7583 19.0892V16.8192C25.3068 16.8174 24.861 16.7193 24.4505 16.5313C24.0401 16.3433 23.6745 16.0699 23.3783 15.7292Z" fill="white"/>
<path d="M20 1.46953C22.5147 1.46567 25.0043 1.96904 27.32 2.94953C31.8212 4.86405 35.4055 8.4483 37.32 12.9495C38.2969 15.2663 38.8002 17.7552 38.8002 20.2695C38.8002 22.7839 38.2969 25.2727 37.32 27.5895C35.4055 32.0908 31.8212 35.675 27.32 37.5895C25.0032 38.5664 22.5143 39.0697 20 39.0697C17.4857 39.0697 14.9968 38.5664 12.68 37.5895C8.17878 35.675 4.59453 32.0908 2.68001 27.5895C1.70311 25.2727 1.19982 22.7839 1.19982 20.2695C1.19982 17.7552 1.70311 15.2663 2.68001 12.9495C4.59453 8.4483 8.17878 4.86405 12.68 2.94953C14.9957 1.96904 17.4853 1.46567 20 1.46953ZM20 0.269534C16.0444 0.269534 12.1776 1.44251 8.8886 3.64014C5.59962 5.83777 3.03617 8.96134 1.52242 12.6159C0.00866565 16.2704 -0.387401 20.2917 0.384303 24.1713C1.15601 28.051 3.06082 31.6146 5.85787 34.4117C8.65492 37.2087 12.2186 39.1135 16.0982 39.8852C19.9778 40.6569 23.9991 40.2609 27.6537 38.7471C31.3082 37.2334 34.4318 34.6699 36.6294 31.3809C38.827 28.0919 40 24.2252 40 20.2695C40.0013 17.6427 39.4849 15.0414 38.4803 12.6143C37.4756 10.1872 36.0025 7.9819 34.1451 6.12447C32.2876 4.26703 30.0823 2.79389 27.6552 1.78927C25.2281 0.784637 22.6268 0.268219 20 0.269534Z" fill="white"/>
</svg>
