<svg width="18" height="18" viewBox="0 0 18 18" fill="none" xmlns="http://www.w3.org/2000/svg">
<path d="M14.8737 3.09107C14.1097 2.31934 13.1997 1.70745 12.1967 1.29111C11.1938 0.874761 10.118 0.662282 9.03203 0.666065C4.48203 0.666065 0.773698 4.3744 0.773698 8.9244C0.773698 10.3827 1.15703 11.7994 1.8737 13.0494L0.707031 17.3327L5.08203 16.1827C6.29036 16.8411 7.6487 17.1911 9.03203 17.1911C13.582 17.1911 17.2904 13.4827 17.2904 8.93273C17.2904 6.7244 16.432 4.6494 14.8737 3.09107ZM9.03203 15.7911C7.7987 15.7911 6.59036 15.4577 5.53203 14.8327L5.28203 14.6827L2.68203 15.3661L3.3737 12.8327L3.20703 12.5744C2.52182 11.4802 2.15798 10.2154 2.15703 8.9244C2.15703 5.14106 5.24036 2.05773 9.0237 2.05773C10.857 2.05773 12.582 2.7744 13.8737 4.0744C14.5133 4.71103 15.0201 5.46828 15.3649 6.30225C15.7096 7.13622 15.8854 8.03032 15.882 8.93273C15.8987 12.7161 12.8154 15.7911 9.03203 15.7911ZM12.7987 10.6577C12.5904 10.5577 11.5737 10.0577 11.3904 9.98273C11.1987 9.91607 11.0654 9.88273 10.9237 10.0827C10.782 10.2911 10.3904 10.7577 10.2737 10.8911C10.157 11.0327 10.032 11.0494 9.8237 10.9411C9.61537 10.8411 8.9487 10.6161 8.16536 9.91607C7.5487 9.36607 7.14036 8.69106 7.01536 8.48273C6.8987 8.2744 6.9987 8.16606 7.10703 8.05773C7.1987 7.96606 7.31536 7.81606 7.41537 7.6994C7.51537 7.58273 7.55703 7.49106 7.6237 7.35773C7.69036 7.21606 7.65703 7.0994 7.60703 6.9994C7.55703 6.8994 7.14036 5.88273 6.9737 5.46607C6.80703 5.06607 6.63203 5.11607 6.50703 5.10773H6.10703C5.96536 5.10773 5.7487 5.15773 5.55703 5.36607C5.3737 5.5744 4.84036 6.0744 4.84036 7.09107C4.84036 8.10773 5.58203 9.09107 5.68203 9.2244C5.78203 9.36607 7.14036 11.4494 9.20703 12.3411C9.6987 12.5577 10.082 12.6827 10.382 12.7744C10.8737 12.9327 11.3237 12.9077 11.682 12.8577C12.082 12.7994 12.907 12.3577 13.0737 11.8744C13.2487 11.3911 13.2487 10.9827 13.1904 10.8911C13.132 10.7994 13.007 10.7577 12.7987 10.6577Z" fill="white"/>
</svg>
