<svg width="40" height="41" viewBox="0 0 40 41" fill="none" xmlns="http://www.w3.org/2000/svg">
<path d="M24.6597 15.5898C24.0555 14.9764 23.3347 14.4902 22.5397 14.1598C21.2755 13.6338 19.8783 13.5172 18.5445 13.8264C17.2106 14.1356 16.0072 14.855 15.1034 15.8836C14.1995 16.9121 13.6408 18.198 13.5056 19.5605C13.3704 20.9231 13.6656 22.2937 14.3497 23.4798L13.4297 26.8798L16.8897 25.9698C17.8874 26.5092 19.008 26.7808 20.142 26.7579C21.276 26.735 22.3847 26.4185 23.3599 25.8393C24.3351 25.26 25.1434 24.4378 25.706 23.4529C26.2686 22.468 26.5661 21.354 26.5697 20.2198C26.5728 19.3601 26.4056 18.5084 26.0778 17.7137C25.7499 16.9191 25.268 16.1972 24.6597 15.5898ZM20.0297 25.6498C19.0515 25.6515 18.091 25.3889 17.2497 24.8898L17.0497 24.7798L14.9897 25.3198L15.5397 23.3098L15.4097 23.0998C14.8934 22.2764 14.6071 21.3298 14.5806 20.3583C14.554 19.3868 14.7882 18.426 15.2588 17.5756C15.7294 16.7253 16.4192 16.0166 17.2564 15.5232C18.0937 15.0297 19.0478 14.7696 20.0197 14.7698C20.7342 14.766 21.4423 14.9056 22.1019 15.1805C22.7615 15.4553 23.3592 15.8597 23.8597 16.3698C24.3686 16.8722 24.773 17.4704 25.0497 18.1298C25.3207 18.7932 25.46 19.5031 25.4597 20.2198C25.461 20.9332 25.3215 21.6399 25.049 22.2993C24.7766 22.9587 24.3767 23.5578 23.8722 24.0623C23.3677 24.5668 22.7686 24.9667 22.1092 25.2391C21.4498 25.5115 20.7431 25.6511 20.0297 25.6498ZM23.0097 21.5798L21.8997 21.0498C21.7397 20.9998 21.6397 20.9698 21.5297 21.1298C21.4197 21.2898 21.0997 21.6598 21.0097 21.7698C20.9197 21.8798 20.8197 21.8998 20.6497 21.8098C20.1702 21.616 19.7273 21.3421 19.3397 20.9998C18.9817 20.6668 18.6751 20.2826 18.4297 19.8598C18.3397 19.6998 18.4097 19.6098 18.4997 19.5198C18.5846 19.4308 18.6647 19.3373 18.7397 19.2398C18.8091 19.1584 18.8663 19.0675 18.9097 18.9698C18.931 18.9241 18.9412 18.874 18.9394 18.8236C18.9377 18.7732 18.9241 18.7239 18.8997 18.6798C18.8597 18.6098 18.5297 17.7998 18.3897 17.4698C18.2497 17.1398 18.1197 17.1898 18.0197 17.1798H17.7097C17.6256 17.1814 17.5429 17.201 17.467 17.2372C17.3911 17.2734 17.3238 17.3254 17.2697 17.3898C17.0862 17.5672 16.941 17.7802 16.843 18.0158C16.745 18.2514 16.6962 18.5046 16.6997 18.7598C16.6997 19.5598 17.2897 20.3398 17.3697 20.4498C17.4497 20.5598 18.5297 22.2098 20.1697 22.9198C20.4713 23.0549 20.7821 23.1685 21.0997 23.2598C21.4326 23.3645 21.7857 23.3885 22.1297 23.3298C22.4397 23.2798 23.0997 22.9298 23.2297 22.5498C23.3597 22.1698 23.3697 21.8398 23.3197 21.7698C23.2697 21.6998 23.1797 21.6598 23.0097 21.5798Z" fill="white"/>
<path d="M20 1.46953C22.5147 1.46567 25.0043 1.96904 27.32 2.94953C31.8212 4.86405 35.4055 8.4483 37.32 12.9495C38.2969 15.2663 38.8002 17.7552 38.8002 20.2695C38.8002 22.7839 38.2969 25.2727 37.32 27.5895C35.4055 32.0908 31.8212 35.675 27.32 37.5895C25.0032 38.5664 22.5143 39.0697 20 39.0697C17.4857 39.0697 14.9968 38.5664 12.68 37.5895C8.17878 35.675 4.59453 32.0908 2.68001 27.5895C1.70311 25.2727 1.19982 22.7839 1.19982 20.2695C1.19982 17.7552 1.70311 15.2663 2.68001 12.9495C4.59453 8.4483 8.17878 4.86405 12.68 2.94953C14.9957 1.96904 17.4853 1.46567 20 1.46953ZM20 0.269534C16.0444 0.269534 12.1776 1.44251 8.8886 3.64014C5.59962 5.83777 3.03617 8.96134 1.52242 12.6159C0.00866565 16.2704 -0.387401 20.2917 0.384303 24.1713C1.15601 28.051 3.06082 31.6146 5.85787 34.4117C8.65492 37.2087 12.2186 39.1135 16.0982 39.8852C19.9778 40.6569 23.9991 40.2609 27.6537 38.7471C31.3082 37.2334 34.4318 34.6699 36.6294 31.3809C38.827 28.0919 40 24.2252 40 20.2695C40.0013 17.6427 39.4849 15.0414 38.4803 12.6143C37.4756 10.1872 36.0025 7.9819 34.1451 6.12447C32.2876 4.26703 30.0823 2.79389 27.6552 1.78927C25.2281 0.784637 22.6268 0.268219 20 0.269534Z" fill="white"/>
</svg>
