<svg width="80" height="80" viewBox="0 0 80 80" fill="none" xmlns="http://www.w3.org/2000/svg">
<path d="M53.9723 25.8462C52.1446 23.9907 49.964 22.5198 47.559 21.5203C43.7347 19.9292 39.5079 19.5765 35.4729 20.5118C31.4378 21.4472 27.7973 23.6236 25.0631 26.735C22.3289 29.8464 20.6385 33.7365 20.2296 37.8583C19.8206 41.9801 20.7136 46.1265 22.7831 49.7145L20 60L30.467 57.2471C33.4853 58.8791 36.8752 59.7006 40.3057 59.6314C43.7363 59.5621 47.0903 58.6046 50.0403 56.8523C52.9904 55.0999 55.4356 52.6126 57.1375 49.6331C58.8393 46.6537 59.7395 43.2838 59.7503 39.8526C59.7596 37.2521 59.2538 34.6755 58.2621 32.2715C57.2704 29.8675 55.8124 27.6838 53.9723 25.8462ZM39.9659 56.2791C37.0067 56.2842 34.101 55.4899 31.556 53.98L30.951 53.6472L24.7192 55.2808L26.383 49.2003L25.9898 48.565C24.4279 46.0742 23.5618 43.2105 23.4816 40.2716C23.4013 37.3328 24.1098 34.4261 25.5334 31.8538C26.9569 29.2814 29.0436 27.1374 31.5764 25.6447C34.1092 24.152 36.9957 23.365 39.9356 23.3656C42.0973 23.3541 44.2392 23.7766 46.2346 24.608C48.23 25.4394 50.0382 26.6629 51.5521 28.2058C53.0916 29.7257 54.3151 31.5352 55.1521 33.5301C55.972 35.5371 56.3933 37.6846 56.3924 39.8526C56.3963 42.0109 55.9742 44.1487 55.1501 46.1435C54.326 48.1382 53.1162 49.9506 51.59 51.4768C50.0639 53.0029 48.2515 54.2127 46.2567 55.0368C44.262 55.8609 42.1242 56.2831 39.9659 56.2791ZM48.9808 43.9668L45.6229 42.3635C45.1389 42.2122 44.8363 42.1215 44.5036 42.6055C44.1708 43.0895 43.2028 44.2088 42.9305 44.5416C42.6583 44.8743 42.3557 44.9348 41.8415 44.6626C40.3911 44.0764 39.051 43.2478 37.8785 42.2122C36.7956 41.2049 35.868 40.0427 35.1257 38.7636C34.8534 38.2795 35.0652 38.0073 35.3374 37.735C35.5942 37.4657 35.8366 37.183 36.0635 36.888C36.2733 36.6419 36.4465 36.3668 36.5777 36.0712C36.6422 35.9329 36.673 35.7814 36.6678 35.6289C36.6625 35.4765 36.6213 35.3274 36.5475 35.1939C36.4265 34.9821 35.4282 32.5318 35.0047 31.5335C34.5811 30.5352 34.1879 30.6865 33.8854 30.6562H32.9476C32.6933 30.6611 32.4429 30.7204 32.2134 30.8299C31.9838 30.9395 31.7803 31.0969 31.6165 31.2915C31.0615 31.8281 30.6222 32.4726 30.3257 33.1853C30.0291 33.8981 29.8816 34.664 29.8922 35.4359C29.8922 37.856 31.677 40.2156 31.919 40.5484C32.161 40.8812 35.4282 45.8726 40.3894 48.0205C41.3018 48.4291 42.2419 48.7728 43.2028 49.049C44.2099 49.3657 45.2779 49.4383 46.3187 49.2608C47.2565 49.1095 49.253 48.0507 49.6463 46.9012C50.0396 45.7516 50.0698 44.7533 49.9186 44.5416C49.7673 44.3298 49.4951 44.2088 48.9808 43.9668Z" fill="#C1A457" style="fill:#C1A457;fill:color(display-p3 0.7569 0.6431 0.3412);fill-opacity:1;"/>
<path d="M40 2.4C45.0294 2.39227 50.0087 3.39901 54.64 5.36C63.6425 9.18904 70.811 16.3575 74.64 25.36C76.5938 29.9936 77.6004 34.9713 77.6004 40C77.6004 45.0286 76.5938 50.0064 74.64 54.64C70.811 63.6425 63.6425 70.811 54.64 74.64C50.0064 76.5938 45.0287 77.6004 40 77.6004C34.9714 77.6004 29.9936 76.5938 25.36 74.64C16.3576 70.811 9.18906 63.6425 5.36002 54.64C3.40621 50.0064 2.39965 45.0286 2.39965 40C2.39965 34.9713 3.40621 29.9936 5.36002 25.36C9.18906 16.3575 16.3576 9.18904 25.36 5.36C29.9913 3.39901 34.9706 2.39227 40 2.4ZM40 5.00546e-06C32.0888 5.00546e-06 24.3552 2.34596 17.7772 6.74122C11.1992 11.1365 6.07234 17.3836 3.04484 24.6927C0.0173313 32.0017 -0.774802 40.0444 0.768607 47.8036C2.31202 55.5628 6.12164 62.6902 11.7157 68.2843C17.3098 73.8784 24.4372 77.688 32.1964 79.2314C39.9556 80.7748 47.9983 79.9827 55.3073 76.9552C62.6164 73.9277 68.8635 68.8008 73.2588 62.2228C77.654 55.6448 80 47.9112 80 40C80.0026 34.7464 78.9698 29.5438 76.9605 24.6896C74.9513 19.8353 72.005 15.4247 68.2901 11.7099C64.5753 7.995 60.1647 5.04873 55.3105 3.03947C50.4562 1.03021 45.2536 -0.00262377 40 5.00546e-06Z" fill="#C1A457" style="fill:#C1A457;fill:color(display-p3 0.7569 0.6431 0.3412);fill-opacity:1;"/>
</svg>
