<svg width="360" height="80" viewBox="0 0 360 80" fill="none" xmlns="http://www.w3.org/2000/svg">
<g clip-path="url(#clip0_2177_21383)">
<path d="M81.5187 19.3713C82.9392 18.6611 87.007 16.724 88.8795 15.9492C88.6857 16.8532 88.492 17.6926 88.2338 18.5965L86.555 25.699C85.4573 30.2188 84.3597 34.8677 83.3912 38.6772C81.9061 44.5529 80.2273 50.5578 78.8714 54.7547C78.2303 56.971 76.9741 58.9602 75.2485 60.4916C73.5228 62.023 71.3984 63.0338 69.1216 63.4068C65.4055 63.9775 61.6437 64.1937 57.8867 64.0525C60.7923 61.3407 63.7624 57.7248 64.3435 57.2729H65.0538C66.6824 57.2846 68.2929 56.9316 69.7673 56.2398C71.3197 55.2968 72.452 53.7949 72.9311 52.0428C74.0288 47.5876 75.5138 42.0993 76.8698 36.8047C78.2257 31.5102 79.4525 26.603 80.4856 22.406L81.1958 19.5005L81.5187 19.3713Z" fill="#979796" style="fill:#979796;fill:color(display-p3 0.5922 0.5922 0.5882);fill-opacity:1;"/>
<path d="M216.468 20.6632C213.256 20.4711 210.033 20.6009 206.847 21.0506C204.491 21.4639 202.297 22.5301 200.517 24.1281C198.736 25.7262 197.439 27.7918 196.774 30.0901C195.354 34.4162 192.836 44.8117 192.319 47.007L191.803 49.4606H198.905C198.905 49.4606 201.682 37.5155 202.844 32.9311C203.002 32.0737 203.351 31.2629 203.865 30.5587C204.379 29.8546 205.045 29.2751 205.814 28.8633C207.051 28.352 208.356 28.0256 209.688 27.8948L216.468 20.6632Z" fill="#979796" style="fill:#979796;fill:color(display-p3 0.5922 0.5922 0.5882);fill-opacity:1;"/>
<path d="M134.984 21.6963C133.562 21.0523 132.018 20.7245 130.457 20.7356C128.896 20.7468 127.357 21.0966 125.944 21.7609C122.199 23.422 119.079 26.2319 117.036 29.7838C114.993 33.3358 114.133 37.4457 114.58 41.5188C114.678 43.4599 115.468 45.3019 116.806 46.7112C118.145 48.1206 119.943 49.0043 121.877 49.2024C123.233 49.3315 124.524 49.3315 126.074 49.3315H126.719C126.855 48.9967 126.963 48.6512 127.042 48.2984L128.527 41.9708L128.721 41.0022L127.171 41.3896C126.522 41.548 125.847 41.5666 125.19 41.4441C124.533 41.3217 123.91 41.061 123.362 40.6794C122.926 40.3686 122.566 39.9632 122.309 39.4936C122.051 39.024 121.904 38.5023 121.877 37.9675C121.653 36.3834 121.879 34.7681 122.53 33.3065C123.181 31.845 124.23 30.5961 125.557 29.7028C126.378 29.1103 127.357 28.7754 128.369 28.7409C129.38 28.7064 130.38 28.9738 131.239 29.5091C133.693 30.9942 132.853 34.158 132.337 36.4825C131.82 38.8069 131.497 39.9691 131.11 41.7125C130.722 43.4558 129.883 46.2968 129.173 48.6213C128.463 50.9457 127.752 53.3348 127.3 55.4009L125.622 62.3743L133.563 57.6608L133.757 56.8214C134.403 53.9804 135.307 50.8812 136.146 47.911C136.986 44.9409 138.148 40.744 138.923 37.451C139.518 34.9498 139.886 32.3996 140.02 29.8319C140.1 28.126 139.662 26.4357 138.763 24.9836C137.864 23.5314 136.547 22.3854 134.984 21.6963Z" fill="#979796" style="fill:#979796;fill:color(display-p3 0.5922 0.5922 0.5882);fill-opacity:1;"/>
<path d="M112.512 29.3784C112.39 26.9935 111.349 24.7487 109.607 23.1153L109.284 22.857C107.624 21.4562 105.516 20.6998 103.344 20.7263C101.656 20.745 99.9886 21.096 98.4366 21.7593C94.8751 23.3162 91.8664 25.9118 89.8043 29.2067C87.7421 32.5015 86.7225 36.3421 86.8789 40.2259C86.8793 41.5437 87.1487 42.8476 87.6705 44.0578C88.1923 45.2679 88.9556 46.3589 89.9136 47.2638C91.6754 48.7073 93.9002 49.4642 96.1767 49.3945H99.2114L101.213 41.0007L99.728 41.3881C99.0581 41.5491 98.3621 41.569 97.684 41.4468C97.006 41.3245 96.3608 41.0627 95.7893 40.6778C95.3534 40.3377 94.9953 39.9082 94.7392 39.4181C94.483 38.9281 94.3347 38.3889 94.3043 37.8368C94.115 36.3756 94.3137 34.8903 94.8804 33.5302C95.4471 32.1701 96.3618 30.9832 97.5327 30.0886C98.4509 29.3903 99.5475 28.9651 100.697 28.8619C101.279 28.746 101.88 28.7552 102.458 28.8888C103.037 29.0224 103.581 29.2773 104.054 29.6367C104.48 30.0705 104.813 30.5858 105.035 31.1516C105.257 31.7174 105.363 32.3221 105.345 32.9296C105.335 33.5127 105.291 34.0947 105.216 34.673L105.023 35.7707C104.506 37.7723 104.054 39.8384 103.538 41.8401L102.956 44.2936L101.988 48.7489C101.988 48.9426 101.923 49.1363 101.923 49.33H108.638L111.479 36.9974C111.544 36.8683 111.544 36.6746 111.609 36.5455C112.161 34.5239 112.465 32.4422 112.512 30.3469V29.3784Z" fill="#979796" style="fill:#979796;fill:color(display-p3 0.5922 0.5922 0.5882);fill-opacity:1;"/>
<path d="M192.514 29.3782C192.483 28.1975 192.215 27.0349 191.727 25.9593C191.239 24.8836 190.541 23.9165 189.673 23.1151L189.286 22.8568C187.649 21.4604 185.562 20.7036 183.41 20.7261C181.723 20.7448 180.055 21.0958 178.503 21.7592C174.941 23.316 171.933 25.9116 169.871 29.2065C167.808 32.5013 166.789 36.3419 166.945 40.2257C166.934 41.5394 167.191 42.8416 167.702 44.0521C168.213 45.2625 168.966 46.3555 169.915 47.2636C171.683 48.6969 173.904 49.4525 176.179 49.3944H179.213C179.278 49.3944 181.215 41.0005 181.215 41.0005L179.73 41.3879C179.07 41.5435 178.385 41.5608 177.718 41.4385C177.052 41.3163 176.417 41.0572 175.856 40.6777C175.411 40.3409 175.043 39.9134 174.776 39.4237C174.509 38.9339 174.348 38.3929 174.306 37.8366C174.144 36.3711 174.361 34.8884 174.938 33.5313C175.515 32.1743 176.431 30.9886 177.599 30.0885C178.501 29.4042 179.573 28.9799 180.698 28.8617C181.281 28.7372 181.883 28.7421 182.463 28.876C183.043 29.0099 183.587 29.2695 184.056 29.6365C184.503 30.0577 184.855 30.5692 185.088 31.137C185.322 31.7048 185.432 32.3158 185.412 32.9295C185.401 33.5125 185.358 34.0945 185.283 34.6728C185.22 35.0438 185.134 35.4105 185.024 35.7705C184.572 37.7721 184.12 39.8383 183.604 41.8399L183.023 44.2935L182.054 48.7487C181.99 48.9424 181.99 49.1361 181.925 49.3298H188.705L191.546 36.9973L191.675 36.5453C192.197 34.5173 192.5 32.4393 192.579 30.3467C192.589 30.0226 192.568 29.6981 192.514 29.3782Z" fill="#979796" style="fill:#979796;fill:color(display-p3 0.5922 0.5922 0.5882);fill-opacity:1;"/>
<path d="M166.488 20.9854C164.809 20.9854 163.195 21.0499 161.581 20.9854C161.064 20.9854 161.064 20.9854 161.064 21.0499C161.064 21.1145 161.064 21.0499 160.935 21.5665C159.708 26.7965 158.417 32.4785 157.255 37.0628C157.092 38.0806 156.667 39.0384 156.022 39.8422C155.376 40.646 154.533 41.268 153.574 41.6472C152.954 41.937 152.266 42.0539 151.584 41.9858C150.902 41.9176 150.252 41.6668 149.7 41.2598C149.202 40.8169 148.835 40.2448 148.642 39.6067C148.448 38.9685 148.434 38.2893 148.603 37.6439C149.119 34.9321 152.348 21.0499 152.348 21.0499H145.568L142.533 34.2218C141.802 36.6276 141.454 39.1332 141.5 41.6472C141.571 43.7772 142.476 45.7942 144.018 47.2646C145.405 48.5261 147.144 49.3324 149.003 49.5749C150.862 49.8173 152.75 49.4843 154.414 48.6205C156.066 47.9 157.592 46.919 158.934 45.715L159.321 45.3276L159.579 45.1339C161.303 43.2727 162.623 41.0741 163.453 38.677C163.59 38.3425 163.698 37.9969 163.776 37.6439C164.68 34.8029 165.39 31.8328 166.036 28.9272C166.359 27.7004 167.586 22.4704 167.844 21.4373V21.0499L166.488 20.9854Z" fill="#979796" style="fill:#979796;fill:color(display-p3 0.5922 0.5922 0.5882);fill-opacity:1;"/>
<path d="M41.3618 8.523C44.4665 5.84855 47.4196 3.00314 50.2076 0C49.4974 2.45359 48.658 5.4883 47.6249 9.7498C46.9146 12.8491 46.2044 15.8838 45.4296 18.983C42.2012 32.5424 39.3602 46.6182 34.0656 59.1445C25.5426 79.3543 0.554688 80 0.554688 80C16.5676 73.6723 26.6402 61.7918 30.0624 50.1695C34.1301 36.481 37.6814 22.5343 41.3618 8.71671V8.523Z" fill="#979796" style="fill:#979796;fill:color(display-p3 0.5922 0.5922 0.5882);fill-opacity:1;"/>
<path d="M36.5158 12.0742C35.8702 14.0758 35.2245 17.2397 34.256 20.7264L32.448 27.506C29.5425 38.5472 26.8952 49.9757 22.6982 60.113C20.6894 64.9041 17.6258 69.1804 13.7355 72.6236C9.84511 76.0668 5.22823 78.5882 0.228516 80C11.3988 73.9306 17.1454 62.7603 20.051 53.3333C23.4731 42.2276 26.3786 29.9596 29.607 18.7247V18.5956C32.0177 16.5388 34.3235 14.3623 36.5158 12.0742Z" fill="#979796" style="fill:#979796;fill:color(display-p3 0.5922 0.5922 0.5882);fill-opacity:1;"/>
<path d="M252.239 33.5117H254.111L255.015 33.6409L255.661 33.8991C256.118 34.1612 256.496 34.5401 256.759 34.9968C257.072 35.4754 257.23 36.0392 257.211 36.611C257.239 37.2537 257.057 37.8881 256.694 38.4189C256.363 38.9391 255.86 39.3273 255.273 39.5166C256.01 39.6448 256.674 40.0346 257.146 40.6142C257.56 41.1966 257.765 41.9021 257.727 42.6158C257.741 43.1022 257.653 43.586 257.469 44.0363C257.319 44.4707 257.077 44.8673 256.759 45.1986C256.409 45.5562 255.992 45.8414 255.532 46.038C254.972 46.2382 254.383 46.3472 253.788 46.3608H247.59V33.5117H252.239ZM252.755 39.0646C253.484 39.1537 254.22 38.9697 254.821 38.548C255.051 38.365 255.23 38.1269 255.343 37.8561C255.456 37.5852 255.499 37.2902 255.467 36.9984C255.499 36.6428 255.432 36.2852 255.273 35.9653C255.152 35.6947 254.949 35.4689 254.692 35.3196C254.411 35.1745 254.104 35.0867 253.788 35.0614H249.269V39.1291L252.755 39.0646ZM253.595 45.0049C254.248 45.0414 254.893 44.8344 255.403 44.4237C255.838 43.9498 256.07 43.3237 256.048 42.6804C256.054 42.3194 255.965 41.9632 255.79 41.6473C255.668 41.3767 255.465 41.1509 255.209 41.0016C254.934 40.8185 254.627 40.6872 254.305 40.6142H249.269V45.0694L253.595 45.0049Z" fill="#979796" style="fill:#979796;fill:color(display-p3 0.5922 0.5922 0.5882);fill-opacity:1;"/>
<path d="M265.411 33.5117L270.447 46.4899H268.575L267.154 42.5513H261.666L260.245 46.4899H258.502L263.538 33.5117H265.411ZM266.638 41.1308L264.442 35.0614L262.247 41.1308H266.638Z" fill="#979796" style="fill:#979796;fill:color(display-p3 0.5922 0.5922 0.5882);fill-opacity:1;"/>
<path d="M268.703 34.9968V33.5117H279.034V34.9968H274.708V46.4899H273.029V34.9968H268.703Z" fill="#979796" style="fill:#979796;fill:color(display-p3 0.5922 0.5922 0.5882);fill-opacity:1;"/>
<path d="M282.195 33.5117V39.0646H289.039V33.5117H290.718V46.4899H289.039V40.5497H282.195V46.4899H280.451V33.5117H282.195Z" fill="#979796" style="fill:#979796;fill:color(display-p3 0.5922 0.5922 0.5882);fill-opacity:1;"/>
<path d="M304.669 39.386V40.6128H300.665V44.6161H299.439V40.6128H295.5V39.386H299.439V35.3828H300.665V39.386H304.669Z" fill="#979796" style="fill:#979796;fill:color(display-p3 0.5922 0.5922 0.5882);fill-opacity:1;"/>
<path d="M311.126 33.5117V45.0049H317.97V46.4899H309.383V33.5117H311.126Z" fill="#979796" style="fill:#979796;fill:color(display-p3 0.5922 0.5922 0.5882);fill-opacity:1;"/>
<path d="M321.267 33.5117H319.523V46.4576H321.267V33.5117Z" fill="#979796" style="fill:#979796;fill:color(display-p3 0.5922 0.5922 0.5882);fill-opacity:1;"/>
<path d="M331.977 46.295C331.264 46.6058 330.494 46.7599 329.717 46.7469C328.828 46.7747 327.944 46.598 327.134 46.2304C326.39 45.9076 325.728 45.4222 325.197 44.8099C324.644 44.193 324.226 43.4672 323.97 42.6791C323.66 41.8989 323.506 41.0652 323.518 40.2256C323.515 39.3288 323.646 38.4366 323.906 37.5783C324.149 36.759 324.543 35.9925 325.068 35.3184C325.593 34.667 326.254 34.1381 327.005 33.7687C327.85 33.3683 328.784 33.1905 329.717 33.2522C330.367 33.2528 331.016 33.3177 331.654 33.4459C332.247 33.6247 332.812 33.8855 333.333 34.2207C333.823 34.5918 334.239 35.0518 334.559 35.5766C334.918 36.1709 335.159 36.8285 335.27 37.5137H333.526C333.487 37.0838 333.35 36.6684 333.127 36.2992C332.903 35.93 332.598 35.6166 332.235 35.3829C331.887 35.1323 331.492 34.9564 331.073 34.8664C330.632 34.7388 330.176 34.6736 329.717 34.6727C329.044 34.6407 328.375 34.7847 327.774 35.0905C327.174 35.3962 326.664 35.8531 326.295 36.416C325.908 36.9311 325.643 37.5272 325.52 38.1594C325.339 38.8109 325.252 39.4849 325.262 40.161C325.248 40.8161 325.335 41.4694 325.52 42.098C325.72 42.6938 326.003 43.2588 326.359 43.7768C326.772 44.2326 327.251 44.6243 327.78 44.939C328.391 45.2035 329.051 45.3356 329.717 45.3264C330.314 45.3442 330.909 45.2341 331.46 45.0036C331.971 44.8018 332.433 44.4937 332.816 44.0996C333.135 43.7083 333.395 43.2735 333.591 42.8083C333.771 42.2674 333.859 41.6997 333.849 41.1295H329.717V39.6444H335.399V46.4887H334.301L333.849 44.8745C333.366 45.5093 332.718 46.0004 331.977 46.295Z" fill="#979796" style="fill:#979796;fill:color(display-p3 0.5922 0.5922 0.5882);fill-opacity:1;"/>
<path d="M339.667 33.5117V39.0646H346.511V33.5117H348.19V46.4899H346.447V40.5497H339.667V46.4899H337.924V33.5117H339.667Z" fill="#979796" style="fill:#979796;fill:color(display-p3 0.5922 0.5922 0.5882);fill-opacity:1;"/>
<path d="M349.672 34.9968V33.5117H360.003V34.9968H355.677V46.4899H353.998V34.9968H349.672Z" fill="#979796" style="fill:#979796;fill:color(display-p3 0.5922 0.5922 0.5882);fill-opacity:1;"/>
<path d="M232.157 15.9492H231.705V64.059H232.157V15.9492Z" fill="#979796" style="fill:#979796;fill:color(display-p3 0.5922 0.5922 0.5882);fill-opacity:1;"/>
</g>
<defs>
<clipPath id="clip0_2177_21383">
<rect width="359.774" height="80" fill="white" style="fill:white;fill-opacity:1;" transform="translate(0.226562)"/>
</clipPath>
</defs>
</svg>
