<svg width="50" height="80" viewBox="0 0 50 80" fill="none" xmlns="http://www.w3.org/2000/svg">
<path d="M49.713 15.1978C49.7044 14.2454 49.5436 13.3006 49.2366 12.399L48.4624 10.3743C47.924 9.05226 47.0139 7.91463 45.8423 7.09911L43.6985 5.78903C42.8138 5.25239 42.0115 4.59048 41.3165 3.82391C40.7285 3.19432 39.9912 2.72324 39.1728 2.45428C37.8425 1.93235 36.4671 1.53368 35.0639 1.26329C33.363 0.965212 31.6186 1.02606 29.9427 1.44194C29.4832 1.62131 28.973 1.62131 28.5135 1.44194C27.7393 1.26329 26.9057 1.0251 26.072 0.905999C24.7566 0.65697 23.4101 0.616778 22.0822 0.7869L19.8193 1.0251L16.3655 1.56104L14.043 2.09698C13.8844 2.12901 13.7339 2.19306 13.6008 2.2852C13.4677 2.37735 13.3547 2.49567 13.2689 2.63292L12.9116 2.87112L10.0533 4.0621L9.10047 4.47895C8.46673 4.73635 7.95542 5.22636 7.67129 5.84858L6.8376 7.33731C6.24107 8.45657 5.56441 9.53126 4.81293 10.553L3.86014 12.1012C3.45397 12.7918 3.20965 13.5655 3.14555 14.3641L2.96691 16.4483C2.89449 17.162 2.67121 17.8521 2.31186 18.473C2.0142 18.9595 1.77438 19.4791 1.59728 20.0213C1.42663 20.7631 1.34664 21.523 1.35908 22.2841C1.41863 23.356 1.41863 24.4279 1.41863 25.4998C1.34516 27.0852 1.87737 28.6393 2.90736 29.8469L3.50285 30.5019C3.64143 30.6012 3.74871 30.738 3.81202 30.8963C3.87533 31.0546 3.89203 31.2277 3.86014 31.3952C3.75667 31.9039 3.8413 32.4328 4.09834 32.8839C4.15789 32.9434 4.21744 33.003 4.21744 33.0625C4.26587 33.1511 4.28049 33.2543 4.25858 33.3529C4.23668 33.4515 4.17974 33.5387 4.09834 33.5985H3.91969C3.31611 33.8936 2.78688 34.321 2.37141 34.849C1.36608 36.2153 0.804816 37.8576 0.763587 39.5534V39.9702C0.772237 40.0094 0.772887 40.0499 0.765499 40.0893C0.75811 40.1287 0.742835 40.1662 0.720589 40.1996C0.698344 40.233 0.669587 40.2615 0.636045 40.2835C0.602502 40.3055 0.564864 40.3204 0.525391 40.3275L0.525391 40.6848C0.593777 40.7172 0.652076 40.7675 0.694037 40.8304C0.735998 40.8934 0.76004 40.9666 0.763587 41.0421C1.00178 41.5781 1.18043 42.114 1.35908 42.6499C1.66924 43.3785 2.137 44.0293 2.72871 44.5555C2.84781 44.6151 2.90736 44.7342 3.02645 44.8533C3.20035 45.0802 3.42459 45.2637 3.68149 45.3892C4.87311 46.0281 6.16004 46.4705 7.49264 46.6993C8.98881 46.938 10.508 46.9979 12.0184 46.8779C12.4109 46.8421 12.8051 46.9251 13.1498 47.1161C13.3012 47.2357 13.4064 47.4041 13.4476 47.5925C13.4857 47.9903 13.4657 48.3915 13.388 48.7835C13.3623 48.8815 13.3424 48.9809 13.3285 49.0812C13.3285 49.6767 13.388 50.2722 13.388 50.8677C13.3757 51.2394 13.4576 51.6081 13.6262 51.9396C13.9676 52.6532 14.3452 53.3488 14.7576 54.0238C15.6469 55.5355 16.3849 57.1312 16.961 58.7878C17.1348 59.3342 17.274 59.8911 17.3778 60.4551C17.4244 60.8561 17.3838 61.2624 17.2587 61.6461C17.049 62.442 16.9884 63.2697 17.08 64.0876C17.0907 64.3689 17.1306 64.6483 17.1991 64.9213C17.1991 64.9809 17.2587 65.0404 17.2587 65.1L18.0924 66.0528C18.6166 66.478 19.1138 66.9354 19.5811 67.4224C21.8174 69.6239 23.759 72.1059 25.3574 74.8065C26.0357 75.955 26.9246 76.9651 27.9775 77.7839C28.9255 78.528 30.0573 79.0013 31.2527 79.1536L31.9673 79.3322H32.6224L33.8134 78.9749L35.3021 78.4985C35.7324 78.3614 36.1188 78.1129 36.4221 77.7783C36.7254 77.4436 36.9348 77.0347 37.029 76.5929C37.0798 76.2299 37.1595 75.8715 37.2672 75.5211C37.3266 75.2263 37.3266 74.9226 37.2672 74.6278L37.0886 73.4368C37.0636 73.2293 36.9843 73.032 36.8589 72.8647C36.7335 72.6975 36.5662 72.5662 36.374 72.4841L36.1953 72.365C35.8151 72.1348 35.392 71.9844 34.9518 71.923C34.5115 71.8615 34.0634 71.8904 33.6347 72.0077C33.0975 72.2497 32.6423 72.6429 32.3246 73.1391C32.1595 73.5349 32.0784 73.9608 32.0864 74.3896C32.0656 74.4369 32.0574 74.4888 32.0627 74.5402C32.0679 74.5917 32.0865 74.6408 32.1166 74.6829C32.1466 74.7249 32.1871 74.7584 32.234 74.7801C32.2809 74.8018 32.3327 74.8109 32.3842 74.8065C32.5111 74.8736 32.6148 74.9773 32.6819 75.1042C32.7415 75.3424 32.9201 75.5211 33.1583 75.4615H33.5156C33.8134 75.4615 33.9325 75.402 33.992 75.1042V74.8065C34.0516 74.5087 34.1707 74.3896 34.4684 74.3896H34.5875C34.7223 74.4008 34.8524 74.4445 34.9665 74.5171C35.0806 74.5898 35.1754 74.6891 35.2425 74.8065C35.2972 74.9284 35.3094 75.0651 35.277 75.1947C35.2445 75.3243 35.1695 75.4393 35.0639 75.5211C34.7346 75.9033 34.3214 76.2043 33.8565 76.4006C33.3917 76.5968 32.8878 76.6831 32.3842 76.6525L31.7291 76.3548L31.0145 75.4615C30.8113 75.226 30.6588 74.951 30.5666 74.6539C30.4744 74.3568 30.4444 74.0438 30.4786 73.7346C30.5148 73.4927 30.6179 73.2658 30.7764 73.0796C31.3718 72.2459 32.0269 71.4717 32.6819 70.638L33.4561 69.8043C34.3577 68.9713 34.893 67.8152 34.9448 66.5887C35.013 65.9737 34.993 65.352 34.8852 64.7427L34.647 64.0281C34.4796 63.8058 34.3954 63.5319 34.4088 63.2539C34.4684 62.2416 34.5279 61.2293 34.647 60.2765C34.6985 59.7616 34.8832 59.269 35.183 58.8473C35.7785 57.8945 36.374 56.9417 37.029 55.9889C37.322 55.5531 37.5808 55.0951 37.8031 54.6193L37.9818 54.3216C38.4503 53.6685 38.7564 52.9132 38.875 52.1183L39.0537 50.4509C39.0933 49.8747 39.0733 49.296 38.9941 48.724C38.9346 48.6049 38.9346 48.4858 38.875 48.3667C38.8437 48.27 38.8442 48.1658 38.8763 48.0693C38.9085 47.9729 38.9706 47.8893 39.0537 47.8307C39.5125 47.4187 40.1045 47.1861 40.7211 47.1757H42.6862C44.0911 47.2688 45.4853 46.8758 46.6347 46.0625C47.7841 45.2493 48.6187 44.0653 48.9984 42.7095C49.1175 41.9949 49.2961 41.2803 49.4748 40.5657C49.7788 39.3302 49.6527 38.028 49.1175 36.8737C48.7924 36.1214 48.3934 35.4033 47.9265 34.7299L47.6883 34.4322C47.015 33.8515 46.1875 33.4791 45.3063 33.3603H44.949L45.1872 33.003C45.8211 32.1936 46.3605 31.3145 46.7951 30.3828C46.8546 30.2637 46.9737 30.2042 47.0928 30.0851C47.2197 30.018 47.3235 29.9142 47.3906 29.7873C47.8 28.799 48.0609 27.7555 48.1647 26.6908L48.3433 23.7133C48.3433 22.9392 48.4029 22.165 48.4029 21.3909C48.466 21.1014 48.566 20.8212 48.7006 20.5572L49.2961 19.664C49.5492 19.2722 49.6931 18.8199 49.713 18.3539C49.7474 18.3234 49.7688 18.2807 49.7725 18.2348V17.6393C49.7725 17.3416 49.713 17.1034 49.713 16.8652V15.1978ZM45.1277 11.0889V11.3271C45.2452 12.1778 45.1214 13.0444 44.7704 13.8282C44.6492 14.139 44.4669 14.4225 44.2345 14.6618C44.1203 14.8229 44.0393 15.0051 43.9963 15.1978C43.7548 16.2868 43.2657 17.3056 42.5671 18.1752C42.46 18.3428 42.3178 18.485 42.1502 18.5921C41.0341 19.2453 39.7994 19.6704 38.5177 19.8426L36.9695 19.9617L33.8134 20.1404H33.4561L33.6943 19.9022L35.1234 18.8898C35.4597 18.6475 35.8465 18.4846 36.2549 18.4134H36.6717C36.7041 17.8892 36.939 17.3981 37.3268 17.0438C37.55 16.644 37.8091 16.2653 38.1009 15.9124C38.2074 15.7106 38.3725 15.5458 38.5744 15.4395C38.7764 15.3332 39.0057 15.2905 39.2323 15.3169H40.6615C41.4493 15.2585 42.2087 14.9975 42.866 14.5593C43.5233 14.1211 44.0562 13.5206 44.4131 12.8158C44.6274 12.3741 44.8066 11.9161 44.949 11.4462L45.1277 11.0889ZM32.5033 34.9681C32.0556 34.7653 31.5715 34.6555 31.0802 34.6453C30.5889 34.6351 30.1006 34.7246 29.6449 34.9086C29.3944 35.0135 29.1722 35.176 28.9963 35.383C28.8204 35.5899 28.6958 35.8354 28.6326 36.0995C28.611 36.1237 28.5946 36.152 28.5844 36.1827C28.5742 36.2134 28.5703 36.2459 28.573 36.2782V36.3973L29.109 36.04L29.8236 35.8018C29.9864 35.7894 30.1489 35.8288 30.2879 35.9144C30.427 36 30.5354 36.1273 30.5977 36.2782C30.7056 36.4439 30.7727 36.6329 30.7934 36.8296C30.8141 37.0263 30.7878 37.225 30.7168 37.4096C30.6605 37.5605 30.58 37.7013 30.4786 37.8265C29.9436 38.5344 29.1527 39.0046 28.2753 39.1365C28.2284 38.9014 28.2084 38.6616 28.2157 38.422C27.9775 36.8737 27.7989 35.3849 27.6202 33.8962C27.4416 32.4075 27.4416 32.2288 27.3225 31.3952C27.2034 30.5615 27.263 31.2761 27.263 31.157C27.2509 31.1227 27.2312 31.0916 27.2053 31.0661C27.1794 31.0405 27.148 31.0213 27.1135 31.0098C27.079 30.9983 27.0424 30.9949 27.0063 30.9997C26.9703 31.0046 26.9359 31.0176 26.9057 31.0379C26.7866 31.0379 26.6675 31.157 26.727 31.2761V32.3479C26.8232 33.507 26.9823 34.66 27.2034 35.8018L27.5607 38.422C27.5892 38.8559 27.492 39.289 27.2808 39.6692C27.0696 40.0494 26.7533 40.3606 26.3697 40.5657C26.0236 40.7952 25.6084 40.8969 25.1955 40.8535C24.7825 40.81 24.3976 40.624 24.1068 40.3275C23.5936 39.8917 23.2727 39.2713 23.2136 38.6006C23.207 38.4003 23.227 38.2001 23.2732 38.0051C23.2732 37.9456 23.3327 37.886 23.3327 37.8265C23.3923 37.6478 23.3327 37.4692 23.1541 37.4692C23.1198 37.4491 23.0811 37.4378 23.0415 37.4365C23.0018 37.4352 22.9624 37.4438 22.9269 37.4615C22.8914 37.4793 22.8609 37.5056 22.8382 37.5381C22.8155 37.5707 22.8012 37.6084 22.7968 37.6478C22.7303 37.7563 22.6896 37.8785 22.6777 38.0051C22.6255 38.2515 22.5456 38.4913 22.4395 38.7197C21.5822 38.571 20.8034 38.1289 20.2362 37.4692C20.1216 37.2653 20.0411 37.044 19.998 36.8141C20.0104 36.6688 20.0509 36.5273 20.1171 36.3973C20.1616 36.2789 20.2309 36.1713 20.3202 36.0817C20.4095 35.992 20.5168 35.9224 20.635 35.8774C20.7532 35.8323 20.8797 35.8129 21.006 35.8204C21.1323 35.8279 21.2555 35.8622 21.3676 35.9209L22.2013 36.3377C22.204 36.3055 22.2001 36.273 22.1899 36.2423C22.1797 36.2116 22.1633 36.1833 22.1417 36.1591C22.0651 35.867 21.9157 35.599 21.7074 35.3804C21.4991 35.1617 21.2388 34.9993 20.9507 34.9086C20.4892 34.7322 19.9953 34.6568 19.5022 34.6876C19.0091 34.7185 18.5283 34.8547 18.0924 35.0872L18.271 35.2658L17.9137 35.5636C17.5962 35.7775 17.2568 35.9572 16.9014 36.0995L14.9363 36.9332C14.3491 37.1924 13.7903 37.5117 13.2689 37.886L13.0307 38.0051V37.6478C13.0307 37.4096 13.0903 37.231 13.0903 36.9928C13.1396 36.5525 13.0991 36.1068 12.9712 35.6827C12.6795 34.8773 12.4992 34.0358 12.4352 33.1816C12.3733 32.5605 12.434 31.9333 12.6139 31.3356L12.7925 30.6806C12.8559 30.4922 12.9653 30.3227 13.1109 30.1875C13.2566 30.0523 13.4337 29.9557 13.6262 29.9064C14.187 29.6579 14.8016 29.5555 15.4127 29.6087L17.7946 29.7873C18.6082 29.8566 19.4269 29.8366 20.2362 29.7278L22.7372 29.3705C23.51 29.1954 24.2669 28.9564 25.0001 28.6559C25.2851 28.513 25.5978 28.4336 25.9166 28.4234C26.2353 28.4131 26.5524 28.4721 26.8461 28.5963L30.4191 29.7873C32.0653 30.3485 33.8033 30.591 35.5403 30.5019H36.2549C36.3615 30.445 36.4842 30.4258 36.6031 30.4474C36.722 30.469 36.8302 30.5302 36.9099 30.621C37.6297 31.1889 38.1678 31.9547 38.4582 32.8243C38.592 33.2727 38.6915 33.7305 38.7559 34.194C38.8234 34.4713 38.8026 34.7627 38.6964 35.0277C38.5532 35.7037 38.2911 36.3489 37.9222 36.9332C37.7436 37.1119 37.6841 37.3501 37.5054 37.5287H37.3863C36.8449 37.1188 36.2419 36.7972 35.5998 36.5759C34.7734 36.3464 33.9746 36.0269 33.2179 35.6231L32.5628 35.2658L32.7415 35.0872L32.5033 34.9681ZM26.9652 45.9251V45.7465C27.2798 45.6232 27.6161 45.5648 27.9539 45.5751C28.2916 45.5853 28.6238 45.6639 28.9303 45.806C29.0701 45.8776 29.1849 45.9899 29.2593 46.1282C29.3338 46.2665 29.3644 46.4241 29.3472 46.5802C29.3477 47.5967 29.1662 48.6051 28.8112 49.5576L27.0248 54.0238C27.0275 54.0561 27.0236 54.0886 27.0134 54.1193C27.0031 54.15 26.9868 54.1783 26.9652 54.2025L26.7866 54.0238C26.5219 53.5742 26.3975 53.0558 26.4293 52.5351C26.6675 50.9868 26.9057 49.4385 27.0843 47.8307C27.1439 47.5925 27.1439 47.3543 27.2034 47.1161C27.1834 46.7095 27.1032 46.3081 26.9652 45.9251ZM29.0494 44.4364C28.6764 44.5016 28.3151 44.622 27.9775 44.7937C27.7643 44.9259 27.5075 44.9687 27.263 44.9128H27.0248C26.6776 45.1546 26.2538 45.2605 25.8338 45.2106C25.1876 45.2033 24.5458 45.103 23.9282 44.9128C23.5308 44.8368 23.1485 44.696 22.7968 44.496L22.4395 44.3769C22.1949 44.2964 21.9743 44.1563 21.7975 43.9692C21.6208 43.782 21.4935 43.5537 21.4271 43.305C21.4271 43.2454 21.3676 43.1859 21.3676 43.0668H21.4271C21.4271 42.9477 21.5462 42.8881 21.6653 42.9477L22.2608 43.2454C22.3604 43.3029 22.4734 43.3332 22.5883 43.3332C22.7033 43.3332 22.8163 43.3029 22.9159 43.2454H23.3327C23.6586 43.3564 24.0084 43.3769 24.345 43.305L28.5135 43.0668C29.0619 43.0793 29.6048 43.1798 30.1213 43.3645H30.0618C29.9412 43.4052 29.8391 43.4875 29.7736 43.5966C29.7082 43.7057 29.6836 43.8345 29.7045 43.96C29.6789 44.0444 29.6329 44.1211 29.5706 44.1834C29.5082 44.2457 29.4315 44.2917 29.3472 44.3173L29.0494 44.4364ZM25.8933 48.7835L25.536 50.8082C25.4169 51.5228 25.3574 52.2374 25.2978 53.0115C25.2383 53.7856 25.2383 53.607 25.2383 53.9643C25.1811 53.9396 25.1331 53.8976 25.1011 53.8441C25.069 53.7907 25.0545 53.7286 25.0596 53.6665C24.7619 52.4755 24.5237 51.3441 24.345 50.1531C24.1497 49.1733 24.0698 48.1741 24.1068 47.1757C24.0951 46.8569 24.1151 46.5377 24.1664 46.2229V45.9847L24.4641 46.1038L25.0596 46.2229C25.1603 46.2156 25.2608 46.2406 25.3464 46.2941C25.432 46.3476 25.4984 46.4269 25.536 46.5206C25.946 47.1994 26.0742 48.0115 25.8933 48.7835ZM22.1417 49.8554C21.4293 48.0785 20.9489 46.2171 20.7125 44.3173L21.0698 44.4364C21.4877 44.6261 21.855 44.9118 22.1417 45.2701C22.3359 45.5498 22.4399 45.8823 22.4395 46.2229C22.3799 47.1161 22.3204 48.0094 22.3204 48.9622C22.3204 49.9149 22.2608 49.379 22.2608 49.5576C22.2701 49.6606 22.2494 49.764 22.2013 49.8554H22.1417ZM14.3408 27.8222L14.5194 27.584C15.7153 26.1147 17.4119 25.1392 19.2834 24.8447L21.844 24.4875C22.1988 24.4275 22.5611 24.4275 22.9159 24.4875L24.2259 24.6066L24.9405 24.8447L26.1315 25.3807C26.1278 25.4266 26.1064 25.4692 26.072 25.4998C24.9573 26.395 23.6543 27.0261 22.2608 27.3458L20.653 27.4649L17.08 27.6436C16.2813 27.6639 15.4851 27.7435 14.6981 27.8818H14.3408V27.8222ZM26.7866 24.7852L25.0001 24.1302V24.0111L25.2383 23.892L27.382 23.2965C27.6767 23.1939 27.9569 23.0538 28.2157 22.8796C29.6106 21.8577 31.2191 21.1654 32.9201 20.855L34.7661 20.6763C35.6594 20.6168 36.5526 20.6763 37.4459 20.6763H37.8031L37.565 20.855C36.3401 21.85 34.8873 22.5253 33.337 22.8201C32.8532 22.8924 32.3994 23.0987 32.0269 23.4156L30.7764 24.1897H30.5382C30.2893 24.1932 30.0447 24.2543 29.8236 24.3684L28.6921 24.7257C28.0751 24.9239 27.4148 24.9445 26.7866 24.7852ZM41.1379 7.6946C41.1234 7.36064 41.2062 7.02966 41.3761 6.74181C41.5547 6.56317 41.6738 6.50362 41.912 6.62272L43.8176 7.8137C44.0081 7.98459 44.1691 8.1858 44.294 8.40919C44.3258 8.55028 44.3655 8.68946 44.4131 8.82603C44.5775 9.36163 44.6339 9.92457 44.5789 10.4821C44.5238 11.0397 44.3585 11.5808 44.0926 12.0739C43.8266 12.567 43.4653 13.0024 43.0296 13.3546C42.594 13.7069 42.0926 13.9691 41.5547 14.1259C40.8243 14.3649 40.0604 14.4855 39.2919 14.4832H39.1132C39.1348 14.459 39.1512 14.4307 39.1614 14.4C39.1716 14.3693 39.1755 14.3368 39.1728 14.3046C39.2317 14.2164 39.2631 14.1128 39.2631 14.0068C39.2631 13.9008 39.2317 13.7972 39.1728 13.7091C39.1391 13.6114 39.1269 13.5076 39.1372 13.4048C39.1475 13.302 39.1799 13.2026 39.2323 13.1136C39.7101 11.6553 40.2667 10.224 40.8997 8.82603C41.0481 8.46677 41.1288 8.08319 41.1379 7.6946ZM26.5484 7.9328C26.7413 7.86766 26.9082 7.74244 27.0248 7.5755L27.5011 7.09911L28.7517 6.14632C29.6466 5.37054 30.6758 4.76507 31.7887 4.35985L33.0392 4.00255L33.5156 3.88346C33.7013 3.79379 33.9049 3.74723 34.1111 3.74723C34.3173 3.74723 34.5209 3.79379 34.7066 3.88346L36.6122 4.5385C36.7515 4.57964 36.8981 4.5903 37.042 4.56975C37.1858 4.5492 37.3236 4.49792 37.4459 4.4194L38.0413 4.1812C38.1837 4.1172 38.3396 4.08915 38.4954 4.09954C38.6511 4.10992 38.802 4.15841 38.9346 4.24075C39.343 4.47111 39.7062 4.77377 40.0065 5.13399C40.1012 5.27373 40.1434 5.4425 40.1256 5.61038C40.066 6.44407 40.0065 7.21821 39.8874 8.05189V8.23054H40.1256L39.7683 9.00468L37.1481 13.7091C36.5443 14.7192 35.78 15.6243 34.8852 16.3888L34.7066 16.5674C34.3883 16.9654 34.0059 17.3075 33.5752 17.5798L32.5628 18.2943C32.3371 18.5073 32.0984 18.7062 31.8482 18.8898C31.549 19.1622 31.207 19.3835 30.8359 19.5449C30.4344 19.7654 30.0555 20.0247 29.7045 20.319L29.2876 20.6168C29.3366 20.1174 29.2962 19.6133 29.1685 19.128C28.9899 19.0685 28.8708 19.1876 28.7517 19.2471L24.5237 21.5695C23.447 22.1938 22.2489 22.5796 21.0103 22.701C19.8939 22.7697 18.792 22.9901 17.7351 23.356C16.2434 23.9159 14.9135 24.8365 13.8644 26.0357L11.8993 28.12C11.4856 28.5738 11.1982 29.1282 11.0656 29.7278C10.9465 30.4424 10.7678 31.0974 10.6487 31.7525C10.5406 32.2035 10.461 32.661 10.4105 33.1221C10.2962 33.6688 10.051 34.1796 9.69596 34.6108C9.64155 34.6826 9.56792 34.7374 9.48361 34.7691C9.39929 34.8007 9.30774 34.8077 9.21956 34.7895C9.12796 34.7586 9.04639 34.7036 8.98349 34.6303C8.92059 34.5569 8.87871 34.4679 8.86227 34.3726C8.86227 34.2535 8.80272 34.194 8.86227 34.0749V33.9558C8.83307 33.7926 8.7431 33.6466 8.61049 33.5471C8.47788 33.4476 8.3125 33.4022 8.14768 33.4198H7.43309C7.34247 33.4151 7.25509 33.3845 7.18124 33.3317C7.1074 33.279 7.05015 33.2063 7.01625 33.1221C7.00166 33.0063 6.94511 32.8999 6.85729 32.8231C6.76948 32.7463 6.65653 32.7043 6.53985 32.7052C6.34214 32.6598 6.16263 32.5561 6.02459 32.4074C5.88656 32.2588 5.79637 32.0721 5.76571 31.8715C5.73483 31.5688 5.67501 31.2697 5.58707 30.9783C5.48088 30.1915 5.58356 29.3905 5.88481 28.6559C6.31162 27.5403 6.93707 26.5114 7.73084 25.6189L10.5296 22.5819C11.4146 21.5148 12.4591 20.5908 13.6262 19.8426C14.4586 19.3002 15.2544 18.7034 16.0082 18.0562C17.0079 17.1869 17.9067 16.2082 18.6879 15.1382L21.1889 11.9821C21.8974 11.1043 22.7183 10.3234 23.6305 9.65972L24.4641 9.12378C24.5774 9.0165 24.7252 8.95315 24.881 8.94513C24.9405 9.00468 25.0596 8.94513 25.1192 8.88558C25.4125 8.63388 25.7319 8.41428 26.072 8.23054L26.5484 7.9328ZM6.42075 39.3747L6.12301 39.1961C5.95673 39.1045 5.76806 39.0616 5.57852 39.0721C5.38899 39.0826 5.20624 39.1462 5.05113 39.2556C4.87436 39.3645 4.73798 39.5281 4.66274 39.7216C4.58749 39.9151 4.5775 40.1278 4.63428 40.3275C4.71009 40.6923 4.90182 41.0227 5.18086 41.2696C5.4599 41.5164 5.81128 41.6664 6.18256 41.6972C6.8824 41.7562 7.58719 41.6958 8.26678 41.5185H8.50497C8.95782 41.2658 9.34143 40.9054 9.62186 40.4692C9.90229 40.0329 10.0709 39.5343 10.1128 39.0174C10.1724 38.6601 10.1723 38.3029 10.2319 37.8265C10.404 37.9279 10.5517 38.0658 10.6649 38.2303C10.778 38.3949 10.8538 38.5823 10.8869 38.7792C10.8788 39.1178 10.8987 39.4564 10.9465 39.7916C10.9352 39.9293 10.8712 40.0573 10.7678 40.1489L10.2319 40.6253L7.96903 42.114C7.84069 42.2268 7.68726 42.3072 7.52153 42.3486C7.35579 42.3901 7.18255 42.3913 7.01625 42.3522L5.76571 42.114C5.11137 41.9077 4.53174 41.5144 4.09834 40.9826L3.97924 40.7444C3.81783 40.3242 3.71756 39.883 3.68149 39.4343C3.62033 39.1246 3.68458 38.8034 3.86014 38.541L4.21744 38.0647C4.39447 37.8405 4.64975 37.6916 4.93203 37.6478C5.4511 37.5956 5.97533 37.6359 6.4803 37.7669C6.75978 37.8605 7.00517 38.035 7.18539 38.2682C7.3656 38.5015 7.47254 38.7829 7.49264 39.077C7.53181 39.3362 7.51144 39.601 7.43309 39.8511L7.31399 40.0893C7.15745 40.3103 6.92306 40.4639 6.65793 40.5191C6.39279 40.5743 6.11658 40.5272 5.88481 40.3871C5.95511 40.3207 6.04203 40.2747 6.13638 40.2537C6.23072 40.2327 6.32898 40.2377 6.42075 40.268C6.77805 39.9107 6.77805 39.6725 6.42075 39.3747ZM14.3408 4.0621L14.8767 3.76436L18.0924 2.99022C18.9938 2.80298 19.9111 2.70326 20.8316 2.69247C21.7144 2.67354 22.5958 2.77369 23.4518 2.99022L24.345 3.10932C24.5982 3.16112 24.8343 3.27544 25.0319 3.44186C25.2295 3.60827 25.3824 3.8215 25.4765 4.0621C25.4826 4.10915 25.4745 4.15696 25.4533 4.1994C25.4321 4.24184 25.3987 4.27697 25.3574 4.3003C24.9916 4.66376 24.5693 4.96543 24.1068 5.19354C23.9105 5.31538 23.6829 5.37745 23.4518 5.37218C23.2008 5.41805 22.9712 5.54329 22.7968 5.72948C22.4196 6.2154 21.8986 6.56972 21.308 6.74181L20.8316 6.92046C21.0103 7.21821 21.308 7.15866 21.4867 7.27776C21.6653 7.39685 21.3676 7.4564 21.308 7.51595L20.5934 7.63505L19.4025 7.9328C19.3147 7.96573 19.2205 7.97751 19.1274 7.96716C19.0342 7.95681 18.9449 7.92464 18.8665 7.87325L18.3901 7.5755L18.271 7.39685C18.2115 7.21821 18.0328 7.15866 17.9137 7.09911C17.5065 6.97551 17.1376 6.75005 16.8419 6.44407C16.124 5.91231 15.3676 5.43461 14.579 5.01489L14.3408 4.89579C13.9835 4.59805 13.9835 4.3003 14.3408 4.0621ZM8.92182 8.34964V8.05189C8.90343 7.91074 8.92761 7.76732 8.99127 7.64C9.05493 7.51269 9.15516 7.40728 9.27911 7.33731C9.52741 7.15845 9.81205 7.03646 10.1128 6.98001L10.4701 6.86091L11.1847 6.62272C11.263 6.62522 11.3409 6.61052 11.4129 6.57966C11.485 6.54879 11.5493 6.50251 11.6015 6.44407C12.123 6.01953 12.7751 5.78814 13.4476 5.78903H14.043L13.6262 5.37218H13.6858L13.9239 5.49128C14.6936 5.85531 15.4139 6.31553 16.0677 6.86091L17.08 7.6946C17.5975 8.12532 18.156 8.50428 18.7474 8.82603C18.9728 8.97233 19.1738 9.15319 19.3429 9.36198C19.4643 9.47552 19.538 9.63097 19.5491 9.79683C19.5601 9.9627 19.5077 10.1266 19.4025 10.2552C19.0237 10.7834 18.5611 11.2461 18.0328 11.6248C17.9225 11.6823 17.7999 11.7122 17.6755 11.7122C17.5512 11.7122 17.4286 11.6823 17.3182 11.6248C16.7119 11.3592 16.1652 10.9744 15.7104 10.4934L15.4722 10.1957C14.9134 9.55993 14.1933 9.08676 13.388 8.82603H13.1498L13.3285 9.00468L14.8767 10.6721C15.0082 10.7849 15.1104 10.9279 15.1745 11.0889L14.9363 10.9698C13.8885 10.2741 12.7154 9.78875 11.4824 9.54062L10.2914 9.42153H9.39821C8.98137 9.42153 8.86227 9.24288 8.86227 8.88558C8.86227 8.52829 8.92182 8.46874 8.92182 8.29009V8.34964ZM4.69383 16.0315C4.80624 15.4208 4.88576 14.8046 4.93203 14.1855C5.10944 13.3795 5.43232 12.6127 5.88481 11.9226L6.24211 11.4462H6.30166C6.41931 11.2977 6.58733 11.1975 6.77389 11.1646C6.96046 11.1317 7.15262 11.1683 7.31399 11.2675L7.43309 11.3866C7.73829 11.1997 8.08759 11.0969 8.44543 11.0889C9.49706 11.0724 10.5439 11.2334 11.542 11.5653C12.1596 11.7555 12.8014 11.8558 13.4476 11.863H15.2936C15.6509 11.9226 15.7104 12.0417 15.77 12.3394V12.5776C15.8034 12.7665 15.7751 12.9612 15.6893 13.1328C15.6035 13.3044 15.4648 13.4438 15.2936 13.5304L14.3408 14.1259L15.1745 14.6618L14.8767 14.9L14.5194 15.1978C13.7683 15.944 12.9042 16.567 11.9588 17.0438L10.4701 17.8775H9.93415L8.26678 17.7584C7.34245 17.643 6.42719 17.4639 5.52752 17.2225L4.87248 17.0438H4.81293C4.69383 16.9843 4.63428 16.9247 4.63428 16.8056C4.68128 16.5504 4.70124 16.2909 4.69383 16.0315ZM4.09834 28.5368C3.85684 28.1325 3.63815 27.715 3.4433 27.2863C3.33717 27.0578 3.25726 26.8181 3.2051 26.5717C3.15347 26.3171 3.13347 26.0571 3.14555 25.7975C3.14555 25.738 3.2051 25.6784 3.14555 25.5593V23.1178C3.14821 22.8499 3.20917 22.5857 3.3242 22.3437L3.50285 21.8077H3.14555C3.09772 21.763 3.06596 21.7038 3.0552 21.6392C3.04443 21.5746 3.05526 21.5083 3.086 21.4505C3.21734 20.9068 3.37634 20.3701 3.5624 19.8426L4.03879 19.3067H4.39608C5.37535 19.3634 6.34998 19.4827 7.31399 19.664L7.96903 19.8426L8.20723 19.9617C8.46272 20.2922 8.60623 20.6956 8.61694 21.1132C8.62765 21.5308 8.50499 21.941 8.26678 22.2841C7.79039 22.9987 7.31399 23.6538 6.77805 24.3088C6.09005 25.2104 5.51043 26.1898 5.05113 27.2267L4.27699 28.775L4.09834 28.5368ZM13.8644 44.0791L13.2689 44.6151C12.8827 44.833 12.4581 44.9745 12.0184 45.0319C11.404 45.0717 10.8004 45.2125 10.2319 45.4487C9.8767 45.6066 9.48074 45.6483 9.10047 45.5679L7.84993 45.2701H7.67129C7.41045 45.1484 7.12542 45.0873 6.8376 45.0915C6.28325 45.0369 5.7408 44.8963 5.22977 44.6746L4.21744 44.1387L3.80059 43.9005C3.37004 43.5832 3.0394 43.1493 2.84781 42.6499C2.73713 42.4337 2.57318 42.2493 2.37141 42.114C2.25528 42.0529 2.15302 41.9685 2.07104 41.866C1.98906 41.7635 1.92914 41.6452 1.89502 41.5185C1.64991 40.8715 1.60835 40.1651 1.77592 39.4938C2.07961 38.3388 2.62793 37.2625 3.38375 36.3377C3.75396 35.988 4.15229 35.6694 4.57473 35.3849H6.24211C6.48223 35.361 6.72467 35.3913 6.95146 35.4738C7.17825 35.5562 7.38357 35.6887 7.55219 35.8613C7.67129 35.9209 7.67129 35.9804 7.73084 36.04L8.14768 36.9928C8.36454 37.4587 8.40681 37.987 8.26678 38.4815C8.26678 38.4973 8.2605 38.5124 8.24934 38.5236C8.23817 38.5348 8.22302 38.541 8.20723 38.541C8.09355 38.4247 8.01155 38.2812 7.96903 38.1242C7.89973 37.7137 7.68925 37.3403 7.37395 37.0685C7.05865 36.7967 6.65832 36.6435 6.24211 36.6355C5.70658 36.6057 5.16981 36.6057 4.63428 36.6355C4.58723 36.6293 4.53942 36.6374 4.49698 36.6586C4.45455 36.6798 4.41941 36.7133 4.39608 36.7546L4.03879 37.0523C3.72956 37.1425 3.45792 37.3306 3.26465 37.5883C3.07138 37.846 2.96691 38.1594 2.96691 38.4815C2.95629 38.7628 2.91637 39.0422 2.84781 39.3152C2.78871 39.69 2.78871 40.0718 2.84781 40.4466V40.7444C2.81621 40.8093 2.7998 40.8806 2.7998 40.9528C2.7998 41.025 2.81621 41.0963 2.84781 41.1612C2.90736 41.2803 2.90736 41.459 2.96691 41.5781L3.14555 41.9949L3.68149 42.6499C3.84384 42.8618 4.07586 43.0094 4.33654 43.0668H4.87248C5.24448 43.1383 5.59256 43.3021 5.88481 43.5432H6.18256L8.32633 43.3645C8.57246 43.3055 8.79851 43.1822 8.98137 43.0072C10.2272 42.019 11.4198 40.9655 12.5543 39.8511L12.9116 39.4938L13.0903 39.1365C13.1349 39.0139 13.2186 38.9093 13.3285 38.8388C13.8684 38.4801 14.4766 38.2368 15.1149 38.1242C15.1745 38.1242 15.234 38.0647 15.234 38.1242C15.5816 38.2422 15.9584 38.2422 16.3059 38.1242C17.042 38.0445 17.7861 38.0848 18.5092 38.2433L18.9261 38.3624C19.0122 38.4019 19.0888 38.4596 19.1505 38.5316C19.2122 38.6036 19.2575 38.6881 19.2834 38.7792C19.3107 38.8789 19.3635 38.9698 19.4366 39.0429C19.5097 39.116 19.6005 39.1688 19.7002 39.1961L20.7125 39.6725L21.1294 39.9107L20.8912 40.0298C20.2894 40.3786 19.6502 40.6583 18.9856 40.8635L18.5688 40.9826C17.9848 41.1683 17.4675 41.5201 17.08 41.9949C16.8764 42.2003 16.6334 42.3623 16.3655 42.4713C15.464 42.8937 14.6229 43.4344 13.8644 44.0791ZM19.4025 60.5147C19.337 61.135 19.2376 61.7513 19.1047 62.3607C19.1047 62.4203 19.0452 62.4798 19.0452 62.5394H18.9856L18.7474 61.8248C18.5688 60.6933 18.4497 59.6214 18.3306 58.49L18.1519 56.1676C18.0338 55.5628 17.7444 55.0048 17.3182 54.5598L16.6037 53.7856C16.1739 53.2509 15.887 52.6156 15.77 51.9396C15.6509 51.4037 15.4722 50.8082 15.3531 50.2127C15.2932 49.8579 15.2932 49.4956 15.3531 49.1408C15.5318 49.3194 15.4722 49.5576 15.5913 49.7363L15.8295 49.4385C15.8891 49.6172 15.8891 49.7958 15.9486 49.9745C16.1235 50.9397 16.4661 51.8668 16.961 52.7137C17.7351 54.1429 18.3306 55.6317 18.9856 57.1204C19.2085 57.6725 19.3489 58.2543 19.4025 58.8473C19.462 59.0855 19.462 59.3237 19.5216 59.5619C19.5149 59.8828 19.475 60.2021 19.4025 60.5147ZM21.6058 63.4326C21.4674 64.3995 21.3878 65.3739 21.3676 66.3505C21.3676 66.41 21.3676 66.41 21.308 66.4696L21.1294 66.2909C20.9031 65.9852 20.6435 65.7055 20.3553 65.4573C20.2169 65.2877 20.1338 65.0799 20.1171 64.8618L19.9384 63.5517C19.929 63.371 19.9492 63.19 19.998 63.0157C20.2102 62.1367 20.5514 61.2939 21.0103 60.5147L21.1294 60.336H21.1889L21.3676 61.2293L21.5462 61.9439C21.6553 62.4325 21.6755 62.9368 21.6058 63.4326ZM29.5258 76.4739L28.6326 76.2357C28.4716 76.1716 28.3286 76.0694 28.2157 75.9379C27.9421 75.6703 27.7021 75.3704 27.5011 75.0447C26.7967 73.9369 26.2553 72.7336 25.8933 71.4717C25.6649 70.8602 25.2981 70.3099 24.8214 69.8639C24.6127 69.6947 24.4318 69.4938 24.2855 69.2684L23.7496 68.3752C23.5041 67.9595 23.2037 67.5789 22.8563 67.2437C22.7038 67.1236 22.5813 66.9695 22.4986 66.7938C22.4159 66.6181 22.3753 66.4255 22.3799 66.2314C22.3604 65.6532 22.4004 65.0745 22.499 64.5045C22.5586 63.6708 22.6777 62.8371 22.7372 62.0034C22.7856 61.3732 22.6835 60.7405 22.4395 60.1574C22.0098 58.95 21.4923 57.7758 20.8912 56.644C20.1766 55.2744 19.462 53.9047 18.807 52.4755C18.2008 51.2225 17.7413 49.9037 17.4373 48.5453C17.3855 48.2603 17.3058 47.981 17.1991 47.7116C17.1571 47.492 17.1778 47.265 17.2587 47.0566C17.6086 46.2831 18.0924 45.5775 18.6879 44.9724C18.6879 45.0915 18.7474 45.151 18.7474 45.2701C18.9159 46.033 19.1758 46.7728 19.5216 47.4734C20.2362 48.9622 20.8912 50.5104 21.6058 51.9992L22.499 54.2025L22.8563 54.7384H22.9754C22.9297 54.2374 22.8502 53.74 22.7372 53.2497C22.7968 53.3092 22.8563 53.3688 22.8563 53.4283C22.8563 53.4879 22.9159 53.4879 22.9754 53.5474C23.5137 54.6492 24.1728 55.6878 24.9405 56.644L25.8338 57.835C26.3444 58.5287 26.709 59.3188 26.9057 60.1574C27.0953 61.1275 27.4584 62.0555 27.9775 62.8966C28.6313 63.9013 28.9251 65.0978 28.8112 66.2909C28.7517 66.8269 28.6326 67.3033 28.573 67.8392C28.5568 67.9283 28.5155 68.011 28.4539 68.0774C28.3944 67.8988 28.3944 67.7201 28.3348 67.601C28.2335 66.5247 27.8872 65.4859 27.3225 64.564L24.881 60.5742C24.6527 60.1805 24.4727 59.7606 24.345 59.3237C24.2824 59.053 24.1822 58.7924 24.0473 58.5496C23.7306 57.9772 23.3059 57.4716 22.7968 57.0608C22.7263 56.9509 22.6217 56.8673 22.499 56.8226C22.3799 56.7631 22.2608 56.8226 22.2608 57.0013L22.4395 57.4777C22.6724 58.0555 22.8518 58.6535 22.9754 59.2642C23.0634 59.5555 23.1232 59.8546 23.1541 60.1574C23.4024 61.1426 23.8707 62.0587 24.5237 62.8371L26.2506 64.9809C26.7823 65.5398 27.1348 66.2449 27.263 67.0055C27.3821 67.601 27.5011 68.2561 27.6798 68.8516C27.7292 69.2066 27.7491 69.5651 27.7393 69.9234C27.6798 70.5785 27.6798 71.2931 27.6798 71.9481C27.6699 72.4055 27.6898 72.863 27.7393 73.3177C27.7433 73.5103 27.8056 73.6972 27.918 73.8537L28.1562 74.3896C28.4414 75.0205 28.8231 75.6031 29.2876 76.1166L29.5258 76.4143V76.4739ZM31.7887 66.8269C31.4427 65.5598 30.9427 64.3399 30.3 63.1944L29.8236 62.5989C29.7092 62.4601 29.6278 62.2972 29.5854 62.1225C29.3857 60.7225 29.306 59.3081 29.3472 57.8945C29.3939 57.0676 29.5337 56.2486 29.764 55.453C30.1809 53.9643 30.5977 52.4755 31.1336 50.9868L31.3123 50.57H31.1336C30.3809 51.57 29.7041 52.625 29.109 53.7261C28.593 54.7922 28.2704 55.9415 28.1562 57.1204C28.0455 58.133 28.0857 59.1565 28.2753 60.1574V60.336C28.1333 60.0164 28.0525 59.6731 28.0371 59.3237C28.0371 58.7282 28.0371 58.0732 27.9775 57.4777V56.7631C27.9775 56.644 28.0371 56.5249 27.8584 56.4653C27.8315 56.3879 27.8116 56.3082 27.7989 56.2271C27.8325 55.6757 27.9531 55.1331 28.1562 54.6193C28.3348 54.0834 28.573 53.607 28.8112 53.071C29.7045 51.5228 30.5977 49.9745 31.4314 48.4262C31.948 47.591 32.3486 46.6896 32.6224 45.7465C32.6819 45.4487 32.7415 45.3892 33.0392 45.4487L33.9325 45.806C34.4529 46.0183 34.9058 46.3683 35.2425 46.8184C35.3882 47.0345 35.4894 47.2774 35.5403 47.533C35.5998 47.8903 35.5998 48.2476 35.6594 48.6049C35.705 48.9862 35.6643 49.3728 35.5403 49.7363C35.2873 50.5399 34.8831 51.2878 34.3493 51.9396C34.1784 52.1301 33.9772 52.2911 33.7538 52.416C33.6457 52.4842 33.5598 52.5826 33.5069 52.699C33.454 52.8154 33.4363 52.9447 33.4561 53.071C33.4561 53.1901 33.337 53.3092 33.2774 53.4283C32.6277 54.2295 32.0498 55.0864 31.5505 55.9889L30.4191 57.8945C30.0944 58.4696 29.8995 59.1087 29.848 59.7671C29.7966 60.4255 29.8899 61.0872 30.1213 61.7057C30.4786 62.718 30.8955 63.6708 31.3123 64.6831C31.5606 65.2094 31.7215 65.7725 31.7887 66.3505C31.8348 66.5455 31.8548 66.7457 31.8482 66.946C31.7887 66.946 31.7887 66.8864 31.7887 66.8269ZM37.4459 50.2722C37.3549 50.7552 37.2356 51.2324 37.0886 51.7014C37.0165 51.9584 37.0376 52.2326 37.1481 52.4755L37.3268 52.7137C37.3228 52.9063 37.2605 53.0932 37.1481 53.2497C36.7742 53.9311 36.3564 54.5875 35.8976 55.2148L35.5403 55.6317L33.8134 57.1799C33.103 57.7207 32.5483 58.4398 32.2055 59.2642V59.026C32.0402 59.2381 31.9187 59.481 31.8482 59.7405C31.6712 60.3432 31.6712 60.984 31.8482 61.5866L32.2055 62.9562C32.6224 64.0281 32.9797 65.1 33.337 66.1719C33.4552 66.4989 33.4552 66.8571 33.337 67.1842H33.2179C33.2142 66.651 33.048 66.1317 32.7415 65.6955V66.1123C32.8406 66.7058 32.8203 67.3132 32.6819 67.8988C32.6014 68.2602 32.3891 68.5787 32.0864 68.792L32.2055 68.4943C32.4543 67.7879 32.5557 67.038 32.5033 66.2909C32.455 65.8116 32.3134 65.3463 32.0864 64.9213C31.5865 63.9382 31.2066 62.8986 30.955 61.8248C30.5467 60.3252 30.6515 58.7322 31.2527 57.299C31.6012 56.4891 32.0844 55.7441 32.6819 55.0957C33.4561 54.0834 34.2897 53.1306 35.1234 52.1183C35.6361 51.5184 36.0392 50.8331 36.3144 50.0936C36.3696 49.9238 36.4499 49.7632 36.5526 49.6172C36.7339 49.3274 36.8539 49.0035 36.9051 48.6655C36.9563 48.3275 36.9377 47.9826 36.8504 47.6521C36.8025 47.5394 36.7821 47.4169 36.7908 47.2948H36.8504L36.9695 47.4734C37.3858 48.3438 37.5508 49.3131 37.4459 50.2722ZM45.7232 44.3769C45.2535 44.8457 44.6503 45.1577 43.9963 45.2701L42.7457 45.3892L40.066 45.5083H39.5896C39.3514 45.4488 39.1728 45.4488 39.0537 45.5679H38.1009L37.2077 45.3297H36.8504L37.2077 45.6274H37.029C36.3918 45.4678 35.8005 45.162 35.3021 44.7342C33.6943 43.6027 32.0864 42.4713 30.4191 41.3994C29.8575 41.0406 29.2298 40.7977 28.573 40.6848H28.2157L28.5135 40.4466C29.418 39.9099 30.4403 39.6032 31.4909 39.5534H31.8482C32.1001 39.5801 32.3532 39.5168 32.5628 39.3747L33.5156 38.9579C33.9693 38.7236 34.4814 38.627 34.9893 38.6799C35.4971 38.7328 35.9783 38.9329 36.374 39.2556L36.9099 39.732C37.029 39.7916 37.1481 39.8511 37.2672 39.732L37.1481 39.4938C37.3087 39.5001 37.4661 39.5405 37.6099 39.6124C37.7536 39.6843 37.8804 39.786 37.9818 39.9107L39.0537 41.1017C39.6507 41.7697 40.3551 42.3333 41.1379 42.769L42.3884 43.3645L43.2221 43.7218L43.4603 43.9005C43.5215 43.983 43.603 44.0484 43.6969 44.0901C43.7908 44.1319 43.894 44.1486 43.9963 44.1387C44.2481 44.1119 44.5012 44.1752 44.7108 44.3173C44.7837 44.3802 44.8739 44.4196 44.9696 44.4302C45.0653 44.4408 45.1619 44.4222 45.2468 44.3769H45.8423L45.7232 44.496V44.3769ZM46.6164 42.114C46.454 42.2748 46.2567 42.3961 46.0398 42.4684C45.8229 42.5407 45.5923 42.562 45.3659 42.5308L42.8648 42.114C42.1747 41.9809 41.5472 41.6253 41.0784 41.1017L39.4705 39.2556C39.3749 39.1662 39.3113 39.0477 39.2898 38.9185C39.2683 38.7894 39.2899 38.6567 39.3514 38.541L39.5896 38.1242L39.7683 38.3029L41.1975 40.4466C41.8114 41.2931 42.7289 41.8692 43.7581 42.0545C44.1024 42.1311 44.4586 42.139 44.806 42.0777C45.1535 42.0164 45.4854 41.8871 45.7827 41.6972C46.1605 41.4027 46.4217 40.9839 46.5198 40.515C46.6179 40.0462 46.5467 39.5578 46.3187 39.1365L46.0209 38.8388C45.8715 38.6777 45.6894 38.5503 45.4869 38.465C45.2843 38.3797 45.066 38.3385 44.8463 38.3441C44.6266 38.3498 44.4106 38.4021 44.2127 38.4977C44.0148 38.5932 43.8395 38.7298 43.6985 38.8983L43.8772 38.541C43.9662 38.3886 44.0865 38.2566 44.2302 38.154C44.3739 38.0514 44.5377 37.9803 44.7108 37.9456C44.7652 37.9142 44.8268 37.8977 44.8895 37.8977C44.9522 37.8977 45.0138 37.9142 45.0681 37.9456C45.4862 38.0693 45.8754 38.2752 46.2128 38.5513C46.5503 38.8274 46.8292 39.1681 47.0333 39.5534C47.2634 39.9645 47.3475 40.4414 47.2718 40.9065C47.1961 41.3715 46.9651 41.7971 46.6164 42.114ZM44.4131 40.2084C44.4012 40.0818 44.3604 39.9596 44.294 39.8511V39.732C44.2345 39.5534 44.4131 39.3747 44.5918 39.3152C44.8114 39.2732 45.0384 39.2938 45.2468 39.3747C45.3202 39.4128 45.3782 39.4752 45.4107 39.5512C45.4433 39.6272 45.4485 39.7122 45.4254 39.7916C45.4174 39.9474 45.3541 40.0952 45.2468 40.2084C45.1819 40.3003 45.099 40.3782 45.0033 40.4372C44.9075 40.4963 44.8007 40.5353 44.6894 40.552C44.5782 40.5687 44.4646 40.5627 44.3558 40.5344C44.2469 40.506 44.1448 40.4559 44.0558 40.3871L43.5199 40.0298C43.4787 40.017 43.4407 39.9955 43.4087 39.9666C43.3766 39.9378 43.3512 39.9023 43.3342 39.8626C43.3172 39.823 43.3091 39.7801 43.3103 39.737C43.3115 39.6939 43.322 39.6516 43.3412 39.6129L43.5199 39.077C43.5199 39.1961 43.4603 39.2556 43.4603 39.3747C43.4895 39.6063 43.6026 39.819 43.7782 39.9727C43.9538 40.1264 44.1797 40.2103 44.4131 40.2084ZM45.5445 35.0872L46.0805 35.4445C46.4502 35.6565 46.7741 35.9399 47.0333 36.2782C47.1127 36.3973 47.1722 36.4568 47.2119 36.4568C47.6494 36.8015 47.997 37.2469 48.2251 37.755C48.4532 38.2631 48.5551 38.8188 48.522 39.3747C48.4925 39.6319 48.4925 39.8917 48.522 40.1489H48.4624C48.4616 39.6866 48.4015 39.2263 48.2838 38.7792C48.1559 38.2443 47.8823 37.7553 47.4934 37.3664C47.1045 36.9774 46.6154 36.7038 46.0805 36.5759C45.4693 36.4465 44.836 36.467 44.2345 36.6355C43.6839 36.7811 43.1977 37.1061 42.8526 37.5591C42.5075 38.012 42.3232 38.5671 42.3289 39.1365C42.3289 39.3747 42.2693 39.5534 42.2693 39.7916C41.9671 39.4923 41.7958 39.0855 41.7929 38.6601V38.2433C41.7292 37.818 41.7913 37.3832 41.9716 36.9928L42.3884 36.1591L43.0435 35.2658L43.5199 34.9086C43.7092 34.7186 43.9662 34.6115 44.2345 34.6108C44.699 34.6789 45.1448 34.841 45.5445 35.0872ZM47.2119 26.2144C47.2697 26.6725 47.1642 27.1363 46.9142 27.5245C46.5569 28.2986 46.1996 29.0132 45.7827 29.7278C45.4117 30.5039 44.9079 31.2093 44.294 31.812C43.8405 32.2366 43.3166 32.5792 42.7457 32.8243C42.5523 32.9315 42.3329 32.9826 42.112 32.9721C41.8911 32.9616 41.6776 32.8898 41.4952 32.7648L40.066 31.9311C39.8385 31.7961 39.6415 31.6152 39.4877 31.3999C39.334 31.1846 39.2267 30.9396 39.1728 30.6806C39.1247 30.5337 39.1218 30.3758 39.1642 30.2272C39.2067 30.0787 39.2926 29.9462 39.411 29.8469C40.0022 29.3077 40.6888 28.8836 41.4356 28.5963C41.6852 28.4843 41.8935 28.2969 42.0311 28.0604C42.0689 27.9563 42.1323 27.8635 42.2156 27.7906C42.2989 27.7177 42.3994 27.6671 42.5075 27.6436C42.692 27.588 42.8491 27.4657 42.9482 27.3006C43.0473 27.1354 43.0813 26.9392 43.0435 26.7503C43.0354 26.6648 43.0539 26.5788 43.0965 26.5042C43.1392 26.4295 43.2038 26.3699 43.2817 26.3335C44.2176 25.5258 45.112 24.6712 45.9614 23.7729L46.4973 23.2369L46.9142 23.4156C47.0079 23.4532 47.0872 23.5196 47.1407 23.6052C47.1943 23.6908 47.2192 23.7913 47.2119 23.892C47.1524 24.0706 47.1524 24.3088 47.0928 24.4875C47.0513 24.8059 47.0715 25.1294 47.1524 25.4402C47.2016 25.6347 47.2217 25.8354 47.2119 26.0357V26.2144ZM47.9265 18.5325L47.4501 19.3067C47.1627 19.8678 46.8023 20.3884 46.3782 20.855C46.3118 20.9634 46.2711 21.0856 46.2591 21.2123C46.2591 21.3314 46.2591 21.3909 46.1996 21.4505C46.0742 21.7573 45.8685 22.0247 45.6041 22.2246C45.5698 22.2366 45.5387 22.2563 45.5132 22.2822C45.4877 22.3082 45.4684 22.3396 45.4569 22.374C45.4454 22.4085 45.442 22.4452 45.4469 22.4812C45.4517 22.5172 45.4648 22.5517 45.485 22.5819C45.485 22.6281 45.4742 22.6737 45.4536 22.715C45.4329 22.7564 45.4029 22.7923 45.3659 22.8201L44.4727 23.6538L43.6985 24.0706C43.3438 24.2548 43.0218 24.4962 42.7457 24.7852C42.7457 24.8646 42.6862 24.9241 42.5671 24.9638L40.6615 26.393C39.1338 27.4665 37.343 28.1046 35.4807 28.239C34.251 28.338 33.0146 28.3181 31.7887 28.1795L28.9303 27.7627C28.6113 27.7451 28.3029 27.6423 28.0371 27.4649H28.3348C28.867 27.4311 29.39 27.3105 29.8831 27.1076C30.3606 26.8953 30.8598 26.7356 31.3718 26.6312L33.6943 26.1548L34.1707 25.9762C34.7746 25.6888 35.4161 25.4883 36.0762 25.3807L38.7559 24.7852L40.4233 24.3088L40.7806 24.1897C41.0947 24.1852 41.3944 24.0568 41.6143 23.8324L42.1502 23.5942C42.8036 23.4115 43.3985 23.0627 43.8772 22.5819C44.7184 21.8712 45.4595 21.0499 46.0805 20.1404L47.1524 18.4134L47.5097 17.6393C47.6321 17.2287 47.7916 16.8301 47.986 16.4483H48.0456V16.6865C48.0951 17.0216 48.115 17.3603 48.1052 17.6989C48.1217 17.9878 48.06 18.2758 47.9265 18.5325Z" fill="#979796" style="fill:#979796;fill:color(display-p3 0.5922 0.5922 0.5882);fill-opacity:1;"/>
</svg>
