<svg width="79" height="80" viewBox="0 0 79 80" fill="none" xmlns="http://www.w3.org/2000/svg">
<g clip-path="url(#clip0_2177_21209)">
<path d="M39.3322 0.667969C17.61 0.667969 0 18.278 0 40.0002C0 61.7224 17.61 79.3324 39.3322 79.3324C61.0544 79.3324 78.6644 61.7224 78.6644 40.0002C78.6644 18.278 61.0544 0.667969 39.3322 0.667969ZM39.3322 76.2361C19.3194 76.2361 3.09626 60.013 3.09626 40.0002C3.09626 19.9874 19.3194 3.76423 39.3322 3.76423C59.345 3.76423 75.5681 19.9874 75.5681 40.0002C75.5681 60.013 59.345 76.2361 39.3322 76.2361Z" fill="#979796" style="fill:#979796;fill:color(display-p3 0.5922 0.5922 0.5882);fill-opacity:1;"/>
<path d="M32.798 63.9628C29.0728 63.9628 25.5001 62.483 22.866 59.8488C20.2318 57.2147 18.752 53.642 18.752 49.9168C18.7516 49.4046 18.7839 48.8929 18.8487 48.3848C19.268 48.675 19.9937 48.9331 21.2032 49.1588C21.1225 62.3986 32.798 63.9628 32.798 63.9628Z" fill="#979796" style="fill:#979796;fill:color(display-p3 0.5922 0.5922 0.5882);fill-opacity:1;"/>
<path d="M32.8022 49.2715C40.426 49.2715 46.6064 48.4628 46.6064 47.4653C46.6064 46.4678 40.426 45.6592 32.8022 45.6592C25.1784 45.6592 18.998 46.4678 18.998 47.4653C18.998 48.4628 25.1784 49.2715 32.8022 49.2715Z" fill="#979796" style="fill:#979796;fill:color(display-p3 0.5922 0.5922 0.5882);fill-opacity:1;"/>
<path d="M32.801 65.9787C28.8968 65.9856 25.1237 64.5701 22.1873 61.997C19.2509 59.424 17.3523 55.8694 16.8464 51.9981C16.3405 48.1268 17.262 44.2037 19.4386 40.9625C21.6151 37.7213 24.8978 35.3838 28.6727 34.3872V13.9873H29.2048V34.7903L29.0113 34.8548C25.2997 35.7996 22.0688 38.0839 19.9405 41.2681C17.8122 44.4523 16.937 48.3112 17.4833 52.102C18.0296 55.8927 19.9589 59.3475 22.8997 61.801C25.8406 64.2546 29.5851 65.5337 33.4124 65.3919C37.2397 65.2501 40.8794 63.6976 43.6306 61.0332C46.3819 58.3688 48.0503 54.7809 48.3148 50.96C48.5792 47.1392 47.4209 43.3556 45.0629 40.3376C42.7049 37.3196 39.3138 35.2806 35.5425 34.6129L35.3329 34.5807V13.9873H35.8489V34.1453C39.7729 34.9016 43.2741 37.0935 45.6685 40.293C48.063 43.4925 49.1787 47.4696 48.7979 51.4477C48.417 55.4257 46.5668 59.1189 43.6088 61.8059C40.6507 64.4929 36.7973 65.9807 32.801 65.9787Z" fill="#979796" style="fill:#979796;fill:color(display-p3 0.5922 0.5922 0.5882);fill-opacity:1;"/>
<path d="M34.057 35.9367V14.6338H30.5898V36.0496C27.9023 36.4803 25.3976 37.6817 23.3796 39.508C21.3615 41.3343 19.9168 43.707 19.2207 46.3382C19.9141 46.0157 21.0591 45.7415 22.9459 45.4835C25.5906 45.1449 29.09 44.9514 32.7991 44.9514C36.5082 44.9514 40.0237 45.1449 42.6523 45.4835C44.5552 45.7415 45.7002 46.0157 46.3936 46.3382C45.6558 43.5467 44.0755 41.0504 41.868 39.1891C39.6605 37.3279 36.933 36.1922 34.057 35.9367Z" fill="#979796" style="fill:#979796;fill:color(display-p3 0.5922 0.5922 0.5882);fill-opacity:1;"/>
<path d="M35.5913 12.2783H28.9473V12.8057H35.5913V12.2783Z" fill="#979796" style="fill:#979796;fill:color(display-p3 0.5922 0.5922 0.5882);fill-opacity:1;"/>
<path d="M53.7922 21.0029H42.1328V22.6107H53.7922V21.0029Z" fill="#979796" style="fill:#979796;fill:color(display-p3 0.5922 0.5922 0.5882);fill-opacity:1;"/>
<path d="M58.4702 62.1246C58.1154 65.7531 54.9869 66.3336 50.6811 66.3336C49.7135 66.3336 48.6814 66.3013 47.6171 66.2691H46.8269C40.4086 66.0917 39.8926 64.2372 39.8926 63.6889H41.3117C41.3102 63.6508 41.3047 63.613 41.2956 63.576C41.344 63.6727 42.0858 64.721 46.8592 64.85L47.6494 64.8822C53.8096 65.0596 56.7769 65.0112 57.0672 62.0117C57.4381 58.2059 55.7287 49.5461 54.4224 45.9015C53.2936 42.7569 52.197 36.7417 51.8583 34.8388H44.8918C44.76 36.0914 44.5554 37.3352 44.279 38.564L42.9082 38.2253C43.1961 36.9444 43.4008 35.6462 43.521 34.3389C43.5332 34.2751 43.5386 34.2103 43.5371 34.1454V34.1131C43.5348 34.08 43.5403 34.0469 43.5533 34.0164V33.968C43.5694 33.8228 43.5855 33.6455 43.6178 33.4358C43.8435 31.1459 44.3596 25.1791 43.7468 22.4376L44.4241 22.2764C45.0691 25.1307 44.5692 31.0652 44.3273 33.4358H52.326C50.8424 27.3562 51.6971 22.5021 51.7293 22.2925L52.4228 22.4215C52.4228 22.4699 51.5197 27.4207 53.0356 33.4358C53.0414 33.4424 53.0458 33.45 53.0486 33.4583C53.0514 33.4667 53.0524 33.4755 53.0517 33.4842L53.1485 34.0002V34.0325C53.2613 34.6453 54.5192 41.9828 55.7448 45.4177C57.0994 49.159 58.8733 58.0124 58.4702 62.1246Z" fill="#979796" style="fill:#979796;fill:color(display-p3 0.5922 0.5922 0.5882);fill-opacity:1;"/>
</g>
<defs>
<clipPath id="clip0_2177_21209">
<rect width="78.6644" height="78.6644" fill="white" style="fill:white;fill-opacity:1;" transform="translate(0 0.667969)"/>
</clipPath>
</defs>
</svg>
