<svg width="88" height="80" viewBox="0 0 88 80" fill="none" xmlns="http://www.w3.org/2000/svg">
<path d="M43.955 73.4657C43.121 73.4657 42.3058 73.2184 41.6123 72.755C40.9189 72.2917 40.3784 71.6331 40.0593 70.8626C39.7401 70.0921 39.6566 69.2443 39.8193 68.4263C39.982 67.6083 40.3836 66.857 40.9733 66.2673C41.5631 65.6776 42.3144 65.276 43.1324 65.1133C43.9503 64.9505 44.7982 65.0341 45.5687 65.3532C46.3392 65.6724 46.9978 66.2128 47.4611 66.9063C47.9244 67.5997 48.1717 68.415 48.1717 69.249C48.1717 70.3673 47.7275 71.4398 46.9367 72.2306C46.1459 73.0214 45.0734 73.4657 43.955 73.4657ZM43.955 65.6961C43.2523 65.6961 42.5654 65.9045 41.9812 66.2949C41.3969 66.6853 40.9415 67.2402 40.6726 67.8894C40.4037 68.5385 40.3334 69.2529 40.4705 69.9421C40.6075 70.6313 40.9459 71.2643 41.4428 71.7612C41.9397 72.258 42.5727 72.5964 43.2619 72.7335C43.9511 72.8706 44.6654 72.8002 45.3146 72.5313C45.9638 72.2624 46.5187 71.8071 46.9091 71.2228C47.2995 70.6385 47.5078 69.9516 47.5078 69.249C47.5078 68.3067 47.1335 67.403 46.4672 66.7367C45.801 66.0705 44.8973 65.6961 43.955 65.6961Z" fill="#979796" style="fill:#979796;fill:color(display-p3 0.5922 0.5922 0.5882);fill-opacity:1;"/>
<path d="M43.9508 79.3329C26.5097 79.3329 12.3164 65.1576 12.3164 47.7165C12.3164 30.2754 26.5097 16.082 43.9508 16.082C61.3919 16.082 75.5853 30.2754 75.5853 47.7165C75.5853 65.1576 61.3919 79.3329 43.9508 79.3329ZM43.9508 17.7328C27.4249 17.7328 13.9852 31.1905 13.9852 47.7165C13.9852 64.2424 27.4249 77.6821 43.9508 77.6821C60.4768 77.6821 73.9165 64.2424 73.9165 47.7165C73.9165 31.1905 60.4768 17.7328 43.9508 17.7328Z" fill="#979796" style="fill:#979796;fill:color(display-p3 0.5922 0.5922 0.5882);fill-opacity:1;"/>
<path d="M17.2227 23.5658L16.164 24.8039L12.9521 22.0226C12.6291 22.3995 12.2882 22.5789 11.9652 22.561C11.6422 22.543 11.2654 22.3636 10.8707 22.0047L6.95898 18.6313L7.99971 17.4291L11.6961 20.6231C11.9293 20.8204 12.1267 20.8384 12.2523 20.6769L12.5933 20.3001C12.7248 20.1326 12.671 19.9532 12.4318 19.7618L8.73539 16.5678L9.77612 15.3477L13.7058 18.739C14.1005 19.0799 14.3338 19.4208 14.3876 19.7438C14.4414 20.0668 14.3338 20.4257 14.0108 20.7845L17.2227 23.5658Z" fill="#979796" style="fill:#979796;fill:color(display-p3 0.5922 0.5922 0.5882);fill-opacity:1;"/>
<path d="M21.0114 17.6061C21.783 18.5033 21.8189 19.2569 21.137 19.849L19.8989 20.9077C19.2171 21.4819 18.4993 21.3204 17.7277 20.4232L12.883 14.789C12.1114 13.8739 12.0576 13.1382 12.7394 12.546L13.9596 11.5053C14.6594 10.9132 15.3951 11.0747 16.1667 11.9718L21.0114 17.6061ZM19.7015 19.0954C19.881 18.9339 19.863 18.7365 19.6298 18.4674L15.108 13.192C14.8927 12.9408 14.6773 12.887 14.5159 13.0305L14.1929 13.2997C14.0134 13.4612 14.0314 13.6765 14.2467 13.9277L18.7685 19.2031C19.0017 19.4722 19.1991 19.5261 19.3785 19.3646L19.7015 19.0954Z" fill="#979796" style="fill:#979796;fill:color(display-p3 0.5922 0.5922 0.5882);fill-opacity:1;"/>
<path d="M25.7485 14.5206C26.3765 15.5255 26.3227 16.2612 25.5511 16.7456L24.1695 17.6069C23.4159 18.0914 22.7161 17.8223 22.088 16.7995L17.1895 8.99404L18.5352 8.15069L23.3082 15.7587C23.4876 16.0458 23.685 16.1356 23.9003 16.01L24.2413 15.7767C24.4386 15.669 24.4566 15.4537 24.2592 15.1666L19.5042 7.55856L20.8499 6.69727L25.7485 14.5206Z" fill="#979796" style="fill:#979796;fill:color(display-p3 0.5922 0.5922 0.5882);fill-opacity:1;"/>
<path d="M35.18 10.8076C35.5568 11.938 35.3236 12.6378 34.4623 12.907L30.9633 14.0733C30.102 14.3484 29.4919 13.9178 29.133 12.7814L26.2441 4.02493L27.7155 3.5584L30.5147 12.0816C30.6224 12.4046 30.7839 12.5481 30.9992 12.4584L31.5375 12.2969L28.5768 3.27131L29.9584 2.80477L32.9191 11.8304L33.4754 11.6509C33.6907 11.5792 33.7445 11.3818 33.6369 11.0588L30.8377 2.51768L32.3091 2.0332L35.18 10.8076Z" fill="#979796" style="fill:#979796;fill:color(display-p3 0.5922 0.5922 0.5882);fill-opacity:1;"/>
<path d="M41.1936 11.7216L39.5428 11.9549L38.7174 7.97145L37.7844 8.09705L38.1253 12.1702L36.4386 12.4035L35.8823 1.94243C35.8644 1.56561 36.008 1.35029 36.3489 1.29646L38.1432 1.04525C38.4842 0.991419 38.7174 1.15291 38.8071 1.52972L41.1936 11.7216ZM37.4614 2.67811C37.3717 2.69605 37.3537 2.73194 37.3537 2.78577L37.6588 6.64363L38.4303 6.51802L37.6588 2.74988C37.6588 2.67811 37.6049 2.66017 37.5332 2.66017L37.4614 2.67811Z" fill="#979796" style="fill:#979796;fill:color(display-p3 0.5922 0.5922 0.5882);fill-opacity:1;"/>
<path d="M46.628 11.3265C46.6366 11.3811 46.6325 11.437 46.616 11.4897C46.5995 11.5425 46.5711 11.5907 46.5328 11.6307C46.4946 11.6706 46.4477 11.7012 46.3957 11.72C46.3438 11.7388 46.2881 11.7454 46.2332 11.7392H45.5514C45.4351 11.7493 45.3195 11.7138 45.2291 11.6401C45.1386 11.5664 45.0804 11.4603 45.0669 11.3444L43.8288 5.18981C43.8288 5.17077 43.8212 5.15252 43.8078 5.13906C43.7943 5.1256 43.776 5.11803 43.757 5.11803H43.7032C43.6673 5.11803 43.6493 5.13598 43.6493 5.18981V6.01521C43.6314 6.23053 43.6314 6.53557 43.6314 6.89444C43.6314 7.25331 43.6314 7.7019 43.6135 8.24021L43.5596 11.7033H42.0703L42.2497 1.13457C42.2346 1.07506 42.2343 1.01276 42.2488 0.953083C42.2632 0.89341 42.2921 0.838175 42.3327 0.792186C42.3734 0.746197 42.4247 0.710846 42.4822 0.689209C42.5397 0.667573 42.6015 0.660306 42.6624 0.668042H43.5776C43.6938 0.657917 43.8094 0.693477 43.8999 0.767176C43.9903 0.840876 44.0485 0.946916 44.062 1.0628L45.0669 6.5894C45.1028 6.67912 45.1387 6.73295 45.1745 6.73295H45.2284C45.2474 6.73295 45.2657 6.72539 45.2791 6.71193C45.2926 6.69847 45.3001 6.68021 45.3001 6.66118C45.3024 6.58896 45.2963 6.51672 45.2822 6.44586V6.03315C45.3001 5.83578 45.3001 5.58457 45.3001 5.24364V3.93376L45.354 0.703929L46.7895 0.739816L46.628 11.3265Z" fill="#979796" style="fill:#979796;fill:color(display-p3 0.5922 0.5922 0.5882);fill-opacity:1;"/>
<path d="M50.347 12.2585L48.75 12.0073L50.2034 2.64079L49.0192 2.44341L49.2524 0.954102L53.2359 1.56418L53.0026 3.07144L51.8183 2.87406L50.347 12.2585Z" fill="#979796" style="fill:#979796;fill:color(display-p3 0.5922 0.5922 0.5882);fill-opacity:1;"/>
<path d="M59.3391 13.1028C59.1237 13.677 58.8546 14.0538 58.5495 14.2512C58.3666 14.3443 58.1648 14.3944 57.9595 14.3975C57.7542 14.4006 57.551 14.3567 57.3653 14.2692L55.2838 13.4797C54.907 13.3361 54.7814 13.067 54.925 12.6542L58.3701 3.57483C58.5316 3.16213 58.8008 3.03652 59.1955 3.19801L61.259 3.98753C62.1382 4.31051 62.3715 5.0462 61.9409 6.15869L61.0975 8.40163C60.8822 8.97583 60.5413 9.28087 60.0927 9.3347C60.3977 9.71151 60.4516 10.196 60.2183 10.8061L59.3391 13.1028ZM57.3653 12.6542C57.6404 12.7619 57.8378 12.6542 57.9574 12.3313L58.7828 10.1063C58.9024 9.81917 58.8307 9.62179 58.5675 9.51413L57.9215 9.28087L56.7731 12.2774C56.7645 12.2949 56.76 12.314 56.76 12.3335C56.76 12.3529 56.7646 12.3721 56.7733 12.3895C56.782 12.4069 56.7946 12.4221 56.8101 12.4337C56.8257 12.4454 56.8437 12.4533 56.8629 12.4569L57.3653 12.6542ZM59.0879 8.15042C59.357 8.24014 59.5364 8.15042 59.6441 7.84539L60.4157 5.83571C60.5353 5.51273 60.4635 5.2974 60.2003 5.18974L59.68 5.01031C59.5903 4.97442 59.5364 5.01031 59.5006 5.10003L58.4419 7.89922L59.0879 8.15042Z" fill="#979796" style="fill:#979796;fill:color(display-p3 0.5922 0.5922 0.5882);fill-opacity:1;"/>
<path d="M62.674 16.8885L60.3055 15.5965C59.9286 15.3992 59.8389 15.0941 60.0542 14.7173L64.7016 6.19413C64.9169 5.81732 65.204 5.7276 65.5809 5.94292L67.9494 7.23485L67.2317 8.56268L65.7962 7.7911C65.7786 7.78215 65.7594 7.7769 65.7398 7.77569C65.7201 7.77448 65.7004 7.77733 65.6819 7.78406C65.6634 7.7908 65.6464 7.80127 65.6321 7.81483C65.6178 7.82839 65.6065 7.84474 65.5988 7.86288L64.1633 10.5185L65.7065 11.3619L65.0067 12.6538L63.4635 11.8105L61.9383 14.5917C61.8845 14.6814 61.9024 14.7532 61.9742 14.7891L63.4097 15.5786L62.674 16.8885Z" fill="#979796" style="fill:#979796;fill:color(display-p3 0.5922 0.5922 0.5882);fill-opacity:1;"/>
<path d="M66.3313 19.437L64.1242 17.8579C63.7833 17.6067 63.7294 17.3196 63.9807 16.9608L69.6508 9.06561C69.902 8.72468 70.2071 8.67085 70.548 8.92206L72.755 10.5011L71.8579 11.7392L70.548 10.7882C70.4762 10.7344 70.4044 10.7523 70.3506 10.842L68.5742 13.3003L70.0097 14.3231L69.1484 15.5073L67.7308 14.4846L65.8647 17.0684C65.8515 17.0827 65.8418 17.0999 65.8364 17.1186C65.831 17.1372 65.83 17.1569 65.8335 17.1761C65.8369 17.1952 65.8448 17.2133 65.8565 17.2288C65.8681 17.2444 65.8832 17.2571 65.9006 17.2658L67.2105 18.2168L66.3313 19.437Z" fill="#979796" style="fill:#979796;fill:color(display-p3 0.5922 0.5922 0.5882);fill-opacity:1;"/>
<path d="M68.3616 21.2315L67.1953 20.1549L74.1933 12.511C74.4983 12.2059 74.7854 12.188 75.1084 12.4751L76.9745 14.1977L75.9518 15.3102L74.8751 14.3412C74.8034 14.2694 74.7495 14.2874 74.6778 14.3591L72.6143 16.5841L73.7806 17.6608L72.7937 18.7553L71.6274 17.6787L68.3616 21.2315Z" fill="#979796" style="fill:#979796;fill:color(display-p3 0.5922 0.5922 0.5882);fill-opacity:1;"/>
<path d="M71.6783 24.7125L70.6914 23.5462L72.1987 22.2901L73.1676 23.4385L71.6783 24.7125ZM73.67 23.0258L72.7011 21.8595L74.0468 20.7111C74.3808 20.4232 74.7933 20.242 75.2311 20.1907L76.8999 20.0472C77.2192 20.0142 77.5202 19.8825 77.7612 19.6704L78.6224 18.9347C78.9095 18.6835 78.9634 18.4502 78.766 18.2169L77.492 16.7097L78.5686 15.8125L80.022 17.5351C80.7757 18.4442 80.6321 19.3414 79.5914 20.2266L78.748 20.9443C78.4156 21.2316 78.0014 21.4073 77.5638 21.4468L75.7515 21.6262C75.4241 21.6618 75.1164 21.7999 74.8723 22.021L73.67 23.0258Z" fill="#979796" style="fill:#979796;fill:color(display-p3 0.5922 0.5922 0.5882);fill-opacity:1;"/>
<path d="M43.9547 69.2475C43.9547 69.2475 49.8581 69.8935 50.845 65.5332C51.8319 61.1729 50.1273 56.6691 52.137 53.5469C54.1466 50.4248 58.4531 48.9893 58.5787 44.5393C58.5787 44.5393 55.0797 47.5179 52.5497 48.7381C49.3916 50.2812 48.62 55.6822 48.62 55.6822C48.62 55.6822 47.8126 49.6532 50.2529 47.3026C52.6932 44.952 57.9148 44.2881 58.5787 41.3992C59.2426 38.5103 59.5835 34.3653 64.7692 33.6834C69.9549 33.0016 78.0654 34.0064 82.3897 30.7945C86.7141 27.5826 88.5803 23.6351 87.3601 16.9062C87.3601 16.9062 86.9115 26.9726 73.8307 28.0851C60.7499 29.1976 55.4386 27.7262 52.9983 26.6496C50.5579 25.573 47.4896 28.5695 43.9547 28.5695C40.4198 28.5695 37.3515 25.573 34.9112 26.6496C32.4709 27.7262 27.1596 29.2155 14.0788 28.0851C0.997923 26.9546 0.549335 16.9062 0.549335 16.9062C-0.652881 23.6351 1.1953 27.6006 5.51969 30.7945C9.84408 33.9885 17.9546 33.0016 23.1402 33.6834C28.3259 34.3653 28.6489 38.5103 29.3307 41.3992C30.0126 44.2881 35.2342 44.952 37.6745 47.3026C40.1148 49.6532 39.2894 55.6822 39.2894 55.6822C39.2894 55.6822 38.5178 50.2812 35.3777 48.7381C32.8297 47.5179 29.3307 44.5393 29.3307 44.5393C29.4564 48.9893 33.7628 50.4248 35.7725 53.5469C37.7821 56.6691 36.0955 61.1729 37.0823 65.5332C38.0692 69.8935 43.9547 69.2475 43.9547 69.2475Z" fill="#979796" style="fill:#979796;fill:color(display-p3 0.5922 0.5922 0.5882);fill-opacity:1;"/>
</svg>
