<svg width="143" height="80" viewBox="0 0 143 80" fill="none" xmlns="http://www.w3.org/2000/svg">
<path d="M100.916 51.4242C100.762 51.8111 100.526 52.1601 100.225 52.4475C99.962 52.7039 99.6494 52.9042 99.3064 53.0362C98.9633 53.1681 98.5971 53.2289 98.2298 53.2149C97.6929 53.2283 97.1624 53.0957 96.6949 52.8312C96.2824 52.5808 95.9324 52.2396 95.6717 51.8335C95.3847 51.4173 95.1845 50.9474 95.0833 50.4521C94.9607 49.9498 94.9006 49.4342 94.9042 48.9172C94.8725 48.1274 94.9852 47.3385 95.2368 46.5892C95.4202 46.0756 95.7076 45.6053 96.081 45.2078C96.3984 44.8945 96.7835 44.6582 97.2066 44.5171C97.5817 44.4115 97.9682 44.3513 98.3578 44.338C99.0493 44.3127 99.728 44.5299 100.276 44.952C100.549 45.1518 100.769 45.4153 100.916 45.7194L100.967 45.7962C101.121 46.052 101.709 46.666 103.986 46.666C103.938 45.9659 103.737 45.2848 103.397 44.6706C103.092 44.1121 102.664 43.6308 102.144 43.2636C101.621 42.8768 101.031 42.5905 100.404 42.4194C99.729 42.2345 99.0323 42.1399 98.3322 42.138C97.4027 42.1201 96.4795 42.2942 95.6205 42.6496C94.8872 42.9867 94.2334 43.4749 93.7018 44.0822C93.1625 44.7075 92.7615 45.4399 92.5251 46.2311C92.2636 47.0935 92.1343 47.9905 92.1413 48.8916C92.1293 49.7615 92.2678 50.627 92.5507 51.4498C92.7823 52.2125 93.1847 52.9125 93.7274 53.4963C94.2512 54.0819 94.8975 54.5448 95.6205 54.8522C96.4441 55.2059 97.3336 55.3803 98.2298 55.3638C99.8415 55.3638 101.146 54.9289 102.118 54.0591C103.09 53.1894 103.679 52.0126 103.96 50.4265C101.146 50.4521 100.916 51.3986 100.916 51.3986V51.4242Z" fill="#979796" style="fill:#979796;fill:color(display-p3 0.5922 0.5922 0.5882);fill-opacity:1;"/>
<path d="M125.789 55.1076C125.612 55.0987 125.443 55.0362 125.303 54.9285C124.817 54.5448 124.586 53.5727 124.51 53.0866C124.433 52.6006 124.458 52.8308 124.458 52.8308V47.5098C124.478 47.0402 124.353 46.576 124.1 46.1795C123.877 45.8146 123.57 45.5078 123.205 45.2841L122.412 44.926L121.926 44.7981C121.455 44.6966 120.975 44.6451 120.493 44.6446C119.952 44.6425 119.412 44.694 118.882 44.7981C118.376 44.8916 117.891 45.0735 117.449 45.3353C117.035 45.5951 116.685 45.9449 116.426 46.3586L116.272 46.64C116.165 46.8589 116.088 47.0912 116.042 47.3307C115.997 47.5332 116.007 47.744 116.07 47.9417C116.132 48.1394 116.246 48.3169 116.4 48.4563C116.731 48.6305 117.101 48.7185 117.475 48.7121H119.035C118.933 48.661 117.935 48.2772 118.344 47.2795C118.464 47.0664 118.63 46.8828 118.83 46.7423C119.286 46.4723 119.81 46.3391 120.34 46.3586L121.03 46.4097C121.261 46.4431 121.486 46.5121 121.696 46.6144C121.897 46.707 122.073 46.8475 122.207 47.0237C122.346 47.2269 122.417 47.4685 122.412 47.7144C122.423 47.8451 122.405 47.9767 122.361 48.1002C122.317 48.2237 122.247 48.3364 122.156 48.4307C121.978 48.6045 121.758 48.7281 121.516 48.7889C121.207 48.8709 120.89 48.9223 120.57 48.9424L119.419 49.1214L118.063 49.3261C117.628 49.4139 117.212 49.5785 116.835 49.8121C116.46 50.0221 116.15 50.3321 115.94 50.7075C115.696 51.172 115.581 51.6931 115.607 52.2168C115.6 52.6511 115.697 53.0808 115.888 53.4704C116.063 53.8296 116.316 54.1445 116.63 54.3913C116.964 54.6305 117.336 54.8121 117.73 54.9285C118.147 55.0417 118.577 55.1019 119.009 55.1076C119.633 55.0981 120.253 55.0034 120.851 54.8262C121.441 54.6384 121.982 54.3241 122.437 53.9052C122.465 54.0917 122.531 54.2702 122.633 54.4289C122.734 54.5877 122.868 54.7231 123.026 54.8262C123.359 55.0206 123.74 55.118 124.126 55.1076H125.789ZM122.028 52.3703C121.853 52.6045 121.636 52.804 121.389 52.9587C121.143 53.1107 120.876 53.2229 120.596 53.2913L119.802 53.368C119.588 53.3745 119.374 53.3574 119.163 53.3169C118.938 53.2915 118.721 53.2219 118.523 53.1122C118.329 53.0204 118.154 52.8898 118.012 52.7285C117.869 52.5565 117.796 52.3375 117.807 52.1145C117.791 51.8689 117.835 51.623 117.935 51.3982C118.027 51.2037 118.168 51.0363 118.344 50.9122C118.509 50.7785 118.701 50.6825 118.907 50.6308L119.572 50.4517L121.03 50.247C121.466 50.2247 121.888 50.0927 122.258 49.8633V51.5005C122.267 51.8066 122.187 52.1087 122.028 52.3703Z" fill="#979796" style="fill:#979796;fill:color(display-p3 0.5922 0.5922 0.5882);fill-opacity:1;"/>
<path d="M113.788 52.345V50.4776V47.9194C113.788 46.7426 113.456 45.8472 112.791 45.2589C112.126 44.6705 111.23 44.3635 110.079 44.3635C109.426 44.3671 108.784 44.5342 108.212 44.8495L108.109 44.9007V44.7472C108.084 43.596 107.802 40.6797 105.807 40.6797H104.732C104.732 40.6797 105.807 40.9099 105.807 43.596V50.9892C105.832 52.1148 106.088 55.1079 108.109 55.1079H109.184C109.184 55.1079 108.16 54.8777 108.109 52.345V46.5635L108.391 46.41C108.718 46.2526 109.077 46.1738 109.44 46.1798C110.13 46.1798 110.642 46.3845 110.949 46.7426C111.256 47.1008 111.46 47.7147 111.486 48.5333V49.7357V50.9892C111.512 52.1148 111.767 55.1079 113.788 55.1079H114.863C114.863 55.1079 113.84 54.8777 113.788 52.345Z" fill="#979796" style="fill:#979796;fill:color(display-p3 0.5922 0.5922 0.5882);fill-opacity:1;"/>
<path d="M129.851 52.3449V49.1471C129.869 48.9941 129.869 48.8397 129.851 48.6867C129.826 47.5355 129.57 44.6191 127.549 44.6191H126.475C126.475 44.6191 127.549 44.875 127.549 47.5611V51.0658C127.6 52.2426 127.882 55.1077 129.851 55.1077H130.951C130.951 55.1077 129.903 54.8775 129.851 52.3449Z" fill="#979796" style="fill:#979796;fill:color(display-p3 0.5922 0.5922 0.5882);fill-opacity:1;"/>
<path d="M135.096 52.3449V49.1471C135.113 48.9941 135.113 48.8397 135.096 48.6867C135.07 47.5355 134.789 44.6191 132.793 44.6191H131.719C131.719 44.6191 132.793 44.875 132.793 47.5611V51.0658C132.844 52.2426 133.126 55.1077 135.096 55.1077H136.196C136.196 55.1077 135.147 54.8775 135.096 52.3449Z" fill="#979796" style="fill:#979796;fill:color(display-p3 0.5922 0.5922 0.5882);fill-opacity:1;"/>
<path d="M18.9329 53.8023L14.8142 47.5603L18.2934 44.209C18.2934 44.209 19.5213 43.0323 20.3655 43.0323H17.0655C16.1957 43.0323 15.4026 43.8253 15.4026 43.8253L11.2584 48.0207V43.6718C11.2746 43.4931 11.2746 43.3133 11.2584 43.1346C11.2328 41.7788 10.9002 38.3252 8.54667 38.3252H7.26758C7.26758 38.3252 8.54667 38.6066 8.54667 41.7788V50.5278C8.57226 51.858 8.87924 55.3883 11.2584 55.3883H12.5375C12.5375 55.3883 11.3095 55.1069 11.2584 52.1139V50.9627L12.8956 49.3766L15.5817 53.6743C15.5817 53.6743 16.7073 55.3628 18.1399 55.3628H20.3655C20.3655 55.3628 19.9818 55.3372 18.9329 53.7767V53.8023Z" fill="#979796" style="fill:#979796;fill:color(display-p3 0.5922 0.5922 0.5882);fill-opacity:1;"/>
<path d="M37.8649 44.926H37.6346C37.3129 44.925 36.9931 44.9769 36.6881 45.0795C35.931 45.2803 35.2749 45.7541 34.8462 46.4097C34.5137 45.5911 33.9509 44.9004 32.9787 44.9004H31.9043C31.9043 44.9004 32.9787 45.1562 32.9787 47.8423V51.347C33.0299 52.5238 33.3113 55.389 35.2811 55.389H36.3811C36.3811 55.389 35.3323 55.1587 35.2811 52.6261V49.4284C35.2982 49.2754 35.2982 49.1209 35.2811 48.9679V48.6098C35.8439 46.9469 37.0463 46.6911 37.7881 46.7167H37.916C37.916 46.7167 38.5044 46.6655 38.5044 44.9771H37.8649V44.926Z" fill="#979796" style="fill:#979796;fill:color(display-p3 0.5922 0.5922 0.5882);fill-opacity:1;"/>
<path d="M31.3125 55.3898C31.143 55.3845 30.9805 55.3213 30.852 55.2107H30.8264C30.3659 54.8014 30.1101 53.8293 30.0334 53.3433C29.9566 52.8572 29.9822 53.0874 29.9822 53.0874V47.792C29.9971 47.3263 29.882 46.8656 29.6496 46.4617C29.4158 46.0963 29.1006 45.7898 28.7287 45.5664L27.9356 45.2082L27.4496 45.0803C26.979 44.9774 26.4987 44.926 26.017 44.9268C25.476 44.9248 24.9362 44.9762 24.4053 45.0803C23.9068 45.1697 23.4295 45.3519 22.9983 45.6175C22.5719 45.8698 22.2122 46.2207 21.9495 46.6408L21.796 46.9222C21.6888 47.1412 21.6114 47.3735 21.5657 47.6129C21.5209 47.8155 21.5305 48.0262 21.5934 48.2239C21.6563 48.4216 21.7703 48.5991 21.9239 48.7385C22.2549 48.9127 22.6244 49.0007 22.9983 48.9943H24.5588C24.4565 48.9432 23.4588 48.5595 23.8681 47.5618C23.995 47.3538 24.1599 47.1716 24.3542 47.0245C24.818 46.7511 25.3511 46.6178 25.8891 46.6408L26.5798 46.692C26.8017 46.7293 27.017 46.7982 27.2194 46.8966C27.4208 46.9892 27.5965 47.1297 27.731 47.3059C27.8697 47.5091 27.9413 47.7507 27.9356 47.9966C27.95 48.1276 27.9345 48.2602 27.8902 48.3842C27.8459 48.5083 27.7739 48.6207 27.6798 48.7129C27.502 48.8867 27.2814 49.0103 27.0403 49.0711C26.7306 49.1532 26.4135 49.2046 26.0937 49.2246L24.9426 49.4037L23.5867 49.6083C23.1518 49.6961 22.736 49.8607 22.3588 50.0944C21.9886 50.3113 21.6803 50.6196 21.4634 50.9897C21.2535 51.4231 21.1403 51.8969 21.1314 52.3783C21.1226 52.8598 21.2184 53.3374 21.4123 53.7782C21.5868 54.1301 21.8407 54.4367 22.1541 54.6735C22.491 54.9081 22.862 55.0893 23.2542 55.2107C23.6686 55.3365 24.1002 55.3969 24.5332 55.3898C25.1572 55.3803 25.7768 55.2856 26.3751 55.1084C26.9646 54.9206 27.5059 54.6063 27.9612 54.1875C27.9885 54.3739 28.055 54.5524 28.1565 54.7112C28.2579 54.8699 28.3919 55.0053 28.5496 55.1084C28.8113 55.2738 29.1104 55.3706 29.4194 55.3898H31.3125ZM27.8077 51.7828C27.8089 52.0914 27.72 52.3937 27.5519 52.6526C27.3771 52.8867 27.1602 53.0862 26.9124 53.2409C26.6672 53.3929 26.3995 53.5051 26.1193 53.5735L25.3263 53.6503C25.1119 53.6558 24.8975 53.6386 24.6867 53.5991C24.4629 53.5701 24.2463 53.5007 24.0472 53.3944C23.8524 53.3026 23.6783 53.172 23.5356 53.0107C23.3932 52.8387 23.3202 52.6198 23.3309 52.3967C23.3268 52.1519 23.3703 51.9087 23.4588 51.6804C23.5512 51.486 23.6922 51.3186 23.8681 51.1944C24.033 51.0607 24.2251 50.9647 24.4309 50.913L25.0961 50.7339L26.5542 50.5293C26.9993 50.5186 27.4329 50.3858 27.8077 50.1455V51.7828Z" fill="#979796" style="fill:#979796;fill:color(display-p3 0.5922 0.5922 0.5882);fill-opacity:1;"/>
<path d="M49.425 55.3898C49.2478 55.3843 49.0773 55.3214 48.9389 55.2107C48.4528 54.8014 48.2226 53.8293 48.1459 53.3432C48.1164 53.2609 48.0992 53.1747 48.0947 53.0874V47.7919C48.1005 47.3239 47.9766 46.8635 47.7366 46.4617C47.5027 46.0962 47.1875 45.7898 46.8156 45.5663C46.5632 45.4222 46.2976 45.3022 46.0226 45.2082L45.5621 45.0803C45.0827 44.9786 44.594 44.9272 44.1039 44.9268C43.5631 44.9271 43.0235 44.9785 42.4923 45.0803C41.995 45.1741 41.5185 45.356 41.0853 45.6175C40.6662 45.8705 40.3151 46.2217 40.062 46.6407L39.9085 46.9221C39.8013 47.1411 39.7239 47.3734 39.6783 47.6129C39.6278 47.8152 39.6346 48.0277 39.6978 48.2264C39.7611 48.4252 39.8783 48.6024 40.0364 48.7385C40.3593 48.9095 40.7198 48.9974 41.0853 48.9943H42.6713C42.569 48.9431 41.5457 48.5594 41.9806 47.5617C42.0998 47.3481 42.266 47.1643 42.4667 47.0245C42.9209 46.7503 43.446 46.6168 43.976 46.6407L44.6667 46.6919C44.8968 46.7292 45.1206 46.7981 45.3319 46.8966C45.5263 46.989 45.6937 47.13 45.8179 47.3059C45.9676 47.5037 46.0403 47.7492 46.0226 47.9966C46.0337 48.1253 46.0191 48.2549 45.9796 48.3779C45.94 48.5009 45.8764 48.6148 45.7923 48.7129C45.6046 48.8867 45.3757 49.01 45.1272 49.071C44.8179 49.1552 44.5007 49.2066 44.1807 49.2245L43.0551 49.4036L41.6736 49.6083C41.2415 49.7052 40.8272 49.8692 40.4457 50.0943C40.0828 50.3119 39.783 50.6206 39.5759 50.9897C39.3699 51.4236 39.2567 51.8957 39.2435 52.3758C39.2303 52.8559 39.3174 53.3335 39.4992 53.7781C39.6833 54.1312 39.9458 54.4375 40.2666 54.6735C40.5915 54.9126 40.9549 55.0943 41.3411 55.2107C41.756 55.3345 42.1872 55.3948 42.6202 55.3898C43.2441 55.3802 43.8638 55.2855 44.4621 55.1084C45.0617 54.9264 45.6125 54.6116 46.0737 54.1874C46.0964 54.3722 46.1584 54.55 46.2554 54.7088C46.3525 54.8677 46.4824 55.0039 46.6365 55.1084C46.9788 55.3036 47.3682 55.4009 47.7621 55.3898H49.425ZM45.8947 51.7827C45.9077 52.0929 45.8177 52.3987 45.6388 52.6525C45.4801 52.8915 45.2704 53.0925 45.0249 53.2409C44.7774 53.3884 44.5105 53.5004 44.2318 53.5734L43.4388 53.6502C43.2244 53.6576 43.0098 53.6404 42.7992 53.599C42.5674 53.5698 42.3423 53.5005 42.1341 53.3944C41.9474 53.2896 41.7754 53.1605 41.6225 53.0106C41.4912 52.8327 41.4196 52.6178 41.4178 52.3967C41.4088 52.1684 41.4525 51.9412 41.5457 51.7326C41.6389 51.5241 41.779 51.3399 41.955 51.1943C42.1292 51.0601 42.3297 50.9642 42.5434 50.9129L43.2086 50.7339L44.6667 50.5292C45.104 50.5192 45.5295 50.3862 45.8947 50.1455V51.7827Z" fill="#979796" style="fill:#979796;fill:color(display-p3 0.5922 0.5922 0.5882);fill-opacity:1;"/>
<path d="M59.9662 54.0333L56.4871 48.789L59.4546 45.9494C59.4546 45.9494 60.4779 44.9517 61.1686 44.9517H58.4057C57.6639 44.9517 56.9987 45.6168 56.9987 45.6168L53.494 49.1727V45.0285C53.4684 43.8773 53.187 40.9609 51.1916 40.9609H50.1172C50.1172 40.9609 51.1916 41.1912 51.1916 43.8773V51.2705C51.2172 52.3961 51.473 55.3891 53.494 55.3891H54.5684C54.5684 55.3891 53.5452 55.1589 53.494 52.6263V51.6542L54.8754 50.3239L57.1522 53.931C57.1522 53.931 58.0987 55.3636 59.3011 55.3636H61.1942C61.1942 55.3636 60.8616 55.338 59.9662 54.0077V54.0333Z" fill="#979796" style="fill:#979796;fill:color(display-p3 0.5922 0.5922 0.5882);fill-opacity:1;"/>
<path d="M128.984 40.6038C128.601 39.7085 127.961 38.9922 126.887 38.9922H125.607C125.607 38.9922 126.349 39.1457 126.707 40.6038C127.091 41.5248 127.731 42.2155 128.805 42.2155H130.059C130.059 42.2155 129.342 42.062 128.984 40.6038Z" fill="#979796" style="fill:#979796;fill:color(display-p3 0.5922 0.5922 0.5882);fill-opacity:1;"/>
<path d="M134.336 40.6038C133.926 39.7085 133.287 38.9922 132.213 38.9922H130.959C130.959 38.9922 131.675 39.1457 132.033 40.6038C132.417 41.5248 133.082 42.2155 134.131 42.2155H135.41C135.41 42.2155 134.668 42.062 134.336 40.6038Z" fill="#979796" style="fill:#979796;fill:color(display-p3 0.5922 0.5922 0.5882);fill-opacity:1;"/>
<path d="M1.71384 32.3398H0.28125V62.8002H1.71384V32.3398Z" fill="#979796" style="fill:#979796;fill:color(display-p3 0.5922 0.5922 0.5882);fill-opacity:1;"/>
<path d="M142.694 32.3398H141.262V62.8002H142.694V32.3398Z" fill="#979796" style="fill:#979796;fill:color(display-p3 0.5922 0.5922 0.5882);fill-opacity:1;"/>
<path d="M55.7684 32.3398H0.28125V33.7724H57.7382L55.7684 32.3398Z" fill="#979796" style="fill:#979796;fill:color(display-p3 0.5922 0.5922 0.5882);fill-opacity:1;"/>
<path d="M58.0708 61.375H0.28125V62.8076H57.7127L58.0708 61.375Z" fill="#979796" style="fill:#979796;fill:color(display-p3 0.5922 0.5922 0.5882);fill-opacity:1;"/>
<path d="M89.023 61.375L87.5137 62.8076H142.694V61.375H89.023Z" fill="#979796" style="fill:#979796;fill:color(display-p3 0.5922 0.5922 0.5882);fill-opacity:1;"/>
<path d="M85.7227 32.3398L87.3599 33.7724H142.694V32.3398H85.7227Z" fill="#979796" style="fill:#979796;fill:color(display-p3 0.5922 0.5922 0.5882);fill-opacity:1;"/>
<path d="M74.8506 62.7831C74.7483 62.9622 74.4925 63.0389 74.4925 63.2948C74.4413 64.1645 74.0576 64.9064 73.8018 65.6995C73.7506 65.8274 73.6483 65.9553 73.8018 66.0832C74.0064 65.725 74.4413 65.7506 74.7483 65.546C75.0553 65.3413 74.3134 65.4692 74.646 65.239C75.1576 65.3925 75.3623 65.0087 75.5669 64.6762C75.7716 64.3436 76.1041 64.7018 76.1553 64.318C75.9251 64.5483 75.5925 64.1901 75.3879 64.4971C75.3111 64.3692 75.1832 64.4204 75.0553 64.3948L75.2599 63.8831C75.4902 63.8576 75.6181 64.1645 75.8739 64.1134C76.1297 64.0622 76.7181 63.4482 77.0763 63.0645C77.1531 63.1057 77.2405 63.1228 77.3272 63.1137C77.4138 63.1046 77.4958 63.0696 77.5623 63.0134L77.7158 62.9622C77.767 62.9366 77.8437 62.911 77.8181 62.8343C77.7926 62.7575 77.8437 62.6552 77.9205 62.6296H78.3042L78.56 62.5785C78.5709 62.614 78.5718 62.6518 78.5628 62.6879C78.5538 62.7239 78.5351 62.7569 78.5088 62.7831C78.1763 62.7064 77.9972 62.8343 78.0484 63.218C78.1251 63.0645 78.2274 62.8599 78.3554 62.9622C78.4833 63.0645 78.7135 62.9366 78.867 62.8599C79.0205 62.7831 79.2507 62.4761 79.4298 62.2971C79.6089 62.118 80.0693 61.8622 80.1717 61.4529C80.888 59.8668 81.4252 59.0482 82.3206 58.2807C82.3023 58.5903 82.1858 58.886 81.988 59.1249C81.5527 59.6474 81.1592 60.2034 80.8112 60.7877C80.7856 60.8645 80.7089 60.9412 80.7856 61.0435C80.9582 61.3407 81.155 61.623 81.374 61.8878C81.5019 62.0157 81.5531 62.0157 81.6298 61.8878C81.8744 61.5103 82.0558 61.0956 82.1671 60.6598C81.9755 60.7451 81.8084 60.877 81.681 61.0435C81.6298 61.0947 81.5787 61.2738 81.4508 61.1459C81.3229 61.018 81.4763 60.9668 81.5275 60.8645C81.5854 60.7564 81.6654 60.6618 81.7624 60.5869C81.8594 60.5119 81.9712 60.4583 82.0903 60.4296C82.3461 60.404 82.4229 60.2505 82.5252 60.0714C82.774 59.4884 83.0647 58.9241 83.395 58.383L84.2648 56.9504C84.5156 56.4827 84.8066 56.0376 85.1346 55.6202C85.2369 55.5179 85.3904 55.4411 85.2881 55.2365C85.1857 55.0318 85.109 54.8783 84.9299 54.8783C84.7496 54.8443 84.5633 54.8621 84.3927 54.9295C84.0345 55.1341 83.9834 54.955 84.009 54.6225C84.0345 54.2899 84.0601 53.5225 84.0345 52.9852C84.009 52.448 84.1369 52.6015 84.4183 52.5248C84.6997 52.448 85.109 52.4736 85.4671 52.2945C85.2756 52.2031 85.0572 52.1849 84.8532 52.2434C83.9834 52.3457 83.881 51.6038 83.5741 51.0922C83.4973 50.9899 83.395 50.8619 83.4206 50.7852C83.4462 50.7085 83.3438 50.0433 83.5229 49.7108C83.702 49.3782 83.9578 49.5317 84.009 49.1991C84.0665 48.9652 84.2135 48.7632 84.4183 48.6363C84.7764 48.4572 84.802 48.0735 84.9555 47.7921C85.109 47.5107 85.0322 46.6665 85.1346 46.0781C85.034 46.1901 84.9558 46.3204 84.9043 46.4619C84.6507 47.2203 84.3162 47.9494 83.9066 48.6363C83.7026 48.9339 83.5471 49.262 83.4462 49.6084C83.3438 49.634 83.2927 49.7363 83.2415 49.8131C83.0653 50.0032 82.9187 50.2188 82.8066 50.4526C82.602 50.9643 82.1926 50.7852 81.8089 50.8364L81.7066 50.7596C81.681 50.4782 81.9368 50.2991 82.0136 50.0689C82.0903 49.8387 82.0903 49.8131 82.2694 49.941C82.4485 50.0689 82.4229 49.8898 82.4485 49.8131C82.474 49.7363 82.2182 49.8131 82.2694 49.6852C82.3206 49.5573 82.474 49.3526 82.8322 49.4038C81.9624 49.0456 83.2927 48.841 82.7554 48.534C82.602 48.7642 82.2694 48.7131 82.0903 48.9689C81.5787 49.7108 81.2205 50.555 80.6577 51.2713C80.0949 51.9875 80.1717 51.9876 79.9414 52.3713C79.7112 52.755 79.66 53.1132 79.4042 53.4457C79.1484 53.7783 78.8158 54.6225 77.9972 54.6481C77.946 54.6481 77.8693 54.776 77.9972 54.8016C78.1251 54.8271 78.0995 54.9551 78.0228 55.0318C77.946 55.1085 77.9716 55.262 78.074 55.2876C78.5432 55.491 79.07 55.5183 79.5577 55.3644C79.481 55.0574 79.174 55.1341 78.9693 55.0574C78.7647 54.9806 78.8158 54.9806 78.8414 54.8271C78.867 54.6736 78.7647 54.6736 78.9182 54.6481C79.0716 54.6225 79.0716 54.5969 79.0972 54.8016C79.1228 55.0062 79.4554 54.9295 79.5833 54.8016C79.7112 54.6737 79.9159 55.1085 80.1461 54.9551C80.2996 55.3388 80.4787 54.8527 80.6577 54.9806C80.6321 54.469 80.9391 54.8016 81.1182 54.776C81.2973 54.7504 80.8112 55.1341 80.7345 55.3899C80.6577 55.6458 80.4787 55.5179 80.3252 55.4923L79.8135 55.3644C79.7368 55.3132 79.66 55.262 79.5577 55.3644C79.4554 55.4667 79.7112 55.4155 79.7879 55.4667C79.8647 55.5179 79.9414 55.7737 79.7624 55.8504C79.5386 55.9863 79.3396 56.1593 79.174 56.3621L79.3275 56.4644L79.5833 56.4132C79.8647 56.3621 80.1717 56.2853 80.2996 56.0807C80.4275 55.876 80.7345 55.6713 81.1694 55.7737C81.6043 55.876 81.3484 56.1062 81.3229 56.1318C81.1008 56.3355 80.9486 56.6041 80.888 56.8993C80.8093 57.0317 80.6937 57.1384 80.5554 57.2063C80.3763 57.3086 80.0693 57.3342 80.0182 57.4365C79.9029 57.6732 79.7382 57.8825 79.5352 58.0502C79.3322 58.2179 79.0956 58.3401 78.8414 58.4086C78.7647 58.4342 78.6879 58.5365 78.6368 58.5877H78.6623C78.6752 58.6896 78.6752 58.7927 78.6623 58.8947C78.6368 58.9714 78.5344 58.997 78.4321 59.0737H78.6623C79.1484 59.0993 78.7647 59.2016 78.6879 59.2528C78.6112 59.304 78.4321 59.4831 78.2274 59.4063C78.0228 59.3296 77.767 59.5854 77.5111 59.6365C77.2553 59.6877 77.4856 59.79 77.4856 59.79C77.7228 59.8283 77.9646 59.8283 78.2019 59.79L78.3298 59.6877C78.4833 59.6877 78.7135 59.7389 78.5344 59.8924C78.3554 60.0459 78.1251 60.4296 77.7926 60.5063C77.1831 60.588 76.6078 60.8358 76.1297 61.2226H76.0274C75.6948 61.1715 75.4134 61.0947 75.2599 61.6319C75.1811 62.0338 75.0432 62.4217 74.8506 62.7831ZM74.9274 65.0343V64.9832H74.953L74.9274 65.0343ZM78.867 61.018C79.064 60.9935 79.2548 60.9327 79.4298 60.8389C79.2763 60.5319 79.0717 60.711 78.867 60.7366C79.1213 60.5961 79.3865 60.4764 79.66 60.3784C79.8391 60.3017 79.967 60.2761 79.9414 60.0714C79.9158 59.8668 79.8135 60.2249 79.66 60.1993C79.5065 60.1738 79.4042 60.1226 79.5065 60.0203C79.6089 59.9179 79.5577 59.3807 79.8391 59.1249C79.9777 58.9832 80.1429 58.8702 80.3252 58.7923C80.6577 58.6388 80.581 59.2016 80.888 59.0993C80.893 59.1758 80.8733 59.2519 80.8318 59.3163C80.7904 59.3808 80.7294 59.4303 80.6577 59.4575C80.5298 59.5342 80.5298 59.5598 80.5042 59.79C80.4787 60.0203 80.1973 59.8156 80.1461 59.9947C80.0949 60.1738 80.1205 60.2761 80.2996 60.3528C80.4787 60.4296 79.9926 60.6087 79.967 60.8389C79.9414 61.0691 80.0438 61.1459 80.0693 61.2738C79.9158 61.7854 79.4554 61.6831 79.0972 61.7087C78.8815 61.7205 78.6715 61.7817 78.4833 61.8878C78.3042 61.6575 78.1251 61.8622 77.9716 61.8622C78.0228 61.3505 78.3809 60.9668 78.867 61.018Z" fill="#979796" style="fill:#979796;fill:color(display-p3 0.5922 0.5922 0.5882);fill-opacity:1;"/>
<path d="M82.7906 48.1267C83.2767 47.9732 83.3791 47.8708 83.3791 47.3591C83.4021 47.1042 83.4625 46.8542 83.5582 46.617C83.6606 46.3355 83.2767 46.3355 83.2767 46.0796C83.2767 45.8237 83.1488 46.2331 82.9953 46.2075C82.8417 46.182 82.8161 46.3611 82.7138 46.2075C82.6114 46.7705 82.6114 47.3591 82.5347 47.8964C82.4579 48.4338 82.4835 48.2291 82.7906 48.1267Z" fill="#979796" style="fill:#979796;fill:color(display-p3 0.5922 0.5922 0.5882);fill-opacity:1;"/>
<path d="M82.7645 45.6949C82.8925 45.2855 82.5342 45.3111 82.3551 45.1831C82.176 45.0552 82.3039 45.439 82.1248 45.3879C81.9457 45.3367 81.8177 44.5434 81.4083 45.2343L81.2036 45.1576C81.05 45.0552 80.9989 45.1576 80.9221 45.2599C80.8453 45.3623 80.9733 45.4134 81.0501 45.4902C81.519 45.8922 82.0991 46.1421 82.7133 46.2067C82.6366 46.0276 82.7389 45.8485 82.7645 45.6949Z" fill="#979796" style="fill:#979796;fill:color(display-p3 0.5922 0.5922 0.5882);fill-opacity:1;"/>
<path d="M66.1572 66.1347C65.8502 66.2626 65.8246 66.7744 65.364 66.7488C64.9034 66.7232 65.2105 66.9279 65.3384 67.0047C65.4663 67.0814 66.4643 66.8767 66.6178 66.6976L66.6946 66.6464C66.8481 66.9535 67.0017 67.0814 67.1296 66.6208C67.1552 66.5697 67.1808 66.5441 67.232 66.5441C67.0516 66.528 66.8822 66.4507 66.7519 66.325C66.6216 66.1993 66.5381 66.0328 66.5155 65.8532C66.4643 65.7252 66.6178 65.4949 66.3364 65.5205C66.0549 65.5461 66.0549 65.4693 66.0037 65.5973C65.9799 65.6664 65.9795 65.7415 66.0026 65.8109C66.0258 65.8803 66.0711 65.9401 66.1317 65.9811C66.1828 66.0067 66.2852 66.0835 66.1572 66.1347Z" fill="#979796" style="fill:#979796;fill:color(display-p3 0.5922 0.5922 0.5882);fill-opacity:1;"/>
<path d="M63.3974 68.309C63.3086 68.3172 63.2227 68.3446 63.1455 68.3894C63.0684 68.4342 63.002 68.4953 62.9509 68.5683C62.8997 68.6414 62.8651 68.7247 62.8494 68.8125C62.8337 68.9002 62.8374 68.9904 62.86 69.0766C63.4742 69.051 63.8324 68.4881 64.4465 68.3857C64.1128 68.2541 63.7468 68.2274 63.3974 68.309Z" fill="#979796" style="fill:#979796;fill:color(display-p3 0.5922 0.5922 0.5882);fill-opacity:1;"/>
<path d="M80.7926 62.1952L80.9461 62.3743C81.0228 62.4255 81.0229 62.6046 81.1764 62.4767C81.2085 62.4616 81.2366 62.4393 81.2587 62.4115C81.2807 62.3837 81.2961 62.3513 81.3035 62.3166C81.3109 62.2819 81.3102 62.246 81.3015 62.2116C81.2928 62.1773 81.2762 62.1454 81.2532 62.1185C81.0229 61.837 80.8437 61.5043 80.5111 61.3252C80.2552 61.7346 80.5367 61.9649 80.7926 62.1952Z" fill="#979796" style="fill:#979796;fill:color(display-p3 0.5922 0.5922 0.5882);fill-opacity:1;"/>
<path d="M77.7433 67.2079C77.641 67.387 77.3083 67.387 77.3083 67.4126C77.2315 68.0779 76.5918 68.2315 76.2336 68.6409C75.8753 69.0503 75.8497 68.6921 75.9009 68.948C75.9521 69.2039 76.1568 68.948 76.2847 68.9991C76.8477 69.1783 77.3851 69.2039 77.8201 68.6921C77.8968 68.5897 78.0248 68.5385 78.0248 68.3594C78.0248 68.1803 78.0504 67.7709 78.076 67.4894C78.1016 67.2079 78.4086 67.6941 78.4086 67.3359C78.4271 67.212 78.4801 67.0959 78.5615 67.0008C78.643 66.9058 78.7497 66.8356 78.8692 66.7985C79.0484 66.7217 79.2531 66.645 79.2531 66.3379C78.6901 66.5682 78.383 67.1567 77.7689 67.1823C77.7655 67.1823 77.7622 67.183 77.7591 67.1843C77.756 67.1856 77.7532 67.1874 77.7508 67.1898C77.7484 67.1922 77.7465 67.195 77.7453 67.1981C77.744 67.2012 77.7433 67.2046 77.7433 67.2079Z" fill="#979796" style="fill:#979796;fill:color(display-p3 0.5922 0.5922 0.5882);fill-opacity:1;"/>
<path d="M63.5737 63.6781C63.676 63.8316 63.8296 63.8316 63.9575 63.6525V63.5501C64.2902 63.6013 64.1366 63.371 64.1111 63.243C64.0133 63.0301 63.8741 62.8387 63.7016 62.6801C63.6927 62.5312 63.6457 62.3871 63.565 62.2616C63.4843 62.1361 63.3728 62.0335 63.241 61.9636C63.4202 62.2451 63.4202 62.6289 63.6505 62.8848C63.8808 63.1407 63.676 62.9872 63.676 63.0383C63.676 63.0895 63.2922 62.9616 63.1899 62.7313C63.0875 62.501 62.9084 62.1939 62.7804 61.938C62.6525 61.6821 62.7037 62.0148 62.7293 62.0404C62.9435 62.6184 63.227 63.1683 63.5737 63.6781Z" fill="#979796" style="fill:#979796;fill:color(display-p3 0.5922 0.5922 0.5882);fill-opacity:1;"/>
<path d="M85.4707 35.7434C85.5986 35.9737 85.4707 36.2296 85.7522 36.4087C86.0337 36.5879 86.1616 36.0761 86.4943 36.2808C86.1872 35.9225 85.9057 35.6922 85.4707 35.7434Z" fill="#979796" style="fill:#979796;fill:color(display-p3 0.5922 0.5922 0.5882);fill-opacity:1;"/>
<path d="M66.315 69.6657C66.2638 69.7681 66.2126 69.8449 66.315 69.9216C66.4173 69.9984 66.4685 69.9216 66.4685 69.896C66.4685 69.8704 67.2362 69.3587 66.9291 68.8213C66.696 69.081 66.4902 69.364 66.315 69.6657Z" fill="#979796" style="fill:#979796;fill:color(display-p3 0.5922 0.5922 0.5882);fill-opacity:1;"/>
<path d="M55.8281 28.4274C55.8025 28.3762 55.6745 28.2227 55.5466 28.2994C55.4186 28.3762 55.4954 28.5297 55.5466 28.6321C55.677 28.8386 55.8224 29.0354 55.9816 29.2206C56.0072 29.2718 56.1095 29.2974 56.1863 29.2974C56.2631 29.2974 56.2119 29.1695 56.2631 29.0415C56.3143 28.9136 55.956 28.6577 55.8281 28.4274Z" fill="#979796" style="fill:#979796;fill:color(display-p3 0.5922 0.5922 0.5882);fill-opacity:1;"/>
<path d="M64.8024 65.9823C64.7768 66.3917 64.8024 66.8267 64.8024 67.2873C64.9659 66.9858 65.0701 66.6557 65.1095 66.3149C65.1862 66.2382 65.3142 66.1614 65.1862 66.0335H65.1606C65.1606 65.9823 65.135 65.9823 65.1095 65.9567C65.0839 65.9311 65.4165 65.8288 65.3142 65.6752C65.2118 65.5217 64.828 65.6496 64.8024 66.0079V65.9823Z" fill="#979796" style="fill:#979796;fill:color(display-p3 0.5922 0.5922 0.5882);fill-opacity:1;"/>
<path d="M86.7792 38.9141C86.6001 39.1188 86.3697 39.3235 86.5745 39.6306C86.7792 39.9377 87.0862 39.4259 87.3933 39.3491C87.1886 39.2724 87.163 38.9909 86.9327 38.9653C86.7024 38.9397 86.8559 38.8118 86.7792 38.9141Z" fill="#979796" style="fill:#979796;fill:color(display-p3 0.5922 0.5922 0.5882);fill-opacity:1;"/>
<path d="M78.4836 57.0024C78.3859 57.1166 78.3316 57.2616 78.3301 57.4119L78.4324 57.4886C78.6116 57.463 78.6116 57.2583 78.6883 57.156C78.7651 57.0536 78.8674 56.4651 79.4048 56.8233C79.2001 56.6442 79.3536 56.5418 79.328 56.4395L79.1745 56.3115C78.9193 56.5155 78.6876 56.7472 78.4836 57.0024Z" fill="#979796" style="fill:#979796;fill:color(display-p3 0.5922 0.5922 0.5882);fill-opacity:1;"/>
<path d="M58.8685 28.9644C58.8685 28.8109 58.4847 28.6061 58.9197 28.5294C58.8685 28.3247 59.1244 28.0688 58.8173 27.8896C58.587 28.3503 58.4335 28.8109 58.6894 29.297C58.6382 29.0156 58.6382 29.0156 58.8685 28.9644Z" fill="#979796" style="fill:#979796;fill:color(display-p3 0.5922 0.5922 0.5882);fill-opacity:1;"/>
<path d="M64.8259 28.7842C64.7491 29.6798 64.9794 30.3963 65.1073 31.1128H65.2609C65.1073 30.3963 64.9794 29.6542 64.8259 28.8098V28.7842Z" fill="#979796" style="fill:#979796;fill:color(display-p3 0.5922 0.5922 0.5882);fill-opacity:1;"/>
<path d="M84.9375 48.9682L85.091 48.7891C85.0197 48.828 84.9651 48.8917 84.9375 48.9682Z" fill="#979796" style="fill:#979796;fill:color(display-p3 0.5922 0.5922 0.5882);fill-opacity:1;"/>
<path d="M85.0898 48.7903C85.2323 48.7186 85.3957 48.7004 85.5504 48.7391C85.8063 48.8159 85.6784 48.4321 85.8831 48.4832C85.891 48.4389 85.8818 48.3932 85.8575 48.3553C85.8082 48.3191 85.7475 48.3017 85.6864 48.3064C85.6254 48.3111 85.5681 48.3375 85.5249 48.3809C85.3567 48.4904 85.2094 48.6291 85.0898 48.7903Z" fill="#979796" style="fill:#979796;fill:color(display-p3 0.5922 0.5922 0.5882);fill-opacity:1;"/>
<path d="M73.5038 38.7365C73.7341 38.2503 73.6062 37.7897 73.3759 37.3291C73.2735 37.8409 73.4271 38.2759 73.5038 38.7365Z" fill="#979796" style="fill:#979796;fill:color(display-p3 0.5922 0.5922 0.5882);fill-opacity:1;"/>
<path d="M61.5566 30.4219C61.659 30.9848 61.7358 31.4966 61.8125 32.034C62.094 31.7269 61.8893 31.4198 61.8893 31.1384C61.8893 30.8569 61.8381 30.6522 61.5566 30.4219Z" fill="#979796" style="fill:#979796;fill:color(display-p3 0.5922 0.5922 0.5882);fill-opacity:1;"/>
<path d="M65.2148 31.3936C65.1892 31.9821 65.0869 32.5706 65.4451 32.9545C65.4512 32.4253 65.3735 31.8985 65.2148 31.3936Z" fill="#979796" style="fill:#979796;fill:color(display-p3 0.5922 0.5922 0.5882);fill-opacity:1;"/>
<path d="M65.2598 25.2031C65.5924 25.6125 65.5157 26.1243 65.8995 26.4826C65.9324 26.2298 65.8891 25.973 65.7751 25.7451C65.6612 25.5171 65.4817 25.3284 65.2598 25.2031Z" fill="#979796" style="fill:#979796;fill:color(display-p3 0.5922 0.5922 0.5882);fill-opacity:1;"/>
<path d="M47.9923 9.75089C47.762 9.44382 47.8387 8.88086 47.2246 8.88086C47.3526 9.31587 47.7364 9.44382 47.9923 9.75089Z" fill="#979796" style="fill:#979796;fill:color(display-p3 0.5922 0.5922 0.5882);fill-opacity:1;"/>
<path d="M65.6925 36.8428C65.5954 37.3549 65.6672 37.8848 65.8973 38.3525C65.9101 37.8416 65.841 37.3319 65.6925 36.8428Z" fill="#979796" style="fill:#979796;fill:color(display-p3 0.5922 0.5922 0.5882);fill-opacity:1;"/>
<path d="M66.0307 28.9383C65.7748 29.0918 66.0051 29.3221 66.0563 29.5268C66.1074 29.7315 66.5936 29.4244 66.4401 29.0918C66.2866 28.7591 66.1586 28.8359 66.0307 28.9383Z" fill="#979796" style="fill:#979796;fill:color(display-p3 0.5922 0.5922 0.5882);fill-opacity:1;"/>
<path d="M48.0689 3.58661C48.2224 3.45866 47.9921 3.3819 47.941 3.25395C47.8931 3.11114 47.7924 2.99208 47.6595 2.9213L47.5571 2.87012L47.6083 2.97247C47.6339 3.07483 47.7107 3.17718 47.6339 3.30513C47.5571 3.43307 47.3524 3.48425 47.5571 3.63779C47.6336 3.69411 47.7283 3.72005 47.8229 3.71059C47.9174 3.70114 48.0051 3.65696 48.0689 3.58661Z" fill="#979796" style="fill:#979796;fill:color(display-p3 0.5922 0.5922 0.5882);fill-opacity:1;"/>
<path d="M48.8404 9.98047C48.4821 10.3643 48.303 10.697 48.3286 11.1064C48.6612 10.8761 48.6868 10.4667 48.8404 9.98047Z" fill="#979796" style="fill:#979796;fill:color(display-p3 0.5922 0.5922 0.5882);fill-opacity:1;"/>
<path d="M86.9515 37.5853C86.926 37.7644 86.9516 37.9179 87.1563 37.9435C87.361 37.9691 87.4377 37.8411 87.4122 37.7132C87.3866 37.5853 87.3866 37.3294 87.1563 37.2782C86.926 37.227 87.0795 37.5341 86.9515 37.5853Z" fill="#979796" style="fill:#979796;fill:color(display-p3 0.5922 0.5922 0.5882);fill-opacity:1;"/>
<path d="M84.573 35.8978C84.573 35.7442 84.3939 35.6419 84.266 35.5651C84.138 35.4883 84.0613 35.821 84.0357 35.9233C84.0101 36.0257 84.1892 36.1536 84.3427 36.1536C84.4963 36.1536 84.573 35.9745 84.573 35.8978Z" fill="#979796" style="fill:#979796;fill:color(display-p3 0.5922 0.5922 0.5882);fill-opacity:1;"/>
<path d="M66.5918 27.9414C66.4895 28.1973 66.3871 28.4276 66.643 28.6579C66.6942 28.402 66.9501 28.1461 66.5918 27.9414Z" fill="#979796" style="fill:#979796;fill:color(display-p3 0.5922 0.5922 0.5882);fill-opacity:1;"/>
<path d="M83.2526 43.5439C83.1697 43.5584 83.0932 43.5982 83.0337 43.6577C82.9742 43.7172 82.9345 43.7936 82.9199 43.8766C82.8943 44.0045 82.9967 44.0557 83.1502 44.0557C83.3038 44.0557 83.4573 44.0301 83.4573 43.8254C83.4573 43.6207 83.5085 43.5183 83.2526 43.5439Z" fill="#979796" style="fill:#979796;fill:color(display-p3 0.5922 0.5922 0.5882);fill-opacity:1;"/>
<path d="M78.1805 34.4906C78.1622 34.4232 78.127 34.3615 78.0781 34.3115C78.1037 34.3883 78.1293 34.4651 78.1805 34.4906Z" fill="#979796" style="fill:#979796;fill:color(display-p3 0.5922 0.5922 0.5882);fill-opacity:1;"/>
<path d="M66.6487 45.2097C66.5464 44.8259 66.5975 44.442 66.3928 43.9814C66.3417 44.7235 66.3928 44.8771 66.6487 45.2097Z" fill="#979796" style="fill:#979796;fill:color(display-p3 0.5922 0.5922 0.5882);fill-opacity:1;"/>
<path d="M61.2263 58.3834C61.2201 58.3371 61.2025 58.2932 61.1751 58.2554C60.9448 58.1531 60.8424 58.3834 60.6889 58.4345C60.5354 58.4857 60.6121 58.5113 60.5098 58.6393H60.7145C60.8138 58.6393 60.9117 58.6161 61.0006 58.5717C61.0894 58.5273 61.1667 58.4628 61.2263 58.3834Z" fill="#979796" style="fill:#979796;fill:color(display-p3 0.5922 0.5922 0.5882);fill-opacity:1;"/>
<path d="M66.2131 40.3721C66.0083 40.7303 66.2131 41.0886 66.1875 41.4468C66.311 41.1006 66.32 40.7238 66.2131 40.3721Z" fill="#979796" style="fill:#979796;fill:color(display-p3 0.5922 0.5922 0.5882);fill-opacity:1;"/>
<path d="M73.169 36.0253C73.1179 35.9997 73.0155 36.1532 73.0667 36.23C73.1179 36.3068 73.0155 36.665 73.2714 36.7418C73.5273 36.8186 73.3993 36.6394 73.3738 36.5371C73.3482 36.4347 73.4249 36.1021 73.169 36.0253Z" fill="#979796" style="fill:#979796;fill:color(display-p3 0.5922 0.5922 0.5882);fill-opacity:1;"/>
<path d="M62.5019 67.7461C62.4251 68.0276 62.0924 68.1299 62.2204 68.437C62.118 68.1043 62.8089 68.2067 62.5019 67.7461Z" fill="#979796" style="fill:#979796;fill:color(display-p3 0.5922 0.5922 0.5882);fill-opacity:1;"/>
<path d="M47.666 4.09684C47.9706 4.12495 48.276 4.05308 48.536 3.89213C48.2306 3.84868 47.92 3.92176 47.666 4.09684Z" fill="#979796" style="fill:#979796;fill:color(display-p3 0.5922 0.5922 0.5882);fill-opacity:1;"/>
<path d="M72.8585 33.4902C72.577 33.6949 72.7561 33.8741 72.8841 34.1811C72.9465 34.0756 72.9772 33.9544 72.9727 33.8319C72.9681 33.7094 72.9285 33.5908 72.8585 33.4902Z" fill="#979796" style="fill:#979796;fill:color(display-p3 0.5922 0.5922 0.5882);fill-opacity:1;"/>
<path d="M82.8114 63.4211C82.6834 63.5235 82.8369 63.6258 82.8114 63.7538H82.8881C82.8881 63.6258 82.9649 63.4723 82.8114 63.3955V63.4211Z" fill="#979796" style="fill:#979796;fill:color(display-p3 0.5922 0.5922 0.5882);fill-opacity:1;"/>
<path d="M88.901 47.7401C88.9266 47.7401 88.9777 47.6633 89.0033 47.6121L88.8242 47.5098C88.8498 47.5865 88.7986 47.6889 88.901 47.7401Z" fill="#979796" style="fill:#979796;fill:color(display-p3 0.5922 0.5922 0.5882);fill-opacity:1;"/>
<path d="M66.3379 29.6801H66.4147L66.3379 29.6289V29.6801Z" fill="#979796" style="fill:#979796;fill:color(display-p3 0.5922 0.5922 0.5882);fill-opacity:1;"/>
<path d="M58.4826 29.5012L58.457 29.4756V29.5268L58.4826 29.5012Z" fill="#979796" style="fill:#979796;fill:color(display-p3 0.5922 0.5922 0.5882);fill-opacity:1;"/>
<path d="M59.0228 28.9892C59.0228 28.9892 59.0228 28.938 58.9972 28.938C58.9716 28.938 58.8948 28.9124 58.8692 28.9636C58.8437 29.0148 58.946 29.0404 59.0228 28.9892Z" fill="#979796" style="fill:#979796;fill:color(display-p3 0.5922 0.5922 0.5882);fill-opacity:1;"/>
<path d="M71.3514 73.3985C70.7489 73.4128 70.1519 73.2811 69.6113 73.0146C69.8452 73.2206 70.1276 73.3638 70.4319 73.4309C70.7362 73.498 71.0525 73.4869 71.3514 73.3985Z" fill="#979796" style="fill:#979796;fill:color(display-p3 0.5922 0.5922 0.5882);fill-opacity:1;"/>
<path d="M69.9961 74.0908C70.2551 74.269 70.5538 74.3809 70.8662 74.4166C71.1785 74.4523 71.4948 74.4107 71.7873 74.2955C71.1825 74.3621 70.5703 74.2922 69.9961 74.0908Z" fill="#979796" style="fill:#979796;fill:color(display-p3 0.5922 0.5922 0.5882);fill-opacity:1;"/>
<path d="M74.6751 36.2801C74.9053 36.0499 74.9309 35.8452 74.5983 35.6662C74.9309 35.2824 74.3937 35.2568 74.3425 35.0266C74.2914 34.7964 74.2402 34.7708 74.2914 34.6173C74.3432 34.442 74.3432 34.2554 74.2914 34.0801L73.9844 34.208L74.0611 34.3871C74.0516 34.5828 74.0959 34.7774 74.189 34.9499C74.2738 35.5658 74.4107 36.1734 74.5983 36.7662C74.5472 37.329 74.7774 37.8406 74.8542 38.3778C74.8286 37.6871 75.0077 37.022 75.1356 36.229C74.8542 36.7406 74.803 36.2801 74.6751 36.2801Z" fill="#979796" style="fill:#979796;fill:color(display-p3 0.5922 0.5922 0.5882);fill-opacity:1;"/>
<path d="M74.9609 68.334C74.9609 68.334 75.3704 68.8714 76.2404 68.6411C77.1104 68.4108 76.3427 68.8458 76.3427 68.8458C76.3427 68.8458 75.0121 69.1272 74.9609 68.334Z" fill="#979796" style="fill:#979796;fill:color(display-p3 0.5922 0.5922 0.5882);fill-opacity:1;"/>
<path d="M79.2559 66.3391C79.2367 66.6509 79.0995 66.9437 78.872 67.1579C78.6588 67.3221 78.5131 67.5588 78.4626 67.8232L78.2067 67.9512V68.1047C78.2067 68.1047 78.1556 68.4629 77.9764 68.5397C77.7973 68.6165 77.4902 67.9 77.4902 67.9L78.7953 66.7485L79.2559 66.3135V66.3391Z" fill="#979796" style="fill:#979796;fill:color(display-p3 0.5922 0.5922 0.5882);fill-opacity:1;"/>
<path d="M78.1333 70.6098C77.5849 70.6955 77.024 70.6517 76.4956 70.4819C75.5744 70.2004 75.4209 71.224 78.5939 70.5586" fill="#979796" style="fill:#979796;fill:color(display-p3 0.5922 0.5922 0.5882);fill-opacity:1;"/>
<path d="M77.002 70.586C77.6692 70.6882 78.3498 70.5226 78.8955 70.1254C79.7912 69.4856 79.3817 70.6115 79.3817 70.6115C79.3817 70.6115 77.4114 70.9954 77.002 70.586Z" fill="#979796" style="fill:#979796;fill:color(display-p3 0.5922 0.5922 0.5882);fill-opacity:1;"/>
<path d="M73.9354 77.6452L73.961 77.2358L73.7051 77.0566L73.833 77.722L73.9354 77.6452Z" fill="#979796" style="fill:#979796;fill:color(display-p3 0.5922 0.5922 0.5882);fill-opacity:1;"/>
<path d="M74.2175 69.3067L75.3946 68.8461V68.6926C75.3946 68.6926 74.8061 68.2832 74.6525 67.8993C74.499 67.5155 73.1172 68.4111 73.1172 68.4111L74.2175 69.3067Z" fill="#979796" style="fill:#979796;fill:color(display-p3 0.5922 0.5922 0.5882);fill-opacity:1;"/>
<path d="M74.9053 71.5581C74.9053 71.5581 74.4959 70.8672 75.0844 70.5346C75.673 70.2019 74.8285 70.5346 74.8285 70.5346C74.8285 70.5346 74.1888 71.4558 74.9309 71.9676L74.9053 71.5581Z" fill="#979796" style="fill:#979796;fill:color(display-p3 0.5922 0.5922 0.5882);fill-opacity:1;"/>
<path d="M75.6753 73.1941C75.6753 73.1941 74.9076 72.7847 74.7285 72.452C74.5493 72.1194 74.8564 71.7867 74.8564 71.7867L74.6773 71.71C74.5892 71.8399 74.5339 71.9892 74.5161 72.1452C74.4982 72.3012 74.5184 72.4591 74.5749 72.6056C74.7796 73.0662 75.9056 73.4756 75.9056 73.4756" fill="#979796" style="fill:#979796;fill:color(display-p3 0.5922 0.5922 0.5882);fill-opacity:1;"/>
<path d="M90.949 56.0555C90.816 56.0772 90.6797 56.0677 90.551 56.0278C90.4222 55.9878 90.3045 55.9185 90.2072 55.8252C89.7138 55.3472 89.106 55.0037 88.442 54.8275C88.4164 54.802 88.3908 54.7764 88.3653 54.802C88.3441 54.7689 88.3112 54.7452 88.2731 54.7356C88.235 54.7261 88.1948 54.7315 88.1606 54.7508C88.0504 54.6842 87.9278 54.6407 87.8002 54.6231C87.6727 54.6055 87.5428 54.6142 87.4187 54.6485C86.8852 54.6106 86.349 54.6625 85.8326 54.802V54.8787L87.3931 54.7252C87.5722 54.7764 87.8025 54.6996 87.956 54.9299C88.1094 55.1601 87.9815 55.4927 87.7001 55.6973C87.4187 55.902 87.5722 55.7741 87.6745 55.7997C87.7769 55.8252 87.7769 55.6973 87.8536 55.7997C87.9304 55.902 87.7257 55.9787 87.7769 56.0299C87.828 56.0811 87.7001 56.4392 87.956 56.5671C88.2118 56.695 88.1094 56.7462 87.9304 56.7718C87.7513 56.7973 87.828 56.8997 87.8792 56.9764C87.9304 57.0532 87.9815 57.7439 87.7001 58.0253C87.4187 58.3067 86.9583 58.1276 87.1885 58.6648H87.1629C86.8559 58.716 86.7792 58.9718 86.6769 59.1765C86.5745 59.3811 86.4466 59.2276 86.3699 59.0997C86.421 59.8672 86.421 59.9183 85.8071 60.1742C85.1931 60.43 85.5257 60.5579 85.3978 60.5835C85.2192 60.6399 85.0543 60.7326 84.9135 60.8559C84.7726 60.9792 84.6587 61.1303 84.5791 61.2998C84.3592 61.7677 84.0458 62.1856 83.6582 62.5277C83.3518 62.8797 83.1172 63.2881 82.9675 63.73H82.7117C82.814 64.037 82.2768 64.0114 82.4047 64.344C82.5326 64.6766 82.2 64.2161 82.2256 64.0626C82.2512 63.9091 82.0209 64.1138 81.9698 64.1905C81.9186 64.2673 81.5093 64.9324 81.0232 65.0091C80.9465 65.0347 80.8442 65.0603 80.8953 65.1371C81.2279 65.6743 81.0744 66.2627 81.1 66.8255C81.1256 67.3883 81.2791 68.3092 80.7418 69.0255C80.2046 69.7418 80.2558 69.6139 79.8465 69.6395C79.5934 69.6626 79.3529 69.7605 79.1558 69.9209C78.6054 70.3023 78.0234 70.6361 77.4162 70.9186C77.4929 71.0721 77.6464 71.0721 77.7999 71.1232C77.9534 71.1744 78.7465 70.9953 79.1813 70.8674C79.6162 70.7395 79.4372 70.7651 79.5395 70.8674C79.6418 70.9697 79.5139 71.0976 79.4372 71.2C79.1046 71.7884 78.4139 71.8139 77.9534 72.1721C77.4929 72.5302 77.2627 72.2488 76.9046 72.2744C76.1115 72.3512 75.3952 72.2488 74.8836 71.5325C74.7557 71.686 74.7045 71.7884 74.9092 71.9418C75.5487 72.4279 76.1883 72.914 77.0836 72.7093L77.4162 72.6581C77.765 72.4984 78.124 72.3617 78.4906 72.2488C79.079 72.0442 78.6697 72.7605 78.6697 72.7605C78.4829 72.9901 78.2195 73.1446 77.9278 73.1954L77.7743 73.2465C77.058 73.3489 76.3418 73.4512 75.651 73.1698C75.5743 73.1442 75.4976 73.1442 75.472 73.2465C75.4464 73.3489 75.7022 73.3489 75.7534 73.4512V73.5279C75.7627 73.6087 75.7974 73.6845 75.8526 73.7443C75.9078 73.8041 75.9805 73.8448 76.0604 73.8605H76.1115L77.0069 74.014C77.8767 74.0651 78.1069 73.8093 78.1069 73.8093C78.1581 73.6302 78.3371 73.5279 78.593 73.4768C78.7295 73.4583 78.8586 73.4035 78.9666 73.3179C79.0746 73.2324 79.1576 73.1194 79.2069 72.9907C79.5552 72.2201 80.0505 71.525 80.6651 70.9442C80.8066 70.8046 80.9044 70.6268 80.9465 70.4325C81.0488 69.9976 80.9721 69.486 81.3302 69.1534C81.6095 68.8348 81.7953 68.4453 81.8674 68.0278C82.1569 66.5671 82.9106 65.2391 84.0163 64.2417C85.1419 63.2184 86.242 62.1696 87.2652 61.0695C88.2885 59.9695 88.9281 59.3044 89.4653 58.2044C90.0025 57.1043 90.156 56.388 91.3072 56.1834C91.2638 56.1233 91.2057 56.0753 91.1386 56.044C91.0714 56.0126 90.9974 55.999 90.9234 56.0043L90.949 56.0555ZM78.1837 73.6047C78.0813 73.9117 77.4162 73.9884 77.4162 73.9884C77.021 73.9789 76.6274 73.9361 76.2394 73.8605C75.8557 73.7582 75.9324 73.5535 75.9324 73.5535L76.3162 73.4768C76.847 73.5222 77.3817 73.4878 77.9023 73.3744C77.9023 73.3744 78.3116 73.2721 78.1837 73.6047Z" fill="#979796" style="fill:#979796;fill:color(display-p3 0.5922 0.5922 0.5882);fill-opacity:1;"/>
<path d="M78.0527 73.8857C78.0527 73.8857 78.7692 73.7066 78.8716 73.118C78.9739 72.5295 78.1551 73.118 78.1551 73.118C78.1963 73.3784 78.1607 73.6452 78.0527 73.8857Z" fill="#979796" style="fill:#979796;fill:color(display-p3 0.5922 0.5922 0.5882);fill-opacity:1;"/>
<path d="M75.5997 69.9189V70.0981C75.6508 70.4051 75.395 70.354 75.2414 70.4051H75.0879C75.0879 70.4563 75.1135 70.5075 75.1135 70.5587C75.1135 70.6098 75.3694 70.6866 75.5229 70.6866C75.6764 70.6866 75.8044 70.8913 75.8812 70.7378C75.9579 70.5843 76.265 70.4819 76.5209 70.5075L75.6253 69.9445L75.5997 69.9189Z" fill="#979796" style="fill:#979796;fill:color(display-p3 0.5922 0.5922 0.5882);fill-opacity:1;"/>
<path d="M74.0623 75.1132L75.6489 73.3731L74.8556 72.8613L73.832 74.4222L74.0623 75.1132Z" fill="#979796" style="fill:#979796;fill:color(display-p3 0.5922 0.5922 0.5882);fill-opacity:1;"/>
<path d="M75.0879 70.5358V68.8213H75.6253C75.6253 68.8213 75.2414 68.9492 75.3438 69.5122C75.4461 70.0752 75.5741 69.9216 75.5741 69.9216L75.6253 70.3055L75.4206 70.5358H75.0879Z" fill="#979796" style="fill:#979796;fill:color(display-p3 0.5922 0.5922 0.5882);fill-opacity:1;"/>
<path d="M66.2094 70.0731C66.0815 69.9963 66.0559 70.0475 66.0047 70.1499L65.9023 70.3802H66.1071L66.2094 70.3034C66.2305 70.2894 66.2478 70.2704 66.2598 70.2481C66.2718 70.2257 66.2781 70.2008 66.2781 70.1755C66.2781 70.1501 66.2718 70.1252 66.2598 70.1028C66.2478 70.0805 66.2305 70.0615 66.2094 70.0475V70.0731Z" fill="#979796" style="fill:#979796;fill:color(display-p3 0.5922 0.5922 0.5882);fill-opacity:1;"/>
<path d="M61.9318 65.4439C60.9853 66.2625 60.1155 67.1578 59.5783 68.3602C59.4248 68.6928 59.1946 68.9997 59.4504 69.3835C59.2969 69.3323 59.1178 69.1532 59.0411 69.4346C58.9643 69.716 58.8876 70.2533 58.7597 70.637C58.6318 71.0207 58.7853 70.9695 59.0411 70.9695C59.8341 70.9951 60.6016 71.0463 61.3946 70.8161C62.1877 70.5858 63.3133 70.3044 64.2854 70.0486L64.3621 70.1765C64.3605 70.1962 64.3513 70.2146 64.3365 70.2277L65.0273 70.2788C65.1155 69.856 65.271 69.4501 65.4877 69.0765C65.5499 68.9884 65.5914 68.8875 65.6091 68.7812C65.6268 68.6749 65.6203 68.566 65.5901 68.4625C65.5389 68.1811 65.2063 67.9253 65.411 67.5927C65.6156 67.2602 65.3598 67.4137 65.2319 67.4137C65.1165 67.4121 65.0024 67.4384 64.8993 67.4904C64.797 67.5672 64.9505 67.6439 64.9761 67.7206C65.0017 67.7974 65.2063 67.9253 64.9761 68.0532C64.7459 68.1811 64.9505 68.4625 65.2575 68.4114C65.5645 68.3602 65.4877 68.5137 65.411 68.5648C65.3342 68.616 65.0273 69.23 64.6435 69.3579L62.6226 70.023C61.5737 70.33 60.4737 70.2788 59.4504 70.6114C59.4248 70.023 59.7574 69.716 60.2946 69.5625L59.8085 69.5114C59.7485 69.3642 59.7286 69.2037 59.7511 69.0464C59.7736 68.889 59.8376 68.7405 59.9365 68.616C60.4481 67.823 61.0365 67.0555 61.5993 66.3136C61.8257 66.036 62.0932 65.7945 62.3923 65.5973C62.6993 65.4183 63.1086 65.3159 63.2365 64.9834C63.4394 64.6122 63.6887 64.2684 63.9784 63.9601C63.9024 63.9355 63.822 63.9273 63.7426 63.9361C63.6633 63.9449 63.5866 63.9705 63.5179 64.0113L59.476 65.7508C59.3237 65.8701 59.131 65.9251 58.9388 65.9043C59.0155 65.6741 58.8108 65.495 58.8876 65.2648C59.0841 64.5166 59.2294 63.7559 59.3225 62.988C59.5016 61.9647 59.7062 60.9414 59.6551 59.8926C59.1946 59.9949 59.169 60.3531 59.169 60.6856C59.0411 62.6298 58.4015 64.4973 58.248 66.4416C59.5527 66.1602 60.7551 65.5973 62.0086 65.188C62.0342 65.3671 61.983 65.3927 61.9318 65.4439Z" fill="#979796" style="fill:#979796;fill:color(display-p3 0.5922 0.5922 0.5882);fill-opacity:1;"/>
<path d="M75.2676 67.2077L76.0352 66.6703L76.5982 66.0306L77.11 65.2373L76.1888 66.0306L75.9329 66.4912L75.2676 66.6959V67.2077Z" fill="#979796" style="fill:#979796;fill:color(display-p3 0.5922 0.5922 0.5882);fill-opacity:1;"/>
<path d="M80.4057 62.2196C80.2266 62.015 80.0987 62.2196 79.9452 62.3475L79.715 62.5522C79.5871 63.2173 79.8941 63.3964 79.3313 63.4731C78.9089 63.5352 78.5014 63.6739 78.1289 63.8825L77.3359 64.4964L77.0801 64.9825H76.9522L76.7731 65.3662C76.7803 65.4119 76.7779 65.4586 76.766 65.5033C76.7542 65.548 76.7332 65.5897 76.7043 65.6258C76.6754 65.6619 76.6393 65.6916 76.5983 65.713C76.5573 65.7344 76.5122 65.7469 76.4661 65.7499L76.287 65.8011L76.1335 65.929C76.0628 66.0297 76.0108 66.1424 75.98 66.2616L75.7242 66.3639L75.187 66.9523C75.187 67.0802 75.187 67.2849 75.0847 67.3104L74.6754 67.3616C74.5628 67.6835 74.494 68.0191 74.4707 68.3593L74.7521 68.2314C74.8033 68.2826 74.8544 68.257 74.8288 68.1802C74.7637 68.0575 74.7487 67.9144 74.7869 67.7808C74.825 67.6473 74.9134 67.5337 75.0335 67.4639C75.1614 67.3616 75.3149 67.2593 75.2637 67.0546C75.2126 66.85 75.4684 66.9779 75.494 66.85C75.5795 66.8743 75.6695 66.878 75.7567 66.8608C75.8438 66.8436 75.9257 66.8061 75.9956 66.7512C76.0655 66.6963 76.1213 66.6256 76.1587 66.5449C76.196 66.4643 76.2137 66.376 76.2103 66.2872C76.2359 66.1081 76.2614 66.0569 76.4405 66.1081C76.6196 66.1593 76.6452 66.0058 76.6963 65.929C76.9761 65.6625 77.2095 65.3513 77.387 65.0081C77.8219 64.1894 78.5382 63.8313 79.408 63.7545C79.5615 63.7545 79.6638 63.7545 79.7406 63.5499C79.8393 63.2082 80.0143 62.8933 80.2522 62.6289C80.3545 62.5522 80.6359 62.4755 80.4057 62.2452V62.2196Z" fill="#979796" style="fill:#979796;fill:color(display-p3 0.5922 0.5922 0.5882);fill-opacity:1;"/>
<path d="M73.7289 71.7627L73.6777 71.8906C73.7033 71.8395 73.7289 71.8139 73.7289 71.7627Z" fill="#979796" style="fill:#979796;fill:color(display-p3 0.5922 0.5922 0.5882);fill-opacity:1;"/>
<path d="M68.3072 71.3018L69.5351 76.8275L68.9979 75.5484L67.9746 71.3785L68.3072 71.3018Z" fill="#979796" style="fill:#979796;fill:color(display-p3 0.5922 0.5922 0.5882);fill-opacity:1;"/>
<path d="M73.7345 69.3076C73.7345 69.3076 74.7578 72.224 69.9228 71.5588L69.5391 71.9937H72.0205L73.2996 71.7379L74.2461 70.4332L74.374 69.6913L73.7345 69.3332V69.3076Z" fill="#979796" style="fill:#979796;fill:color(display-p3 0.5922 0.5922 0.5882);fill-opacity:1;"/>
<path d="M64.2894 70.0469C64.1103 70.0981 64.2382 70.1492 64.4173 70.1748C64.5965 70.2004 64.3406 70.0469 64.2894 70.0469Z" fill="#979796" style="fill:#979796;fill:color(display-p3 0.5922 0.5922 0.5882);fill-opacity:1;"/>
<path d="M67.9518 70.9442V70.9954L66.8774 70.7907L65.2657 71.9675L65.0611 70.2791L64.4471 70.1768C64.6006 70.6117 64.4727 72.0698 64.4727 72.0698C64.4727 72.0698 63.6797 73.3489 65.0867 72.8117C66.4937 72.2745 66.8774 71.1745 66.8774 71.1745H68.0797L67.9518 70.9442Z" fill="#979796" style="fill:#979796;fill:color(display-p3 0.5922 0.5922 0.5882);fill-opacity:1;"/>
<path d="M68.2517 70.279C68.2517 70.279 68.661 68.7697 70.6308 68.3604C72.6006 67.9511 70.1959 68.2069 70.1959 68.2069L69.454 68.3092L67.7656 70.0999L68.2517 70.279Z" fill="#979796" style="fill:#979796;fill:color(display-p3 0.5922 0.5922 0.5882);fill-opacity:1;"/>
<path d="M74.2429 71.5573L74.3708 69.6643C74.3452 69.5619 74.3452 69.4596 74.2684 69.4084C74.2615 69.3702 74.2437 69.3347 74.2173 69.3061V69.255L74.1661 69.2038C74.0227 68.9176 73.8009 68.678 73.5266 68.5131L73.2707 68.3596C72.2033 67.9001 71.009 67.8277 69.8939 68.1549C69.1142 68.4511 68.4137 68.9239 67.8474 69.5364L67.7706 69.5875L67.6939 69.6898C67.3613 70.2015 67.4381 70.6875 68.0009 71.3783C68.4004 71.6614 68.8528 71.8615 69.3311 71.9666C70.1449 72.2031 70.9914 72.3068 71.8382 72.2736C72.4897 72.2061 73.1277 72.0423 73.7312 71.7876C73.808 71.4806 73.808 73.9364 73.68 75.7783C70.7893 74.0388 69.3311 76.0597 69.3311 76.0853C69.2544 75.3434 69.152 74.5504 68.9986 73.8085L68.8195 73.0411C68.674 72.4327 68.3943 71.8646 68.0009 71.3783H67.9753C67.9753 71.4038 68.0009 71.4038 68.0009 71.4294C68.2311 71.9411 68.5125 73.1946 68.7683 74.4992C68.7939 74.6783 68.8451 74.8574 68.8706 75.0365L68.973 75.5737C68.9934 75.6324 69.0105 75.6921 69.0241 75.7528V75.8039C69.2244 76.7928 69.3696 77.792 69.459 78.797C70.1304 79.1758 70.8882 79.3749 71.6591 79.3749C72.4299 79.3749 73.1878 79.1758 73.8591 78.797C73.8591 78.7203 73.9103 78.2598 73.9359 77.6714C73.8335 77.5947 73.8591 77.4412 73.8847 77.3388C73.9103 77.2365 73.9359 77.2621 73.9614 77.2621C74.0126 76.1621 74.0894 74.7295 74.1149 73.9876C74.1405 73.6806 74.1405 73.5016 74.1405 73.5016C74.0988 73.3752 74.108 73.2375 74.1661 73.1178L74.2429 71.9922C74.2175 71.8484 74.2175 71.7012 74.2429 71.5573ZM74.1917 69.741C73.7312 69.5619 74.0894 70.048 73.8847 70.1503C73.68 70.2526 73.9614 70.2782 74.0638 70.3294C73.8936 70.6768 73.6491 70.9825 73.3475 71.2248C73.0761 71.427 72.7943 71.6149 72.5033 71.7876C71.6504 71.7434 70.7955 71.7605 69.9451 71.8387C70.012 71.758 70.0562 71.6609 70.073 71.5573H69.8172C69.152 71.4294 67.5404 71.0201 68.5381 69.7154C68.7948 69.1966 69.1942 68.7618 69.6893 68.4619C70.3544 68.3596 72.6312 68.1293 74.1917 69.7666V69.741Z" fill="#979796" style="fill:#979796;fill:color(display-p3 0.5922 0.5922 0.5882);fill-opacity:1;"/>
<path d="M68.8652 62.247C68.8525 62.3404 68.8525 62.435 68.8652 62.5284C68.9005 62.7893 68.9605 63.0463 69.0443 63.2959H69.0954C69.1622 63.569 69.2565 63.8347 69.3768 64.0889C69.6071 64.6517 70.0675 65.1633 69.9908 65.8285C69.7605 65.7773 69.8117 66.0843 69.8117 66.2122C69.8526 66.4745 69.9212 66.7318 70.0164 66.9797C70.0675 66.9797 70.0931 66.9541 70.1187 66.9029L70.1954 67.1843H70.221C70.2188 67.245 70.2275 67.3057 70.2466 67.3634H70.4001L70.3233 67.082C70.3489 66.9797 70.1954 66.8006 70.3745 66.7238C70.3997 66.6381 70.4059 66.5479 70.3927 66.4595C70.3794 66.3712 70.347 66.2868 70.2978 66.2122C70.3242 66.1836 70.3419 66.1481 70.3489 66.1099H70.3233C70.3383 66.0623 70.3415 66.0119 70.3325 65.9628C70.3236 65.9138 70.3029 65.8677 70.2722 65.8285C70.2515 65.7892 70.2426 65.7448 70.2466 65.7006L69.8373 63.5773C69.5815 63.5773 69.5815 63.3726 69.5559 63.1935C69.4406 62.421 69.2609 61.6594 69.0187 60.9167C68.8525 60.3413 68.7495 59.7494 68.7117 59.1516C68.6861 58.9981 68.6861 58.8446 68.9163 58.9725C69.1466 59.1004 68.6605 58.9469 68.6094 58.7423C68.5582 58.5376 68.328 57.9492 68.2512 57.5143C68.1745 57.0794 68.021 55.9027 67.7652 55.1352C67.5267 54.4245 67.3387 53.6979 67.2024 52.9608C67.0233 51.8607 66.5884 50.8375 66.5116 49.7119C66.4349 47.7676 65.8721 45.8746 65.8721 43.9303C65.8761 43.889 65.8708 43.8474 65.8568 43.8083C65.8428 43.7693 65.8203 43.7338 65.791 43.7045C65.7616 43.6752 65.7262 43.6527 65.6871 43.6386C65.6481 43.6246 65.6064 43.6194 65.5651 43.6234C65.3349 44.135 65.693 44.5955 65.7186 45.1327C65.753 46.1426 65.8384 47.1501 65.9744 48.1514C66.2558 50.4026 66.7675 52.6026 67.2279 54.8027C67.6373 56.5934 68.0977 58.3585 68.4815 60.1237C68.6349 60.8656 68.7117 61.6074 68.8652 62.3493V62.247Z" fill="#979796" style="fill:#979796;fill:color(display-p3 0.5922 0.5922 0.5882);fill-opacity:1;"/>
<path d="M69.7383 68.6655C69.7383 68.6655 70.5825 68.1795 72.7825 68.64C74.9826 69.1004 71.5802 68.0771 71.5802 68.0771L70.1988 68.2051L69.7383 68.6655Z" fill="#979796" style="fill:#979796;fill:color(display-p3 0.5922 0.5922 0.5882);fill-opacity:1;"/>
<path d="M72.7539 68.7441C72.7539 68.7441 74.3404 69.1792 73.5728 70.7657C72.8051 72.3522 74.1869 70.2795 74.1869 70.2795L73.9566 68.8977L72.7539 68.7441Z" fill="#979796" style="fill:#979796;fill:color(display-p3 0.5922 0.5922 0.5882);fill-opacity:1;"/>
<path d="M74.1652 73.0928L74.1397 73.4766H74.0117V73.0928H74.1652Z" fill="#979796" style="fill:#979796;fill:color(display-p3 0.5922 0.5922 0.5882);fill-opacity:1;"/>
<path d="M47.8168 2.17871H47.7656L48.0471 2.79285L48.4565 3.53493H48.6101C48.6101 3.53493 48.0215 2.22989 47.8168 2.2043V2.17871Z" fill="#979796" style="fill:#979796;fill:color(display-p3 0.5922 0.5922 0.5882);fill-opacity:1;"/>
<path d="M49.4792 3.71367L54.7747 2.86946L54.7235 2.43457L49.1211 3.58576L49.4792 3.71367Z" fill="#979796" style="fill:#979796;fill:color(display-p3 0.5922 0.5922 0.5882);fill-opacity:1;"/>
<path d="M54.3878 7.83211C54.3878 7.83211 53.9529 7.39721 54.1576 4.89019C54.3622 2.38316 53.7227 7.37163 53.7227 7.37163L54.3878 7.83211Z" fill="#979796" style="fill:#979796;fill:color(display-p3 0.5922 0.5922 0.5882);fill-opacity:1;"/>
<path d="M55.2305 2.43457C55.2305 2.43457 56.1514 2.66481 56.5863 4.9416C57.0212 7.21839 56.177 8.59981 56.177 8.59981L55.87 8.42074C55.87 8.42074 56.97 4.73694 55.2305 2.99737V2.43457Z" fill="#979796" style="fill:#979796;fill:color(display-p3 0.5922 0.5922 0.5882);fill-opacity:1;"/>
<path d="M49.4788 3.71508C49.4788 3.71508 46.0253 6.35002 47.4579 7.34772C48.8905 8.34541 46.5625 7.06632 46.5625 7.06632V6.24769L47.023 4.32905C47.023 4.32905 49.1463 3.61276 49.4788 3.71508Z" fill="#979796" style="fill:#979796;fill:color(display-p3 0.5922 0.5922 0.5882);fill-opacity:1;"/>
<path d="M47.4579 5.50586C47.4579 5.50586 46.9974 7.06636 50.3742 7.52683C53.751 7.98731 47.4067 7.98731 47.4067 7.98731L46.5625 6.24774L47.4579 5.50586Z" fill="#979796" style="fill:#979796;fill:color(display-p3 0.5922 0.5922 0.5882);fill-opacity:1;"/>
<path d="M47.178 1.00258C47.0875 0.901289 46.9773 0.81954 46.8541 0.76234C46.7309 0.705139 46.5973 0.673691 46.4615 0.669922C46.3389 0.730392 46.237 0.82589 46.1686 0.944324C46.1003 1.06276 46.0686 1.1988 46.0777 1.33524C46.2312 1.46318 46.3847 1.53995 46.3847 1.36082C46.3847 1.1817 46.7174 1.1817 46.7174 1.1817C46.7174 1.1817 47.8945 1.74466 47.178 1.00258Z" fill="#979796" style="fill:#979796;fill:color(display-p3 0.5922 0.5922 0.5882);fill-opacity:1;"/>
<path d="M69.688 24.9214C69.1252 24.6656 68.5624 25.0493 67.8972 24.7935C66.8904 24.4096 65.8274 24.1936 64.7507 24.1539C64.4948 24.1539 64.2902 24.1539 64.3158 24.4865C64.3414 24.8191 64.3158 24.7167 64.1879 24.6912C64.06 24.6656 64.06 24.5377 64.0855 24.4609C64.2902 23.7702 63.932 23.2074 63.6762 22.619C63.1902 21.4167 62.8832 20.0864 62.1413 18.9864C61.1221 17.4558 60.3133 15.7952 59.7366 14.0491C59.5767 13.5201 59.335 13.0195 59.0203 12.5653C58.1364 11.4399 57.3491 10.2418 56.6668 8.98385C56.5389 8.7792 56.4365 8.47221 56.104 8.31872C55.7714 8.16523 55.8482 7.93499 54.39 7.83267L54.0063 7.19312C54.0063 7.19312 54.083 5.91402 54.1598 4.89075C54.1598 4.89075 54.6458 1.66742 55.8993 3.58607C56.3024 4.30355 56.5309 5.10581 56.5665 5.92797C56.602 6.75014 56.4436 7.56913 56.104 8.31872C56.104 8.31872 57.6133 5.99077 55.9761 3.58607C55.6435 3.02327 55.2342 2.43488 55.2342 2.43488C55.2342 2.43488 54.9272 2.33255 54.7226 2.43488C54.5179 2.53721 53.9295 2.61395 53.6481 2.81861C53.776 2.89536 53.9551 2.81861 54.1598 2.79303C54.3644 2.76745 54.4412 2.63954 54.5691 2.81861C54.2921 3.24342 54.0848 3.70978 53.9551 4.20003C53.916 4.32403 53.8987 4.45386 53.9039 4.58376C53.8363 4.99818 53.802 5.41737 53.8016 5.83728C53.6737 5.76053 53.597 6.16984 53.5202 6.63032H53.4946C53.4179 6.63032 53.3923 6.73264 53.3667 6.83497C53.3411 6.9373 53.1365 7.2187 53.1365 7.2187L50.1434 6.80939C49.1613 6.66478 48.1668 6.62191 47.1759 6.68148C47.0345 6.67176 46.8959 6.63712 46.7666 6.57915C47.048 5.83728 47.6364 4.55818 48.3271 4.35352C49.0178 4.14887 47.5852 4.27678 47.0224 4.32794H47.0736C47.2271 4.2512 47.2271 4.07212 47.2271 3.91863C47.2405 3.42256 47.1624 2.92826 46.9968 2.46046C46.9201 2.17906 46.9968 2.23023 47.1759 2.1279C47.355 2.02557 47.7131 1.79533 47.7899 2.30697H47.9178C48.3527 2.1279 48.4294 1.87208 48.4294 1.87208C49.2224 1.99999 49.1713 3.56049 49.1713 3.56049L48.7364 3.71398L48.5829 3.45816H48.5573C48.3527 3.5349 48.5573 3.6884 48.5829 3.8163C48.6085 3.94421 48.7108 3.91863 48.8131 3.91863C49.2365 3.84053 49.6551 3.73803 50.0666 3.61165C50.169 3.56049 50.348 3.45816 50.348 3.66281L50.9108 3.56049L51.1155 3.38141C51.9765 3.30797 52.8262 3.13631 53.6481 2.86977L51.5504 3.22792V3.04885L51.2434 1.76975C51.1667 1.46277 50.9108 1.36044 50.6039 1.33486C50.2969 1.30928 50.1946 1.59068 50.1946 1.82092C50.1946 2.05115 50.2969 2.56279 50.3225 2.94652C50.348 3.33025 49.9132 3.30467 49.6829 3.40699C49.4527 3.50932 49.4527 3.20234 49.4527 3.10001C49.4271 2.43488 49.0689 1.94882 48.6852 1.43719C48.3015 0.925548 48.2503 1.05346 48.0201 1.15579C47.7899 1.25811 47.4061 1.36044 47.1759 1.00229C47.1446 0.978639 47.1088 0.961779 47.0706 0.952797C47.0324 0.943814 46.9928 0.942906 46.9543 0.950132C46.9157 0.957358 46.8791 0.972558 46.8468 0.994757C46.8145 1.01696 46.7872 1.04566 46.7666 1.07904C46.741 1.15579 46.6387 1.25811 46.8177 1.30928C46.9968 1.36044 47.0736 1.48835 47.0224 1.69301C46.9712 1.89766 46.9968 1.82092 46.8945 1.8465C46.811 1.83898 46.7311 1.8088 46.6635 1.75921C46.5958 1.70961 46.543 1.6425 46.5108 1.5651C46.4596 1.48835 46.3828 1.4116 46.3828 1.36044C46.3828 1.30928 46.3317 0.976712 46.1526 0.976712C45.9735 0.976712 45.9991 1.48835 46.2805 1.92324L46.3317 2.02557C46.8177 2.66512 46.7666 3.43258 46.8689 4.17445C46.8945 4.22562 46.741 4.30236 46.8689 4.35352C46.4933 5.05321 46.2997 5.83619 46.3061 6.63032C46.2294 6.75822 46.3061 6.96288 46.3317 7.16754C46.3522 7.21596 46.361 7.26856 46.3573 7.32103C46.3573 7.85825 46.7666 8.44663 47.2782 8.4978L51.2946 8.88152C51.3969 8.88152 51.576 8.85594 51.576 9.00943C51.576 9.16292 51.3969 9.11176 51.2946 9.08618C51.1922 9.0606 51.0643 9.11176 50.9364 9.16293C50.7189 9.31977 50.4878 9.45676 50.2457 9.57224L50.7318 9.72573L50.6294 9.9048C50.4504 10.135 50.1946 10.3909 50.8085 10.442C50.8597 10.442 51.2434 10.5955 50.9876 10.8002C50.7877 10.9558 50.6461 11.1743 50.5857 11.4203C50.5254 11.6664 50.5498 11.9256 50.655 12.156C50.8853 12.6932 50.4248 12.7956 50.2457 13.077C50.0666 13.3584 50.1434 13.2305 50.0922 13.1281C50.0411 13.0258 49.4783 12.949 49.248 12.6932C49.0178 12.4374 48.8387 12.5142 48.6596 12.3862C48.4806 12.2583 48.4806 12.4118 48.4294 12.5142C48.3782 12.6165 48.3782 12.4886 48.4038 12.5142C48.4294 12.5397 48.6596 13.0258 48.8899 13.2304C49.1201 13.4351 49.3759 13.6142 49.0689 13.9212C48.762 14.2281 49.0945 14.0747 49.0945 14.1514C49.2112 14.598 49.472 14.9936 49.8364 15.277C49.862 15.3026 49.8108 15.4305 49.8108 15.5072L49.7085 15.584C49.3759 15.4049 49.0178 15.5072 48.6852 15.584C48.3527 15.6607 48.8131 15.9166 48.762 16.1212C48.7108 16.3259 48.8899 16.377 48.9922 16.5049C49.0945 16.6328 49.1969 16.7608 49.0434 16.9398C48.8899 17.1189 49.0178 17.7073 49.0434 18.0654C49.0432 18.4441 49.1216 18.8187 49.2736 19.1655C49.2992 19.2422 49.2736 20.0864 49.3248 20.1376C49.3885 20.2251 49.4289 20.3273 49.4423 20.4347C49.4558 20.542 49.4417 20.6511 49.4015 20.7515C49.3248 21.1864 49.2736 21.6213 49.2224 22.0818C49.2054 22.2781 49.2502 22.4749 49.3504 22.6446C49.551 23.0241 49.6646 23.4436 49.6829 23.8725C49.4773 23.6576 49.2891 23.4266 49.1201 23.1818C48.3021 21.6852 47.8301 20.0243 47.7387 18.3213C47.7131 17.5794 47.7131 16.8631 47.7387 16.1468C47.7643 15.4305 47.6364 14.3816 47.6619 13.5119C47.6875 12.6421 47.6619 12.0281 47.1503 11.3886C46.6387 10.749 46.6387 10.2118 46.6131 9.57224C46.5875 8.93269 46.6387 8.83036 46.4852 8.47221C46.3061 8.65129 46.127 8.75361 46.1526 9.00943C46.3061 10.1862 46.5363 11.3374 47.1247 12.4118C47.1937 12.5106 47.2376 12.6248 47.2526 12.7444C47.3038 13.7677 47.4317 14.8165 47.3805 15.8398C47.2991 17.3487 47.4108 18.8617 47.7131 20.3422C48.0713 22.0562 48.7108 23.6423 49.8364 24.9726C50.6343 25.9445 51.2811 27.0311 51.7551 28.1959C51.8807 28.591 52.1248 28.938 52.4543 29.1897C52.7837 29.4414 53.1827 29.5856 53.5969 29.6029C53.8331 29.6288 54.0604 29.7075 54.2621 29.8331C55.0807 30.3959 55.9249 30.9331 56.7179 31.5727C57.8869 32.5042 59.1271 33.3424 60.4273 34.0797C61.1825 34.5164 61.8644 35.0689 62.4483 35.717C62.605 35.8839 62.6959 36.1021 62.7041 36.3309C62.8409 37.7778 62.7459 39.2373 62.4227 40.6543C62.304 40.9278 62.2599 41.2279 62.2948 41.5241C62.1669 41.6264 62.1669 41.7799 62.1413 41.9334C61.6808 44.4148 61.2715 46.8963 60.7343 49.3521C60.4706 50.5539 60.3334 51.78 60.325 53.0103L60.5552 53.3685C60.5376 52.5376 60.5975 51.7068 60.7343 50.887L61.425 47.4335C61.6553 46.3079 61.7832 45.1823 62.0646 44.0567C62.2859 43.2187 62.4315 42.3625 62.4995 41.4985C62.832 39.8868 63.1902 38.2751 63.1134 36.6123C63.0878 35.9984 63.0878 35.3588 62.525 34.9751C61.5018 34.2844 60.7087 33.3123 59.532 32.8006C57.5877 31.9564 56.1551 30.3192 54.39 29.168C54.1853 29.0401 54.083 28.8866 53.8016 28.9889C53.6164 29.0504 53.4178 29.0591 53.228 29.0139C53.0382 28.9687 52.8647 28.8714 52.7272 28.7331C52.0365 28.0168 51.6783 27.0703 51.3969 26.1237C51.3713 26.0214 51.3202 25.8935 51.4481 25.8423C51.576 25.7912 51.576 25.9191 51.6527 25.9447C51.7118 25.9787 51.7615 26.0269 51.7973 26.085C51.833 26.143 51.8537 26.2091 51.8574 26.2772C51.8999 26.3848 51.9655 26.4817 52.0494 26.5613C52.1334 26.6408 52.2337 26.701 52.3434 26.7377C52.676 26.84 53.0341 26.7889 53.3155 26.9935C53.597 27.1982 53.4179 27.0191 53.4435 26.9424C53.469 26.8656 53.8784 26.4051 54.0574 26.1237C54.5691 25.3051 55.3109 24.7167 55.9505 24.026L56.0272 24.1028C55.9761 24.4609 55.7202 24.6911 55.5923 25.0237C55.5603 25.0827 55.5504 25.1513 55.5645 25.217C55.5785 25.2827 55.6157 25.3412 55.6691 25.3819C55.7714 25.4842 55.8482 25.4074 55.9249 25.3563C56.0017 25.3051 55.7458 25.254 55.8482 25.0749C55.9505 24.8958 56.2063 24.2563 56.5133 23.9237C56.8203 23.5911 56.6924 23.7958 56.7947 23.8981C56.897 24.0004 57.3063 24.1539 57.3319 23.6935C57.3271 23.6466 57.3368 23.5994 57.3597 23.5582C57.3826 23.5171 57.4175 23.4839 57.4598 23.4632C57.5877 23.4376 57.7668 23.5655 57.7668 23.6423C57.7668 23.719 57.8947 24.4353 58.0738 24.8191L57.0249 25.9958C57.1004 26.0315 57.1849 26.0433 57.2672 26.0295C57.3495 26.0158 57.4256 25.9773 57.4854 25.9191H57.5366C57.5621 25.9447 57.511 25.9958 57.4854 26.047C57.4598 26.0982 57.2296 26.1237 57.4087 26.2772C57.5877 26.4307 57.6133 26.3796 57.6645 26.2261C57.7156 26.0726 57.997 26.0214 58.0226 25.7912C58.0482 25.5609 57.7924 25.9191 57.6645 25.7912C57.7778 25.4322 57.9508 25.095 58.1761 24.7935C58.2047 24.7653 58.2401 24.745 58.2789 24.7347C58.3177 24.7244 58.3585 24.7244 58.3973 24.7348C58.4361 24.7451 58.4715 24.7654 58.5 24.7937C58.5285 24.8219 58.5491 24.8571 58.5598 24.8958C58.6878 25.254 58.2784 25.3819 58.1761 25.6633C58.0738 25.9447 58.5087 25.3563 58.7389 25.5098C58.6316 25.8018 58.4457 26.0586 58.2017 26.2516C57.997 26.4051 57.6645 26.5075 57.8435 26.9168C58.0738 26.7889 58.0226 26.4307 58.3296 26.4051C58.6366 26.3796 58.5598 26.5075 58.5598 26.4819C58.5598 26.4563 59.1482 25.9702 59.1226 25.5609C59.0971 25.1516 59.225 25.2795 59.3785 25.0749C59.3273 25.5354 59.3017 25.8935 59.2761 26.2516C59.1107 26.6781 59.0074 27.1261 58.9692 27.5819C59.2158 27.1896 59.3569 26.7401 59.3785 26.2772C59.4808 26.1749 59.5064 26.2261 59.6087 26.2772C59.711 26.3284 60.0436 26.5075 60.0948 26.1237C60.1211 26.0331 60.1747 25.9527 60.2482 25.8935C60.3762 25.8168 60.4017 25.8168 60.2738 25.6377C60.1459 25.4586 59.8389 25.0493 60.2994 24.8702C60.7343 25.5354 60.8366 26.354 61.0669 27.0959C61.1328 27.9265 61.2784 28.7489 61.5018 29.5517C61.5273 29.0145 61.5529 28.5029 61.5529 27.9656C61.5529 27.4284 61.6553 27.7098 61.7832 27.6587C61.9111 27.6075 61.5529 27.6331 61.5529 27.5819C61.6056 27.5627 61.6506 27.5268 61.6808 27.4796C61.7051 27.4417 61.7143 27.396 61.7064 27.3517V27.3005C61.6808 27.2493 61.7064 27.147 61.6041 27.1214C61.5018 27.0958 61.3483 27.0703 61.2204 27.0447C61.1692 26.6354 61.4506 26.1749 61.0413 25.8168C61.118 25.7912 61.1948 25.7912 61.2459 25.7144C61.2971 25.6377 61.5018 25.4842 61.6297 25.7144C61.7576 25.9447 61.732 26.0726 61.8599 26.1493C62.1261 26.3742 62.343 26.6516 62.497 26.9641C62.6511 27.2766 62.739 27.6176 62.7553 27.9656C62.8832 29.0657 63.1902 30.1401 63.4204 31.2401C63.446 31.3936 63.4716 31.5983 63.6762 31.5471C63.8809 31.4959 63.7786 31.2657 63.753 31.1634C63.7274 31.061 63.5227 30.4215 63.446 30.0378C63.2925 29.2447 63.1646 28.4261 63.0367 27.6331C62.9088 26.84 62.8832 26.661 62.7809 26.1749C62.6018 25.254 62.3715 24.3074 62.2181 23.3865C62.0646 22.4655 61.6041 21.7748 61.3227 20.9562C61.2204 20.6748 61.0925 20.3166 61.2459 20.112C61.3994 19.9073 61.3994 19.4213 61.3227 19.0631C61.2459 18.705 61.2971 18.9096 61.4506 18.8841C61.6041 18.8585 61.7064 19.6003 61.8855 19.9329C62.0646 20.2655 61.9622 21.4167 62.7297 21.8516C63.1902 23.0539 63.7274 24.2307 63.2158 25.5609C63.1829 25.6686 63.1742 25.7821 63.1902 25.8935C63.139 26.5842 63.4716 27.2493 63.4716 27.9656C63.4716 27.9912 63.4204 28.0168 63.4972 28.068C63.5739 28.1191 63.3181 28.7843 63.8297 28.8866V28.9377C63.5995 29.0657 63.7786 29.168 63.8553 29.2959C64.0707 29.6726 64.2016 30.0915 64.239 30.5238C64.2694 31.0652 64.3378 31.6037 64.4437 32.1355C64.6739 33.1076 64.5716 34.1565 64.9042 35.1286C65.0592 35.5719 65.1287 36.0407 65.1088 36.51C65.1088 37.8403 65.0832 39.1705 65.3902 40.4496C65.5855 41.2444 65.6289 42.069 65.5181 42.8799C65.4925 43.0334 65.5949 43.2636 65.7484 43.2636C65.9019 43.2636 65.9019 43.0334 65.8763 42.9055C65.7995 42.0101 65.7995 41.1147 65.5949 40.245C65.3902 39.3752 65.5181 38.224 65.3135 37.2263C65.2623 37.0472 65.1344 36.817 65.2879 36.6635C65.4414 36.51 65.4158 36.2286 65.3902 35.9728C65.3391 35.2053 64.8018 34.5146 65.1856 33.696C65.3902 33.2611 65.0065 32.8006 65.0065 32.3657C65.0065 31.9308 64.4181 31.2657 64.6739 30.6262V30.6006C64.3778 29.2924 64.1557 27.9686 64.0088 26.6354C63.9576 26.2261 63.8041 25.8168 63.9832 25.4074C64.1623 25.5098 63.9576 25.7656 64.2134 25.8168C64.4693 25.8679 64.6739 26.1493 64.6483 26.4563C64.6228 26.7633 64.6228 27.147 65.0321 27.3773C64.7763 26.7121 65.4925 26.1237 65.1088 25.433C64.9809 25.5354 65.0065 25.7144 64.8274 25.6888C64.6483 25.6633 64.6995 25.126 64.6483 24.8446C64.5972 24.5632 64.6739 24.5632 64.9042 24.5377C65.7484 24.4865 66.5158 24.8446 67.3344 24.8958C67.5135 24.8958 67.4879 24.947 67.36 25.1005C67.2321 25.254 67.0275 25.5865 67.1042 25.74C67.3856 26.354 67.2321 26.9935 67.3089 27.6075C67.351 27.9223 67.3424 28.2419 67.2833 28.554C67.1095 29.2388 67.049 29.9474 67.1042 30.6517C67.115 31.1172 67.175 31.5803 67.2833 32.0332C67.1809 32.1355 67.1298 32.1355 67.1042 32.0587C67.181 32.4169 66.9251 32.775 67.2321 33.082C67.2263 32.7438 67.3055 32.4096 67.4624 32.1099C67.6158 32.0843 67.667 32.1867 67.7438 32.289C67.8205 32.3913 68.0252 32.4169 68.0763 32.2378C68.1275 32.0587 68.5112 31.5983 68.0252 31.3169C67.9996 31.3169 68.0252 31.2913 68.0252 31.2401C68.0702 31.2607 68.1191 31.2718 68.1687 31.2725C68.2182 31.2733 68.2674 31.2638 68.3131 31.2445C68.3588 31.2253 68.4 31.1968 68.4341 31.1608C68.4682 31.1248 68.4945 31.0821 68.5112 31.0355C68.5083 30.833 68.4256 30.6399 68.281 30.4982C68.2387 30.2323 68.2931 29.96 68.4345 29.7308C68.6391 29.654 68.6647 29.8843 68.7926 29.9354C68.9205 29.9866 69.074 30.0378 69.0229 29.961C68.9717 29.8843 69.2275 29.475 69.1763 29.2191C69.1252 28.9633 69.3554 29.3726 69.4322 29.1424C69.5089 28.9122 69.3554 28.9122 69.2531 28.8354C69.1508 28.7587 69.2787 28.5796 69.2531 28.554C69.2275 28.5284 69.2019 28.2215 69.3298 28.1447C69.3887 28.1196 69.4421 28.0832 69.4868 28.0374C69.5315 27.9916 69.5668 27.9375 69.5906 27.8781C69.6144 27.8186 69.6262 27.7551 69.6253 27.6911C69.6245 27.6271 69.611 27.5639 69.5856 27.5052C69.5345 27.3261 69.8159 27.1214 70.0205 27.0703L70.7624 25.8935L70.9927 26.0982L71.095 25.9702C70.9927 25.4842 69.7136 24.9214 69.7136 24.9214H69.688ZM54.6714 2.61395C54.7993 2.74186 54.6458 2.76745 54.5691 2.81861C54.4923 2.86977 54.6202 2.66512 54.6714 2.61395ZM50.3736 1.8465C50.3992 1.66742 50.476 1.51393 50.7062 1.53951C50.9364 1.5651 51.0388 1.66742 50.9876 1.82092C50.9364 1.97441 50.8341 2.15348 50.6039 2.07673C50.3736 1.99999 50.348 1.99999 50.3736 1.8465ZM48.1224 1.4116C48.1412 1.40776 48.1606 1.4082 48.1793 1.41288C48.1979 1.41757 48.2152 1.42638 48.2299 1.43866C48.2447 1.45095 48.2564 1.46639 48.2644 1.48385C48.2724 1.5013 48.2763 1.52033 48.2759 1.53951C48.2534 1.63435 48.2125 1.72383 48.1554 1.80284C48.0984 1.88185 48.0263 1.94884 47.9433 1.99999C47.841 2.02557 47.8154 1.94882 47.8154 1.87208C47.8052 1.77162 47.8302 1.67073 47.8862 1.58671C47.9422 1.50269 48.0257 1.44078 48.1224 1.4116ZM50.9108 10.2629C50.8597 10.1606 50.8597 9.98155 51.0132 9.95597C51.1667 9.93038 51.269 10.1095 51.3713 10.2629C51.4736 10.4164 51.0643 10.5188 50.9108 10.2629ZM59.1738 13.7677C59.1738 13.8188 59.1738 13.8956 59.0715 13.87C58.9692 13.8444 58.9692 13.7421 58.918 13.6653L59.0203 13.5886C59.0633 13.5948 59.1025 13.6164 59.1307 13.6493C59.1589 13.6822 59.1743 13.7243 59.1738 13.7677ZM58.918 13.4351L58.9692 13.5374C58.9436 13.563 58.918 13.5886 58.8668 13.563L58.8157 13.5119L58.918 13.4351ZM56.8459 10.0071C56.9738 9.95597 57.0249 10.0583 57.0505 10.135C57.3575 10.8258 57.9203 11.3374 58.0738 12.1048C58.1249 12.463 58.4831 12.6676 58.5598 13.1025C58.2529 12.949 58.2529 12.5653 57.9459 12.5142C57.6389 12.463 57.9715 12.3607 57.8435 12.4118C57.8548 12.0536 57.7264 11.705 57.4854 11.4397C57.1784 11.0816 57.0505 10.6467 56.8459 10.2374C56.6412 9.82806 56.7179 10.0583 56.8459 10.0071ZM53.9807 7.11637C53.9899 7.12675 53.997 7.13891 54.0014 7.15211C54.0058 7.16531 54.0074 7.17926 54.0063 7.19312V7.14195L53.9807 7.11637ZM51.8574 9.00943C52.369 8.88152 52.7272 9.03502 53.1365 9.03502C52.8807 9.21409 52.4713 9.21409 51.8574 9.00943ZM61.8343 23.9237C61.8855 24.0772 62.1157 24.2563 61.8599 24.4353C61.732 24.4353 61.5273 24.0516 61.5018 24.5121C61.3174 24.4247 61.1653 24.2815 61.0669 24.1028C60.939 23.7958 60.7343 23.6679 60.325 23.7702C60.4785 23.6167 60.632 23.5144 60.4017 23.3865C60.1715 23.2586 59.5575 22.6446 59.0203 22.4144C58.9146 22.389 58.8175 22.336 58.7389 22.2609C58.0738 21.5702 57.2296 21.1864 56.4365 20.7004C56.1807 20.5469 56.104 20.1376 55.7458 20.0097C56.0528 19.7283 55.6947 19.6003 55.5923 19.4213C55.4362 19.1889 55.2653 18.9667 55.0807 18.7561C54.5946 18.2445 54.39 17.605 54.1086 16.991L52.8295 14.1514C52.7554 13.9975 52.7037 13.8339 52.676 13.6653C52.5352 13.2821 52.5013 12.8677 52.5779 12.4667C52.6545 12.0656 52.8387 11.6929 53.1109 11.3886C53.6225 10.7746 53.8784 9.98155 54.4667 9.39316C55.0551 8.80478 55.7203 9.13734 56.0017 9.54665C56.6156 10.4932 57.1528 11.4909 57.8435 12.3862C57.8435 12.463 57.8435 12.5397 57.9459 12.4886C58.0907 12.9777 58.3062 13.4431 58.5854 13.87C59.3529 15.2003 59.6599 16.7096 60.0948 18.1678C60.632 20.0864 61.2204 22.005 61.8343 23.8981V23.9237ZM60.6064 18.0654C60.3483 17.453 60.1429 16.8197 59.9924 16.1724C59.8901 15.6351 59.5831 15.1235 59.3529 14.6119C59.1226 14.1002 59.225 14.3305 59.1738 14.177C59.1226 14.0235 58.9947 13.9467 59.1738 13.87C59.3529 13.7933 59.3529 13.9723 59.3785 14.0491L59.7622 14.8933C60.0569 15.5343 60.2883 16.2026 60.4529 16.8887C60.5719 17.4684 60.8261 18.0118 61.1948 18.4747C61.2937 18.5904 61.3561 18.7329 61.3739 18.8841C61.0322 18.7067 60.7614 18.4178 60.6064 18.0654Z" fill="#979796" style="fill:#979796;fill:color(display-p3 0.5922 0.5922 0.5882);fill-opacity:1;"/>
<path d="M48.7115 3.66309L46.8691 4.35399L47.4577 5.14725L48.7115 4.35399V3.66309Z" fill="#979796" style="fill:#979796;fill:color(display-p3 0.5922 0.5922 0.5882);fill-opacity:1;"/>
<path d="M47.4579 5.7864C47.4579 5.7864 47.2788 6.3492 49.2998 6.75851C51.3207 7.16782 48.9672 7.44922 48.9672 7.44922L46.5625 7.06549L47.33 4.96777L47.4579 5.7864Z" fill="#979796" style="fill:#979796;fill:color(display-p3 0.5922 0.5922 0.5882);fill-opacity:1;"/>
<path d="M80.4083 31.8545L79.8965 32.5198L80.2547 33.9272L81.0224 32.6989L80.4083 31.8545Z" fill="#979796" style="fill:#979796;fill:color(display-p3 0.5922 0.5922 0.5882);fill-opacity:1;"/>
<path d="M79.0547 33.337C78.4307 33.9729 77.7254 34.5234 76.957 34.9743C76.957 34.9743 78.4408 37.0976 78.4152 37.7371C78.3896 38.3767 80.5129 35.1534 80.5129 35.1534L80.6664 32.9277L79.0547 33.337Z" fill="#979796" style="fill:#979796;fill:color(display-p3 0.5922 0.5922 0.5882);fill-opacity:1;"/>
<path d="M76.9569 34.9756C76.4759 35.3316 76.1398 35.8495 76.0104 36.4338C75.7641 37.3091 75.4738 38.1714 75.1406 39.0175L75.3197 38.9664C75.3197 38.9664 76.4197 36.5361 76.4197 36.0244C76.4197 35.5128 77.5965 35.3593 77.5965 35.3593L76.9569 34.9756Z" fill="#979796" style="fill:#979796;fill:color(display-p3 0.5922 0.5922 0.5882);fill-opacity:1;"/>
<path d="M92.304 40.9855C91.9827 40.4748 91.6144 39.9952 91.204 39.5529C90.7691 39.0669 90.4365 38.4273 89.7458 38.1971C89.6893 38.1848 89.6394 38.1516 89.6063 38.1042C89.5731 38.0568 89.5589 37.9986 89.5667 37.9413C89.5923 37.6343 89.3876 37.5064 89.2086 37.3529L89.1062 37.2761C89.0921 37.2147 89.064 37.1573 89.0241 37.1085C88.9841 37.0597 88.9335 37.0207 88.876 36.9947C88.8248 36.8412 88.6969 36.8157 88.5434 36.8157C88.3899 36.8157 88.4155 36.4831 88.2876 36.3296L86.4201 34.4877C85.8318 33.8737 85.0643 33.49 84.4247 32.9016C83.7852 32.3132 83.7084 32.0318 83.248 31.9551C82.7875 31.8784 82.2759 31.3667 82.2247 30.7272C82.1735 30.0876 81.8154 29.9597 81.5851 29.6016H81.534L81.4061 30.062L81.3549 30.1132C81.0971 30.7308 80.7802 31.3219 80.4084 31.8784L80.4851 32.697H80.3572C80.2549 32.5946 79.9991 32.6202 79.8967 32.5179C79.6345 32.8098 79.3524 33.0834 79.0525 33.3365C79.0679 33.48 79.1114 33.6191 79.1804 33.7458C79.3595 34.0017 79.7177 33.9761 79.7944 34.2831C79.8712 34.59 79.7177 34.6156 79.8967 34.7435C79.8967 35.1017 79.5898 34.8714 79.4618 34.9482C79.3339 35.0249 79.3339 34.7691 79.2316 34.6924C79.1293 34.6156 78.6944 34.5389 78.8223 34.1551L78.6944 34.0784V34.3854H78.3874C78.3107 34.5133 78.2339 34.5133 78.1828 34.4877C78.1316 34.4621 78.2083 34.9738 78.4897 35.0761C78.7711 35.1784 78.413 35.3831 78.5921 35.4854L78.7711 35.4342C78.8735 35.0761 79.2316 35.1273 79.4618 34.9738C79.6921 34.8203 79.7688 35.1784 79.5642 35.3831C79.3595 35.5877 79.2316 35.2807 79.2828 35.4087C79.3339 35.5366 79.1037 35.5877 79.0781 35.6901C79.0525 35.7924 78.899 35.6389 78.899 35.7924C78.899 35.9459 78.9502 35.9203 79.0525 35.9715C79.5898 36.1505 79.513 35.7156 79.6409 35.4598C79.7688 35.204 79.7688 34.9993 80.1014 35.1273C80.434 35.2552 80.3061 35.4598 80.5107 35.1528C80.7154 34.8459 80.6386 34.5389 80.7665 34.3342C81.0034 33.9432 81.3166 33.6038 81.6875 33.3365H82.148C82.1991 33.3621 82.2247 33.4133 82.2503 33.4389C82.2759 33.4644 82.4805 33.8993 82.7108 34.0017L82.8131 34.0784C82.7363 34.3598 83.0433 34.1296 83.0945 34.2831C83.1456 34.4365 83.1201 34.3342 83.1456 34.3854C83.1712 34.4365 83.1712 34.3598 83.1968 34.3342C83.2442 34.3795 83.3059 34.4069 83.3713 34.4116C83.4367 34.4162 83.5016 34.3979 83.555 34.3598C83.4526 34.1807 83.5038 34.0272 83.5038 33.8226C83.5038 33.6179 83.2991 33.6947 83.1712 33.7714C83.0433 33.8482 83.0945 33.6179 83.0689 33.5412V33.4389C83.2488 33.3421 83.4553 33.3062 83.6573 33.3365H83.8364C84.0154 33.2342 84.1689 32.9272 84.348 33.0551C84.5271 33.183 84.4503 33.49 84.5015 33.6947C84.5141 33.788 84.5141 33.8827 84.5015 33.9761C84.4495 33.9994 84.4038 34.0347 84.3682 34.0792C84.3326 34.1237 84.3081 34.176 84.2968 34.2319C84.0922 34.4365 84.348 34.6156 84.348 34.8203C84.348 35.0249 84.7061 34.9738 84.9364 34.8714C85.1666 34.7691 84.9364 34.6924 84.962 34.6412C84.9911 34.6414 85.02 34.6354 85.0467 34.6236C85.0733 34.6117 85.0972 34.5943 85.1165 34.5725C85.1359 34.5507 85.1504 34.525 85.159 34.4972C85.1677 34.4693 85.1703 34.4399 85.1666 34.411C85.2071 34.4397 85.2545 34.4571 85.3039 34.4616C85.3533 34.4661 85.403 34.4575 85.448 34.4365C85.4224 34.59 85.5248 34.6156 85.6527 34.6668C85.7806 34.7179 85.6527 34.6924 85.6527 34.7179C85.6527 34.7435 85.4224 34.7435 85.4224 34.8714C85.4224 34.9993 85.6527 34.9482 85.7294 34.9993C85.8843 35.063 86.0239 35.1589 86.1387 35.2807C86.2411 35.4598 86.3178 35.3063 86.4713 35.3063C86.1131 35.1784 86.0108 34.9993 86.1131 34.7179C86.2302 34.7228 86.3439 34.7585 86.4427 34.8214C86.5415 34.8843 86.622 34.9721 86.676 35.0761C86.8275 35.2957 87.0082 35.4936 87.2132 35.6645C87.3667 35.7924 87.5713 35.8947 87.5713 36.0482C87.5713 36.2017 87.2899 36.3296 87.0853 36.3808C87.3411 36.4831 87.1364 36.7133 87.2643 36.8668C87.3922 37.0203 87.776 37.5064 88.1341 37.7622C88.4923 38.018 88.3388 37.9157 88.2109 37.9669C88.083 38.018 88.2364 38.1203 88.262 38.1971C88.3334 38.3012 88.3935 38.4127 88.4411 38.5297C88.4923 37.9669 88.5179 37.5064 88.3132 37.0459C88.1085 36.5854 88.1853 36.7389 88.4667 36.8412L88.5434 36.9692C88.5178 37.1226 88.7225 37.1738 88.6713 37.3529C88.6202 37.532 88.7737 37.3785 88.7993 37.404C88.7993 37.4074 88.7999 37.4107 88.8012 37.4138C88.8025 37.4169 88.8044 37.4198 88.8067 37.4221C88.8091 37.4245 88.8119 37.4264 88.815 37.4277C88.8181 37.429 88.8215 37.4296 88.8248 37.4296C88.7993 37.7622 89.2341 37.8901 89.2341 38.018C89.183 38.5297 89.3876 38.939 89.49 39.3739C89.5923 39.8088 89.3621 40.0901 89.2853 40.4227C89.2086 40.7553 88.7737 40.9599 89.3109 41.1902C89.3117 41.2392 89.3266 41.287 89.3538 41.3278C89.381 41.3687 89.4194 41.4008 89.4644 41.4204C89.4842 41.5422 89.5418 41.6546 89.629 41.7418C89.7163 41.829 89.8287 41.8866 89.9504 41.9065C89.9504 42.06 90.0783 42.0088 90.1807 42.06H90.2063C90.3086 42.1367 90.5132 41.8297 90.5388 42.1367C90.5644 42.4437 90.6156 42.6483 90.4365 42.853C90.2574 43.0577 90.0272 43.4414 89.6179 43.4925C89.2086 43.5437 89.3365 43.5693 89.4388 43.7739C89.5411 43.9786 89.5411 44.1833 89.2341 44.2856L89.3876 44.3367C89.4644 44.3623 89.49 44.4647 89.4644 44.4647C89.4388 44.4647 89.183 44.874 89.1062 45.0786C89.3365 44.874 89.6946 44.8996 89.8225 44.567C89.9504 44.2344 89.5667 44.4902 89.5411 44.3112L89.7458 44.2088C90.0016 44.1833 90.283 43.8763 90.4365 44.3879C90.59 44.8995 90.7435 44.7205 90.9225 44.3623C91.0505 44.7972 91.1016 45.2065 90.7179 45.4112C89.8225 45.9228 89.0039 46.5112 88.0318 46.8949C87.9411 46.9251 87.8601 46.979 87.7971 47.0509C87.7341 47.1229 87.6915 47.2103 87.6736 47.3043C87.5713 47.381 87.6481 47.0229 87.5202 47.2275C87.3922 47.4322 87.4434 47.4066 87.3155 47.4066C87.1876 47.4066 86.6248 47.6624 86.2155 47.9182C86.6936 47.8508 87.1592 47.7129 87.5969 47.5089H87.6992C87.7504 47.7903 87.9806 47.7647 88.2109 47.8159C88.4411 47.8671 88.5434 47.9438 88.6458 47.7391C88.7481 47.5345 88.569 47.4066 88.3644 47.3554L88.7225 47.2275H88.9016L88.8248 47.4066L89.0039 47.5089L89.9249 47.6368C89.7714 47.8159 89.5411 47.8415 89.6435 48.1229C89.6864 48.2434 89.687 48.375 89.6451 48.4959C89.6033 48.6168 89.5215 48.7198 89.4132 48.788C89.1062 48.9415 89.1574 49.1973 89.3109 49.4787L88.7481 49.7857C89.0806 49.8113 89.183 50.0159 89.3876 50.1183C89.5923 50.2206 89.2341 50.1694 89.2853 50.2462C89.3365 50.3229 89.4644 50.2973 89.5411 50.2462C89.6179 50.195 89.8481 50.0671 89.9504 50.1438C89.9522 50.1911 89.9703 50.2363 90.0016 50.2718C90.0247 50.3374 90.0334 50.4071 90.0272 50.4764C90.0369 50.5496 90.0631 50.6196 90.1039 50.6811C90.4109 51.1671 90.283 51.5253 89.7458 51.7299L89.6946 51.7811C89.9249 51.9346 90.3342 51.8323 90.4109 52.2416C90.4877 52.6509 90.5388 52.4718 90.6923 52.4718H91.2295C91.4598 52.4462 91.4854 52.5485 91.4086 52.7276C91.1528 53.5462 91.2551 54.3649 91.2807 55.2091C91.2807 55.3114 91.2551 55.4649 91.4598 55.4393C91.6644 55.4137 91.5877 55.2858 91.5621 55.1835C91.4086 54.3137 91.6133 53.4439 91.8435 52.5997C91.8947 52.4206 91.8691 52.3439 91.69 52.3439C91.5109 52.3439 91.2295 52.0369 91.204 51.6788C91.1528 50.3229 91.1784 48.9671 91.0249 47.6112C90.9761 47.2074 91.0473 46.7981 91.2295 46.4345C91.6644 45.6158 91.997 44.7461 92.3551 43.9019C92.4911 43.5517 92.5521 43.177 92.5342 42.8018C92.6757 42.1546 92.5946 41.4786 92.304 40.8832V40.9855ZM90.7691 49.8369C90.7179 49.402 90.4365 49.0182 90.59 48.5833C90.7435 48.1485 90.4109 47.5857 90.7691 47.1508C90.9993 48.0461 90.7435 48.9415 90.7691 49.8369ZM91.8947 42.2646C92.0692 42.4605 92.2078 42.6856 92.304 42.9297C92.1249 43.0321 91.8947 43.0832 91.7923 43.3135C91.69 43.5437 92.0993 43.16 92.2528 43.3391C92.4063 43.5181 91.7668 43.5437 91.4598 43.6716C91.1528 43.7995 91.8947 43.2623 91.4086 43.16C90.9226 43.0577 91.4342 43.0065 91.5109 42.9553C91.6123 42.8746 91.6792 42.7583 91.6982 42.6301C91.7172 42.5019 91.6869 42.3713 91.6133 42.2646C91.5109 41.9065 91.5621 41.7786 91.8435 41.6762C92.1249 41.5739 91.9202 41.5483 91.8947 41.4972C91.8691 41.446 91.997 41.0623 92.2784 41.139C92.2731 41.242 92.2817 41.3453 92.304 41.446C92.4831 41.8809 92.4063 42.1623 91.8947 42.2646Z" fill="#979796" style="fill:#979796;fill:color(display-p3 0.5922 0.5922 0.5882);fill-opacity:1;"/>
<path d="M73.4961 24.9213L73.9055 25.1516C73.9055 25.3819 73.6496 25.1004 73.6752 25.3051C73.7008 25.5098 73.8543 25.433 73.9567 25.4075C74.059 25.3819 74.4429 25.0236 74.8267 25.1004C74.4429 24.4351 73.9567 25.0236 73.4961 24.9213Z" fill="#979796" style="fill:#979796;fill:color(display-p3 0.5922 0.5922 0.5882);fill-opacity:1;"/>
<path d="M74.3905 24.2303C74.3138 24.0512 74.2882 23.8977 74.237 23.7953C74.1858 23.693 73.9555 23.6418 73.8276 23.565C73.6996 23.4883 73.6484 23.6674 73.6484 23.6674C73.8381 23.9209 74.0953 24.116 74.3905 24.2303Z" fill="#979796" style="fill:#979796;fill:color(display-p3 0.5922 0.5922 0.5882);fill-opacity:1;"/>
<path d="M85.3944 19.0372C85.3688 18.9093 85.1898 18.7558 85.3688 18.6279C85.113 18.3976 85.3944 17.9371 84.9851 17.7325C84.5758 17.5278 84.3455 17.4255 84.9083 17.1697C84.9851 17.1441 84.9339 17.0674 84.9083 17.0162C84.8828 16.965 84.0897 16.4278 84.1409 15.8394C84.1409 15.8394 84.013 15.7627 83.9874 15.7883C83.9618 15.8138 83.6292 15.6092 83.6292 15.5836C83.6292 15.558 83.2967 15.1743 83.0409 15.0464C82.785 14.9185 82.8362 14.9441 82.8362 14.8673C82.8362 14.7906 82.3502 14.4324 81.992 14.4324C81.8571 14.4477 81.7215 14.4113 81.6123 14.3306C81.5032 14.2499 81.4286 14.1309 81.4036 13.9975C81.4 13.8755 81.355 13.7584 81.276 13.6654C81.1969 13.5724 81.0886 13.5091 80.9687 13.4859C80.5083 13.2812 80.1245 12.9487 79.5106 12.9231C78.8966 12.8975 78.1547 13.1022 77.4896 13.2301C77.464 13.2557 77.4384 13.2812 77.4384 13.3068C77.4384 13.3324 77.0291 12.9998 76.9268 13.4091C76.8245 13.8185 76.8245 13.5115 76.7221 13.5371C76.0058 13.6394 75.264 13.6905 74.7523 14.3045C74.6873 14.3779 74.6092 14.4386 74.5221 14.4836C73.3965 15.0975 72.4244 15.8906 71.9383 17.1185C71.8104 17.4511 71.529 17.886 71.6313 18.0906C71.7337 18.2953 71.6825 18.986 71.8616 19.4209C72.0406 19.8558 71.9383 20.5465 71.9127 21.1093L71.9639 21.007C71.8549 21.1957 71.7852 21.4046 71.7592 21.6209C71.7337 21.8768 71.8104 22.4907 71.7592 22.6186C71.6296 22.8805 71.568 23.1709 71.5802 23.4628C71.612 23.6319 71.612 23.8054 71.5802 23.9745H71.6057V24.1024C71.5946 24.4459 71.4581 24.7735 71.222 25.0233L70.9918 25.2792C70.8459 25.5034 70.75 25.7564 70.7104 26.021C70.6848 26.0722 70.6848 26.0722 70.6848 26.0466C70.5796 26.2027 70.4597 26.3483 70.3266 26.4815C70.1746 26.7569 70.0545 27.0487 69.9685 27.3513L70.0197 27.9397C70.04 28.0579 70.0486 28.1779 70.0453 28.2978C69.9103 28.5853 69.8487 28.9017 69.8662 29.2188C69.8662 29.3211 69.8918 29.3723 69.9429 29.3723L69.9941 30.0374C70.0091 30.2604 69.9918 30.4844 69.9429 30.7025C69.9059 30.8827 69.9238 31.0698 69.9941 31.2397C70.1145 31.3318 70.2151 31.4472 70.2898 31.5791C70.3646 31.711 70.4119 31.8566 70.429 32.0072C70.4157 32.2541 70.488 32.4981 70.6336 32.6979C70.5907 32.7991 70.5686 32.9078 70.5686 33.0177C70.5686 33.1276 70.5907 33.2363 70.6336 33.3375C70.7615 33.5677 70.9406 33.6956 71.0174 33.9003C71.0941 34.1049 71.0174 33.977 71.0429 34.0026C71.0429 34.0127 71.0449 34.0226 71.0488 34.032C71.0526 34.0413 71.0583 34.0497 71.0654 34.0569C71.0726 34.064 71.081 34.0696 71.0903 34.0735C71.0996 34.0773 71.1096 34.0793 71.1197 34.0793L71.2476 34.1561C71.4267 34.2072 71.6313 34.3096 71.7848 34.2328C71.9383 34.1561 72.2197 34.2072 72.3988 34.4631C72.4687 34.5868 72.5641 34.6941 72.6788 34.7779C72.7936 34.8618 72.9248 34.9201 73.0639 34.9491C73.1833 34.9549 73.301 34.9187 73.3965 34.8468C73.6299 34.9737 73.8795 35.0683 74.1384 35.1282C74.2663 35.1282 74.3942 35.1538 74.4453 35.0514C74.4965 34.9491 74.7523 34.77 75.0081 34.8724H75.0593C75.0593 34.8724 75.3919 34.4886 75.5965 34.6933C75.6517 34.7467 75.7183 34.787 75.7912 34.8111C75.8641 34.8353 75.9415 34.8428 76.0177 34.8329C76.0938 34.8231 76.1668 34.7962 76.2312 34.7544C76.2956 34.7125 76.3497 34.6566 76.3896 34.591C76.5414 34.3716 76.7693 34.2166 77.0291 34.1561L77.1059 34.0538C77.2082 33.977 77.2849 33.9514 77.3617 34.0793C77.4384 34.2072 77.5663 34.2072 77.6431 34.1049L77.8222 33.8235C77.8742 33.7473 77.9521 33.6924 78.0413 33.6689C78.1306 33.6454 78.2254 33.6549 78.3082 33.6956C78.5896 33.8491 78.6664 33.7468 78.6664 33.7468C78.6664 33.7468 79.3827 32.4677 79.971 32.1351C80.3586 31.89 80.6829 31.5569 80.9176 31.163C80.9943 30.8304 80.892 30.4467 81.1222 30.1653C81.3198 29.8512 81.4827 29.5167 81.6083 29.1676C81.8641 28.5792 81.9153 27.8885 82.4013 27.3769C82.9068 26.8463 83.3294 26.2426 83.6548 25.5861C83.8595 25.2024 84.2176 24.8187 84.1153 24.3582C84.013 23.8977 84.4223 23.2326 84.627 22.6954C84.6473 22.6203 84.69 22.5532 84.7494 22.5029C84.8088 22.4527 84.8821 22.4216 84.9595 22.414C84.7293 22.1837 84.9339 21.9791 85.0107 21.8256C85.2639 21.4126 85.4308 20.9526 85.5011 20.4733C85.5715 19.994 85.5439 19.5055 85.42 19.0372H85.3944ZM70.122 30.8304C70.122 30.7793 70.1476 30.7537 70.1476 30.7025C70.1416 30.7456 70.133 30.7883 70.122 30.8304ZM76.1593 30.4723C76.1593 30.4723 73.9593 30.37 72.936 28.9885L72.8337 28.9118H72.8593L72.936 28.9629V28.9118C72.9104 28.9118 72.8848 28.9118 72.8848 28.8862H72.9104C72.9104 28.8862 74.0616 29.4234 74.5988 29.2955C75.1361 29.1676 74.8802 29.3723 74.9314 29.4746C74.9826 29.5769 75.8268 30.2932 76.2617 30.2676C76.2872 30.2676 76.2872 30.2932 76.3128 30.3188C76.3384 30.3444 76.3384 30.4211 76.2105 30.4723H76.1593ZM76.5431 28.4257C76.4919 28.6048 76.3384 28.6048 76.2105 28.5792C76.0826 28.5536 75.4942 28.5025 75.1616 28.7583L75.0593 28.8095C74.9376 28.7321 74.8471 28.6143 74.8035 28.4769C74.5988 28.042 74.4198 27.9141 73.9337 27.9397C73.7969 27.9549 73.6584 27.9424 73.5265 27.9028C73.3946 27.8632 73.2721 27.7975 73.1662 27.7094C72.9546 27.5654 72.7059 27.4854 72.45 27.4792C72.3852 27.4829 72.3203 27.4729 72.2596 27.4498C72.199 27.4267 72.1439 27.391 72.098 27.3451C72.0521 27.2992 72.0164 27.2441 71.9933 27.1835C71.9702 27.1228 71.9602 27.0579 71.9639 26.9931C71.9597 26.8612 71.9279 26.7316 71.8707 26.6126C71.8134 26.4937 71.7319 26.388 71.6313 26.3024C71.5612 26.2397 71.5134 26.1559 71.4949 26.0637C71.4765 25.9714 71.4884 25.8757 71.529 25.7908C71.5834 25.6408 71.6262 25.4869 71.6569 25.3303L71.7337 24.6652C71.7337 24.614 71.7592 24.5629 71.7592 24.4861L71.836 23.7698V23.7187H71.8616C71.8616 23.7187 71.9895 22.5419 71.9895 22.1326C71.9895 21.7233 72.0918 21.2884 72.0406 21.0581V20.8791C72.2453 20.3163 72.2197 19.7023 72.5523 19.1907C72.9104 19.6767 73.1407 20.1116 72.9616 20.7256C72.9523 20.7939 72.9593 20.8634 72.9822 20.9284C73.005 20.9934 73.043 21.0521 73.093 21.0996C73.1429 21.1471 73.2035 21.182 73.2696 21.2015C73.3357 21.2209 73.4055 21.2244 73.4732 21.2116C73.9081 21.186 74.2919 21.007 74.7267 21.0581C75.1616 21.1093 76.2872 21.0581 77.0547 20.8535C77.2427 20.7808 77.4494 20.7718 77.6431 20.8279C78.0592 20.9434 78.4905 20.9952 78.9222 20.9814C79.0683 20.9771 79.2114 21.023 79.3278 21.1115C79.4441 21.1999 79.5267 21.3255 79.5617 21.4674C79.7152 21.9279 79.5617 22.3884 79.7408 22.8489C79.9199 23.3093 79.6641 23.0535 79.5873 23.0279C79.5106 23.0024 79.485 23.4884 79.2036 23.514C79.2601 23.7484 79.3956 23.9562 79.5873 24.1024C79.6641 24.1535 79.8175 24.128 79.7408 24.2815C79.7193 24.3537 79.6756 24.4172 79.6159 24.4632C79.5562 24.5091 79.4835 24.535 79.4082 24.5373C78.5384 24.4605 77.6175 24.2815 76.9012 25.0489C76.1849 25.8164 75.8523 25.5094 75.9803 26.2513C75.9803 26.3024 75.9035 26.3536 75.8779 26.4048C75.8523 26.4559 75.9035 26.8908 75.6989 27.0955C75.9547 27.249 75.9803 27.4536 75.8779 27.735C75.7756 28.0164 75.8779 28.0676 76.1082 27.8885C76.3384 27.7094 76.3128 27.6327 76.4407 27.8118C76.5109 27.8957 76.5593 27.9956 76.5816 28.1027C76.6039 28.2098 76.5995 28.3208 76.5686 28.4257H76.5431ZM77.1826 25.535V25.4582C77.1553 25.3934 77.1532 25.3206 77.1769 25.2543C77.2006 25.188 77.2483 25.133 77.3105 25.1001C77.771 24.7931 79.0757 24.9978 79.5106 25.4838C79.3718 25.4545 79.2272 25.4742 79.1012 25.5395C78.9753 25.6048 78.8759 25.7117 78.8199 25.842C78.6919 26.0466 78.4617 26.3024 78.1803 26.1745C77.8989 26.0466 77.4128 25.9954 77.4128 25.4582C77.4128 25.3047 77.2594 25.4326 77.2082 25.5094L77.1826 25.535ZM80.9176 26.0978C80.4059 26.4048 80.5594 26.8652 80.5594 27.3001C80.5288 27.6474 80.4334 27.9858 80.278 28.2978V28.349C80.1643 28.4376 80.071 28.5498 80.0048 28.6778C79.9385 28.8059 79.9008 28.9468 79.8943 29.0909V29.142C79.7179 29.301 79.5298 29.4464 79.3315 29.5769C79.2532 29.513 79.1529 29.4825 79.0524 29.4921C78.9518 29.5017 78.859 29.5505 78.7943 29.6281L78.5896 29.9095H78.5384C78.3082 29.9862 78.1803 30.0118 78.0524 29.9351V29.7304C78.0617 29.5832 78.0177 29.4376 77.9285 29.3201C77.8392 29.2027 77.7107 29.1213 77.5663 29.0909C76.9012 28.9629 76.6454 28.656 76.9268 28.0676C76.9927 27.9363 77.0181 27.7885 76.9999 27.6427C76.9817 27.497 76.9206 27.36 76.8245 27.249C76.7304 27.1065 76.6279 26.9698 76.5175 26.8397C76.4152 26.7117 76.3896 26.6862 76.5175 26.5071C76.6454 26.328 76.9524 26.2257 77.157 26.5071C77.3617 26.7885 77.5919 26.7117 77.771 26.9164C77.9501 27.1211 77.9501 26.9676 77.9501 26.8908C78.0268 26.3792 78.3338 26.7885 78.4873 26.7629C78.6408 26.7373 79.3059 26.6862 79.4594 26.5327C79.6129 26.3792 80.0478 25.6117 80.7129 25.6117C80.8152 25.6373 80.9432 25.5094 81.0199 25.6373C81.0625 25.7066 81.0783 25.7892 81.0641 25.8693C81.05 25.9495 81.0069 26.0217 80.9431 26.0722L80.9176 26.0978Z" fill="#979796" style="fill:#979796;fill:color(display-p3 0.5922 0.5922 0.5882);fill-opacity:1;"/>
<path d="M137.454 35.9453C137.731 35.9494 138.003 36.0196 138.247 36.15C138.496 36.2849 138.701 36.4894 138.836 36.7386C138.97 36.9814 139.04 37.2543 139.04 37.5318C139.04 37.8093 138.97 38.0823 138.836 38.3251C138.687 38.5636 138.485 38.7649 138.247 38.9136C138.003 39.044 137.731 39.1142 137.454 39.1183C137.173 39.1142 136.899 39.0347 136.66 38.888C136.418 38.7529 136.222 38.5478 136.097 38.2995C135.948 38.0713 135.868 37.8046 135.867 37.5318C135.869 37.2511 135.948 36.9764 136.097 36.7386C136.224 36.4834 136.431 36.2767 136.686 36.15C136.922 36.0226 137.185 35.9525 137.454 35.9453ZM137.454 36.2012C137.228 36.1997 137.006 36.2617 136.814 36.3803C136.605 36.4877 136.435 36.6577 136.328 36.8665C136.206 37.0667 136.144 37.2975 136.149 37.5318C136.148 37.7543 136.2 37.9738 136.302 38.1716C136.418 38.3897 136.596 38.568 136.814 38.6833C137.012 38.7853 137.231 38.8379 137.454 38.8369C137.684 38.8381 137.912 38.7855 138.119 38.6833C138.317 38.5616 138.483 38.395 138.605 38.1971C138.723 37.9954 138.785 37.7656 138.784 37.5318C138.789 37.2975 138.727 37.0667 138.605 36.8665C138.491 36.6631 138.322 36.495 138.119 36.3803C137.917 36.2621 137.688 36.2002 137.454 36.2012ZM136.763 38.4019V36.6874H137.351L137.786 36.7386C137.87 36.7776 137.941 36.8397 137.991 36.9177C138.025 36.9506 138.052 36.9904 138.07 37.0345C138.088 37.0787 138.096 37.1261 138.093 37.1736C138.092 37.2328 138.077 37.291 138.05 37.344C138.024 37.397 137.986 37.4436 137.94 37.4807C137.896 37.5323 137.841 37.5731 137.779 37.5998C137.717 37.6264 137.649 37.6382 137.582 37.6342C137.613 37.6397 137.643 37.6517 137.669 37.6693C137.696 37.6869 137.718 37.7098 137.735 37.7365C137.837 37.8335 137.924 37.9457 137.991 38.0692L138.196 38.4019H137.863L137.71 38.146C137.643 37.9927 137.547 37.8537 137.428 37.7365L137.198 37.6854H137.044V38.4019H136.763ZM137.044 37.4551H137.377C137.493 37.4629 137.609 37.4362 137.71 37.3783C137.735 37.351 137.755 37.3189 137.769 37.2837C137.782 37.2485 137.788 37.2111 137.786 37.1736C137.788 37.1497 137.785 37.1258 137.776 37.1035C137.767 37.0813 137.753 37.0615 137.735 37.0456C137.71 37.0201 137.684 36.9689 137.633 36.9689L137.351 36.9177H137.044V37.4551Z" fill="#979796" style="fill:#979796;fill:color(display-p3 0.5922 0.5922 0.5882);fill-opacity:1;"/>
</svg>
