<svg width="79" height="80" viewBox="0 0 79 80" fill="none" xmlns="http://www.w3.org/2000/svg">
<g clip-path="url(#clip0_2177_21238)">
<path d="M0.246094 0.667969V79.3324H78.9105V0.667969H0.246094ZM78.1203 78.5422H1.03629V1.45816H78.1203V78.5422Z" fill="#979796" style="fill:#979796;fill:color(display-p3 0.5922 0.5922 0.5882);fill-opacity:1;"/>
<path d="M50.2067 41.1304L47.8523 42.3398C45.4656 43.5816 43.1434 44.8878 40.8695 46.3392C39.2247 47.4035 38.2409 48.8226 37.5959 50.6127C36.9508 52.4027 36.3058 54.1766 35.1769 55.7086C34.806 56.1924 34.3867 56.7246 33.8546 57.0148C32.4193 57.805 30.7099 56.7729 30.5648 55.1442C30.5194 54.362 30.7165 53.5848 31.1292 52.9187C31.8872 51.5803 32.9354 50.4998 34.0642 49.5C35.1931 48.5001 36.5799 47.5648 37.4024 46.194C37.9507 45.2748 38.3377 44.2428 38.7892 43.2591L38.6602 43.1462C38.4857 43.1849 38.3134 43.2334 38.1442 43.2913C37.7249 43.4526 37.3217 43.6622 36.8863 43.7912C35.3059 44.2428 33.7256 43.3719 33.1934 41.7916C33.1289 41.6303 33.0805 41.4529 33.016 41.2433C32.6757 41.3594 32.3419 41.494 32.0162 41.6464C29.7738 42.7879 27.4507 43.7635 25.0657 44.5653C23.7272 45.0168 22.3726 45.3071 20.9857 44.7104C20.4407 44.4983 19.9692 44.1324 19.6285 43.6571C19.2877 43.1818 19.0926 42.6177 19.0667 42.0334C18.8248 39.1952 19.9859 36.9214 22.1468 35.1636C23.5982 33.9703 25.4044 34.2605 26.4364 35.7603C27.0976 36.7117 26.9686 38.0986 26.0978 39.1146C24.9528 40.4531 23.4208 40.9207 21.7114 40.953C20.8083 40.9691 20.6793 41.0175 20.5987 41.5174C20.5181 42.0173 20.9051 42.8236 21.534 42.9688C21.8709 43.0597 22.2243 43.0707 22.5661 43.001C23.9369 42.6462 25.3399 42.356 26.6461 41.8238C28.807 40.9369 30.8873 39.8886 32.9999 38.8727C33.2125 38.7426 33.3811 38.5516 33.4837 38.3244C33.903 37.5664 34.2739 36.7924 34.7254 36.0667C34.9995 35.599 35.6123 35.5668 36.1768 35.9216C36.7412 36.2763 36.7412 36.5505 36.4509 37.1149C35.9994 37.9857 35.5156 38.8566 35.1124 39.7596C34.8383 40.3886 34.7899 41.1142 35.3543 41.6142C35.9187 42.1141 36.6122 41.9689 37.225 41.6303C38.7124 40.8169 40.027 39.7214 41.0953 38.405C41.5952 37.7922 42.1435 37.2117 42.6273 36.5827C43.1111 35.9538 43.6917 36.3408 44.2077 36.744C44.7237 37.1472 44.6592 37.3729 44.2722 37.889C42.9498 39.6306 41.8694 41.5013 40.8373 43.4203C40.7405 43.6138 40.676 43.8557 40.5954 44.0654L40.7083 44.1783C40.8804 44.1159 41.0476 44.0404 41.2082 43.9525C44.0626 42.098 46.9653 40.3563 50.0616 38.9372C50.2721 38.8265 50.4417 38.6513 50.5454 38.4373C50.8356 37.8728 51.0775 37.2923 51.3678 36.744C52.2386 35.0669 54.4318 34.4863 56.0606 35.0669C56.645 35.3055 57.2063 35.597 57.7377 35.9377C58.3344 36.2763 58.4634 36.2763 58.8504 35.6958C59.2375 35.1152 59.7051 34.9217 60.3663 35.2281C61.0275 35.5345 60.9952 35.7119 60.7856 36.2602C60.4147 37.3245 59.9793 38.3566 59.6729 39.4371C59.4459 40.2478 59.3054 41.0803 59.2536 41.9206C59.173 43.0333 59.7374 43.4042 60.8179 43.1623C62.3337 42.8398 63.6077 41.9689 64.8817 41.1626C66.1557 40.3563 67.1394 39.6467 68.2682 38.8888C68.881 38.4856 69.9938 39.0017 70.026 39.7596C70.0421 40.0177 69.7841 40.3724 69.5583 40.5498C68.8972 41.0497 68.2037 41.4851 67.4942 41.9367C65.6074 43.13 63.7045 44.3718 61.5435 45.0491C60.972 45.2186 60.3815 45.3162 59.7858 45.3394C59.4284 45.3682 59.0707 45.2881 58.7598 45.1096C58.4489 44.9311 58.1994 44.6626 58.0441 44.3395L57.6893 43.6783C57.3668 43.0655 57.2701 43.0655 56.754 43.5332C56.3607 43.9114 55.9283 44.2466 55.4639 44.533C53.9642 45.4522 52.0129 44.5975 51.3517 43.4848C50.9646 42.8398 50.6905 42.1302 50.3518 41.4529L50.2067 41.1304ZM52.029 40.2757C52.029 41.0497 52.1419 41.7916 52.5934 42.4527C53.045 43.1139 53.8351 43.4042 54.6092 42.9365C55.0276 42.673 55.4075 42.3528 55.7381 41.9851C56.4799 41.1626 57.1572 40.2757 57.3668 39.1468C57.4797 38.4534 57.4474 37.7761 56.9475 37.2278C56.0928 36.2925 54.0932 36.2602 53.1901 37.1472C52.287 38.0341 52.0774 39.1146 52.029 40.2757ZM22.6306 38.8727C23.4369 38.7114 24.3078 38.3405 24.9044 37.5181C25.1786 37.1633 25.2431 36.7279 24.9367 36.3731C24.6303 36.0183 24.2755 36.0344 23.9046 36.2118C23.0692 36.5926 22.3831 37.2389 21.9533 38.0502C21.663 38.5824 21.8727 38.8727 22.6306 38.8727ZM32.1613 54.7571C32.1613 55.3377 32.4032 55.4828 32.8225 55.2248C33.0014 55.1068 33.164 54.9658 33.3063 54.8055C34.1345 53.8513 34.7796 52.7524 35.2092 51.5641C35.2365 51.4098 35.2473 51.2531 35.2414 51.0965C35.0802 51.1448 34.8867 51.1448 34.7577 51.2416C33.6772 52.064 32.9192 53.1445 32.3064 54.3217C32.2385 54.4596 32.1897 54.6061 32.1613 54.7571Z" fill="#979796" style="fill:#979796;fill:color(display-p3 0.5922 0.5922 0.5882);fill-opacity:1;"/>
<path d="M16.5041 33.4063C15.9719 33.4063 15.4397 33.3902 14.9237 33.4224C14.4076 33.4547 14.1174 33.5837 13.9883 34.2771C13.4508 37.2874 12.9025 40.3138 12.3435 43.3563C12.2467 43.953 12.1338 44.5496 11.9887 45.1463C11.8435 45.743 11.521 45.9204 11.0211 45.8881C10.5212 45.8559 9.97288 45.5011 9.9245 44.9367C9.89484 44.6732 9.90571 44.4067 9.95675 44.1465C10.5803 40.8889 11.22 37.6314 11.8758 34.3739C12.0371 33.616 11.9887 33.5514 11.1985 33.3902C10.4083 33.2289 10.1341 32.6967 10.4244 32.0194C10.4875 31.8628 10.6011 31.7317 10.7472 31.647C10.8933 31.5623 11.0634 31.5288 11.2307 31.5518C12.3112 31.6163 12.5047 31.1325 12.6982 30.2617C13.3755 26.9235 14.0367 23.5692 14.7947 20.2472C15.0043 19.2635 15.4075 18.2959 15.8268 17.3606C15.9972 16.9481 16.2922 16.5992 16.6704 16.3623C17.0486 16.1254 17.4913 16.0124 17.9368 16.039C18.3823 16.0656 18.8084 16.2305 19.1557 16.5108C19.5031 16.791 19.7543 17.1727 19.8745 17.6025C20.0196 18.1185 20.0357 18.6668 19.6648 19.1022C19.5676 19.2066 19.4504 19.2903 19.3202 19.3485C19.19 19.4067 19.0495 19.4381 18.9069 19.4409C18.7295 19.4409 18.536 19.1506 18.3747 18.9571C18.1903 18.7507 18.0231 18.5295 17.8748 18.2959C17.649 18.5378 17.3104 18.7474 17.2297 19.0216C16.8427 20.4246 16.4718 21.8437 16.1815 23.2628C15.6816 25.6334 15.2462 28.0362 14.7947 30.4229C14.6334 31.2615 14.9398 31.5357 15.7945 31.4711C16.3606 31.4224 16.9309 31.455 17.4878 31.5679C17.9716 31.6647 18.1328 32.1162 18.0361 32.6484C18.0088 32.8651 17.9039 33.0645 17.7408 33.2098C17.5777 33.3551 17.3675 33.4364 17.1491 33.4386H16.5041V33.4063Z" fill="#979796" style="fill:#979796;fill:color(display-p3 0.5922 0.5922 0.5882);fill-opacity:1;"/>
</g>
<defs>
<clipPath id="clip0_2177_21238">
<rect width="78.6644" height="78.6644" fill="white" style="fill:white;fill-opacity:1;" transform="translate(0.248047 0.667969)"/>
</clipPath>
</defs>
</svg>
