<svg width="151" height="80" viewBox="0 0 151 80" fill="none" xmlns="http://www.w3.org/2000/svg">
<path d="M84.3854 68.0024C84.3794 67.3999 84.4988 66.8027 84.7361 66.2489C84.9795 65.6864 85.3379 65.181 85.7881 64.7651C86.2033 64.3532 86.6993 64.0317 87.2449 63.821C87.7846 63.6023 88.3621 63.4922 88.9444 63.4972C89.5442 63.4928 90.1393 63.6026 90.6979 63.821C91.2448 64.0418 91.7405 64.3723 92.1547 64.7921C92.599 65.1967 92.949 65.694 93.1798 66.2489C93.4073 66.8057 93.5264 67.4009 93.5305 68.0024C93.5309 68.5906 93.4305 69.1745 93.2338 69.7289C93.0357 70.2603 92.733 70.7465 92.3435 71.1586C91.9147 71.633 91.3898 72.0107 90.8037 72.2665C90.2177 72.5223 89.5839 72.6505 88.9444 72.6424C88.3425 72.6601 87.7435 72.5516 87.186 72.3239C86.6285 72.0963 86.1247 71.7545 85.7072 71.3205C85.2786 70.8822 84.9411 70.3633 84.7142 69.7937C84.4873 69.2242 84.3756 68.6153 84.3854 68.0024ZM85.7072 68.0293C85.6913 68.9232 86.0309 69.7868 86.6514 70.4303C86.9519 70.7486 87.3165 70.9997 87.721 71.1671C88.1255 71.3344 88.5608 71.4143 88.9984 71.4014C89.4274 71.4101 89.8534 71.328 90.2486 71.1607C90.6437 70.9933 90.9991 70.7444 91.2914 70.4303C91.912 69.7868 92.2516 68.9232 92.2356 68.0293C92.2393 67.601 92.155 67.1765 91.9879 66.7821C91.8209 66.3876 91.5746 66.0317 91.2644 65.7363C90.964 65.4253 90.6033 65.1789 90.2044 65.0119C89.8055 64.8449 89.3768 64.761 88.9444 64.7651C88.5761 64.7599 88.2101 64.824 87.8654 64.954C87.5229 65.0802 87.2038 65.2626 86.9212 65.4935C86.5444 65.8116 86.2407 66.2073 86.0309 66.6535C85.8167 67.0804 85.7059 67.5517 85.7072 68.0293Z" fill="#979796"/>
<path d="M101.685 65.5474C101.685 63.6051 103.573 63.5781 103.573 63.5781H106.783V64.873H103.924C102.952 64.873 103.033 66.1409 103.033 66.1409V67.3819H105.839V68.6498H103.06V70.3223C103.06 71.2935 103.87 71.3205 103.87 71.3205H106.81V72.5884H103.627C103.364 72.589 103.103 72.5354 102.861 72.4308C102.62 72.3262 102.402 72.173 102.223 71.9806C102.043 71.7882 101.905 71.5608 101.817 71.3126C101.729 71.0644 101.693 70.8008 101.712 70.5381V65.5474H101.685Z" fill="#979796"/>
<path d="M98.389 72.5344H97.0401V64.7381H95.1787V63.5781H100.358V64.7381H98.389V72.5344Z" fill="#979796"/>
<path d="M109.21 63.5508V70.268C109.21 71.2392 110.019 71.2662 110.019 71.2662H112.96V72.5341H109.777C109.513 72.5347 109.253 72.4811 109.011 72.3765C108.769 72.2719 108.552 72.1186 108.372 71.9262C108.192 71.7339 108.054 71.5065 107.966 71.2583C107.878 71.0101 107.843 70.7465 107.861 70.4838V63.5508" fill="#979796"/>
<path d="M114.032 69.7833H115.219C115.208 69.9956 115.245 70.2076 115.327 70.4038C115.406 70.5831 115.516 70.7474 115.651 70.8894C115.78 71.0218 115.936 71.126 116.108 71.1957C116.279 71.2653 116.464 71.2988 116.649 71.294C116.847 71.3035 117.045 71.2725 117.23 71.203C117.416 71.1334 117.585 71.0267 117.728 70.8894C117.866 70.7415 117.973 70.5674 118.042 70.3774C118.112 70.1874 118.143 69.9854 118.133 69.7833C118.147 69.4436 118.042 69.1096 117.836 68.8391C117.647 68.6233 117.215 68.4075 116.595 68.2187L116.433 68.1647C115.781 68.0433 115.196 67.6884 114.787 67.1666C114.648 66.9682 114.539 66.7499 114.464 66.5191C114.38 66.2851 114.334 66.0392 114.329 65.7908C114.313 65.1109 114.565 64.452 115.03 63.9563C115.262 63.7126 115.543 63.5214 115.855 63.3957C116.167 63.27 116.502 63.2128 116.838 63.228C117.146 63.2164 117.453 63.2678 117.741 63.3792C118.028 63.4905 118.29 63.6594 118.51 63.8754C118.732 64.0888 118.906 64.3461 119.023 64.6308L119.104 64.8466L119.185 65.1433C119.185 65.2243 119.212 65.2782 119.212 65.3591V65.6019H117.998C118.001 65.4338 117.964 65.2673 117.89 65.1163C117.825 64.9743 117.733 64.846 117.62 64.7387C117.511 64.6293 117.38 64.544 117.236 64.4883C117.092 64.4325 116.938 64.4075 116.784 64.4149C116.621 64.414 116.461 64.4471 116.312 64.5122C116.163 64.5772 116.03 64.6728 115.92 64.7926C115.802 64.9186 115.71 65.0671 115.65 65.2292C115.589 65.3914 115.562 65.564 115.57 65.7368C115.576 65.8641 115.594 65.9905 115.624 66.1145C115.653 66.2387 115.719 66.3513 115.813 66.4382C115.974 66.654 116.379 66.8159 116.946 66.9777L117.215 67.0317L117.566 67.1396C118.103 67.3212 118.573 67.6595 118.915 68.1108C119.234 68.5482 119.395 69.0806 119.373 69.6215C119.392 70.0005 119.334 70.3794 119.205 70.736C119.075 71.0926 118.876 71.4199 118.618 71.6987C118.366 71.9654 118.06 72.1755 117.721 72.3151C117.381 72.4546 117.016 72.5204 116.649 72.508C116.298 72.5243 115.948 72.4654 115.623 72.3351C115.297 72.2048 115.003 72.0062 114.76 71.7526C114.514 71.4897 114.322 71.18 114.197 70.8418C114.072 70.5035 114.016 70.1436 114.032 69.7833Z" fill="#979796"/>
<path d="M31.3252 72.5071V63.5508H32.9438L35.8843 70.4568L38.9327 63.5508H40.5782V72.5071H39.2834V65.9517L36.4508 72.5341H35.4526L32.6201 66.0057V72.5341H31.3252V72.5071Z" fill="#979796"/>
<path d="M42.2516 63.5508H43.5465V69.4317C43.5465 71.1313 44.7335 71.3741 45.3 71.3741C45.8665 71.3741 47.1614 71.1043 47.1883 69.4587V63.5508H48.4832V69.162C48.4832 70.7266 47.9977 71.2392 47.5121 71.8057C47.0265 72.3722 46.2442 72.561 45.273 72.561C44.3018 72.561 43.5465 72.2103 43.0609 71.6708C42.5753 71.1313 42.2246 70.6457 42.2246 69.162V63.5508H42.2516Z" fill="#979796"/>
<path d="M53.2884 72.5071H51.9395V64.7108H50.0781V63.5508H55.2577V64.7108H53.2884V72.5071Z" fill="#979796"/>
<path d="M57.7894 72.5344H56.5215V63.5781H57.7894V67.3279H61.701V63.5781H62.9689V72.5344H61.701V68.6498H57.7894V72.5344Z" fill="#979796"/>
<path d="M64.7731 63.5508H66.068V69.4317C66.068 71.1313 67.2549 71.3741 67.8215 71.3741C68.388 71.3741 69.6829 71.1043 69.7098 69.4587V63.5508H71.0047V69.162C71.0047 70.7266 70.5191 71.2392 70.0336 71.8057C69.548 72.3722 68.7656 72.561 67.7945 72.561C66.8233 72.561 66.068 72.2103 65.5824 71.6708C65.0968 71.1313 64.7461 70.6457 64.7461 69.162V63.5508H64.7731Z" fill="#979796"/>
<path d="M77.5902 72.5344H76.3223V63.5781H77.5902V67.3279H81.5018V63.5781H82.7697V72.5344H81.5018V68.6498H77.5902V72.5344Z" fill="#979796"/>
<path d="M8.84863 55.2422H141.844V59.5045H8.84863V55.2422Z" fill="#979796"/>
<path d="M9.01367 50.7112V10.5967H15.1914L29.9477 45.4777L44.6231 10.5967H50.8008V50.7112H46.7812V15.2637L31.8091 50.6842H28.0323L13.0602 15.2637V50.6842H9.01367V50.7112Z" fill="#979796"/>
<path d="M100.139 50.7112V10.5967H106.316L121.073 45.4777L135.748 10.5967H141.926V50.7112H137.906V15.2637L122.934 50.6842H119.157L104.185 15.2637V50.6842H100.139V50.7112Z" fill="#979796"/>
<path d="M69.604 32.1233H96.8506C96.8506 34.9829 96.0143 37.0601 94.8813 39.461C93.6942 41.935 92.0461 44.1599 90.0255 46.0164C85.9969 49.7572 81.0512 51.6366 75.1882 51.6546C69.3253 51.6725 64.2986 49.6493 60.1082 45.5848C56.0616 41.5382 54.0384 36.5116 54.0384 30.5047C54.0233 27.7486 54.5838 25.0197 55.684 22.4926C58.0094 17.3803 62.225 13.3677 67.4459 11.2972C70.0971 10.3227 72.9033 9.83828 75.7278 9.86745C79.7383 9.86745 83.3532 10.8116 86.5724 12.7C89.9339 14.741 92.7048 17.6235 94.6115 21.0628H89.5669C87.6245 18.6619 85.2506 16.6117 83.0115 15.4517C80.6798 14.2743 78.0967 13.6818 75.485 13.7251C70.737 13.7251 66.6995 15.3797 63.3724 18.6889C60.0542 21.98 58.3817 25.9726 58.3817 30.6126C58.3817 35.2526 60.0272 39.6499 63.3184 42.941C66.6096 46.2322 70.6831 47.8778 75.5389 47.8778C79.2592 47.9047 82.8767 46.6576 85.7901 44.3438C88.8115 41.9968 90.7808 39.488 91.698 35.7382H69.604V32.1233Z" fill="#979796"/>
</svg>
