<svg width="30" height="30" viewBox="0 0 30 30" fill="none" xmlns="http://www.w3.org/2000/svg">
<path fill-rule="evenodd" clip-rule="evenodd" d="M15.0007 29.1673C22.8247 29.1673 29.1673 22.8247 29.1673 15.0007C29.1673 7.17662 22.8247 0.833984 15.0007 0.833984C7.17662 0.833984 0.833984 7.17662 0.833984 15.0007C0.833984 22.8247 7.17662 29.1673 15.0007 29.1673ZM16.0632 10.7507C16.0632 10.1638 15.5875 9.68815 15.0007 9.68815C14.4138 9.68815 13.9382 10.1638 13.9382 10.7507L13.9381 13.9382H10.7507C10.1638 13.9382 9.68815 14.4139 9.68815 15.0007C9.68815 15.5875 10.1638 16.0632 10.7507 16.0632H13.9381V19.2507C13.9381 19.8375 14.4138 20.3132 15.0006 20.3132C15.5875 20.3132 16.0631 19.8375 16.0631 19.2507L16.0632 16.0632H19.2507C19.8375 16.0632 20.3132 15.5875 20.3132 15.0007C20.3132 14.4139 19.8375 13.9382 19.2507 13.9382H16.0632V10.7507Z" fill="white" style="fill:white;fill-opacity:1;"/>
</svg>
